<?xml version="1.0" encoding="utf-8"?>
<!-- Generator: Adobe Illustrator 23.0.1, SVG Export Plug-In . SVG Version: 6.00 Build 0)  -->
<svg version="1.1" id="Layer_1" xmlns="http://www.w3.org/2000/svg" xmlns:xlink="http://www.w3.org/1999/xlink" x="0px" y="0px"
	 viewBox="0 0 1080 1080" style="enable-background:new 0 0 1080 1080;" xml:space="preserve">
<style type="text/css">
	.st0{fill:#005EA5;stroke:#000000;stroke-miterlimit:10;}
	.st1{fill:#FFFFFF;}
	.st2{fill:#007BFF;}
</style>
<rect x="0.5" y="-0.5" class="st0" width="1080" height="1080"/>
<g>
	<path class="st1" d="M149.4,219.7c0,3.2-0.8,6-2.4,8.5c-1.6,2.5-3.9,4.4-7,5.8c-3,1.4-6.6,2.1-10.7,2.1c-3.4,0-6.3-0.2-8.6-0.7
		s-4.7-1.3-7.2-2.5v-12.4c2.6,1.4,5.4,2.4,8.2,3.2c2.9,0.8,5.5,1.1,7.9,1.1c2.1,0,3.6-0.4,4.5-1.1c1-0.7,1.4-1.6,1.4-2.8
		c0-0.7-0.2-1.3-0.6-1.8c-0.4-0.5-1-1.1-1.9-1.6c-0.9-0.5-3.1-1.6-6.8-3.3c-3.3-1.5-5.9-3-7.5-4.4c-1.7-1.4-2.9-3.1-3.7-4.9
		c-0.8-1.8-1.2-4-1.2-6.6c0-4.7,1.7-8.4,5.2-11.1c3.4-2.6,8.2-4,14.2-4c5.3,0,10.7,1.2,16.3,3.7l-4.2,10.7
		c-4.8-2.2-8.9-3.3-12.4-3.3c-1.8,0-3.1,0.3-3.9,0.9c-0.8,0.6-1.2,1.4-1.2,2.4c0,1,0.5,1.9,1.6,2.7c1,0.8,3.9,2.2,8.5,4.4
		c4.4,2,7.5,4.1,9.2,6.4C148.6,213.4,149.4,216.2,149.4,219.7z"/>
	<path class="st1" d="M188.9,235.3l-2.5-9.6h-16.7l-2.6,9.6h-15.2l16.7-51.5h18.5l17,51.5H188.9z M183.5,214.3l-2.2-8.4
		c-0.5-1.9-1.1-4.3-1.9-7.3c-0.7-3-1.2-5.1-1.5-6.4c-0.2,1.2-0.6,3.2-1.2,5.9c-0.6,2.7-2,8.1-4.1,16.2H183.5z"/>
	<path class="st1" d="M238.4,184h15.5l-16.8,51.3h-16.3L204,184h15.6l7,26c1.5,5.8,2.2,9.8,2.4,12.1c0.2-1.6,0.5-3.7,1-6.1
		c0.5-2.5,0.9-4.4,1.3-5.8L238.4,184z"/>
	<path class="st1" d="M289.9,235.3h-30.5V184h30.5v11.1h-16.6v8.1h15.4v11.1h-15.4v9.7h16.6V235.3z"/>
	<path class="st1" d="M366.4,235.3h-18.2l-18.7-36.2h-0.3c0.4,5.7,0.7,10,0.7,13v23.1h-12.3V184h18.1l18.7,35.7h0.2
		c-0.3-5.2-0.5-9.3-0.5-12.5V184h12.4V235.3z"/>
	<path class="st1" d="M425.6,209.5c0,8.6-2.1,15.2-6.4,19.7c-4.2,4.5-10.4,6.7-18.6,6.7c-8.1,0-14.2-2.3-18.5-6.8
		c-4.3-4.5-6.4-11.1-6.4-19.7c0-8.5,2.1-15.1,6.4-19.6c4.3-4.5,10.5-6.8,18.6-6.8c8.2,0,14.4,2.2,18.6,6.7
		C423.4,194.3,425.6,200.9,425.6,209.5z M390.2,209.5c0,9.9,3.5,14.9,10.4,14.9c3.5,0,6.1-1.2,7.8-3.6c1.7-2.4,2.5-6.2,2.5-11.3
		c0-5.1-0.9-8.9-2.6-11.4c-1.7-2.4-4.3-3.7-7.7-3.7C393.7,194.5,390.2,199.5,390.2,209.5z"/>
	<path class="st1" d="M490.2,235.3h-16.4l-4.9-22.4c-0.2-0.9-0.6-2.8-1.1-5.6c-0.5-2.8-0.9-5.1-1.1-7c-0.2,1.5-0.5,3.4-0.9,5.7
		c-0.4,2.3-0.8,4.3-1.2,6.2c-0.4,1.9-2.1,9.6-5.1,23h-16.4L430.4,184h13.4l5.6,25.7c1.3,5.7,2.1,10.2,2.6,13.6
		c0.3-2.4,0.8-5.6,1.6-9.7c0.8-4.1,1.5-7.5,2.2-10.2l4.5-19.4h12.8l4.4,19.4c0.7,3.1,1.5,6.7,2.3,10.8c0.8,4.1,1.3,7.1,1.5,9.1
		c0.3-2.6,1.1-7.1,2.5-13.5l5.7-25.8h13.4L490.2,235.3z"/>
	<path class="st1" d="M521.5,224.8l0.5,0.8c-2.3,8.9-4.3,15.5-6.2,19.7H506c0.7-3.2,1.4-6.9,2.1-10.9s1.2-7.2,1.4-9.6H521.5z"/>
	<path class="st1" d="M569.1,225.1c1.8,0,4.1-0.5,6.6-1.4v10c-1.8,0.8-3.6,1.4-5.3,1.7c-1.7,0.3-3.6,0.5-5.9,0.5
		c-4.6,0-7.9-1.1-10-3.4c-2-2.3-3.1-5.7-3.1-10.4v-16.4h-4.8v-5.6l6.1-4.3l3.5-8.4h9v8h9.8v10.3h-9.8v15.5
		C565.4,223.8,566.6,225.1,569.1,225.1z"/>
	<path class="st1" d="M606.7,194.8c1.2,0,2.3,0.1,3.4,0.3l0.8,0.1l-1.2,13c-1.1-0.3-2.7-0.4-4.7-0.4c-3,0-5.2,0.7-6.5,2.1
		s-2,3.3-2,5.9v19.6h-13.7v-39.8h10.2l2.1,6.4h0.7c1.1-2.1,2.7-3.8,4.8-5.1C602.5,195.5,604.6,194.8,606.7,194.8z"/>
	<path class="st1" d="M642.4,235.3l-2.6-5.3h-0.3c-1.8,2.3-3.7,3.9-5.7,4.7c-1.9,0.8-4.4,1.3-7.4,1.3c-3.7,0-6.7-1.1-8.8-3.4
		s-3.2-5.4-3.2-9.5c0-4.2,1.5-7.4,4.4-9.5c2.9-2.1,7.2-3.2,12.8-3.5l6.6-0.2v-0.6c0-3.3-1.6-4.9-4.8-4.9c-2.9,0-6.6,1-11.1,2.9
		l-4-9.1c4.6-2.4,10.5-3.6,17.6-3.6c5.1,0,9.1,1.3,11.8,3.8c2.8,2.5,4.2,6.1,4.2,10.6v26.1H642.4z M632.2,226.3
		c1.7,0,3.1-0.5,4.3-1.6c1.2-1.1,1.8-2.4,1.8-4.1v-3.1l-3.2,0.1c-4.5,0.2-6.8,1.8-6.8,5C628.3,225.1,629.6,226.3,632.2,226.3z"/>
	<path class="st1" d="M671.6,235.3l-15.2-39.8h14.3l6.7,23.5c0,0.1,0.1,0.3,0.1,0.6s0.1,0.6,0.2,1c0.1,0.4,0.1,0.8,0.2,1.2
		s0.1,0.8,0.1,1.2h0.2c0-1.2,0.2-2.5,0.6-4l7.1-23.6h14.3l-15.2,39.8H671.6z"/>
	<path class="st1" d="M724.3,236c-6.6,0-11.8-1.8-15.4-5.3c-3.7-3.5-5.5-8.5-5.5-15c0-6.7,1.7-11.9,5.1-15.5
		c3.4-3.6,8.2-5.4,14.5-5.4c6,0,10.6,1.6,13.9,4.7c3.3,3.1,4.9,7.6,4.9,13.5v6.1h-24.5c0.1,2.2,0.9,4,2.4,5.2
		c1.5,1.3,3.6,1.9,6.3,1.9c2.4,0,4.6-0.2,6.7-0.7c2-0.5,4.2-1.2,6.6-2.3v9.9c-2.2,1.1-4.4,1.9-6.7,2.3
		C730.2,235.8,727.5,236,724.3,236z M723.5,204.1c-1.6,0-3,0.5-4.1,1.5s-1.7,2.6-1.9,4.8h11.8c0-1.9-0.6-3.5-1.6-4.6
		C726.7,204.7,725.3,204.1,723.5,204.1z"/>
	<path class="st1" d="M763.3,235.3h-13.7v-54.6h13.7V235.3z"/>
	<path class="st1" d="M805.2,235.3h-13.7v-54.6h13.7V235.3z"/>
	<path class="st1" d="M840.6,235.3L838,230h-0.3c-1.8,2.3-3.7,3.9-5.7,4.7c-1.9,0.8-4.4,1.3-7.4,1.3c-3.7,0-6.7-1.1-8.8-3.4
		s-3.2-5.4-3.2-9.5c0-4.2,1.5-7.4,4.4-9.5c2.9-2.1,7.2-3.2,12.8-3.5l6.6-0.2v-0.6c0-3.3-1.6-4.9-4.8-4.9c-2.9,0-6.6,1-11.1,2.9
		l-4-9.1c4.6-2.4,10.5-3.6,17.6-3.6c5.1,0,9.1,1.3,11.8,3.8c2.8,2.5,4.2,6.1,4.2,10.6v26.1H840.6z M830.5,226.3
		c1.7,0,3.1-0.5,4.3-1.6c1.2-1.1,1.8-2.4,1.8-4.1v-3.1l-3.2,0.1c-4.5,0.2-6.8,1.8-6.8,5C826.6,225.1,827.9,226.3,830.5,226.3z"/>
	<path class="st1" d="M879,225.1c1.8,0,4.1-0.5,6.6-1.4v10c-1.8,0.8-3.6,1.4-5.3,1.7c-1.7,0.3-3.6,0.5-5.9,0.5
		c-4.6,0-7.9-1.1-10-3.4c-2-2.3-3.1-5.7-3.1-10.4v-16.4h-4.8v-5.6l6.1-4.3l3.5-8.4h9v8h9.8v10.3h-9.8v15.5
		C875.3,223.8,876.5,225.1,879,225.1z"/>
	<path class="st1" d="M911.8,236c-6.6,0-11.8-1.8-15.4-5.3c-3.7-3.5-5.5-8.5-5.5-15c0-6.7,1.7-11.9,5.1-15.5
		c3.4-3.6,8.2-5.4,14.5-5.4c6,0,10.6,1.6,13.9,4.7c3.3,3.1,4.9,7.6,4.9,13.5v6.1h-24.5c0.1,2.2,0.9,4,2.4,5.2s3.6,1.9,6.3,1.9
		c2.4,0,4.6-0.2,6.7-0.7c2-0.5,4.2-1.2,6.6-2.3v9.9c-2.2,1.1-4.4,1.9-6.7,2.3C917.7,235.8,914.9,236,911.8,236z M911,204.1
		c-1.6,0-3,0.5-4.1,1.5c-1.1,1-1.7,2.6-1.9,4.8h11.8c0-1.9-0.6-3.5-1.6-4.6C914.1,204.7,912.7,204.1,911,204.1z"/>
	<path class="st1" d="M961,194.8c1.2,0,2.3,0.1,3.4,0.3l0.8,0.1l-1.2,13c-1.1-0.3-2.7-0.4-4.7-0.4c-3,0-5.2,0.7-6.5,2.1
		s-2,3.3-2,5.9v19.6H937v-39.8h10.2l2.1,6.4h0.7c1.1-2.1,2.7-3.8,4.8-5.1C956.9,195.5,958.9,194.8,961,194.8z"/>
	<path class="st1" d="M136.5,291.5h22.1v27.7c-6,2.1-12.6,3.1-19.8,3.1c-7.9,0-14-2.3-18.3-6.9c-4.3-4.6-6.5-11.1-6.5-19.6
		c0-8.3,2.4-14.7,7.1-19.3c4.7-4.6,11.3-6.9,19.9-6.9c3.2,0,6.3,0.3,9.1,0.9c2.9,0.6,5.4,1.4,7.5,2.3l-4.4,10.9
		c-3.7-1.8-7.8-2.7-12.2-2.7c-4,0-7.2,1.3-9.4,3.9s-3.3,6.4-3.3,11.3c0,4.8,1,8.5,3,11c2,2.5,4.9,3.8,8.7,3.8c2.1,0,4-0.2,5.7-0.6
		v-8h-9.2V291.5z"/>
	<path class="st1" d="M187.5,322.2c-6.6,0-11.8-1.8-15.4-5.3c-3.7-3.5-5.5-8.5-5.5-15c0-6.7,1.7-11.9,5.1-15.5
		c3.4-3.6,8.2-5.4,14.5-5.4c6,0,10.6,1.6,13.9,4.7c3.3,3.1,4.9,7.6,4.9,13.5v6.1h-24.5c0.1,2.2,0.9,4,2.4,5.2
		c1.5,1.3,3.6,1.9,6.3,1.9c2.4,0,4.6-0.2,6.7-0.7c2-0.5,4.2-1.2,6.6-2.3v9.9c-2.2,1.1-4.4,1.9-6.7,2.3
		C193.4,322,190.7,322.2,187.5,322.2z M186.7,290.4c-1.6,0-3,0.5-4.1,1.5c-1.1,1-1.7,2.6-1.9,4.8h11.8c0-1.9-0.6-3.5-1.6-4.6
		C189.8,291,188.4,290.4,186.7,290.4z"/>
	<path class="st1" d="M232.2,311.4c1.8,0,4.1-0.5,6.6-1.4v10c-1.8,0.8-3.6,1.4-5.3,1.7c-1.7,0.3-3.6,0.5-5.9,0.5
		c-4.6,0-7.9-1.1-10-3.4c-2-2.3-3.1-5.7-3.1-10.4v-16.4h-4.8v-5.6l6.1-4.3l3.5-8.4h9v8h9.8v10.3h-9.8v15.5
		C228.5,310.1,229.7,311.4,232.2,311.4z"/>
	<path class="st1" d="M292.8,321.5l-1.7-4.9h-0.8c-1.1,1.8-2.7,3.2-4.8,4.2c-2,1-4.5,1.5-7.2,1.5c-4.4,0-7.8-1.3-10.2-3.8
		c-2.4-2.5-3.7-6.1-3.7-10.8v-25.9h13.7v21.7c0,2.6,0.4,4.6,1.1,5.9c0.7,1.3,1.9,2,3.6,2c2.4,0,4-0.9,5.1-2.8s1.5-5,1.5-9.4v-17.4
		h13.7v39.8H292.8z"/>
	<path class="st1" d="M336.5,322.2c-2,0-3.8-0.3-5.4-1c-1.6-0.7-3.2-1.9-4.7-3.6h-0.6c0.4,2.8,0.6,4.5,0.6,5.2v16h-13.7v-57h11.2
		l1.9,5.1h0.6c2.6-3.8,6.1-5.8,10.6-5.8c4.4,0,7.9,1.8,10.4,5.5c2.5,3.7,3.8,8.7,3.8,15c0,6.4-1.3,11.5-3.9,15.1
		C344.5,320.4,341,322.2,336.5,322.2z M331.9,291.8c-2,0-3.4,0.7-4.2,2.2c-0.8,1.4-1.2,3.6-1.3,6.4v1.1c0,3.4,0.5,5.9,1.4,7.4
		c0.9,1.5,2.4,2.3,4.3,2.3c1.8,0,3-0.8,3.8-2.3c0.8-1.5,1.2-4,1.2-7.5c0-3.4-0.4-5.9-1.2-7.4C335.1,292.6,333.7,291.8,331.9,291.8z"
		/>
	<path class="st1" d="M397,311.4c1.8,0,4.1-0.5,6.6-1.4v10c-1.8,0.8-3.6,1.4-5.3,1.7c-1.7,0.3-3.6,0.5-5.9,0.5
		c-4.6,0-7.9-1.1-10-3.4c-2-2.3-3.1-5.7-3.1-10.4v-16.4h-4.8v-5.6l6.1-4.3l3.5-8.4h9v8h9.8v10.3h-9.8v15.5
		C393.3,310.1,394.5,311.4,397,311.4z"/>
	<path class="st1" d="M448.6,301.6c0,6.5-1.7,11.6-5.2,15.2c-3.5,3.6-8.4,5.5-14.7,5.5c-6,0-10.8-1.9-14.4-5.6
		c-3.6-3.7-5.4-8.8-5.4-15.1c0-6.5,1.7-11.5,5.2-15.1c3.5-3.6,8.4-5.4,14.7-5.4c3.9,0,7.4,0.8,10.4,2.5c3,1.7,5.3,4,6.9,7.1
		C447.8,293.8,448.6,297.4,448.6,301.6z M422.8,301.6c0,3.4,0.5,6,1.4,7.8c0.9,1.8,2.4,2.7,4.6,2.7c2.1,0,3.6-0.9,4.5-2.7
		c0.9-1.8,1.3-4.4,1.3-7.8c0-3.4-0.4-6-1.3-7.7c-0.9-1.7-2.4-2.6-4.6-2.6c-2.1,0-3.6,0.9-4.5,2.6S422.8,298.2,422.8,301.6z"/>
</g>
<g>
	<path class="st2" d="M252.2,534.4c21.7,0,41.4,5,58.9,15.1c17.5,10.1,31.1,24.4,40.9,42.8c9.7,18.5,14.6,39.8,14.6,63.9
		c0,42.3-12.7,74.7-38.2,97.3c-25.5,22.6-64,33.9-115.5,33.9c-44.2,0-80.2-6.8-108.2-20.4v-83.8c15,6.9,32,12.6,50.9,17.1
		c18.9,4.5,35.2,6.7,48.8,6.7c19,0,33.6-4,43.7-12c10.2-8,15.3-19.9,15.3-35.6c0-14.5-5.2-25.8-15.5-33.9
		c-10.4-8.1-26.1-12.2-47.1-12.2c-16,0-33.4,3-52,9.1l-37.5-18.6L125.4,404h215.8v85.1H212.3l-4.7,49.9c13.5-2.6,23-4,28.7-4.3
		S247.3,534.4,252.2,534.4z"/>
	<path class="st2" d="M682.8,593.7c0,66.9-11.2,116-33.6,147.1c-22.4,31.1-56.8,46.7-103,46.7c-45.2,0-79.3-16.3-102.2-48.8
		c-22.9-32.5-34.4-80.9-34.4-145.1c0-67.3,11.2-116.6,33.6-148c22.4-31.4,56.8-47.1,103-47.1c45,0,79.1,16.3,102.1,49
		C671.3,480.3,682.8,529,682.8,593.7z M511.2,593.7c0,42.8,2.7,72.2,8,88.2c5.3,16,14.3,24.1,26.9,24.1c12.8,0,21.8-8.3,27-24.8
		c5.3-16.6,7.9-45.7,7.9-87.5c0-41.9-2.7-71.3-8-88.1c-5.3-16.8-14.3-25.2-26.9-25.2c-12.6,0-21.6,8.1-26.9,24.3
		C513.9,520.9,511.2,550.6,511.2,593.7z"/>
</g>
<g>
	<path class="st2" d="M829.2,486.7c0,24-4.3,41.9-12.9,54s-21.3,18-38,18c-15.8,0-28.1-6.2-36.8-18.7c-8.7-12.4-13-30.2-13-53.3
		c0-47.6,16.6-71.4,49.8-71.4c16.3,0,28.9,6.2,37.7,18.5C824.8,446.2,829.2,463.8,829.2,486.7z M758.9,487c0,15.5,1.5,27.1,4.5,34.7
		c3,7.6,8,11.4,14.8,11.4c13.7,0,20.6-15.4,20.6-46.1c0-30.7-6.9-46.1-20.6-46.1c-6.9,0-11.8,3.8-14.8,11.4
		C760.4,459.9,758.9,471.5,758.9,487z M931.5,418.6L804.8,647h-30.3l126.7-228.3H931.5z M977.9,578.2c0,23.9-4.3,41.9-13,53.9
		c-8.6,12-21.2,18-37.8,18c-15.8,0-28.1-6.2-36.9-18.5c-8.7-12.3-13.1-30.1-13.1-53.3c0-47.6,16.7-71.4,50-71.4
		c16,0,28.5,6.1,37.4,18.4C973.4,537.6,977.9,555.2,977.9,578.2z M907.6,578.2c0,15.5,1.5,27.1,4.6,34.8c3.1,7.7,8,11.6,14.9,11.6
		c13.6,0,20.5-15.5,20.5-46.4c0-30.5-6.8-45.8-20.5-45.8c-6.9,0-11.8,3.7-14.9,11.2C909.1,551.2,907.6,562.7,907.6,578.2z"/>
</g>
<g>
	<path class="st1" d="M816.4,734.6c0,17.9-4.4,31.5-13.2,40.8c-8.8,9.3-21.6,14-38.6,14c-16.7,0-29.5-4.7-38.4-14
		c-8.9-9.4-13.4-23-13.4-40.9c0-17.7,4.4-31.2,13.3-40.6s21.7-14,38.6-14c16.9,0,29.8,4.6,38.5,13.9S816.4,716.7,816.4,734.6z
		 M743.2,734.6c0,20.6,7.2,30.8,21.5,30.8c7.3,0,12.7-2.5,16.2-7.5c3.5-5,5.3-12.8,5.3-23.4c0-10.6-1.8-18.5-5.3-23.5
		s-8.9-7.6-16-7.6C750.4,703.5,743.2,713.8,743.2,734.6z"/>
	<path class="st1" d="M863.9,787.9h-28.3V681.6h62.9v23.1h-34.6v20.3h31.9V748h-31.9V787.9z"/>
	<path class="st1" d="M944.2,787.9h-28.3V681.6h62.9v23.1h-34.6v20.3H976V748h-31.9V787.9z"/>
</g>
<g>
	<path class="st1" d="M110.4,864.4h5.8l7.9,20.4c1.7,4.7,2.8,8,3.2,10.1h0.3c0.3-1.1,0.9-3,1.8-5.7c0.9-2.7,3.9-11,8.9-24.8h5.8
		l-15.4,40.8c-1.5,4-3.3,6.9-5.3,8.6c-2,1.7-4.5,2.5-7.5,2.5c-1.7,0-3.3-0.2-4.9-0.6v-4.4c1.2,0.3,2.5,0.4,4,0.4
		c3.7,0,6.4-2.1,8-6.3l2-5.1L110.4,864.4z"/>
	<path class="st1" d="M180.8,882.3c0,5.8-1.5,10.4-4.4,13.7c-2.9,3.3-7,4.9-12.2,4.9c-3.2,0-6.1-0.8-8.5-2.3s-4.4-3.7-5.8-6.5
		c-1.4-2.8-2-6.1-2-9.9c0-5.8,1.5-10.4,4.4-13.7c2.9-3.3,7-4.9,12.2-4.9c5,0,9,1.7,12,5C179.3,872.1,180.8,876.6,180.8,882.3z
		 M153.5,882.3c0,4.6,0.9,8.1,2.7,10.5c1.8,2.4,4.5,3.6,8.1,3.6c3.6,0,6.3-1.2,8.1-3.6c1.8-2.4,2.8-5.9,2.8-10.5
		c0-4.6-0.9-8-2.8-10.4c-1.8-2.4-4.6-3.5-8.2-3.5c-3.6,0-6.2,1.2-8,3.5C154.4,874.2,153.5,877.7,153.5,882.3z"/>
	<path class="st1" d="M195.4,864.4v23.3c0,2.9,0.7,5.1,2,6.5c1.3,1.4,3.4,2.2,6.2,2.2c3.8,0,6.5-1,8.2-3.1c1.7-2,2.6-5.4,2.6-10
		v-18.8h5.4v35.9h-4.5l-0.8-4.8h-0.3c-1.1,1.8-2.7,3.1-4.6,4.1c-2,0.9-4.2,1.4-6.8,1.4c-4.4,0-7.6-1-9.8-3.1
		c-2.2-2.1-3.3-5.4-3.3-9.9v-23.5H195.4z"/>
	<path class="st1" d="M247.8,863.8c1.6,0,3,0.1,4.3,0.4l-0.8,5c-1.5-0.3-2.8-0.5-3.9-0.5c-2.9,0-5.4,1.2-7.4,3.5
		c-2.1,2.4-3.1,5.3-3.1,8.8v19.2h-5.4v-35.9h4.5l0.6,6.6h0.3c1.3-2.3,2.9-4.1,4.8-5.4C243.5,864.4,245.6,863.8,247.8,863.8z"/>
	<path class="st1" d="M292.4,868.6h-9.1v31.6h-5.4v-31.6h-6.4v-2.5l6.4-2v-2c0-8.8,3.8-13.2,11.5-13.2c1.9,0,4.1,0.4,6.7,1.1
		l-1.4,4.4c-2.1-0.7-3.9-1-5.4-1c-2.1,0-3.6,0.7-4.5,2c-1,1.4-1.5,3.5-1.5,6.6v2.3h9.1V868.6z"/>
	<path class="st1" d="M304,864.4v23.3c0,2.9,0.7,5.1,2,6.5c1.3,1.4,3.4,2.2,6.2,2.2c3.8,0,6.5-1,8.2-3.1c1.7-2,2.6-5.4,2.6-10v-18.8
		h5.4v35.9H324l-0.8-4.8h-0.3c-1.1,1.8-2.7,3.1-4.6,4.1c-2,0.9-4.2,1.4-6.8,1.4c-4.4,0-7.6-1-9.8-3.1c-2.2-2.1-3.3-5.4-3.3-9.9
		v-23.5H304z"/>
	<path class="st1" d="M351.6,896.4c1,0,1.9-0.1,2.8-0.2c0.9-0.1,1.6-0.3,2.1-0.4v4.2c-0.6,0.3-1.5,0.5-2.6,0.7
		c-1.1,0.2-2.2,0.3-3.1,0.3c-6.9,0-10.4-3.7-10.4-11v-21.3h-5.1V866l5.1-2.3l2.3-7.7h3.1v8.3h10.4v4.2h-10.4v21.1
		c0,2.2,0.5,3.8,1.5,5C348.4,895.9,349.8,896.4,351.6,896.4z"/>
	<path class="st1" d="M368.8,864.4v23.3c0,2.9,0.7,5.1,2,6.5c1.3,1.4,3.4,2.2,6.2,2.2c3.8,0,6.5-1,8.2-3.1c1.7-2,2.6-5.4,2.6-10
		v-18.8h5.4v35.9h-4.5l-0.8-4.8h-0.3c-1.1,1.8-2.7,3.1-4.6,4.1c-2,0.9-4.2,1.4-6.8,1.4c-4.4,0-7.6-1-9.8-3.1
		c-2.2-2.1-3.3-5.4-3.3-9.9v-23.5H368.8z"/>
	<path class="st1" d="M421.2,863.8c1.6,0,3,0.1,4.3,0.4l-0.8,5c-1.5-0.3-2.8-0.5-3.9-0.5c-2.9,0-5.4,1.2-7.4,3.5
		c-2.1,2.4-3.1,5.3-3.1,8.8v19.2h-5.4v-35.9h4.5l0.6,6.6h0.3c1.3-2.3,2.9-4.1,4.8-5.4C416.8,864.4,418.9,863.8,421.2,863.8z"/>
	<path class="st1" d="M447.3,900.9c-5.3,0-9.5-1.6-12.5-4.8c-3.1-3.2-4.6-7.7-4.6-13.4c0-5.8,1.4-10.4,4.3-13.8
		c2.8-3.4,6.7-5.1,11.5-5.1c4.5,0,8,1.5,10.7,4.4c2.6,3,3.9,6.9,3.9,11.7v3.4h-24.7c0.1,4.2,1.2,7.4,3.2,9.6c2,2.2,4.9,3.3,8.5,3.3
		c3.9,0,7.7-0.8,11.5-2.4v4.8c-1.9,0.8-3.7,1.4-5.4,1.8C451.8,900.8,449.7,900.9,447.3,900.9z M445.8,868.3c-2.9,0-5.2,0.9-6.9,2.8
		c-1.7,1.9-2.7,4.5-3,7.8h18.7c0-3.4-0.8-6-2.3-7.9C450.8,869.2,448.7,868.3,445.8,868.3z"/>
	<path class="st1" d="M511.7,900.3v-23.2c0-2.9-0.7-5.1-2-6.5c-1.3-1.4-3.4-2.2-6.2-2.2c-3.8,0-6.5,1-8.3,3.1
		c-1.7,2.1-2.6,5.4-2.6,10.1v18.7h-5.4v-50.9h5.4v15.4c0,1.9-0.1,3.4-0.3,4.6h0.3c1.1-1.7,2.6-3.1,4.6-4.1c2-1,4.2-1.5,6.8-1.5
		c4.4,0,7.7,1,9.9,3.1c2.2,2.1,3.3,5.4,3.3,9.9v23.4H511.7z"/>
	<path class="st1" d="M559.2,882.3c0,5.8-1.5,10.4-4.4,13.7c-2.9,3.3-7,4.9-12.2,4.9c-3.2,0-6.1-0.8-8.5-2.3s-4.4-3.7-5.8-6.5
		c-1.4-2.8-2-6.1-2-9.9c0-5.8,1.5-10.4,4.4-13.7c2.9-3.3,7-4.9,12.2-4.9c5,0,9,1.7,12,5S559.2,876.6,559.2,882.3z M531.9,882.3
		c0,4.6,0.9,8.1,2.7,10.5c1.8,2.4,4.5,3.6,8.1,3.6c3.6,0,6.3-1.2,8.1-3.6c1.8-2.4,2.8-5.9,2.8-10.5c0-4.6-0.9-8-2.8-10.4
		c-1.8-2.4-4.6-3.5-8.2-3.5c-3.6,0-6.2,1.2-8,3.5C532.8,874.2,531.9,877.7,531.9,882.3z"/>
	<path class="st1" d="M574.2,900.3h-5.4v-50.9h5.4V900.3z"/>
	<path class="st1" d="M585.2,854.7c0-1.2,0.3-2.2,0.9-2.7c0.6-0.6,1.4-0.9,2.3-0.9c0.9,0,1.6,0.3,2.3,0.9c0.6,0.6,0.9,1.5,0.9,2.7
		c0,1.2-0.3,2.1-0.9,2.7c-0.6,0.6-1.4,0.9-2.3,0.9c-0.9,0-1.7-0.3-2.3-0.9S585.2,855.9,585.2,854.7z M591.1,900.3h-5.4v-35.9h5.4
		V900.3z"/>
	<path class="st1" d="M627,895.5h-0.3c-2.5,3.6-6.3,5.5-11.3,5.5c-4.7,0-8.3-1.6-10.9-4.8s-3.9-7.8-3.9-13.7s1.3-10.5,3.9-13.8
		s6.3-4.9,10.9-4.9c4.9,0,8.6,1.8,11.2,5.3h0.4l-0.2-2.6l-0.1-2.5v-14.6h5.4v50.9h-4.4L627,895.5z M616.2,896.4c3.7,0,6.4-1,8.1-3
		c1.7-2,2.5-5.3,2.5-9.8v-1.1c0-5.1-0.8-8.7-2.5-10.9c-1.7-2.2-4.4-3.3-8.1-3.3c-3.2,0-5.6,1.2-7.3,3.7c-1.7,2.5-2.5,6-2.5,10.5
		c0,4.6,0.8,8,2.5,10.4C610.5,895.2,612.9,896.4,616.2,896.4z"/>
	<path class="st1" d="M665.7,900.3l-1.1-5.1h-0.3c-1.8,2.2-3.6,3.8-5.3,4.6c-1.8,0.8-4,1.2-6.7,1.2c-3.6,0-6.3-0.9-8.4-2.7
		s-3-4.4-3-7.8c0-7.2,5.8-11,17.4-11.4l6.1-0.2v-2.2c0-2.8-0.6-4.9-1.8-6.2s-3.1-2-5.8-2c-3,0-6.4,0.9-10.1,2.7l-1.7-4.2
		c1.8-1,3.7-1.7,5.8-2.3s4.2-0.8,6.3-0.8c4.3,0,7.4,0.9,9.5,2.8s3.1,4.9,3.1,9.1v24.5H665.7z M653.5,896.4c3.4,0,6-0.9,8-2.8
		c1.9-1.9,2.9-4.4,2.9-7.8v-3.2l-5.4,0.2c-4.3,0.2-7.4,0.8-9.3,2c-1.9,1.2-2.9,3-2.9,5.5c0,2,0.6,3.5,1.8,4.5
		S651.3,896.4,653.5,896.4z"/>
	<path class="st1" d="M675.2,864.4h5.8l7.9,20.4c1.7,4.7,2.8,8,3.2,10.1h0.3c0.3-1.1,0.9-3,1.8-5.7c0.9-2.7,3.9-11,8.9-24.8h5.8
		l-15.4,40.8c-1.5,4-3.3,6.9-5.3,8.6c-2,1.7-4.5,2.5-7.5,2.5c-1.7,0-3.3-0.2-4.9-0.6v-4.4c1.2,0.3,2.5,0.4,4,0.4
		c3.7,0,6.4-2.1,8-6.3l2-5.1L675.2,864.4z"/>
	<path class="st1" d="M743.7,896.4c1,0,1.9-0.1,2.8-0.2c0.9-0.1,1.6-0.3,2.1-0.4v4.2c-0.6,0.3-1.5,0.5-2.6,0.7s-2.2,0.3-3.1,0.3
		c-6.9,0-10.4-3.7-10.4-11v-21.3h-5.1V866l5.1-2.3l2.3-7.7h3.1v8.3h10.4v4.2h-10.4v21.1c0,2.2,0.5,3.8,1.5,5
		C740.5,895.9,741.9,896.4,743.7,896.4z"/>
	<path class="st1" d="M772.1,863.8c1.6,0,3,0.1,4.3,0.4l-0.8,5c-1.5-0.3-2.8-0.5-3.9-0.5c-2.9,0-5.4,1.2-7.4,3.5
		c-2.1,2.4-3.1,5.3-3.1,8.8v19.2h-5.4v-35.9h4.5l0.6,6.6h0.3c1.3-2.3,2.9-4.1,4.8-5.4C767.8,864.4,769.9,863.8,772.1,863.8z"/>
	<path class="st1" d="M805.2,900.3l-1.1-5.1h-0.3c-1.8,2.2-3.6,3.8-5.3,4.6c-1.8,0.8-4,1.2-6.7,1.2c-3.6,0-6.3-0.9-8.4-2.7
		s-3-4.4-3-7.8c0-7.2,5.8-11,17.4-11.4l6.1-0.2v-2.2c0-2.8-0.6-4.9-1.8-6.2s-3.1-2-5.8-2c-3,0-6.4,0.9-10.1,2.7l-1.7-4.2
		c1.8-1,3.7-1.7,5.8-2.3s4.2-0.8,6.3-0.8c4.3,0,7.4,0.9,9.5,2.8s3.1,4.9,3.1,9.1v24.5H805.2z M792.9,896.4c3.4,0,6-0.9,8-2.8
		c1.9-1.9,2.9-4.4,2.9-7.8v-3.2l-5.4,0.2c-4.3,0.2-7.4,0.8-9.3,2c-1.9,1.2-2.9,3-2.9,5.5c0,2,0.6,3.5,1.8,4.5
		S790.8,896.4,792.9,896.4z"/>
	<path class="st1" d="M844.9,900.3v-23.2c0-2.9-0.7-5.1-2-6.5s-3.4-2.2-6.2-2.2c-3.8,0-6.5,1-8.2,3c-1.7,2-2.6,5.4-2.6,10v18.8h-5.4
		v-35.9h4.4l0.9,4.9h0.3c1.1-1.8,2.7-3.1,4.7-4.1c2-1,4.2-1.5,6.7-1.5c4.3,0,7.6,1,9.7,3.1c2.2,2.1,3.3,5.4,3.3,10v23.4H844.9z"/>
	<path class="st1" d="M884.6,890.5c0,3.3-1.2,5.9-3.7,7.7c-2.5,1.8-6,2.7-10.5,2.7c-4.8,0-8.5-0.8-11.1-2.3v-5
		c1.7,0.9,3.6,1.6,5.5,2.1s3.9,0.8,5.7,0.8c2.8,0,5-0.5,6.5-1.4c1.5-0.9,2.3-2.3,2.3-4.1c0-1.4-0.6-2.6-1.8-3.6s-3.6-2.2-7.1-3.5
		c-3.3-1.2-5.7-2.3-7.1-3.3c-1.4-0.9-2.5-2-3.1-3.2c-0.7-1.2-1-2.6-1-4.2c0-2.9,1.2-5.2,3.6-6.9c2.4-1.7,5.6-2.5,9.8-2.5
		c3.9,0,7.6,0.8,11.3,2.4l-1.9,4.4c-3.6-1.5-6.9-2.2-9.8-2.2c-2.6,0-4.5,0.4-5.8,1.2s-2,1.9-2,3.3c0,1,0.2,1.8,0.7,2.5
		c0.5,0.7,1.3,1.3,2.4,1.9c1.1,0.6,3.2,1.5,6.3,2.6c4.3,1.5,7.1,3.1,8.6,4.7S884.6,888.1,884.6,890.5z"/>
	<path class="st1" d="M909.6,868.6h-9.1v31.6h-5.4v-31.6h-6.4v-2.5l6.4-2v-2c0-8.8,3.8-13.2,11.5-13.2c1.9,0,4.1,0.4,6.7,1.1
		l-1.4,4.4c-2.1-0.7-3.9-1-5.4-1c-2.1,0-3.6,0.7-4.5,2c-1,1.4-1.5,3.5-1.5,6.6v2.3h9.1V868.6z"/>
	<path class="st1" d="M931.3,900.9c-5.3,0-9.5-1.6-12.5-4.8c-3.1-3.2-4.6-7.7-4.6-13.4c0-5.8,1.4-10.4,4.3-13.8
		c2.8-3.4,6.7-5.1,11.5-5.1c4.5,0,8,1.5,10.7,4.4c2.6,3,3.9,6.9,3.9,11.7v3.4h-24.7c0.1,4.2,1.2,7.4,3.2,9.6c2,2.2,4.9,3.3,8.5,3.3
		c3.9,0,7.7-0.8,11.4-2.4v4.8c-1.9,0.8-3.7,1.4-5.4,1.8C935.8,900.8,933.7,900.9,931.3,900.9z M929.8,868.3c-2.9,0-5.2,0.9-6.9,2.8
		c-1.7,1.9-2.7,4.5-3,7.8h18.7c0-3.4-0.8-6-2.3-7.9C934.9,869.2,932.7,868.3,929.8,868.3z"/>
	<path class="st1" d="M970.1,863.8c1.6,0,3,0.1,4.3,0.4l-0.8,5c-1.5-0.3-2.8-0.5-3.9-0.5c-2.9,0-5.4,1.2-7.4,3.5
		c-2.1,2.4-3.1,5.3-3.1,8.8v19.2h-5.4v-35.9h4.5l0.6,6.6h0.3c1.3-2.3,2.9-4.1,4.8-5.4C965.8,864.4,967.9,863.8,970.1,863.8z"/>
</g>
</svg>
