<?xml version="1.0" encoding="utf-8"?>
<!-- Generator: Adobe Illustrator 24.1.0, SVG Export Plug-In . SVG Version: 6.00 Build 0)  -->
<svg version="1.1" id="Capa_1" xmlns="http://www.w3.org/2000/svg" xmlns:xlink="http://www.w3.org/1999/xlink" x="0px" y="0px"
	 viewBox="0 0 1200 630" style="enable-background:new 0 0 1200 630;" xml:space="preserve">
<style type="text/css">
	.st0{fill:#F2F2F2;}
	.st1{fill:#007BFF;}
</style>
<rect x="-0.18" y="0.13" class="st0" width="1200" height="630"/>
<g>
	<path class="st1" d="M403.29,363.76c0,2.93-0.84,3.35-3.77,3.77c-5.45,1.68-21.8,2.52-31.86,2.52c-24.31,0-43.18-6.29-43.18-38.57
		v-98.1c0-2.1,1.68-3.77,3.77-3.77h18.45c2.1,0,3.77,1.68,3.77,3.77v98.51c0,12.58,3.35,15.93,14.67,15.93h34.38
		c2.1,0,3.77,1.68,3.77,3.77C403.29,351.61,403.29,363.76,403.29,363.76z"/>
	<path class="st1" d="M505.57,365.02c0,2.1-1.68,3.77-3.77,3.77h-17.19c-2.1,0-3.77-1.68-3.77-3.77v-4.19
		c-9.64,6.71-17.61,9.22-29.34,9.22c-9.64,0-17.61-2.52-23.06-7.97c-7.13-6.71-9.22-18.45-9.22-33.96v-61.2
		c0-2.1,1.68-3.77,3.77-3.77h17.19c2.1,0,3.77,1.68,3.77,3.77v61.2c0,9.64,0.84,14.67,4.19,18.03c2.93,2.1,5.87,3.35,11.74,3.35
		c7.13,0,15.93-4.61,20.96-7.55v-75.04c0-2.1,1.68-3.77,3.77-3.77h17.19c2.1,0,3.77,1.68,3.77,3.77
		C505.57,266.93,505.57,365.02,505.57,365.02z"/>
	<path class="st1" d="M616.25,319.75c0,3.35-1.26,4.61-3.77,4.61h-61.2v0.42c0,10.9,4.61,23.9,22.64,23.9
		c13.83,0,26.41-1.26,34.38-1.68h0.42c2.1,0,3.35,0.84,3.35,2.93v12.16c0,2.93-0.42,4.19-3.77,5.03
		c-12.16,2.1-19.28,3.35-36.47,3.35c-18.45,0-45.27-10.06-45.27-46.95v-13.83c0-29.34,16.35-47.37,44.86-47.37
		c28.93,0,44.44,19.7,44.44,47.37v10.06H616.25z M591.09,306.33c0-14.67-7.97-23.06-19.7-23.06s-20.12,7.97-20.12,23.06v0.84h39.83
		V306.33z"/>
	<path class="st1" d="M695.48,239.68c0,2.1-1.68,3.35-2.93,3.35h-8.38c-8.8,0-10.9,2.1-10.9,11.32v9.22h18.03
		c2.1,0,3.77,1.68,3.77,3.77v11.32c0,2.1-1.68,3.35-3.77,3.35h-18.03v82.58c0,2.1-1.68,3.77-3.77,3.77H652.3
		c-2.1,0-3.77-1.68-3.77-3.77v-83l-16.77-2.52c-2.1-0.42-3.77-1.68-3.77-3.35v-8.8c0-2.1,1.68-3.77,3.77-3.77h16.77v-9.22
		c0-23.9,13-29.76,32.28-29.76c4.61,0,7.55,0.84,11.32,1.68c1.68,0.42,3.35,1.26,3.35,2.93V239.68z"/>
	<path class="st1" d="M770.1,365.44c0,1.68-1.26,2.93-3.35,3.35c-4.61,0.84-8.38,1.26-12.58,1.26c-20.96,0-29.76-5.03-29.76-29.76
		V281.6l-17.61-2.52c-2.1-0.42-3.77-1.68-3.77-3.77v-8.38c0-2.1,1.68-3.77,3.77-3.77h17.61v-15.51c0-2.1,1.68-3.35,3.77-3.77
		l17.61-2.93h0.84c2.1,0,2.93,0.84,2.93,2.93v19.28h16.77c2.1,0,3.77,1.68,3.77,3.77v10.9c0,2.1-1.68,3.77-3.77,3.77h-16.77v58.69
		c0,9.64,0.42,10.48,7.13,10.48h10.06c2.52,0,3.77,0.84,3.77,2.93v11.74H770.1z"/>
	<path class="st1" d="M874.9,267.34l-31.44,109.41c-5.87,20.54-12.58,29.34-38.15,29.34c-5.87,0-15.51-0.84-19.7-2.52
		c-2.1-0.42-3.77-1.26-3.77-3.35v-12.16c0-2.1,1.68-3.35,3.77-3.35h0.42c5.45,0,15.93,1.26,20.96,1.26c7.97,0,12.16-2.1,14.67-12.16
		l1.68-5.45h-2.93c-5.45,0-12.16-1.26-16.35-15.51l-24.31-85.52c0-0.42,0-0.84,0-1.26c0-2.1,1.26-2.93,3.35-2.93h18.86
		c1.68,0,2.93,1.68,3.35,3.35l18.86,76.3c0.84,3.35,1.26,4.19,2.52,4.19l0,0h0.84h0.42l20.12-80.49c0.42-1.68,1.68-3.35,3.77-3.35
		h19.28c2.1,0,3.35,1.68,3.35,3.35C875.32,266.93,875.32,267.34,874.9,267.34z"/>
</g>
<g>
</g>
<g>
</g>
<g>
</g>
<g>
</g>
<g>
</g>
<g>
</g>
<g>
</g>
<g>
</g>
<g>
</g>
<g>
</g>
<g>
</g>
<g>
</g>
<g>
</g>
<g>
</g>
<g>
</g>
</svg>
