<?xml version="1.0" encoding="utf-8"?>
<!-- Generator: Adobe Illustrator 23.0.1, SVG Export Plug-In . SVG Version: 6.00 Build 0)  -->
<svg version="1.1" id="Capa_1" xmlns="http://www.w3.org/2000/svg" xmlns:xlink="http://www.w3.org/1999/xlink" x="0px" y="0px"
	 viewBox="0 0 201.2 50" style="enable-background:new 0 0 201.2 50;" xml:space="preserve">
<style type="text/css">
	.st0{fill:#C24622;}
	.st1{fill:none;stroke:#FFFFFF;stroke-width:0.25;stroke-miterlimit:10;}
	.st2{fill:none;stroke:#FFFFFF;stroke-width:0.25;stroke-miterlimit:10;stroke-dasharray:0.9696,0.9696;}
	.st3{fill:none;stroke:#FFFFFF;stroke-width:0.25;stroke-miterlimit:10;stroke-dasharray:0.9805,0.9805;}
	.st4{fill:none;stroke:#FFFFFF;stroke-width:0.25;stroke-miterlimit:10;stroke-dasharray:1.0603,1.0603;}
	.st5{fill:none;stroke:#FFFFFF;stroke-width:0.25;stroke-miterlimit:10;stroke-dasharray:0.9382,0.9382;}
	.st6{fill:none;stroke:#FFFFFF;stroke-width:0.25;stroke-miterlimit:10;stroke-dasharray:0.9804,0.9804;}
	.st7{fill:#FFFFFF;}
	.st8{fill:#4D4D4D;}
</style>
<g>
	<path class="st0" d="M15.2,31.6H6.1V16.2h3.5v12.6h5.7V31.6z"/>
	<path class="st0" d="M27.4,31.6H24v-1.7H24c-0.8,1.3-2,1.9-3.4,1.9c-2.5,0-3.8-1.5-3.8-4.6v-6.6h3.4V27c0,1.6,0.6,2.3,1.8,2.3
		c0.6,0,1.1-0.2,1.5-0.6c0.4-0.4,0.5-1,0.5-1.7v-6.3h3.4V31.6z"/>
	<path class="st0" d="M40.2,27.1H33c0.1,1.6,1.1,2.4,3,2.4c1.2,0,2.3-0.3,3.2-0.9v2.4c-1,0.5-2.3,0.8-4,0.8c-1.8,0-3.2-0.5-4.1-1.5
		c-1-1-1.5-2.4-1.5-4.1c0-1.8,0.5-3.3,1.6-4.3c1.1-1.1,2.4-1.6,3.9-1.6c1.6,0,2.8,0.5,3.7,1.4c0.9,1,1.3,2.2,1.3,3.9V27.1z M37,25
		c0-1.6-0.6-2.4-1.9-2.4c-0.5,0-1,0.2-1.4,0.7s-0.6,1-0.7,1.7H37z"/>
	<path class="st0" d="M49.4,17.9c-0.4-0.2-0.9-0.3-1.3-0.3c-1.1,0-1.6,0.6-1.6,1.8v1.2H49v2.5h-2.5v8.5h-3.4v-8.5h-1.8v-2.5h1.8
		v-1.4c0-1.3,0.4-2.3,1.2-3c0.8-0.8,1.9-1.1,3.3-1.1c0.7,0,1.3,0.1,1.7,0.2V17.9z"/>
	<path class="st0" d="M57.3,31.5c-0.5,0.3-1.3,0.4-2.3,0.4c-2.4,0-3.6-1.2-3.6-3.7v-5h-1.8v-2.5h1.8v-2.4l3.4-1v3.3h2.5v2.5h-2.5
		v4.4c0,1.1,0.5,1.7,1.4,1.7c0.4,0,0.7-0.1,1.1-0.3V31.5z"/>
	<path class="st0" d="M69.7,20.6l-4.5,11.9c-1.1,2.9-2.7,4.3-4.9,4.3c-0.8,0-1.5-0.1-2-0.3v-2.7c0.5,0.3,0.9,0.4,1.5,0.4
		c0.9,0,1.5-0.4,1.8-1.2l0.6-1.4l-4.5-11h3.8l2.1,6.7c0.1,0.4,0.2,0.9,0.3,1.5h0c0.1-0.4,0.2-0.9,0.4-1.5l2.1-6.7H69.7z"/>
</g>
<polygon class="st0" points="70,11.3 99.3,6 104.3,33.5 90.2,45.6 75.1,38.8 "/>
<g>
	<g>
		<polyline class="st1" points="71.6,12.9 71.5,12.4 72,12.3 		"/>
		<line class="st2" x1="73" y1="12.1" x2="97.3" y2="7.7"/>
		<polyline class="st1" points="97.8,7.6 98.3,7.5 98.3,8 		"/>
		<line class="st3" x1="98.5" y1="9" x2="102.6" y2="31.7"/>
		<polyline class="st1" points="102.7,32.1 102.8,32.6 102.4,33 		"/>
		<line class="st4" x1="101.6" y1="33.6" x2="90.7" y2="42.9"/>
		<polyline class="st1" points="90.3,43.3 89.9,43.6 89.5,43.4 		"/>
		<line class="st5" x1="88.6" y1="43" x2="77.1" y2="37.9"/>
		<polyline class="st1" points="76.6,37.7 76.2,37.5 76.1,37 		"/>
		<line class="st6" x1="75.9" y1="36" x2="71.7" y2="13.4"/>
	</g>
</g>
<g>
	<path class="st7" d="M90.7,37.3l0.7,3.4l-2.3,0.5l-0.7-3.3c-2.1,0.5-4.2,0.4-6.3-0.2l-0.9-4.4c0.7,0.4,1.7,0.6,3,0.8
		c1.3,0.2,2.4,0.2,3.4,0l-1.2-5.7c-2.7-0.4-4.5-1-5.7-1.9c-1.1-0.9-1.9-2.1-2.2-3.6c-0.4-1.6-0.1-3.2,0.8-4.6c0.9-1.4,2.3-2.4,4.2-3
		l-0.6-2.9l2.3-0.5l0.6,2.9c2.2-0.4,4-0.4,5.2,0L92,19c-1.7-0.6-3.4-0.8-5.3-0.6l1.3,6c2.5,0.3,4.3,0.9,5.6,1.8c1.2,0.8,2,2,2.3,3.5
		c0.4,1.7,0.1,3.3-0.8,4.6C94.2,35.6,92.7,36.6,90.7,37.3z M85.4,24l-1.1-5c-1.4,0.6-2,1.5-1.7,2.8C82.9,22.8,83.8,23.6,85.4,24z
		 M88.9,28.8l1,4.8c1.5-0.6,2-1.5,1.8-2.7C91.5,29.8,90.5,29.1,88.9,28.8z"/>
</g>
<g>
	<path class="st8" d="M121.6,31.6h-3.8l-1.1-3.4h-5.5l-1.1,3.4h-3.8l5.6-15.4h4.1L121.6,31.6z M115.9,25.5l-1.7-5.2
		c-0.1-0.4-0.2-0.8-0.3-1.4H114c0,0.5-0.1,0.9-0.3,1.3l-1.7,5.2H115.9z"/>
	<path class="st8" d="M133.7,31.6h-3.4v-1.7h-0.1c-0.8,1.3-2,1.9-3.4,1.9c-2.5,0-3.8-1.5-3.8-4.6v-6.6h3.4V27c0,1.6,0.6,2.3,1.8,2.3
		c0.6,0,1.1-0.2,1.5-0.6s0.5-1,0.5-1.7v-6.3h3.4V31.6z"/>
	<path class="st8" d="M144.9,31.2c-0.8,0.4-1.9,0.7-3.3,0.7c-1.7,0-3.1-0.5-4.1-1.5c-1-1-1.6-2.3-1.6-4c0-1.9,0.6-3.3,1.7-4.4
		c1.1-1.1,2.6-1.6,4.5-1.6c1.3,0,2.2,0.2,2.8,0.5v2.9c-0.7-0.5-1.5-0.8-2.4-0.8c-1,0-1.7,0.3-2.3,0.9c-0.6,0.6-0.9,1.4-0.9,2.4
		c0,1,0.3,1.7,0.8,2.3c0.5,0.6,1.3,0.8,2.2,0.8c0.8,0,1.7-0.3,2.5-0.8V31.2z"/>
	<path class="st8" d="M153.7,31.5c-0.5,0.3-1.3,0.4-2.3,0.4c-2.4,0-3.6-1.2-3.6-3.7v-5h-1.8v-2.5h1.8v-2.4l3.4-1v3.3h2.5v2.5h-2.5
		v4.4c0,1.1,0.5,1.7,1.4,1.7c0.4,0,0.7-0.1,1.1-0.3V31.5z"/>
	<path class="st8" d="M157.4,18.9c-0.6,0-1-0.2-1.4-0.5c-0.4-0.3-0.5-0.8-0.5-1.3c0-0.5,0.2-0.9,0.5-1.2s0.8-0.5,1.4-0.5
		c0.6,0,1.1,0.2,1.4,0.5s0.5,0.7,0.5,1.2c0,0.5-0.2,0.9-0.5,1.3C158.4,18.7,157.9,18.9,157.4,18.9z M159,31.6h-3.4v-11h3.4V31.6z"/>
	<path class="st8" d="M167.1,31.9c-1.8,0-3.3-0.5-4.3-1.5s-1.6-2.4-1.6-4.2c0-1.8,0.5-3.2,1.6-4.3c1.1-1,2.6-1.5,4.4-1.5
		c1.8,0,3.3,0.5,4.3,1.5c1,1,1.6,2.4,1.6,4.1c0,1.8-0.5,3.3-1.6,4.3C170.5,31.4,169,31.9,167.1,31.9z M167.2,22.9
		c-0.8,0-1.4,0.3-1.9,0.8c-0.4,0.6-0.7,1.3-0.7,2.3c0,2.1,0.9,3.2,2.6,3.2c1.6,0,2.4-1.1,2.4-3.3C169.7,24,168.9,22.9,167.2,22.9z"
		/>
	<path class="st8" d="M186,31.6h-3.4v-6.1c0-1.7-0.6-2.6-1.8-2.6c-0.6,0-1.1,0.2-1.5,0.7s-0.6,1-0.6,1.7v6.3h-3.4v-11h3.4v1.7h0
		c0.8-1.3,2-2,3.5-2c2.4,0,3.7,1.5,3.7,4.5V31.6z"/>
	<path class="st8" d="M187.9,31.3v-2.8c0.6,0.3,1.1,0.6,1.7,0.8c0.6,0.2,1.1,0.2,1.6,0.2c0.6,0,1.1-0.1,1.4-0.2
		c0.3-0.2,0.5-0.4,0.5-0.8c0-0.2-0.1-0.4-0.2-0.5c-0.2-0.1-0.4-0.3-0.6-0.4c-0.2-0.1-0.5-0.2-0.8-0.3s-0.6-0.2-0.8-0.3
		c-0.4-0.2-0.8-0.3-1.2-0.5c-0.3-0.2-0.6-0.4-0.8-0.7c-0.2-0.3-0.4-0.5-0.5-0.9c-0.1-0.3-0.2-0.7-0.2-1.2c0-0.6,0.1-1.1,0.4-1.6
		c0.3-0.4,0.6-0.8,1.1-1.1c0.4-0.3,1-0.5,1.5-0.6c0.6-0.1,1.2-0.2,1.8-0.2c0.5,0,1,0,1.5,0.1s1,0.2,1.5,0.3v2.6
		c-0.4-0.3-0.9-0.4-1.4-0.6c-0.5-0.1-1-0.2-1.4-0.2c-0.2,0-0.4,0-0.6,0.1c-0.2,0-0.4,0.1-0.5,0.2s-0.3,0.2-0.4,0.3s-0.1,0.3-0.1,0.4
		c0,0.2,0.1,0.4,0.2,0.5c0.1,0.1,0.3,0.3,0.5,0.4c0.2,0.1,0.4,0.2,0.7,0.3c0.3,0.1,0.5,0.2,0.8,0.3c0.5,0.2,0.9,0.3,1.2,0.5
		c0.4,0.2,0.7,0.4,0.9,0.7c0.3,0.3,0.5,0.5,0.6,0.9c0.1,0.3,0.2,0.7,0.2,1.2c0,0.7-0.1,1.2-0.4,1.7c-0.3,0.5-0.7,0.8-1.1,1.1
		c-0.5,0.3-1,0.5-1.6,0.6c-0.6,0.1-1.2,0.2-1.9,0.2C190.1,31.9,189,31.7,187.9,31.3z"/>
</g>
</svg>
