<?xml version="1.0" encoding="utf-8"?>
<!-- Generator: Adobe Illustrator 23.0.1, SVG Export Plug-In . SVG Version: 6.00 Build 0)  -->
<svg version="1.1" id="Capa_1" xmlns="http://www.w3.org/2000/svg" xmlns:xlink="http://www.w3.org/1999/xlink" x="0px" y="0px"
	 viewBox="0 0 112.9 31.4" style="enable-background:new 0 0 112.9 31.4;" xml:space="preserve">
<style type="text/css">
	.st0{fill:#007BFF;}
	.st1{fill:#00BDFF;}
</style>
<g>
	<path class="st0" d="M15.2,21.5H6.1V6.1h3.5v12.6h5.7v2.8H15.2z"/>
	<path class="st0" d="M27.4,21.5H24v-1.7l0,0c-0.8,1.3-2,1.9-3.4,1.9c-2.5,0-3.8-1.5-3.8-4.6v-6.6h3.4v6.4c0,1.6,0.6,2.3,1.8,2.3
		c0.6,0,1.1-0.2,1.5-0.6s0.5-1,0.5-1.7v-6.3h3.4V21.5z"/>
	<path class="st0" d="M40.2,17H33c0.1,1.6,1.1,2.4,3,2.4c1.2,0,2.3-0.3,3.2-0.9v2.4c-1,0.5-2.3,0.8-4,0.8c-1.8,0-3.2-0.5-4.1-1.5
		c-1-1-1.5-2.4-1.5-4.1c0-1.8,0.5-3.3,1.6-4.3c1.1-1.1,2.4-1.6,3.9-1.6c1.6,0,2.8,0.5,3.7,1.4c0.9,1,1.3,2.2,1.3,3.9L40.2,17
		L40.2,17z M37,14.9c0-1.6-0.6-2.4-1.9-2.4c-0.5,0-1,0.2-1.4,0.7s-0.6,1-0.7,1.7L37,14.9z"/>
	<path class="st0" d="M49.4,7.8c-0.4-0.2-0.9-0.3-1.3-0.3c-1.1,0-1.6,0.6-1.6,1.8v1.2H49V13h-2.5v8.5h-3.4V13h-1.8v-2.5h1.8V9.1
		c0-1.3,0.4-2.3,1.2-3C45.1,5.3,46.2,5,47.6,5c0.7,0,1.3,0.1,1.7,0.2v2.6H49.4z"/>
	<path class="st0" d="M57.3,21.4c-0.5,0.3-1.3,0.4-2.3,0.4c-2.4,0-3.6-1.2-3.6-3.7v-5h-1.8v-2.5h1.8V8.2l3.4-1v3.3h2.5V13h-2.5v4.4
		c0,1.1,0.5,1.7,1.4,1.7c0.4,0,0.7-0.1,1.1-0.3L57.3,21.4z"/>
	<path class="st0" d="M69.7,10.5l-4.5,11.9c-1.1,2.9-2.7,4.3-4.9,4.3c-0.8,0-1.5-0.1-2-0.3v-2.7c0.5,0.3,0.9,0.4,1.5,0.4
		c0.9,0,1.5-0.4,1.8-1.2l0.6-1.4l-4.5-11h3.8l2.1,6.7c0.1,0.4,0.2,0.9,0.3,1.5l0,0c0.1-0.4,0.2-0.9,0.4-1.5l2.1-6.7L69.7,10.5z"/>
</g>
<g>
	<path class="st1" d="M84,20.7c-1.5,0.9-3.3,1.3-5.2,1.3c-2.2,0-4-0.7-5.3-2.1c-1.4-1.4-2-3.3-2-5.6c0-2.4,0.8-4.3,2.3-5.9
		c1.5-1.5,3.4-2.3,5.7-2.3c1.7,0,3.1,0.3,4.2,0.8v2c-1.2-0.8-2.7-1.2-4.4-1.2c-1.7,0-3.1,0.6-4.2,1.8c-1.1,1.2-1.7,2.7-1.7,4.6
		c0,1.9,0.5,3.5,1.5,4.6c1,1.1,2.4,1.7,4.2,1.7c1.2,0,2.2-0.2,3.1-0.7v-4.3h-3.4v-1.6H84V20.7z"/>
	<path class="st1" d="M89.4,15.9v5.8h-1.8V6.4h4.2c1.6,0,2.9,0.4,3.8,1.2c0.9,0.8,1.4,1.9,1.4,3.4s-0.5,2.7-1.5,3.6
		c-1,0.9-2.4,1.4-4.1,1.4H89.4z M89.4,8v6.3h1.9c1.2,0,2.2-0.3,2.9-0.9s1-1.4,1-2.4c0-2-1.2-3.1-3.6-3.1H89.4z"/>
	<path class="st1" d="M99.2,21.1V19c0.2,0.2,0.5,0.4,0.9,0.6c0.3,0.2,0.7,0.3,1.1,0.4c0.4,0.1,0.8,0.2,1.1,0.3
		c0.4,0.1,0.7,0.1,1.1,0.1c1.1,0,1.9-0.2,2.5-0.6c0.5-0.4,0.8-1,0.8-1.8c0-0.4-0.1-0.8-0.3-1.1s-0.4-0.6-0.8-0.8s-0.7-0.5-1.1-0.7
		s-0.9-0.5-1.4-0.7c-0.5-0.3-1-0.5-1.5-0.8c-0.5-0.3-0.9-0.6-1.2-0.9c-0.3-0.3-0.6-0.7-0.8-1.1c-0.2-0.4-0.3-0.9-0.3-1.5
		c0-0.7,0.2-1.3,0.5-1.8c0.3-0.5,0.7-0.9,1.2-1.3c0.5-0.3,1.1-0.6,1.7-0.8c0.6-0.2,1.3-0.2,2-0.2c1.5,0,2.6,0.2,3.3,0.5v2
		c-0.9-0.6-2.1-0.9-3.5-0.9c-0.4,0-0.8,0-1.2,0.1c-0.4,0.1-0.7,0.2-1.1,0.4c-0.3,0.2-0.6,0.4-0.8,0.7c-0.2,0.3-0.3,0.7-0.3,1.1
		c0,0.4,0.1,0.7,0.2,1c0.1,0.3,0.4,0.5,0.6,0.8s0.6,0.5,1,0.7c0.4,0.2,0.9,0.5,1.4,0.7c0.6,0.3,1.1,0.6,1.6,0.9s0.9,0.6,1.3,1
		c0.4,0.4,0.7,0.8,0.9,1.2c0.2,0.4,0.3,1,0.3,1.5c0,0.8-0.1,1.4-0.4,1.9c-0.3,0.5-0.7,1-1.2,1.3s-1.1,0.6-1.7,0.7
		c-0.7,0.1-1.4,0.2-2.1,0.2c-0.2,0-0.5,0-0.9-0.1c-0.4,0-0.7-0.1-1.1-0.2c-0.4-0.1-0.7-0.2-1.1-0.3C99.6,21.4,99.4,21.3,99.2,21.1z"
		/>
</g>
</svg>
