<?xml version="1.0" encoding="utf-8"?>
<!-- Generator: Adobe Illustrator 25.3.1, SVG Export Plug-In . SVG Version: 6.00 Build 0)  -->
<svg version="1.1" id="Capa_1" xmlns="http://www.w3.org/2000/svg" xmlns:xlink="http://www.w3.org/1999/xlink" x="0px" y="0px"
	 viewBox="0 0 50 50" style="enable-background:new 0 0 50 50;" xml:space="preserve">
<style type="text/css">
	.st0{fill:#BE7C43;}
	.st1{opacity:0.53;fill:#8C603B;}
	.st2{fill:#FFCF5B;}
	.st3{fill:#F8A051;}
</style>
<g>
	<path class="st0" d="M23.2,14.4c0.2-0.4,0.4-1,0.3-1.5c-0.1-0.7-0.5-1.5-0.5-1.5l-1.4-2.2c0,0-1.8-1.9-2-2c-0.1-0.1-0.8-0.6-1.3-1
		c-0.4-0.3-0.7-0.6-0.7-0.6s-2-1-2.9-1.3c-0.5-0.2-1.1-0.2-1.6-0.1c-0.2,0-0.4,0.1-0.5,0.2c-0.1,0.1-0.2,0.2-0.3,0.3l-0.2,0.2
		c-0.2,0.2-0.3,0.5-0.3,0.8c0,0.2,0,0.3,0.1,0.5l1.1,2.5l-2.3-1c-0.1,0-0.2-0.1-0.3,0c-0.1,0-0.2,0.1-0.3,0.1
		C10.1,7.8,10,8,10.1,8.2l0.2,0.5l-3.3,3.4l-0.3,0c-0.2,0-0.3,0.1-0.4,0.2C6,12.6,6,13,6.1,13.3L7,15.3l-2.4-1.1
		c-0.5-0.2-1-0.1-1.3,0.3l-0.2,0.2c-0.2,0.3-0.3,0.8-0.1,1.1l0.6,1c0,0,0.1,0.1,0.1,0.1l1.2,1.8L7,20.9l0.3,0.2l2.4,1.8l1.7,1
		c0.1,0.1,0.3,0.2,0.5,0.2l1.1,0.4c0.2,0.1,0.3,0.1,0.5,0.1c0.1,0,0.1,0,0.2,0c0.2-0.1,0.4-0.2,0.5-0.3c0.2-0.2,0.3-0.5,0.3-0.9l0,0
		l-0.1-0.6l-0.7-1.3l-0.6-1l1.2,0.5c0,0,0,0,0,0l1,0.4c0.1,0,0.2,0,0.3,0c0.1,0,0.2-0.1,0.3-0.2c0.2-0.2,0.2-0.5,0-0.7l-0.1-0.2
		l3.3-3.6l0.3,0.1c0.1,0.1,0.3,0.1,0.4,0c0.1,0,0.3-0.1,0.4-0.2c0.2-0.2,0.3-0.5,0.1-0.8L19.1,14l0,0l2.4,1l0.1,0.1
		c0.2,0.1,0.4,0.1,0.7,0.1c0.2,0,0.4-0.1,0.6-0.3C23,14.7,23.1,14.6,23.2,14.4z"/>
	<path class="st0" d="M20.2,18.8c0.1-0.2,0-0.4-0.1-0.6l-0.6-0.6c-0.2-0.2-0.6-0.2-0.8,0l-0.4,0.5l-0.1,0.1l-0.1,0.2l-0.7,0.8
		l-0.3,0.4c-0.2,0.2-0.2,0.6,0.1,0.8l0.6,0.5c0.2,0.2,0.6,0.2,0.8-0.1c0-0.1,0.1-0.1,0.2-0.2c0.3-0.3,0.6-0.7,0.9-1.1
		c0.1-0.1,0.2-0.3,0.3-0.4c0.1-0.1,0.2-0.2,0.3-0.3C20.1,18.9,20.1,18.9,20.2,18.8z"/>
	<path class="st0" d="M47.7,43.8c0.3-0.5,0.1-1.2-0.3-1.6c-4.4-4.1-9.2-8.3-14.4-12.6c-4.5-3.7-8.9-7.1-13.2-10.3c0,0,0,0,0,0
		c-0.5-0.4-1-0.8-1.6-1.1c0,0,0,0,0,0c-0.1-0.1-0.2-0.2-0.3-0.2c0,0,0,0,0,0c-0.3,0.3-0.6,0.7-1,1c0.1,0.1,0.2,0.3,0.4,0.4
		c0.4,0.5,0.9,1,1.3,1.5c3.4,3.8,7.1,7.7,11.1,11.6c5,4.9,10,9.3,14.7,13.1c0.1,0.1,0.4,0.4,1,0.4c0.3,0,0.7-0.2,0.9-0.4l1.3-1.4
		C47.6,44,47.6,43.9,47.7,43.8z"/>
	<path class="st1" d="M13.6,21.5l-0.6-1l1.2,0.5c0,0,0,0,0,0c-1.2-1.2-2.3-2.4-3.5-3.7c0.1,0.6,0.1,1.2,0,1.8
		c-1.4-0.8-2.3-2.2-3.4-3.4c-0.1-0.2-0.3-0.3-0.4-0.4l-2-0.9c0.4,0.6,1,1.1,1.5,1.7c1.3,1.3,2.7,2.6,4,3.9c1.2,1.1,2.3,2.2,3.5,3.2
		c0.1,0.1,0.3,0.2,0.4,0.2l-0.1-0.6L13.6,21.5z"/>
	<path class="st1" d="M21.5,15c-0.1-0.1-0.2-0.2-0.2-0.3c-1-1-2-2-3-3c-1-1-2.1-2.1-3.2-3c-0.5-0.4-1-0.8-1.5-1.2
		c-0.6-0.6-1.2-1.2-1.8-1.9c0,0.2,0,0.3,0.1,0.5l1.1,2.5L11.6,8c0.1,0.1,0.3,0.3,0.4,0.4c0.4,0.4,0.8,0.9,1.2,1.3
		c0.5,0.5,0.9,1,1.4,1.5c0.1-0.3,0.1-0.7,0.2-1c0-0.1,0.1-0.3,0.2-0.4c0.1-0.1,0.3,0,0.5,0.1c1.4,1.2,2.4,2.7,3.6,4.1l0,0L21.5,15z"
		/>
	<path class="st1" d="M17.8,6.7c0.1-0.2,0.3-0.5,0.5-0.5c-0.4-0.3-0.7-0.6-0.7-0.6s-2-1-2.9-1.3c-0.5-0.2-1.1-0.2-1.6-0.1
		c-0.2,0-0.4,0.1-0.5,0.2c0.1,0.1,0.2,0.2,0.2,0.3c0.3,0.3,0.5,0.6,0.8,0.9c1.3,1.2,2.6,2.4,4,3.5C17.8,9,17.9,9.1,18,9
		c-0.2-0.5-0.3-1-0.3-1.5C17.7,7.2,17.7,6.9,17.8,6.7z"/>
	<path class="st1" d="M13.4,24.6c-0.1-0.2-0.3-0.4-0.4-0.5c-1.5-1.3-3-2.7-4.4-4c-0.1-0.1-0.3-0.2-0.4-0.2C8.2,20,8.2,20.3,8,20.6
		c-0.2,0.3-0.4,0.3-0.6,0.5c0,0,0,0-0.1,0.1l2.4,1.8l1.7,1c0.1,0.1,0.3,0.2,0.5,0.2l1.1,0.4C13.1,24.6,13.3,24.6,13.4,24.6z"/>
	<path class="st1" d="M47.7,43.8c0.3-0.5,0.1-1.2-0.3-1.6c-4.4-4.1-9.2-8.3-14.4-12.6c-4.5-3.7-8.9-7.1-13.2-10.3
		c0.1-0.1,0.2-0.2,0.3-0.3c0-0.1,0.1-0.1,0.1-0.2c0.1-0.2,0-0.4-0.1-0.6l-0.6-0.6c-0.2-0.2-0.6-0.2-0.8,0l-0.4,0.5c0,0,0,0,0,0
		c-0.1-0.1-0.2-0.2-0.3-0.2c0,0,0,0.1-0.1,0.1c0.1,0.1,0.2,0.2,0.3,0.3c0,0,0,0,0,0c0.4,0.5,0.9,0.9,1.3,1.4c0,0,0,0,0,0
		c3.5,3.7,7.4,7.4,11.7,11.3c5.2,4.7,10.3,8.9,15.2,12.6c0.1,0.1-0.6,0.4,0,0.3C46.4,43.9,47.5,43.8,47.7,43.8z"/>
	<polygon class="st2" points="19.1,16.6 10.3,8.7 7,12.1 15.8,20.3 	"/>
	<path class="st3" d="M15.8,20.3c-1-1.3-1.8-2.8-2.6-4.2c-0.2-0.4-0.4-0.8-0.6-1.2c-0.3-0.7-0.6-1.5-0.8-2.3
		c-0.2-0.9-0.4-1.8-0.2-2.7c2,1.8,4,3.6,6,5.4c0.5,0.5,1.1,0.9,1.5,1.4C18,17.9,16.9,19.1,15.8,20.3z"/>
</g>
</svg>
