<svg xmlns="http://www.w3.org/2000/svg" width="132" height="132" viewBox="0 0 132 132">
    <g fill="none" fill-rule="evenodd">
        <circle cx="66" cy="66" r="66" fill="#F8F9FA"/>
        <g stroke="#263238" stroke-width="2.388">
            <path stroke-linejoin="round" d="M99.063 95.5a3.563 3.563 0 0 0-3.563-3.563H62.25a3.563 3.563 0 0 0-3.563 3.563v3.563h40.376V95.5z"/>
            <path d="M69.693 40.005a2.967 2.967 0 0 0 0-4.198 2.967 2.967 0 0 0-4.198 0L54.807 46.495a2.967 2.967 0 0 0 0 4.198 2.967 2.967 0 0 0 4.198 0l10.688-10.688zM86.318 56.63a2.967 2.967 0 0 0 0-4.198 2.967 2.967 0 0 0-4.198 0L71.432 63.12a2.967 2.967 0 0 0 0 4.198 2.967 2.967 0 0 0 4.198 0L86.318 56.63zM58.338 51.186l12.6 12.599M70.308 39.176L82.95 51.817"/>
            <path stroke-linejoin="round" d="M59.882 58.027L32.925 84.984a1.236 1.236 0 0 0 0 1.747l2.47 2.47a1.236 1.236 0 0 0 1.746 0l26.846-26.846"/>
        </g>
    </g>
</svg>
