<?xml version="1.0" encoding="iso-8859-1"?>
<!-- Generator: Adobe Illustrator 19.0.0, SVG Export Plug-In . SVG Version: 6.00 Build 0)  -->
<svg version="1.1" id="Capa_1" xmlns="http://www.w3.org/2000/svg" xmlns:xlink="http://www.w3.org/1999/xlink" x="0px" y="0px"
	 viewBox="0 0 512 512" style="enable-background:new 0 0 512 512;" xml:space="preserve">
<path style="fill:#8B8992;" d="M512,205.955v149.41h-54.31v-15h-90v15H144.6v-15h-90v15H0v-66.37c0-38.87,24.77-73.23,61.64-85.51
	l67.76-22.59l91-54.89c15.59-9.4,33.45-14.37,51.65-14.37h121.76c32.54,0,63.13,15.9,81.83,42.53L512,205.955z"/>
<path style="fill:#626169;" d="M512,205.955v149.41h-54.31v-15h-90v15H309v-243.73h84.81c32.54,0,63.13,15.9,81.83,42.53
	L512,205.955z"/>
<path style="fill:#2DD729;" d="M359.39,165.385l-0.23,10.01c-0.03,1.27-0.5,16.87-5.67,35.15c-5.17,18.27-15.03,39.22-33.86,51.17
	c-3.42,2.17-6.98,3.95-10.63,5.39c-9.69,3.81-20.02,5.22-30,5.22c-19.07,0-36.89-5.15-46.64-8.58l63.13-40.02l-16.06-25.34
	l-63.07,39.98c1.82-17.79,9.2-59.09,38.93-77.97c16.54-10.5,36.42-11.8,53.71-9.85c22.07,2.47,39.92,10.21,41.22,10.79
	L359.39,165.385z"/>
<path style="fill:#00BA63;" d="M359.39,165.385l-0.23,10.01c-0.03,1.27-0.5,16.87-5.67,35.15c-5.17,18.27-15.03,39.22-33.86,51.17
	c-3.42,2.17-6.98,3.95-10.63,5.39v-116.56c22.07,2.47,39.92,10.21,41.22,10.79L359.39,165.385z"/>
<path style="fill:#2DD729;" d="M99.6,280.363c-33.084,0-60,26.916-60,60s26.916,60,60,60s60-26.916,60-60
	S132.684,280.363,99.6,280.363z"/>
<path style="fill:#00BA63;" d="M472.69,340.365c0,33.08-26.92,60-60,60s-60-26.92-60-60c0-33.09,26.92-60,60-60
	S472.69,307.275,472.69,340.365z"/>
<g>
</g>
<g>
</g>
<g>
</g>
<g>
</g>
<g>
</g>
<g>
</g>
<g>
</g>
<g>
</g>
<g>
</g>
<g>
</g>
<g>
</g>
<g>
</g>
<g>
</g>
<g>
</g>
<g>
</g>
</svg>
