<?xml version="1.0" encoding="utf-8"?>
<!-- Generator: Adobe Illustrator 24.1.0, SVG Export Plug-In . SVG Version: 6.00 Build 0)  -->
<svg version="1.1" id="Layer_1" xmlns="http://www.w3.org/2000/svg" xmlns:xlink="http://www.w3.org/1999/xlink" x="0px" y="0px"
	 viewBox="0 0 491.5 491.5" style="enable-background:new 0 0 491.5 491.5;" xml:space="preserve">
<style type="text/css">
	.st0{fill:#44C4A1;}
	.st1{fill:#3EA69B;}
	.st2{fill:#1C75A1;}
	.st3{fill:#FFFFFF;}
</style>
<polygon class="st0" points="451.2,286.1 491.5,245.8 450.3,204.5 472.3,150.5 419.5,129 419.5,72 361.2,72 338.6,18.2 286.1,40.3 
	245.8,0 204.5,41.2 150.5,19.2 129,72 72,72 72,130.3 18.2,152.9 40.3,205.4 0,245.8 41.2,287 19.2,341 72,362.5 72,419.5 
	130.3,419.5 152.9,473.3 205.4,451.2 245.8,491.5 287,450.3 341,472.3 362.5,419.5 419.5,419.5 419.5,361.2 473.3,338.6 "/>
<circle class="st1" cx="245.8" cy="245.8" r="162"/>
<path class="st2" d="M231.8,174.9c7.2,7.8,10.9,17.3,10.9,28.5c0,11.1-3.7,20.7-11,28.6c-7.3,7.9-16.4,11.9-27.3,11.9
	c-10.9,0-19.9-3.9-27.2-11.8c-7.3-7.8-10.9-17.3-10.9-28.5c0-11.1,3.7-20.7,11-28.6c7.3-7.9,16.4-11.9,27.3-11.9
	C215.5,163.1,224.6,167,231.8,174.9z M334.8,167.4L205.2,344.2h-32.6l129.5-176.8H334.8z M214.9,216.6c2.7-3.5,4-7.7,4-12.8
	c0-5.1-1.4-9.3-4.3-12.8c-2.9-3.5-6.4-5.2-10.5-5.2c-4.1,0-7.6,1.7-10.2,5.2s-4,7.7-4,12.8s1.4,9.3,4.3,12.8
	c2.9,3.5,6.4,5.2,10.5,5.2C208.7,221.8,212.2,220.1,214.9,216.6z M332.2,277.3c7.2,7.8,10.9,17.3,10.9,28.5c0,11.1-3.7,20.7-11,28.6
	c-7.3,7.9-16.4,11.9-27.3,11.9c-10.9,0-19.9-3.9-27.2-11.8c-7.2-7.8-10.9-17.3-10.9-28.5c0-11.1,3.7-20.7,11-28.6
	c7.3-7.9,16.4-11.9,27.3-11.9C315.9,265.6,325,269.5,332.2,277.3z M315.8,319.6c2.7-3.5,4-7.7,4-12.8s-1.4-9.3-4.3-12.8
	c-2.9-3.5-6.4-5.2-10.5-5.2s-7.5,1.7-10.2,5.2c-2.7,3.5-4,7.7-4,12.8s1.4,9.3,4.3,12.8c2.9,3.5,6.4,5.2,10.5,5.2
	C309.7,324.8,313.1,323,315.8,319.6z"/>
<path class="st3" d="M222.9,166c7.2,7.8,10.9,17.3,10.9,28.5s-3.7,20.7-11,28.6c-7.3,7.9-16.4,11.9-27.3,11.9
	c-10.9,0-19.9-3.9-27.2-11.8c-7.3-7.8-10.9-17.3-10.9-28.5s3.7-20.7,11-28.6c7.3-7.9,16.4-11.9,27.3-11.9
	C206.6,154.2,215.6,158.1,222.9,166z M325.8,158.5L196.3,335.3h-32.6l129.5-176.8H325.8z M205.9,207.7c2.7-3.5,4-7.7,4-12.8
	s-1.4-9.3-4.3-12.8c-2.9-3.5-6.4-5.2-10.5-5.2c-4.1,0-7.6,1.7-10.2,5.2s-4,7.7-4,12.8s1.4,9.3,4.3,12.8c2.9,3.5,6.4,5.2,10.5,5.2
	C199.8,212.9,203.2,211.1,205.9,207.7z M323.3,268.4c7.2,7.8,10.9,17.3,10.9,28.5c0,11.1-3.7,20.7-11,28.6
	c-7.3,7.9-16.4,11.9-27.3,11.9c-10.9,0-19.9-3.9-27.2-11.8c-7.2-7.8-10.9-17.3-10.9-28.5c0-11.1,3.7-20.7,11-28.6
	c7.3-7.9,16.4-11.9,27.3-11.9C307,256.6,316,260.6,323.3,268.4z M306.9,310.6c2.7-3.5,4-7.7,4-12.8s-1.4-9.3-4.3-12.8
	c-2.9-3.5-6.4-5.2-10.5-5.2s-7.5,1.7-10.2,5.2c-2.7,3.5-4,7.7-4,12.8s1.4,9.3,4.3,12.8c2.9,3.5,6.4,5.2,10.5,5.2
	C300.7,315.8,304.1,314.1,306.9,310.6z"/>
</svg>
