<?xml version="1.0" encoding="utf-8"?>
<!-- Generator: Adobe Illustrator 25.4.1, SVG Export Plug-In . SVG Version: 6.00 Build 0)  -->
<svg version="1.1" id="Capa_1" xmlns="http://www.w3.org/2000/svg" xmlns:xlink="http://www.w3.org/1999/xlink" x="0px" y="0px"
	 viewBox="0 0 590 118" style="enable-background:new 0 0 590 118;" xml:space="preserve">
<style type="text/css">
	.st0{fill:#007BFF;stroke:#83DCFF;stroke-miterlimit:10;}
	.st1{display:none;}
	.st2{display:inline;fill:#007BFF;stroke:#83DCFF;stroke-miterlimit:10;}
	.st3{font-family:'NeoSansMediumTR';}
	.st4{font-size:47.7284px;}
</style>
<g>
	<path class="st0" d="M45.1,44.9V48c0,0.4-0.1,0.6-0.2,0.7c-0.1,0.1-0.4,0.2-0.8,0.3c-1.6,0.4-4.3,0.7-8.1,0.7
		c-1.7,0-3.1-0.1-4.4-0.4c-1.2-0.3-2.4-0.7-3.4-1.4c-1.1-0.7-1.9-1.7-2.4-3c-0.5-1.3-0.8-3-0.8-5V14.8c0-0.3,0.1-0.5,0.3-0.7
		s0.4-0.3,0.7-0.3h4.7c0.3,0,0.5,0.1,0.7,0.3s0.3,0.4,0.3,0.7v25.1c0,1.6,0.3,2.7,0.8,3.2C33,43.7,34,44,35.4,44h8.8
		c0.3,0,0.5,0.1,0.7,0.3C45,44.4,45.1,44.7,45.1,44.9z"/>
	<path class="st0" d="M71.2,23.3v25c0,0.3-0.1,0.5-0.3,0.7c-0.2,0.2-0.4,0.3-0.7,0.3h-4.4c-0.3,0-0.5-0.1-0.7-0.3
		c-0.2-0.2-0.3-0.4-0.3-0.7v-1.1c-2.3,1.6-4.8,2.4-7.5,2.4c-2.6,0-4.5-0.7-5.9-2c-1.6-1.6-2.4-4.5-2.4-8.7V23.3
		c0-0.3,0.1-0.5,0.3-0.7c0.2-0.2,0.4-0.3,0.7-0.3h4.4c0.3,0,0.5,0.1,0.7,0.3c0.2,0.2,0.3,0.4,0.3,0.7v15.6c0,2.4,0.4,3.9,1.1,4.6
		c0.7,0.6,1.7,0.9,3,0.9c1.5,0,3.3-0.6,5.4-1.9V23.3c0-0.3,0.1-0.5,0.3-0.7c0.2-0.2,0.4-0.3,0.7-0.3h4.4c0.3,0,0.5,0.1,0.7,0.3
		C71.1,22.9,71.2,23.1,71.2,23.3z"/>
	<path class="st0" d="M99.3,34.1v2.7c0,0.8-0.3,1.2-1,1.2H82.8v0.1c0,1.7,0.4,3.1,1.3,4.3c0.9,1.2,2.3,1.8,4.4,1.8
		c2.4,0,5.3-0.2,8.8-0.5h0.1c0.6,0,0.9,0.2,0.9,0.7v3.1c0,0.4-0.1,0.7-0.2,0.9c-0.1,0.2-0.4,0.3-0.8,0.4c-3.2,0.5-6.3,0.8-9.2,0.8
		c-1.3,0-2.6-0.2-3.8-0.6c-1.3-0.4-2.5-1-3.7-1.9c-1.2-0.9-2.2-2.1-2.9-3.7c-0.7-1.6-1.1-3.6-1.1-5.8v-3.5c0-3.8,1-6.8,3-8.9
		S84.3,22,88,22s6.4,1.1,8.4,3.3C98.3,27.5,99.3,30.5,99.3,34.1z M93,33.5v-0.2c0-1.8-0.5-3.3-1.4-4.3c-0.9-1-2.1-1.6-3.6-1.6
		S85.2,28,84.3,29c-0.9,1-1.4,2.5-1.4,4.3v0.2H93z"/>
	<path class="st0" d="M119.4,13.5v2.8c0,0.5-0.2,0.8-0.7,0.8h-2.1c-1.1,0-1.9,0.2-2.3,0.5c-0.4,0.4-0.5,1.1-0.5,2.3v2.3h4.6
		c0.3,0,0.5,0.1,0.7,0.3s0.3,0.4,0.3,0.7v2.9c0,0.3-0.1,0.5-0.3,0.6c-0.2,0.2-0.4,0.3-0.7,0.3h-4.6v21.2c0,0.3-0.1,0.5-0.3,0.7
		c-0.2,0.2-0.4,0.3-0.7,0.3h-4.3c-0.3,0-0.5-0.1-0.7-0.3c-0.2-0.2-0.3-0.4-0.3-0.7V27.1l-4.2-0.7c-0.6-0.2-1-0.5-1-0.9v-2.2
		c0-0.3,0.1-0.5,0.3-0.7s0.4-0.3,0.7-0.3h4.2V20c0-2.9,0.7-4.9,2.1-6c1.4-1.1,3.4-1.7,6.1-1.7c0.7,0,1.6,0.1,2.9,0.4
		C119.1,13,119.4,13.2,119.4,13.5z"/>
	<path class="st0" d="M138.5,45.4v3c0,0.5-0.3,0.8-0.9,0.9c-1.3,0.2-2.4,0.3-3.2,0.3c-2.8,0-4.8-0.5-5.9-1.5c-1.1-1-1.7-3-1.7-6.1
		v-15l-4.5-0.7c-0.6-0.2-1-0.5-1-1v-2.1c0-0.3,0.1-0.5,0.3-0.7s0.4-0.3,0.7-0.3h4.5v-3.9c0-0.5,0.3-0.8,1-1l4.4-0.8h0.2
		c0.5,0,0.8,0.2,0.8,0.7v4.9h4.3c0.3,0,0.5,0.1,0.7,0.3s0.3,0.4,0.3,0.7v2.8c0,0.3-0.1,0.5-0.3,0.7s-0.4,0.3-0.7,0.3h-4.3v15
		c0,1.2,0.1,2,0.3,2.2s0.7,0.4,1.6,0.4h2.5C138.1,44.7,138.5,45,138.5,45.4z"/>
	<path class="st0" d="M165.1,23.2c0,0.2,0,0.3,0,0.3l-8,27.9c-0.8,2.8-1.9,4.7-3.1,5.8c-1.3,1.1-3.5,1.6-6.6,1.6
		c-2.2,0-3.9-0.2-5-0.6c-0.7-0.2-1-0.5-1-0.8v-3.1c0-0.6,0.3-0.9,1-0.9h0.1c0.4,0,1.3,0,2.7,0.1c1.3,0.1,2.2,0.1,2.7,0.1
		c1.1,0,1.9-0.2,2.4-0.6c0.5-0.4,1-1.2,1.3-2.4l0.4-1.4h-0.7c-0.6,0-1.1-0.1-1.5-0.2s-0.9-0.5-1.4-1.1c-0.5-0.6-0.9-1.5-1.2-2.6
		l-6.2-21.9c0-0.1,0-0.2,0-0.3c0-0.5,0.3-0.8,0.9-0.8h4.8c0.4,0,0.7,0.3,0.9,0.9l4.8,19.4c0.2,0.7,0.4,1,0.7,1h0h0.2h0.1l5.1-20.5
		c0.2-0.5,0.5-0.8,1-0.8h4.9C164.9,22.3,165.1,22.6,165.1,23.2z"/>
	<path class="st0" d="M204.6,14.7v3.8c0,0.6-0.3,0.9-1,0.9h-8.3v29c0,0.3-0.1,0.5-0.3,0.7c-0.2,0.2-0.4,0.3-0.7,0.3h-4.7
		c-0.3,0-0.5-0.1-0.7-0.3c-0.2-0.2-0.3-0.4-0.3-0.7v-29h-8.3c-0.6,0-1-0.3-1-0.9v-3.8c0-0.3,0.1-0.5,0.3-0.6
		c0.2-0.2,0.4-0.3,0.7-0.3h23.3c0.3,0,0.5,0.1,0.7,0.3C204.5,14.2,204.6,14.5,204.6,14.7z"/>
	<path class="st0" d="M222.7,23v3.4c0,0.3-0.1,0.5-0.3,0.7s-0.4,0.3-0.7,0.3c-2.3,0-4.4,0.6-6.6,1.7v19.2c0,0.3-0.1,0.5-0.3,0.7
		c-0.2,0.2-0.4,0.3-0.7,0.3h-4.4c-0.3,0-0.5-0.1-0.7-0.3c-0.2-0.2-0.3-0.4-0.3-0.7v-25c0-0.3,0.1-0.5,0.3-0.7s0.4-0.3,0.7-0.3h4.1
		c0.3,0,0.5,0.1,0.7,0.3s0.3,0.4,0.3,0.7v1c1.9-1.5,4.2-2.3,6.8-2.3c0.3,0,0.5,0.1,0.7,0.3S222.7,22.7,222.7,23z"/>
	<path class="st0" d="M246.6,31.1v17.2c0,0.3-0.1,0.5-0.3,0.7c-0.2,0.2-0.4,0.3-0.7,0.3h-4c-0.3,0-0.5-0.1-0.7-0.3
		c-0.2-0.2-0.3-0.4-0.3-0.7v-0.8c-2.3,1.4-4.6,2.1-6.7,2.1c-2.3,0-4.3-0.6-5.9-1.8s-2.4-3.3-2.4-6.2v-0.2c0-2.8,0.9-4.9,2.8-6.2
		s4.8-2,8.9-2h3v-2.1c0-1.5-0.3-2.5-1-3.1c-0.7-0.5-1.7-0.8-3.2-0.8c-3.1,0-5.7,0.1-7.8,0.4h-0.2c-0.6,0-0.9-0.3-0.9-0.8v-3.1
		c0-0.5,0.3-0.9,0.9-1c2.5-0.5,5.2-0.8,8-0.8C243.2,22,246.6,25,246.6,31.1z M240.4,43.3v-5.9h-3c-2.1,0-3.5,0.3-4.2,1
		c-0.7,0.6-1.1,1.7-1.1,3.1v0.2c0,1.1,0.3,1.9,0.8,2.3c0.5,0.4,1.4,0.6,2.6,0.6C237.1,44.6,238.7,44.2,240.4,43.3z"/>
	<path class="st0" d="M274.8,32.7v15.6c0,0.3-0.1,0.5-0.3,0.7c-0.2,0.2-0.4,0.3-0.7,0.3h-4.4c-0.3,0-0.5-0.1-0.7-0.3
		c-0.2-0.2-0.3-0.4-0.3-0.7V32.7c0-2.2-0.2-3.6-0.7-4.3c-0.5-0.7-1.6-1-3.4-1c-1.5,0-3.3,0.6-5.4,1.7v19.2c0,0.3-0.1,0.5-0.3,0.7
		c-0.2,0.2-0.4,0.3-0.7,0.3h-4.4c-0.3,0-0.5-0.1-0.7-0.3c-0.2-0.2-0.3-0.4-0.3-0.7v-25c0-0.3,0.1-0.5,0.3-0.7s0.4-0.3,0.7-0.3h4.1
		c0.3,0,0.5,0.1,0.7,0.3s0.3,0.4,0.3,0.7v1c1.4-0.9,2.6-1.5,3.7-1.8c1.1-0.3,2.4-0.5,4-0.5c1.7,0,3,0.3,4.2,0.8s2,1.3,2.5,2.3
		c0.6,1,1,2.1,1.2,3.3C274.7,29.6,274.8,31,274.8,32.7z"/>
	<path class="st0" d="M299.1,42.2c0,2.2-0.8,4-2.4,5.4c-1.6,1.4-3.9,2.1-6.9,2.1c-3.5,0-6.3-0.3-8.5-1c-0.6-0.1-0.9-0.5-0.9-1.1
		v-2.9c0-0.5,0.3-0.8,0.8-0.8h0.2c3.4,0.4,6,0.5,8,0.5c1.3,0,2.2-0.2,2.7-0.6s0.7-1,0.7-1.7s-0.7-1.6-2.1-2.4l-6.5-4
		c-2.7-1.7-4-3.9-4-6.6c0-4.8,3-7.2,9-7.2c2.7,0,5.5,0.3,8.5,1c0.6,0.2,0.9,0.5,0.9,1.1v2.8c0,0.6-0.3,0.9-0.8,0.9h-0.2
		c-2.1-0.4-4.7-0.6-7.9-0.6c-1.2,0-2,0.2-2.5,0.5c-0.5,0.3-0.8,0.8-0.8,1.6c0,0.4,0.1,0.7,0.4,0.9c0.3,0.3,0.8,0.6,1.5,1l6.2,3.8
		c1.8,1.1,3,2.2,3.6,3.4C298.8,39.5,299.1,40.8,299.1,42.2z"/>
	<path class="st0" d="M319.1,13.5v2.8c0,0.5-0.2,0.8-0.7,0.8h-2.1c-1.1,0-1.9,0.2-2.3,0.5c-0.4,0.4-0.5,1.1-0.5,2.3v2.3h4.6
		c0.3,0,0.5,0.1,0.7,0.3s0.3,0.4,0.3,0.7v2.9c0,0.3-0.1,0.5-0.3,0.6c-0.2,0.2-0.4,0.3-0.7,0.3h-4.6v21.2c0,0.3-0.1,0.5-0.3,0.7
		c-0.2,0.2-0.4,0.3-0.7,0.3h-4.3c-0.3,0-0.5-0.1-0.7-0.3c-0.2-0.2-0.3-0.4-0.3-0.7V27.1l-4.2-0.7c-0.6-0.2-1-0.5-1-0.9v-2.2
		c0-0.3,0.1-0.5,0.3-0.7s0.4-0.3,0.7-0.3h4.2V20c0-2.9,0.7-4.9,2.1-6c1.4-1.1,3.4-1.7,6.1-1.7c0.7,0,1.7,0.1,2.9,0.4
		C318.8,13,319.1,13.2,319.1,13.5z"/>
	<path class="st0" d="M345.1,34.1v2.7c0,0.8-0.3,1.2-1,1.2h-15.5v0.1c0,1.7,0.4,3.1,1.3,4.3c0.9,1.2,2.3,1.8,4.4,1.8
		c2.4,0,5.3-0.2,8.8-0.5h0.1c0.6,0,0.9,0.2,0.9,0.7v3.1c0,0.4-0.1,0.7-0.2,0.9c-0.1,0.2-0.4,0.3-0.8,0.4c-3.2,0.5-6.3,0.8-9.2,0.8
		c-1.3,0-2.6-0.2-3.8-0.6c-1.3-0.4-2.5-1-3.7-1.9c-1.2-0.9-2.2-2.1-2.9-3.7c-0.7-1.6-1.1-3.6-1.1-5.8v-3.5c0-3.8,1-6.8,3-8.9
		c2-2.1,4.8-3.2,8.4-3.2c3.6,0,6.4,1.1,8.4,3.3C344.1,27.5,345.1,30.5,345.1,34.1z M338.7,33.5v-0.2c0-1.8-0.5-3.3-1.4-4.3
		c-0.9-1-2.1-1.6-3.6-1.6c-1.5,0-2.8,0.5-3.7,1.5s-1.4,2.5-1.4,4.3v0.2H338.7z"/>
	<path class="st0" d="M364.2,23v3.4c0,0.3-0.1,0.5-0.3,0.7s-0.4,0.3-0.7,0.3c-2.3,0-4.4,0.6-6.6,1.7v19.2c0,0.3-0.1,0.5-0.3,0.7
		c-0.2,0.2-0.4,0.3-0.7,0.3h-4.4c-0.3,0-0.5-0.1-0.7-0.3c-0.2-0.2-0.3-0.4-0.3-0.7v-25c0-0.3,0.1-0.5,0.3-0.7s0.4-0.3,0.7-0.3h4.1
		c0.3,0,0.5,0.1,0.7,0.3s0.3,0.4,0.3,0.7v1c1.9-1.5,4.2-2.3,6.8-2.3c0.3,0,0.5,0.1,0.7,0.3S364.2,22.7,364.2,23z"/>
	<path class="st0" d="M400.1,31.1v17.2c0,0.3-0.1,0.5-0.3,0.7c-0.2,0.2-0.4,0.3-0.7,0.3h-4c-0.3,0-0.5-0.1-0.7-0.3
		c-0.2-0.2-0.3-0.4-0.3-0.7v-0.8c-2.3,1.4-4.6,2.1-6.7,2.1c-2.3,0-4.3-0.6-5.9-1.8s-2.4-3.3-2.4-6.2v-0.2c0-2.8,0.9-4.9,2.8-6.2
		c1.8-1.4,4.8-2,8.9-2h3v-2.1c0-1.5-0.3-2.5-1-3.1c-0.7-0.5-1.7-0.8-3.2-0.8c-3.1,0-5.7,0.1-7.8,0.4h-0.2c-0.6,0-0.9-0.3-0.9-0.8
		v-3.1c0-0.5,0.3-0.9,0.9-1c2.5-0.5,5.2-0.8,8-0.8C396.6,22,400.1,25,400.1,31.1z M393.8,43.3v-5.9h-3c-2.1,0-3.5,0.3-4.2,1
		s-1.1,1.7-1.1,3.1v0.2c0,1.1,0.3,1.9,0.8,2.3c0.5,0.4,1.4,0.6,2.6,0.6C390.6,44.6,392.2,44.2,393.8,43.3z"/>
	<path class="st0" d="M428.3,32.7v15.6c0,0.3-0.1,0.5-0.3,0.7c-0.2,0.2-0.4,0.3-0.7,0.3h-4.4c-0.3,0-0.5-0.1-0.7-0.3
		c-0.2-0.2-0.3-0.4-0.3-0.7V32.7c0-2.2-0.2-3.6-0.7-4.3c-0.5-0.7-1.6-1-3.4-1c-1.5,0-3.3,0.6-5.4,1.7v19.2c0,0.3-0.1,0.5-0.3,0.7
		c-0.2,0.2-0.4,0.3-0.7,0.3h-4.4c-0.3,0-0.5-0.1-0.7-0.3c-0.2-0.2-0.3-0.4-0.3-0.7v-25c0-0.3,0.1-0.5,0.3-0.7s0.4-0.3,0.7-0.3h4.1
		c0.3,0,0.5,0.1,0.7,0.3s0.3,0.4,0.3,0.7v1c1.4-0.9,2.6-1.5,3.7-1.8c1.1-0.3,2.4-0.5,4-0.5c1.7,0,3,0.3,4.2,0.8
		c1.1,0.5,2,1.3,2.5,2.3c0.6,1,1,2.1,1.2,3.3C428.2,29.6,428.3,31,428.3,32.7z"/>
	<path class="st0" d="M455.7,13.9v33.2c0,0.4-0.1,0.6-0.2,0.8c-0.2,0.2-0.5,0.3-1,0.5c-3.2,0.8-6.4,1.2-9.6,1.2
		c-3.8,0-6.6-1-8.5-3.1s-2.9-5-2.9-8.9V34c0-3.8,1-6.8,2.9-8.9c1.9-2.1,4.7-3.1,8.5-3.1c1.4,0,2.9,0.1,4.6,0.3v-8.4
		c0-0.3,0.1-0.5,0.3-0.7s0.4-0.3,0.7-0.3h4.4c0.3,0,0.5,0.1,0.7,0.3S455.7,13.6,455.7,13.9z M449.5,44.2V27.5
		c-1.6-0.2-3.1-0.3-4.6-0.3c-1.9,0-3.2,0.6-4,1.8c-0.7,1.2-1.1,2.9-1.1,5v3.7c0,2.2,0.4,3.8,1.1,5c0.7,1.2,2.1,1.8,4,1.8
		C446.9,44.5,448.4,44.4,449.5,44.2z"/>
	<path class="st0" d="M497.1,14.7v3.8c0,0.6-0.3,0.9-1,0.9h-8.3v29c0,0.3-0.1,0.5-0.3,0.7c-0.2,0.2-0.4,0.3-0.7,0.3h-4.7
		c-0.3,0-0.5-0.1-0.7-0.3c-0.2-0.2-0.3-0.4-0.3-0.7v-29h-8.3c-0.6,0-1-0.3-1-0.9v-3.8c0-0.3,0.1-0.5,0.3-0.6
		c0.2-0.2,0.4-0.3,0.7-0.3h23.3c0.3,0,0.5,0.1,0.7,0.3C497,14.2,497.1,14.5,497.1,14.7z"/>
	<path class="st0" d="M523.3,33.9v3.9c0,3.5-1,6.4-3,8.6c-2,2.2-4.8,3.3-8.4,3.3s-6.4-1.1-8.4-3.3c-2-2.2-3-5.1-3-8.6v-3.9
		c0-3.5,1-6.4,3-8.6c2-2.2,4.8-3.3,8.4-3.3s6.4,1.1,8.4,3.3C522.4,27.5,523.3,30.4,523.3,33.9z M517.1,37.8v-3.9
		c0-2-0.4-3.6-1.3-4.7c-0.9-1.1-2.1-1.7-3.8-1.7c-1.7,0-2.9,0.6-3.8,1.7s-1.3,2.7-1.3,4.7v3.9c0,2,0.4,3.6,1.3,4.7s2.1,1.7,3.8,1.7
		c1.6,0,2.9-0.6,3.8-1.7C516.6,41.3,517.1,39.8,517.1,37.8z"/>
	<path class="st0" d="M550.7,23.3v25c0,0.3-0.1,0.5-0.3,0.7c-0.2,0.2-0.4,0.3-0.7,0.3h-4.4c-0.3,0-0.5-0.1-0.7-0.3
		c-0.2-0.2-0.3-0.4-0.3-0.7v-1.1c-2.3,1.6-4.8,2.4-7.5,2.4c-2.6,0-4.5-0.7-5.9-2c-1.6-1.6-2.4-4.5-2.4-8.7V23.3
		c0-0.3,0.1-0.5,0.3-0.7c0.2-0.2,0.4-0.3,0.7-0.3h4.4c0.3,0,0.5,0.1,0.7,0.3c0.2,0.2,0.3,0.4,0.3,0.7v15.6c0,2.4,0.4,3.9,1.1,4.6
		c0.7,0.6,1.7,0.9,3,0.9c1.5,0,3.3-0.6,5.4-1.9V23.3c0-0.3,0.1-0.5,0.3-0.7c0.2-0.2,0.4-0.3,0.7-0.3h4.4c0.3,0,0.5,0.1,0.7,0.3
		C550.6,22.9,550.7,23.1,550.7,23.3z"/>
	<path class="st0" d="M570.7,23v3.4c0,0.3-0.1,0.5-0.3,0.7s-0.4,0.3-0.7,0.3c-2.3,0-4.4,0.6-6.6,1.7v19.2c0,0.3-0.1,0.5-0.3,0.7
		c-0.2,0.2-0.4,0.3-0.7,0.3h-4.4c-0.3,0-0.5-0.1-0.7-0.3c-0.2-0.2-0.3-0.4-0.3-0.7v-25c0-0.3,0.1-0.5,0.3-0.7s0.4-0.3,0.7-0.3h4.1
		c0.3,0,0.5,0.1,0.7,0.3s0.3,0.4,0.3,0.7v1c1.9-1.5,4.2-2.3,6.8-2.3c0.3,0,0.5,0.1,0.7,0.3S570.7,22.7,570.7,23z"/>
	<path class="st0" d="M230.4,105.7c0,0.5-0.3,0.8-0.9,0.8h-5c-0.4,0-0.7-0.3-0.9-0.8l-2.2-9.1h-11l-2.2,9.1
		c-0.2,0.5-0.5,0.8-0.9,0.8h-5c-0.6,0-0.9-0.3-0.9-0.8l0,0c0-0.1,0-0.1,0-0.2l7.8-29.9c0.9-3.2,3.1-4.9,6.6-4.9
		c3.6,0,5.8,1.6,6.6,4.9l7.8,29.9C230.4,105.5,230.4,105.6,230.4,105.7L230.4,105.7z M220.1,91.2L216.7,77c-0.1-0.3-0.1-0.5-0.2-0.6
		c-0.1-0.1-0.3-0.1-0.5-0.1c-0.3,0-0.4,0-0.5,0.1c-0.1,0.1-0.2,0.3-0.2,0.6l-3.4,14.2H220.1z"/>
	<path class="st0" d="M256.4,80.6v25c0,0.3-0.1,0.5-0.3,0.7c-0.2,0.2-0.4,0.3-0.7,0.3h-4.4c-0.3,0-0.5-0.1-0.7-0.3
		c-0.2-0.2-0.3-0.4-0.3-0.7v-1.1c-2.3,1.6-4.8,2.4-7.5,2.4c-2.6,0-4.5-0.7-5.9-2c-1.6-1.6-2.4-4.5-2.4-8.7V80.6
		c0-0.3,0.1-0.5,0.3-0.7s0.4-0.3,0.7-0.3h4.4c0.3,0,0.5,0.1,0.7,0.3s0.3,0.4,0.3,0.7v15.6c0,2.4,0.4,3.9,1.1,4.6
		c0.7,0.6,1.7,0.9,3,0.9c1.5,0,3.3-0.6,5.4-1.9V80.6c0-0.3,0.1-0.5,0.3-0.7s0.4-0.3,0.7-0.3h4.4c0.3,0,0.5,0.1,0.7,0.3
		S256.4,80.4,256.4,80.6z"/>
	<path class="st0" d="M279.6,102v3.1c0,0.4-0.1,0.7-0.2,0.8c-0.1,0.2-0.4,0.3-0.8,0.4c-1.4,0.4-3.4,0.6-6.1,0.6c-3.2,0-5.9-1-7.9-3
		c-2-2-3-4.9-3-8.6v-4.4c0-3.8,1-6.6,3-8.6s4.6-3,7.9-3c2.7,0,4.8,0.2,6.1,0.6c0.4,0.1,0.7,0.2,0.8,0.4c0.1,0.2,0.2,0.5,0.2,0.8v3.1
		c0,0.5-0.3,0.7-0.9,0.7h-0.1c-1.8-0.2-3.8-0.3-6.1-0.3c-1.3,0-2.4,0.5-3.3,1.4c-0.9,1-1.3,2.6-1.3,4.8v4.4c0,2.3,0.4,3.9,1.3,4.8
		c0.9,1,2,1.4,3.3,1.4c2.3,0,4.4-0.1,6.1-0.3h0.1C279.4,101.2,279.6,101.5,279.6,102z"/>
	<path class="st0" d="M299.9,102.7v3c0,0.5-0.3,0.8-0.9,0.9c-1.3,0.2-2.4,0.3-3.2,0.3c-2.8,0-4.8-0.5-5.9-1.5c-1.1-1-1.7-3-1.7-6.1
		v-15l-4.5-0.7c-0.6-0.2-1-0.5-1-1v-2.1c0-0.3,0.1-0.5,0.3-0.7c0.2-0.2,0.4-0.3,0.7-0.3h4.5v-3.9c0-0.5,0.3-0.8,1-1l4.4-0.8h0.2
		c0.5,0,0.8,0.2,0.8,0.7v4.9h4.3c0.3,0,0.5,0.1,0.7,0.3c0.2,0.2,0.3,0.4,0.3,0.7v2.8c0,0.3-0.1,0.5-0.3,0.7
		c-0.2,0.2-0.4,0.3-0.7,0.3h-4.3v15c0,1.2,0.1,2,0.3,2.2s0.7,0.4,1.6,0.4h2.5C299.5,102,299.9,102.2,299.9,102.7z"/>
	<path class="st0" d="M310.7,70.9v4.2c0,0.3-0.1,0.5-0.3,0.7c-0.2,0.2-0.4,0.3-0.7,0.3h-4.6c-0.3,0-0.5-0.1-0.7-0.3
		c-0.2-0.2-0.3-0.4-0.3-0.7v-4.2c0-0.3,0.1-0.5,0.3-0.7c0.2-0.2,0.4-0.3,0.7-0.3h4.6c0.3,0,0.5,0.1,0.7,0.3
		C310.6,70.4,310.7,70.6,310.7,70.9z M310.6,80.6v25c0,0.3-0.1,0.5-0.3,0.7c-0.2,0.2-0.4,0.3-0.7,0.3h-4.4c-0.3,0-0.5-0.1-0.7-0.3
		c-0.2-0.2-0.3-0.4-0.3-0.7v-25c0-0.3,0.1-0.5,0.3-0.7c0.2-0.2,0.4-0.3,0.7-0.3h4.4c0.3,0,0.5,0.1,0.7,0.3
		C310.5,80.1,310.6,80.3,310.6,80.6z"/>
	<path class="st0" d="M338.9,91.2V95c0,3.5-1,6.4-3,8.6c-2,2.2-4.8,3.3-8.4,3.3s-6.4-1.1-8.4-3.3c-2-2.2-3-5.1-3-8.6v-3.9
		c0-3.5,1-6.4,3-8.6c2-2.2,4.8-3.3,8.4-3.3s6.4,1.1,8.4,3.3S338.9,87.6,338.9,91.2z M332.6,95v-3.9c0-2-0.4-3.6-1.3-4.7
		c-0.9-1.1-2.1-1.7-3.8-1.7c-1.7,0-2.9,0.6-3.8,1.7s-1.3,2.7-1.3,4.7V95c0,2,0.4,3.6,1.3,4.7s2.1,1.7,3.8,1.7c1.6,0,2.9-0.6,3.8-1.7
		C332.1,98.6,332.6,97,332.6,95z"/>
	<path class="st0" d="M366.2,90v15.6c0,0.3-0.1,0.5-0.3,0.7c-0.2,0.2-0.4,0.3-0.7,0.3h-4.4c-0.3,0-0.5-0.1-0.7-0.3
		c-0.2-0.2-0.3-0.4-0.3-0.7V90c0-2.2-0.2-3.6-0.7-4.3s-1.6-1-3.4-1c-1.5,0-3.3,0.6-5.4,1.7v19.2c0,0.3-0.1,0.5-0.3,0.7
		c-0.2,0.2-0.4,0.3-0.7,0.3h-4.4c-0.3,0-0.5-0.1-0.7-0.3c-0.2-0.2-0.3-0.4-0.3-0.7v-25c0-0.3,0.1-0.5,0.3-0.7
		c0.2-0.2,0.4-0.3,0.7-0.3h4.1c0.3,0,0.5,0.1,0.7,0.3c0.2,0.2,0.3,0.4,0.3,0.7v1c1.4-0.9,2.6-1.5,3.7-1.8c1.1-0.3,2.4-0.5,4-0.5
		c1.7,0,3,0.3,4.2,0.8c1.1,0.5,2,1.3,2.5,2.3s1,2.1,1.2,3.3C366.1,86.9,366.2,88.3,366.2,90z"/>
	<path class="st0" d="M390.5,99.5c0,2.2-0.8,4-2.4,5.4c-1.6,1.4-3.9,2.1-6.9,2.1c-3.5,0-6.3-0.3-8.5-1c-0.6-0.1-0.9-0.5-0.9-1.1V102
		c0-0.5,0.3-0.8,0.8-0.8h0.2c3.4,0.4,6,0.5,8,0.5c1.3,0,2.2-0.2,2.7-0.6s0.7-1,0.7-1.7s-0.7-1.6-2.1-2.4l-6.5-4
		c-2.7-1.7-4-3.9-4-6.6c0-4.8,3-7.2,9-7.2c2.7,0,5.5,0.3,8.5,1c0.6,0.2,0.9,0.5,0.9,1.1v2.8c0,0.6-0.3,0.9-0.8,0.9h-0.2
		c-2.1-0.4-4.7-0.6-7.9-0.6c-1.2,0-2,0.2-2.5,0.5s-0.8,0.8-0.8,1.6c0,0.4,0.1,0.7,0.4,0.9c0.3,0.3,0.8,0.6,1.5,1l6.2,3.8
		c1.8,1.1,3,2.2,3.6,3.4C390.2,96.7,390.5,98,390.5,99.5z"/>
</g>
<text transform="matrix(0.9975 0 0 1 19.9232 -67.9941)" class="st1"><tspan x="0" y="0" class="st2 st3 st4">Luefty Transfer and Tour</tspan><tspan x="179.5" y="57.3" class="st2 st3 st4">Auctions</tspan></text>
</svg>
