<?xml version="1.0" encoding="utf-8"?>
<!-- Generator: Adobe Illustrator 25.3.1, SVG Export Plug-In . SVG Version: 6.00 Build 0)  -->
<svg version="1.1" id="Capa_1" xmlns="http://www.w3.org/2000/svg" xmlns:xlink="http://www.w3.org/1999/xlink" x="0px" y="0px"
	 viewBox="0 0 535.9 76.9" style="enable-background:new 0 0 535.9 76.9;" xml:space="preserve">
<style type="text/css">
	.st0{fill:#007BFF;stroke:#83DCFF;stroke-miterlimit:10;}
</style>
<g>
	<path class="st0" d="M40,48.9V52c0,0.4-0.1,0.6-0.2,0.7c-0.1,0.1-0.4,0.2-0.8,0.3c-1.6,0.4-4.3,0.7-8.1,0.7c-1.7,0-3.1-0.1-4.4-0.4
		c-1.2-0.3-2.4-0.7-3.4-1.4c-1.1-0.7-1.9-1.7-2.4-3c-0.5-1.3-0.8-3-0.8-5V18.8c0-0.3,0.1-0.5,0.3-0.7s0.4-0.3,0.7-0.3h4.7
		c0.3,0,0.5,0.1,0.7,0.3s0.3,0.4,0.3,0.7v25.1c0,1.6,0.3,2.7,0.8,3.2c0.5,0.6,1.5,0.9,2.9,0.9h8.8c0.3,0,0.5,0.1,0.7,0.3
		C40,48.4,40,48.7,40,48.9z"/>
	<path class="st0" d="M66.1,27.3v25c0,0.3-0.1,0.5-0.3,0.7c-0.2,0.2-0.4,0.3-0.7,0.3h-4.4c-0.3,0-0.5-0.1-0.7-0.3
		c-0.2-0.2-0.3-0.4-0.3-0.7v-1.1c-2.3,1.6-4.8,2.4-7.5,2.4c-2.6,0-4.5-0.7-5.9-2c-1.6-1.6-2.4-4.5-2.4-8.7V27.3
		c0-0.3,0.1-0.5,0.3-0.7c0.2-0.2,0.4-0.3,0.7-0.3h4.4c0.3,0,0.5,0.1,0.7,0.3c0.2,0.2,0.3,0.4,0.3,0.7v15.6c0,2.4,0.4,3.9,1.1,4.6
		c0.7,0.6,1.7,0.9,3,0.9c1.5,0,3.3-0.6,5.4-1.9V27.3c0-0.3,0.1-0.5,0.3-0.7c0.2-0.2,0.4-0.3,0.7-0.3h4.4c0.3,0,0.5,0.1,0.7,0.3
		C66,26.9,66.1,27.1,66.1,27.3z"/>
	<path class="st0" d="M94.2,38.1v2.7c0,0.8-0.3,1.2-1,1.2H77.8v0.1c0,1.7,0.4,3.1,1.3,4.3c0.9,1.2,2.3,1.8,4.4,1.8
		c2.4,0,5.3-0.2,8.8-0.5h0.1c0.6,0,0.9,0.2,0.9,0.7v3.1c0,0.4-0.1,0.7-0.2,0.9c-0.1,0.2-0.4,0.3-0.8,0.4c-3.2,0.5-6.3,0.8-9.2,0.8
		c-1.3,0-2.6-0.2-3.8-0.6c-1.3-0.4-2.5-1-3.7-1.9c-1.2-0.9-2.2-2.1-2.9-3.7c-0.7-1.6-1.1-3.6-1.1-5.8v-3.5c0-3.8,1-6.8,3-8.9
		s4.8-3.2,8.4-3.2s6.4,1.1,8.4,3.3C93.2,31.5,94.2,34.5,94.2,38.1z M87.9,37.5v-0.2c0-1.8-0.5-3.3-1.4-4.3c-0.9-1-2.1-1.6-3.6-1.6
		S80.1,32,79.2,33c-0.9,1-1.4,2.5-1.4,4.3v0.2H87.9z"/>
	<path class="st0" d="M114.4,17.5v2.8c0,0.5-0.2,0.8-0.7,0.8h-2.1c-1.1,0-1.9,0.2-2.3,0.5c-0.4,0.4-0.5,1.1-0.5,2.3v2.3h4.6
		c0.3,0,0.5,0.1,0.7,0.3s0.3,0.4,0.3,0.7v2.9c0,0.3-0.1,0.5-0.3,0.6c-0.2,0.2-0.4,0.3-0.7,0.3h-4.6v21.2c0,0.3-0.1,0.5-0.3,0.7
		c-0.2,0.2-0.4,0.3-0.7,0.3h-4.3c-0.3,0-0.5-0.1-0.7-0.3c-0.2-0.2-0.3-0.4-0.3-0.7V31.1l-4.2-0.7c-0.6-0.2-1-0.5-1-0.9v-2.2
		c0-0.3,0.1-0.5,0.3-0.7s0.4-0.3,0.7-0.3h4.2V24c0-2.9,0.7-4.9,2.1-6c1.4-1.1,3.4-1.7,6.1-1.7c0.7,0,1.7,0.1,2.9,0.4
		C114.1,17,114.4,17.2,114.4,17.5z"/>
	<path class="st0" d="M133.4,49.4v3c0,0.5-0.3,0.8-0.9,0.9c-1.3,0.2-2.4,0.3-3.2,0.3c-2.8,0-4.8-0.5-5.9-1.5c-1.1-1-1.7-3-1.7-6.1
		v-15l-4.5-0.7c-0.6-0.2-1-0.5-1-1v-2.1c0-0.3,0.1-0.5,0.3-0.7s0.4-0.3,0.7-0.3h4.5v-3.9c0-0.5,0.3-0.8,1-1l4.4-0.8h0.2
		c0.5,0,0.8,0.2,0.8,0.7v4.9h4.3c0.3,0,0.5,0.1,0.7,0.3s0.3,0.4,0.3,0.7v2.8c0,0.3-0.1,0.5-0.3,0.7s-0.4,0.3-0.7,0.3H128v15
		c0,1.2,0.1,2,0.3,2.2s0.7,0.4,1.6,0.4h2.5C133.1,48.7,133.4,49,133.4,49.4z"/>
	<path class="st0" d="M160.1,27.2c0,0.2,0,0.3,0,0.3l-8,27.9c-0.8,2.8-1.9,4.7-3.1,5.8s-3.5,1.6-6.6,1.6c-2.2,0-3.9-0.2-5-0.6
		c-0.7-0.2-1-0.5-1-0.8v-3.1c0-0.6,0.3-0.9,1-0.9h0.1c0.4,0,1.3,0,2.7,0.1c1.3,0.1,2.2,0.1,2.7,0.1c1.1,0,1.9-0.2,2.4-0.6
		c0.5-0.4,1-1.2,1.3-2.4l0.4-1.4h-0.7c-0.6,0-1.1-0.1-1.5-0.2s-0.9-0.5-1.4-1.1c-0.5-0.6-0.9-1.5-1.2-2.6l-6.2-21.9
		c0-0.1,0-0.2,0-0.3c0-0.5,0.3-0.8,0.9-0.8h4.8c0.4,0,0.7,0.3,0.9,0.9l4.8,19.4c0.2,0.7,0.4,1,0.7,1h0h0.2h0.1l5.1-20.5
		c0.2-0.5,0.5-0.8,1-0.8h4.9C159.8,26.3,160.1,26.6,160.1,27.2z"/>
	<path class="st0" d="M199.5,18.7v3.8c0,0.6-0.3,0.9-1,0.9h-8.3v29c0,0.3-0.1,0.5-0.3,0.7c-0.2,0.2-0.4,0.3-0.7,0.3h-4.7
		c-0.3,0-0.5-0.1-0.7-0.3c-0.2-0.2-0.3-0.4-0.3-0.7v-29h-8.3c-0.6,0-1-0.3-1-0.9v-3.8c0-0.3,0.1-0.5,0.3-0.6
		c0.2-0.2,0.4-0.3,0.7-0.3h23.3c0.3,0,0.5,0.1,0.7,0.3C199.4,18.2,199.5,18.5,199.5,18.7z"/>
	<path class="st0" d="M217.6,27v3.4c0,0.3-0.1,0.5-0.3,0.7s-0.4,0.3-0.7,0.3c-2.3,0-4.4,0.6-6.6,1.7v19.2c0,0.3-0.1,0.5-0.3,0.7
		c-0.2,0.2-0.4,0.3-0.7,0.3h-4.4c-0.3,0-0.5-0.1-0.7-0.3c-0.2-0.2-0.3-0.4-0.3-0.7v-25c0-0.3,0.1-0.5,0.3-0.7s0.4-0.3,0.7-0.3h4.1
		c0.3,0,0.5,0.1,0.7,0.3s0.3,0.4,0.3,0.7v1c1.9-1.5,4.2-2.3,6.8-2.3c0.3,0,0.5,0.1,0.7,0.3S217.6,26.7,217.6,27z"/>
	<path class="st0" d="M241.6,35.1v17.2c0,0.3-0.1,0.5-0.3,0.7c-0.2,0.2-0.4,0.3-0.7,0.3h-4c-0.3,0-0.5-0.1-0.7-0.3
		c-0.2-0.2-0.3-0.4-0.3-0.7v-0.8c-2.3,1.4-4.6,2.1-6.7,2.1c-2.3,0-4.3-0.6-5.9-1.8s-2.4-3.3-2.4-6.2v-0.2c0-2.8,0.9-4.9,2.8-6.2
		c1.8-1.4,4.8-2,8.9-2h3v-2.1c0-1.5-0.3-2.5-1-3.1c-0.7-0.5-1.7-0.8-3.2-0.8c-3.1,0-5.7,0.1-7.8,0.4h-0.2c-0.6,0-0.9-0.3-0.9-0.8
		v-3.1c0-0.5,0.3-0.9,0.9-1c2.5-0.5,5.2-0.8,8-0.8C238.1,26,241.6,29,241.6,35.1z M235.3,47.3v-5.9h-3c-2.1,0-3.5,0.3-4.2,1
		S227,44,227,45.5v0.2c0,1.1,0.3,1.9,0.8,2.3c0.5,0.4,1.4,0.6,2.6,0.6C232.1,48.6,233.7,48.2,235.3,47.3z"/>
	<path class="st0" d="M269.8,27.1c0,0.2,0,0.3,0,0.3l-6,21.7c-0.7,3-2.7,4.5-6,4.5c-3.1,0-5-1.5-5.9-4.5l-6-21.7c0,0,0-0.1,0-0.3
		c0-0.5,0.3-0.8,0.8-0.8h4.8c0.5,0,0.8,0.3,1,1l4.6,20c0.2,0.8,0.5,1.2,0.9,1.2c0.4,0,0.7-0.4,0.9-1.2l4.6-20c0.2-0.6,0.5-1,1-1h4.8
		C269.5,26.3,269.8,26.6,269.8,27.1z"/>
	<path class="st0" d="M295.9,38.1v2.7c0,0.8-0.3,1.2-1,1.2h-15.5v0.1c0,1.7,0.4,3.1,1.3,4.3c0.9,1.2,2.3,1.8,4.4,1.8
		c2.4,0,5.3-0.2,8.8-0.5h0.1c0.6,0,0.9,0.2,0.9,0.7v3.1c0,0.4-0.1,0.7-0.2,0.9c-0.1,0.2-0.4,0.3-0.8,0.4c-3.2,0.5-6.3,0.8-9.2,0.8
		c-1.3,0-2.6-0.2-3.8-0.6c-1.3-0.4-2.5-1-3.7-1.9c-1.2-0.9-2.2-2.1-2.9-3.7c-0.7-1.6-1.1-3.6-1.1-5.8v-3.5c0-3.8,1-6.8,3-8.9
		c2-2.1,4.8-3.2,8.4-3.2c3.6,0,6.4,1.1,8.4,3.3C295,31.5,295.9,34.5,295.9,38.1z M289.6,37.5v-0.2c0-1.8-0.5-3.3-1.4-4.3
		c-0.9-1-2.1-1.6-3.6-1.6c-1.5,0-2.8,0.5-3.7,1.5c-0.9,1-1.4,2.5-1.4,4.3v0.2H289.6z"/>
	<path class="st0" d="M307.8,17.9v34.4c0,0.3-0.1,0.5-0.3,0.7c-0.2,0.2-0.4,0.3-0.6,0.3h-4.4c-0.3,0-0.5-0.1-0.7-0.3
		c-0.2-0.2-0.3-0.4-0.3-0.7V17.9c0-0.3,0.1-0.5,0.3-0.7s0.4-0.3,0.7-0.3h4.4c0.3,0,0.5,0.1,0.6,0.3
		C307.8,17.4,307.8,17.6,307.8,17.9z"/>
	<path class="st0" d="M353.2,53c0,0.5-0.3,0.8-0.9,0.8h-5c-0.4,0-0.7-0.3-0.9-0.8l-2.2-9.1h-10.9l-2.2,9.1c-0.2,0.5-0.5,0.8-0.9,0.8
		h-5c-0.6,0-0.9-0.3-0.9-0.8l0,0c0-0.1,0-0.1,0-0.2l7.8-29.9c0.9-3.2,3.1-4.9,6.6-4.9c3.6,0,5.8,1.6,6.6,4.9l7.8,29.9
		C353.1,52.8,353.1,52.9,353.2,53L353.2,53z M342.9,38.5l-3.4-14.2c-0.1-0.3-0.1-0.5-0.2-0.6c-0.1-0.1-0.3-0.1-0.5-0.1
		c-0.3,0-0.4,0-0.5,0.1c-0.1,0.1-0.2,0.3-0.2,0.6l-3.4,14.2H342.9z"/>
	<path class="st0" d="M379.2,27.9v25c0,0.3-0.1,0.5-0.3,0.7c-0.2,0.2-0.4,0.3-0.7,0.3h-4.4c-0.3,0-0.5-0.1-0.7-0.3
		c-0.2-0.2-0.3-0.4-0.3-0.7v-1.1c-2.3,1.6-4.8,2.4-7.5,2.4c-2.6,0-4.5-0.7-5.9-2c-1.6-1.6-2.4-4.5-2.4-8.7V27.9
		c0-0.3,0.1-0.5,0.3-0.7s0.4-0.3,0.7-0.3h4.4c0.3,0,0.5,0.1,0.7,0.3s0.3,0.4,0.3,0.7v15.6c0,2.4,0.4,3.9,1.1,4.6
		c0.7,0.6,1.7,0.9,3,0.9c1.5,0,3.3-0.6,5.4-1.9V27.9c0-0.3,0.1-0.5,0.3-0.7s0.4-0.3,0.7-0.3h4.4c0.3,0,0.5,0.1,0.7,0.3
		S379.2,27.7,379.2,27.9z"/>
	<path class="st0" d="M402.4,49.3v3.1c0,0.4-0.1,0.7-0.2,0.8c-0.1,0.2-0.4,0.3-0.8,0.4c-1.4,0.4-3.4,0.6-6.1,0.6c-3.2,0-5.9-1-7.9-3
		c-2-2-3-4.9-3-8.6v-4.4c0-3.8,1-6.6,3-8.6c2-2,4.6-3,7.9-3c2.7,0,4.8,0.2,6.1,0.6c0.4,0.1,0.7,0.2,0.8,0.4s0.2,0.5,0.2,0.8v3.1
		c0,0.5-0.3,0.7-0.9,0.7h-0.1c-1.8-0.2-3.8-0.3-6.1-0.3c-1.3,0-2.4,0.5-3.3,1.4c-0.9,1-1.3,2.6-1.3,4.8v4.4c0,2.3,0.4,3.9,1.3,4.8
		c0.9,1,2,1.4,3.3,1.4c2.3,0,4.4-0.1,6.1-0.3h0.1C402.1,48.5,402.4,48.8,402.4,49.3z"/>
	<path class="st0" d="M422.7,50v3c0,0.5-0.3,0.8-0.9,0.9c-1.3,0.2-2.4,0.3-3.2,0.3c-2.8,0-4.8-0.5-5.9-1.5c-1.1-1-1.7-3-1.7-6.1v-15
		l-4.5-0.7c-0.6-0.2-1-0.5-1-1v-2.1c0-0.3,0.1-0.5,0.3-0.7c0.2-0.2,0.4-0.3,0.7-0.3h4.5V23c0-0.5,0.3-0.8,1-1l4.4-0.8h0.2
		c0.5,0,0.8,0.2,0.8,0.7v4.9h4.3c0.3,0,0.5,0.1,0.7,0.3c0.2,0.2,0.3,0.4,0.3,0.7v2.8c0,0.3-0.1,0.5-0.3,0.7
		c-0.2,0.2-0.4,0.3-0.7,0.3h-4.3v15c0,1.2,0.1,2,0.3,2.2s0.7,0.4,1.6,0.4h2.5C422.3,49.3,422.7,49.5,422.7,50z"/>
	<path class="st0" d="M433.5,18.2v4.2c0,0.3-0.1,0.5-0.3,0.7c-0.2,0.2-0.4,0.3-0.7,0.3h-4.6c-0.3,0-0.5-0.1-0.7-0.3
		c-0.2-0.2-0.3-0.4-0.3-0.7v-4.2c0-0.3,0.1-0.5,0.3-0.7c0.2-0.2,0.4-0.3,0.7-0.3h4.6c0.3,0,0.5,0.1,0.7,0.3
		C433.4,17.7,433.5,17.9,433.5,18.2z M433.4,27.9v25c0,0.3-0.1,0.5-0.3,0.7c-0.2,0.2-0.4,0.3-0.7,0.3H428c-0.3,0-0.5-0.1-0.7-0.3
		c-0.2-0.2-0.3-0.4-0.3-0.7v-25c0-0.3,0.1-0.5,0.3-0.7c0.2-0.2,0.4-0.3,0.7-0.3h4.4c0.3,0,0.5,0.1,0.7,0.3
		C433.3,27.4,433.4,27.6,433.4,27.9z"/>
	<path class="st0" d="M461.6,38.5v3.9c0,3.5-1,6.4-3,8.6c-2,2.2-4.8,3.3-8.4,3.3s-6.4-1.1-8.4-3.3c-2-2.2-3-5.1-3-8.6v-3.9
		c0-3.5,1-6.4,3-8.6c2-2.2,4.8-3.3,8.4-3.3s6.4,1.1,8.4,3.3S461.6,34.9,461.6,38.5z M455.4,42.3v-3.9c0-2-0.4-3.6-1.3-4.7
		s-2.1-1.7-3.8-1.7c-1.7,0-2.9,0.6-3.8,1.7c-0.9,1.1-1.3,2.7-1.3,4.7v3.9c0,2,0.4,3.6,1.3,4.7c0.9,1.1,2.1,1.7,3.8,1.7
		c1.6,0,2.9-0.6,3.8-1.7S455.4,44.3,455.4,42.3z"/>
	<path class="st0" d="M489,37.3v15.6c0,0.3-0.1,0.5-0.3,0.7c-0.2,0.2-0.4,0.3-0.7,0.3h-4.4c-0.3,0-0.5-0.1-0.7-0.3
		c-0.2-0.2-0.3-0.4-0.3-0.7V37.3c0-2.2-0.2-3.6-0.7-4.3c-0.5-0.7-1.6-1-3.4-1c-1.5,0-3.3,0.6-5.4,1.7v19.2c0,0.3-0.1,0.5-0.3,0.7
		c-0.2,0.2-0.4,0.3-0.7,0.3H468c-0.3,0-0.5-0.1-0.7-0.3c-0.2-0.2-0.3-0.4-0.3-0.7v-25c0-0.3,0.1-0.5,0.3-0.7
		c0.2-0.2,0.4-0.3,0.7-0.3h4.1c0.3,0,0.5,0.1,0.7,0.3c0.2,0.2,0.3,0.4,0.3,0.7v1c1.4-0.9,2.6-1.5,3.7-1.8c1.1-0.3,2.4-0.5,4-0.5
		c1.7,0,3,0.3,4.2,0.8c1.1,0.5,2,1.3,2.5,2.3s1,2.1,1.2,3.3C488.9,34.2,489,35.6,489,37.3z"/>
	<path class="st0" d="M513.3,46.8c0,2.2-0.8,4-2.4,5.4c-1.6,1.4-3.9,2.1-6.9,2.1c-3.5,0-6.3-0.3-8.5-1c-0.6-0.1-0.9-0.5-0.9-1.1
		v-2.9c0-0.5,0.3-0.8,0.8-0.8h0.2c3.4,0.4,6,0.5,8,0.5c1.3,0,2.2-0.2,2.7-0.6s0.7-1,0.7-1.7s-0.7-1.6-2.1-2.4l-6.5-4
		c-2.7-1.7-4-3.9-4-6.6c0-4.8,3-7.2,9-7.2c2.7,0,5.5,0.3,8.5,1c0.6,0.2,0.9,0.5,0.9,1.1v2.8c0,0.6-0.3,0.9-0.8,0.9h-0.2
		c-2.1-0.4-4.7-0.6-7.9-0.6c-1.2,0-2,0.2-2.5,0.5s-0.8,0.8-0.8,1.6c0,0.4,0.1,0.7,0.4,0.9c0.3,0.3,0.8,0.6,1.5,1l6.2,3.8
		c1.8,1.1,3,2.2,3.6,3.4C512.9,44,513.3,45.3,513.3,46.8z"/>
</g>
</svg>
