<?xml version="1.0" encoding="utf-8"?>
<!-- Generator: Adobe Illustrator 24.1.0, SVG Export Plug-In . SVG Version: 6.00 Build 0)  -->
<svg version="1.1" id="Capa_1" xmlns="http://www.w3.org/2000/svg" xmlns:xlink="http://www.w3.org/1999/xlink" x="0px" y="0px"
	 viewBox="0 0 200 200" style="enable-background:new 0 0 200 200;" xml:space="preserve">
<style type="text/css">
	.st0{clip-path:url(#SVGID_2_);}
	.st1{fill:#267BF8;}
	.st2{fill:#EEB399;}
	.st3{fill:#CC957F;}
	.st4{fill:#15191C;}
	.st5{fill:#5B3222;}
	.st6{fill:none;stroke:#FFFFFF;stroke-width:0.5669;stroke-miterlimit:10;}
	.st7{fill:#B7745A;}
	.st8{fill:#FFFFFF;}
	.st9{clip-path:url(#SVGID_4_);}
	.st10{fill:#B73960;}
	.st11{opacity:0.5;fill:#EEB399;}
	.st12{fill:#C63F62;}
	.st13{opacity:0.7;fill:#FFFFFF;}
	.st14{fill:#2DD66A;}
	.st15{fill:#78DE99;}
	.st16{fill:#1866BF;}
	.st17{fill:#F1F1F1;}
	.st18{fill:#3BFB84;}
	.st19{fill:#236EC9;}
</style>
<g>
	<defs>
		<path id="SVGID_1_" d="M227.93,67.77h-51.5c2.74-25.66-2.83-67.94-69.97-66.22C35.98,3.36,32.81,45.44,36.14,67.77h-42.4
			L-10,199.62h146.56c50.84,0,92.44-41.6,92.44-92.44V68.84C229,68.25,228.52,67.77,227.93,67.77z"/>
	</defs>
	<clipPath id="SVGID_2_">
		<use xlink:href="#SVGID_1_"  style="overflow:visible;"/>
	</clipPath>
	<g class="st0">
		<g>
			<path class="st1" d="M27.77,177.55l-7.81,159.72c0,0,33.25,23.97,84.41,24.5c51.16,0.52,65.02-20.35,65.02-20.35
				s9.68-156.29,9.68-158.02c-0.01-2.14-0.78-53.47-75.04-52.3C29.76,132.26,27.77,177.55,27.77,177.55z"/>
		</g>
		<g>
			<g>
				<g>
					<path class="st2" d="M132.82,104.14l-5.74,30.39c-0.2,1.04-0.68,2.01-1.4,2.78l-14.87,16.09
						c-9.38,10.14-26.29,2.79-25.27-10.99l0.56-7.53l5.04-26.12L132.82,104.14z"/>
				</g>
				<path class="st3" d="M125.51,113.55l-36.2,4.71l-2.68,13.9C106.1,133.29,125.51,113.55,125.51,113.55z"/>
				<path class="st2" d="M101.73,129.59l-18.18-1.81c-15.55-1.55-27-15.54-25.45-31.09l5.02-50.3c1.55-15.55,15.54-27,31.09-25.45
					l18.18,1.81c15.55,1.55,27,15.54,25.45,31.09l-5.02,50.3C131.27,119.69,117.28,131.14,101.73,129.59z"/>
				<g>
					<path class="st4" d="M100.87,73.51c0,1.53,0.85,2.77,1.89,2.77c1.04,0,1.89-1.24,1.89-2.77c0-1.53-0.85-2.77-1.89-2.77
						C101.72,70.75,100.87,71.98,100.87,73.51z"/>
					<path class="st4" d="M71.34,71.49c0,1.53,0.85,2.77,1.89,2.77s1.89-1.24,1.89-2.77s-0.85-2.77-1.89-2.77
						S71.34,69.96,71.34,71.49z"/>
				</g>
				<path class="st5" d="M63.83,65.38c-0.38,0-0.77-0.14-1.07-0.42c-0.64-0.59-0.67-1.59-0.08-2.22c6.04-6.5,16.31-2.56,16.75-2.39
					c0.81,0.32,1.21,1.23,0.89,2.04c-0.32,0.81-1.23,1.21-2.04,0.89c-0.09-0.04-8.73-3.31-13.29,1.6
					C64.67,65.21,64.25,65.38,63.83,65.38z"/>
				<path class="st5" d="M131.44,111.51c0,0.06,0,0.11,0,0.17c0.82-2.11,1.3-4.34,1.98-6.51c1.21-3.89,3.05-7.56,5.08-11.08
					c1.02-1.77,2.08-3.52,3.16-5.25c1-1.6,2.31-3.07,3.47-4.57c4.02-5.23,8.08-10.54,10.71-16.63c3.35-7.77,3.97-17.37-0.94-24.27
					c2.41-1.25,5.79,0.39,6.31,3.05c2.37-6.29-3.08-14.12-9.8-14.08c1.14-3.86,3.81-7.24,7.3-9.23c-4.83-0.87-10.03,0.55-13.74,3.76
					c-10.78-11.05-29.6-12.27-45.04-12.34c-6.5-0.03-13.06,0.12-19.35,1.72c-6.99,1.78-13.41,5.28-19.65,8.92
					c-7.12,4.15-14.6,9.1-17.28,16.9c4.77-2.01,9.55-4.02,14.32-6.03c-4.97,4.27-7.97,10.75-8.01,17.31
					c-0.04,6.55,2.89,13.07,7.81,17.4c2.21-9.93,6.65-19.36,12.89-27.39c1.4,8.92,8.33,16.19,16.34,20.35
					c8.01,4.16,17.08,5.71,25.99,7.2c4.94,0.83,9.88,1.66,14.82,2.49c-3.49,4.46-6.27,9.48-8.2,14.81c4.4-1.62,7.92-5.46,9.16-9.98
					c-0.08,0.29,0.79,1.66,0.92,2.02c0.25,0.74,0.44,1.5,0.55,2.27c0.11,0.77,0.16,1.55,0.11,2.33c-0.03,0.51-0.53,1.11-0.38,1.58
					c0.84-0.04,1.62,0.06,2.32,0.56c0.8,0.57,1.29,1.5,1.51,2.46c0.22,0.96,0.2,1.95,0.15,2.94c-0.14,2.93-0.51,5.84-0.87,8.75
					c-0.1,0.78-0.2,1.57-0.36,2.34c-0.13,0.62-0.3,1.23-0.45,1.84C131.76,107.33,131.48,109.42,131.44,111.51z"/>
				<polyline class="st6" points="112.03,91.95 131.86,79.95 135.68,95.08 111.34,119.94 				"/>
				<g>
					<path class="st2" d="M144.53,88.08c-0.5,5.06-5.01,8.75-10.07,8.24c-5.06-0.5-8.75-5.01-8.24-10.07
						c0.5-5.06,5.01-8.75,10.07-8.24C141.34,78.52,145.03,83.03,144.53,88.08z"/>
					<path class="st7" d="M134.9,93.96c-0.15,0-0.3-0.08-0.38-0.22c-0.13-0.21-0.06-0.49,0.15-0.61c2.64-1.59,4.08-3.45,4.26-5.53
						c0.33-3.63-3.23-6.81-3.27-6.84c-0.18-0.16-0.2-0.44-0.04-0.63c0.16-0.19,0.44-0.2,0.63-0.04c0.16,0.14,3.94,3.51,3.57,7.59
						c-0.22,2.38-1.79,4.47-4.69,6.22C135.05,93.94,134.98,93.96,134.9,93.96z"/>
					<path class="st7" d="M132.21,90.45c-0.05,0-0.09-0.01-0.14-0.02c-0.23-0.08-0.36-0.33-0.29-0.56c0.63-1.97,1.68-3.27,3.12-3.88
						c2.25-0.95,4.56,0.18,4.66,0.22c0.22,0.11,0.31,0.38,0.2,0.6c-0.11,0.23-0.38,0.31-0.6,0.2c-0.02-0.01-2.06-0.99-3.92-0.2
						c-1.18,0.5-2.06,1.62-2.61,3.33C132.57,90.33,132.4,90.45,132.21,90.45z"/>
				</g>
				<path class="st7" d="M80.27,93.16c-1.38,0-2.68-0.39-3.69-1.14c-1.58-1.17-2.32-3.26-1.76-4.98c0.29-0.88,0.85-1.59,1.4-2.27
					c4.94-6.19,7.43-11.45,7.91-16.65c0.02-0.24,0.24-0.44,0.49-0.4c0.25,0.02,0.43,0.24,0.41,0.49c-0.5,5.38-3.05,10.8-8.05,17.05
					c-0.55,0.69-1.07,1.34-1.31,2.06c-0.44,1.36,0.16,3.03,1.45,3.98c1.17,0.87,2.81,1.17,4.5,0.83c0.26-0.04,0.48,0.11,0.53,0.35
					c0.05,0.24-0.11,0.48-0.35,0.53C81.28,93.1,80.77,93.16,80.27,93.16z"/>
				<path class="st8" d="M58.48,88.64c0,0,18.08-21.39,56.33,2.96c0,0,9.22,16.69-3.83,31.64c0,0-18.95,6.61-44.51-0.87
					C66.48,122.38,49.96,112.46,58.48,88.64z"/>
			</g>
		</g>
	</g>
</g>
<g>
	<defs>
		<path id="SVGID_5_" d="M-3.41,142.97c-1.47-14.5-12.69-20.33-68.29-15.23c-35.13,3.23-48.1,10.75-52.64,16.93
			c-29.39,6.78-51.48,33.22-51.48,64.59v27.49c0,0.42,0.34,0.77,0.77,0.77H4.41v-94.55H-3.41z"/>
	</defs>
	<clipPath id="SVGID_4_">
		<use xlink:href="#SVGID_5_"  style="overflow:visible;"/>
	</clipPath>
</g>
</svg>
