<svg id="Capa_1" enable-background="new 0 0 512 512" height="512" viewBox="0 0 512 512" width="512" xmlns="http://www.w3.org/2000/svg"><g><g><g><g><g><g><g><circle cx="256" cy="256" fill="#00d65b" r="256"/></g></g></g></g></g></g><path d="m509.417 292.5-72.203-72.203-10.519 8.693-69.45-69.45-285.536 180.054 172.122 172.122c4.033.189 8.09.284 12.169.284 128.993 0 235.702-95.404 253.417-219.5z" fill="#06bf51"/><g><path d="m375.399 365.447c45.887 0 83.085-38.958 83.085-87.014s-37.198-87.014-83.085-87.014c-1.401 0-2.793.036-4.177.108-13.155-48.661-55.881-84.312-106.557-84.312-52.163 0-95.902 37.774-107.638 88.628-8.244-2.87-17.061-4.424-26.225-4.424-45.887 0-83.085 38.958-83.085 87.014s37.198 87.014 83.085 87.014z" fill="#707789"/></g><g><path d="m375.399 191.418c-1.401 0-2.793.036-4.177.108-13.156-48.661-55.881-84.312-106.557-84.312-2.877 0-5.723.134-8.544.36v257.873h119.278c45.886 0 83.085-38.958 83.085-87.015-.001-48.056-37.199-87.014-83.085-87.014z" fill="#555a66"/></g><g><path d="m110.593 267.649c0-32.128 24.33-53.806 56.302-53.806 25.109 0 38.522 14.192 45.385 27.917l-23.082 10.917c-3.432-8.266-12.321-15.128-22.303-15.128-17 0-29.009 13.101-29.009 30.1 0 17 12.009 30.1 29.009 30.1 9.981 0 18.871-6.862 22.303-15.128l23.082 10.917c-6.707 13.413-20.275 27.917-45.385 27.917-31.972.001-56.302-21.834-56.302-53.806z" fill="#fff"/><path d="m218.517 267.649c0-31.66 23.862-53.806 55.678-53.806s55.522 22.146 55.522 53.806-23.706 53.806-55.522 53.806c-31.816.001-55.678-22.146-55.678-53.806zm83.907 0c0-17-11.073-30.1-28.229-30.1-17.312 0-28.385 13.101-28.385 30.1 0 16.844 11.073 30.1 28.385 30.1 17.156.001 28.229-13.256 28.229-30.1z" fill="#fff"/><g fill="#e9edf5"><path d="m274.194 213.843c-6.391 0-12.454.908-18.074 2.593v27.31c4.702-3.903 10.841-6.196 18.074-6.196 17.156 0 28.229 13.101 28.229 30.1 0 16.844-11.073 30.1-28.229 30.1-7.233 0-13.372-2.321-18.074-6.244v27.357c5.62 1.685 11.683 2.593 18.074 2.593 31.816 0 55.522-22.146 55.522-53.806s-23.705-53.807-55.522-53.807z"/><path d="m347.793 319.584v-13.726c29.604-21.408 35.135-26.12 35.135-32.881 0-4.712-4.405-7.17-9.424-7.17-7.58 0-13.316 2.868-18.233 7.478l-9.73-11.677c7.272-7.99 18.13-11.37 27.656-11.37 16.082 0 27.657 9.014 27.657 22.74 0 10.448-7.478 19.36-24.481 31.242h24.993v15.365h-53.573z"/></g></g></g></svg>