<?xml version="1.0" encoding="utf-8"?>
<!-- Generator: Adobe Illustrator 24.1.0, SVG Export Plug-In . SVG Version: 6.00 Build 0)  -->
<svg version="1.1" id="Capa_1" xmlns="http://www.w3.org/2000/svg" xmlns:xlink="http://www.w3.org/1999/xlink" x="0px" y="0px"
	 viewBox="0 0 200 200" style="enable-background:new 0 0 200 200;" xml:space="preserve">
<style type="text/css">
	.st0{clip-path:url(#SVGID_2_);}
	.st1{fill:#267BF8;}
	.st2{fill:#EEB399;}
	.st3{fill:#CC957F;}
	.st4{fill:#15191C;}
	.st5{fill:#5B3222;}
	.st6{fill:none;stroke:#FFFFFF;stroke-width:0.5669;stroke-miterlimit:10;}
	.st7{fill:#B7745A;}
	.st8{fill:#FFFFFF;}
	.st9{clip-path:url(#SVGID_4_);}
	.st10{fill:#B73960;}
	.st11{opacity:0.5;fill:#EEB399;}
	.st12{fill:#C63F62;}
	.st13{opacity:0.7;fill:#FFFFFF;}
	.st14{fill:#2DD66A;}
	.st15{fill:#78DE99;}
	.st16{fill:#1866BF;}
	.st17{fill:#F1F1F1;}
	.st18{fill:#3BFB84;}
	.st19{fill:#236EC9;}
	.st20{fill:#006C7D;}
	.st21{opacity:0.1;}
	.st22{fill:#FEFEFE;}
	.st23{opacity:0.03;}
	.st24{opacity:0.05;}
	.st25{fill:#008094;}
	.st26{fill:#A0D8DE;}
	.st27{fill:#00AFC0;}
	.st28{fill:#ACD4D9;}
	.st29{opacity:0.2;fill:#FFFFFF;}
</style>
<g>
	<defs>
		<path id="SVGID_5_" d="M-3.41,142.97c-1.47-14.5-12.69-20.33-68.29-15.23c-35.13,3.23-48.1,10.75-52.64,16.93
			c-29.39,6.78-51.48,33.22-51.48,64.59v27.49c0,0.42,0.34,0.77,0.77,0.77H4.41v-94.55H-3.41z"/>
	</defs>
	<clipPath id="SVGID_2_">
		<use xlink:href="#SVGID_5_"  style="overflow:visible;"/>
	</clipPath>
</g>
<g>
	<g>
		<g>
			<g>
				<rect x="93.94" y="20.41" class="st20" width="17.22" height="42.05"/>
				<rect x="103.26" y="20.41" class="st21" width="5.4" height="42.05"/>
				<rect x="96.28" y="20.41" class="st21" width="3.08" height="42.05"/>
				<path class="st21" d="M111.16,35.43c-2.58-0.63-5.51-0.88-8.61-0.88h0c-3.1,0-6.03,0.25-8.61,0.88v27.04h17.22V35.43z"/>
			</g>
			<path class="st22" d="M102.55,82.75L102.55,82.75c-10.3,0-18.73-8.43-18.73-18.73V51.37c0-10.3,8.43-13.05,18.73-13.05l0,0
				c10.3,0,18.73,2.75,18.73,13.05v12.65C121.28,74.32,112.85,82.75,102.55,82.75z"/>
			<g class="st23">
				<path d="M114.3,40.23c-0.23,2.48-0.39,7.63-0.39,13.57c0,1.18,0.01,2.33,0.02,3.43h1.38c0.01-1.1,0.02-2.25,0.02-3.43
					c0-5.71-0.15-10.68-0.37-13.26C114.74,40.43,114.52,40.33,114.3,40.23z"/>
				<path d="M106.09,38.44c-0.21,2.64-0.35,7.5-0.35,13.06c0,2.03,0.02,3.97,0.05,5.73h1.31c0.03-1.77,0.05-3.7,0.05-5.73
					c0-5.52-0.14-10.35-0.34-13C106.57,38.48,106.33,38.45,106.09,38.44z"/>
				<path d="M110.13,38.97c-0.19,2.73-0.31,7.32-0.31,12.53c0,2.03,0.02,3.97,0.05,5.73h1.31c0.03-1.77,0.05-3.7,0.05-5.73
					c0-5.1-0.12-9.6-0.3-12.35C110.67,39.08,110.4,39.02,110.13,38.97z"/>
				<path d="M119.2,44.04c-0.29-0.4-0.6-0.78-0.94-1.14c-0.16,2.78-0.26,7.04-0.26,11.82c0,0.85,0,1.69,0.01,2.5h1.39
					c0.01-0.82,0.01-1.65,0.01-2.5C119.41,50.55,119.33,46.78,119.2,44.04z"/>
				<path d="M85.49,44.66c-0.11,2.68-0.18,6.2-0.18,10.07c0,0.85,0,1.69,0.01,2.5h1.39c0.01-0.82,0.01-1.65,0.01-2.5
					c0-4.56-0.09-8.65-0.24-11.43C86.12,43.71,85.79,44.17,85.49,44.66z"/>
				<path d="M93.78,39.23c-0.18,2.76-0.29,7.22-0.29,12.26c0,2.03,0.02,3.97,0.05,5.73h1.31c0.03-1.77,0.05-3.7,0.05-5.73
					c0-5.16-0.12-9.71-0.3-12.45C94.32,39.1,94.04,39.17,93.78,39.23z"/>
				<path d="M90.8,57.23c0.01-1.1,0.02-2.25,0.02-3.43c0-5.81-0.15-10.86-0.38-13.4c-0.24,0.11-0.46,0.23-0.69,0.35
					c-0.21,2.64-0.35,7.5-0.35,13.06c0,1.18,0.01,2.33,0.02,3.43H90.8z"/>
				<path d="M102.55,38.31L102.55,38.31c-0.18,0-0.36,0-0.54,0c-0.21,2.61-0.36,7.53-0.36,13.18c0,2.03,0.02,3.97,0.05,5.73h1.31
					c0.03-1.77,0.05-3.7,0.05-5.73c0-5.65-0.14-10.57-0.36-13.18C102.66,38.32,102.6,38.31,102.55,38.31z"/>
				<path d="M97.91,38.53c-0.2,2.66-0.34,7.47-0.34,12.96c0,2.03,0.02,3.97,0.05,5.73h1.31c0.03-1.77,0.05-3.7,0.05-5.73
					c0-5.54-0.14-10.38-0.35-13.03C98.39,38.49,98.15,38.51,97.91,38.53z"/>
			</g>
			<path class="st24" d="M102.55,50.15L102.55,50.15c-7.49,0-14.22,0.36-18.73,2.42v11.45c0,10.3,8.43,18.73,18.73,18.73h0
				c10.3,0,18.73-8.43,18.73-18.73V52.57C116.77,50.51,110.04,50.15,102.55,50.15z"/>
			<path class="st25" d="M102.55,95.89L102.55,95.89c-13.51,0-24.56-8.34-24.56-18.54V64.82c0-10.2,11.05-11.37,24.56-11.37h0
				c13.51,0,24.56,1.17,24.56,11.37v12.53C127.11,87.55,116.06,95.89,102.55,95.89z"/>
			<path class="st21" d="M102.55,95.89L102.55,95.89c13.51,0,24.56-8.34,24.56-18.54v-9.84c-6.72-4.16-15.27-6.15-24.56-6.15h0
				c-9.29,0-17.84,1.99-24.56,6.15v9.84C77.99,87.55,89.04,95.89,102.55,95.89z"/>
			<g>
				<path class="st22" d="M109.67,11.81H95.43H62.1v5.69c0,0,16.2-1.04,24.74,6.1c0.62,0.51,1.12,1.14,1.59,1.8
					c0.39,0.54,0.83,1.03,1.33,1.46c0,0.01,0.01,0.01,0.01,0.02l0-0.01c1.52,1.33,3.49,2.15,5.66,2.15h14.24
					c4.73,0,8.61-3.87,8.61-8.61l0,0C118.28,15.68,114.41,11.81,109.67,11.81z"/>
				<path class="st24" d="M109.67,25.53H95.43c-2.16,0-4.14-0.82-5.66-2.15l0,0.01c0-0.01-0.01-0.01-0.01-0.02
					c-0.49-0.44-0.94-0.93-1.33-1.46c-0.47-0.65-0.97-1.28-1.59-1.8c-8.53-7.14-24.74-6.1-24.74-6.1v3.49c0,0,16.2-1.04,24.74,6.1
					c0.62,0.51,1.12,1.14,1.59,1.8c0.39,0.54,0.83,1.03,1.33,1.46c0,0.01,0.01,0.01,0.01,0.02l0-0.01c1.52,1.33,3.49,2.15,5.66,2.15
					h14.24c4.73,0,8.61-3.87,8.61-8.61l0,0c0-0.6-0.06-1.18-0.18-1.74C117.29,22.58,113.81,25.53,109.67,25.53z"/>
			</g>
		</g>
		<g>
			<g>
				<path class="st22" d="M137.06,187.61H68.05c-3.27,0-5.94-2.67-5.94-5.94V97.2c0-22.25,18.2-32.3,40.45-32.3h0
					C124.8,64.9,143,74.95,143,97.2v84.47C143,184.94,140.33,187.61,137.06,187.61z"/>
				<path class="st24" d="M134.46,184.27H70.65c-3.02,0-5.5-2.53-5.5-5.62V98.78c0-21.04,16.83-30.54,37.4-30.54h0
					c20.57,0,37.4,9.5,37.4,30.54v79.87C139.95,181.74,137.48,184.27,134.46,184.27z"/>
				<path class="st26" d="M131.85,181.15h-58.6c-2.78,0-5.05-2.39-5.05-5.32v-75.57c0-19.9,15.46-28.9,34.35-28.9h0
					c18.89,0,34.35,8.99,34.35,28.9v75.57C136.9,178.76,134.63,181.15,131.85,181.15z"/>
				<path class="st27" d="M69.01,92.87c-0.52,2.27-0.81,4.73-0.81,7.39v75.57c0,2.92,2.27,5.32,5.05,5.32h58.6
					c2.78,0,5.05-2.39,5.05-5.32v-75.57c0-2.66-0.28-5.12-0.81-7.39H69.01z"/>
			</g>
			<g>
				<rect x="62.1" y="107.47" class="st22" width="80.9" height="52.72"/>
				<polygon class="st24" points="62.1,160.19 62.1,167.14 65.15,160.19 65.15,107.47 62.1,101.59 62.1,107.47 				"/>
				
					<ellipse transform="matrix(0.2343 -0.9722 0.9722 0.2343 -51.5725 202.1802)" class="st28" cx="102.57" cy="133.83" rx="21.51" ry="21.51"/>
				<polygon class="st22" points="116.63,129.23 107.17,129.23 107.17,119.76 97.96,119.76 97.96,129.23 88.5,129.23 88.5,138.43 
					97.96,138.43 97.96,147.9 107.17,147.9 107.17,138.43 116.63,138.43 				"/>
			</g>
			<path class="st24" d="M122.12,68.04c5.22,5.19,8.04,12.54,7.36,22.19l-4.03,57.7c-0.88,12.63-11.74,24.2-24.51,26.02l-38.84,5.54
				v2.17c0,3.27,2.67,5.94,5.94,5.94h69.01c3.27,0,5.94-2.67,5.94-5.94V97.2C143,82.04,134.54,72.55,122.12,68.04z"/>
			<path class="st24" d="M134.44,75.5c1.87,4.36,2.74,9.53,2.38,15.56l-3.76,63.51c-0.74,12.43-10.92,23.53-22.91,24.9l-45.61,5.24
				c-0.55,0.06-1.08,0.05-1.6-0.01c1.04,1.73,2.94,2.9,5.09,2.9h69.01c3.27,0,5.94-2.67,5.94-5.94V97.2
				C143,87.87,139.79,80.69,134.44,75.5z"/>
			
				<ellipse transform="matrix(0.7071 -0.7071 0.7071 0.7071 -38.3944 85.0625)" class="st29" cx="83.48" cy="88.88" rx="14.81" ry="7.69"/>
		</g>
	</g>
	<g>
		<path class="st27" d="M68.2,36.37c0,3.37-2.73,6.1-6.1,6.1c-3.37,0-6.1-2.73-6.1-6.1s6.1-15.86,6.1-15.86S68.2,33,68.2,36.37z"/>
		<path class="st24" d="M62.37,21.08c0.88,3.39,2.88,11.56,2.52,14.03c-0.46,3.14-3.1,5.36-5.9,4.95c-0.93-0.14-1.75-0.55-2.43-1.15
			c0.96,2.1,3.08,3.56,5.54,3.56c3.37,0,6.1-2.73,6.1-6.1C68.2,33.43,63.55,23.54,62.37,21.08z"/>
		<path class="st29" d="M61.01,34.53c-0.31,1.44-1.3,2.44-2.21,2.25c-0.91-0.2-1.39-1.52-1.08-2.96s1.3-2.44,2.21-2.25
			C60.83,31.77,61.32,33.1,61.01,34.53z"/>
	</g>
</g>
</svg>
