<?xml version="1.0" encoding="utf-8"?>
<!-- Generator: Adobe Illustrator 24.1.0, SVG Export Plug-In . SVG Version: 6.00 Build 0)  -->
<svg version="1.1" id="Capa_1" xmlns="http://www.w3.org/2000/svg" xmlns:xlink="http://www.w3.org/1999/xlink" x="0px" y="0px"
	 viewBox="0 0 200 200" style="enable-background:new 0 0 200 200;" xml:space="preserve">
<style type="text/css">
	.st0{clip-path:url(#SVGID_2_);}
	.st1{fill:#267BF8;}
	.st2{fill:#EEB399;}
	.st3{fill:#CC957F;}
	.st4{fill:#15191C;}
	.st5{fill:#5B3222;}
	.st6{fill:none;stroke:#FFFFFF;stroke-width:0.5669;stroke-miterlimit:10;}
	.st7{fill:#B7745A;}
	.st8{fill:#FFFFFF;}
	.st9{clip-path:url(#SVGID_4_);}
	.st10{fill:#B73960;}
	.st11{opacity:0.5;fill:#EEB399;}
	.st12{fill:#C63F62;}
	.st13{opacity:0.7;fill:#FFFFFF;}
	.st14{fill:#2DD66A;}
	.st15{fill:#78DE99;}
	.st16{fill:#1866BF;}
	.st17{fill:#F1F1F1;}
	.st18{fill:#3BFB84;}
	.st19{fill:#236EC9;}
</style>
<g>
	<defs>
		<path id="SVGID_5_" d="M-3.41,142.97c-1.47-14.5-12.69-20.33-68.29-15.23c-35.13,3.23-48.1,10.75-52.64,16.93
			c-29.39,6.78-51.48,33.22-51.48,64.59v27.49c0,0.42,0.34,0.77,0.77,0.77H4.41v-94.55H-3.41z"/>
	</defs>
	<clipPath id="SVGID_2_">
		<use xlink:href="#SVGID_5_"  style="overflow:visible;"/>
	</clipPath>
</g>
<g>
	<path class="st1" d="M106.58,85c0,0,3.52,17.91-5.79,17.2C91.47,101.49,106.58,85,106.58,85z"/>
	<path class="st17" d="M140.87,8l-61.65,6.73c0,0-11.13-0.05-17.31,18.25c-6.17,18.3-9.15,27.11-4.64,36.82
		c4.51,9.71,5.88,10.74,5.12,14.96c-0.76,4.22-11.51,45.04-14.29,57.17c-2.78,12.13-11.24,39.34-0.91,45.48
		c10.33,6.14,38.04,7.41,40.18-4.35c2.13-11.76,8.78-55.66,10.91-65.07c2.13-9.41,7.37-31.6,12.07-38.63
		c4.7-7.03,15.2-17.52,24.2-21.19c9-3.68,18.15-6.04,20.33-14.98c1.39-5.72,2.6-11.52,3.3-14.95c0.78-3.89,0.39-7.97-1.43-11.5
		C154.58,12.51,150.1,8.23,140.87,8z"/>
	<path class="st1" d="M154.89,43.19c1.39-5.72,2.6-11.52,3.3-14.95c0.78-3.89,0.39-7.97-1.43-11.5c-2.07-4.03-6.26-8.11-14.65-8.67
		c5.81,2.13,13.78,7.19,12.31,18.87c-1.34,10.66-3.42,19.36-7.56,25.95C150.75,50.69,153.76,47.83,154.89,43.19z"/>
	<path class="st1" d="M85.88,80.7c10.57-5.55,14.55-16.32,20.12-31.43c5.57-15.1,5.28-23.24-2.71-30.08
		c-3.78-3.23-9.14-4.82-13.75-5.59l-10.32,1.13c0,0-11.13-0.05-17.31,18.25c-6.17,18.3-9.15,27.11-4.64,36.82
		c2.92,6.29,4.52,8.93,5.08,11.17C70.91,90.04,76.99,85.37,85.88,80.7z"/>
	<path class="st18" d="M75.86,23.74l20.51,4.32c1.49,0.31,2.39,1.85,1.92,3.31l-8.76,27.44c-0.41,1.3-1.77,2.05-3.09,1.72
		l-20.12-5.06c-1.44-0.36-2.27-1.86-1.83-3.27l8.37-26.69C73.26,24.23,74.56,23.47,75.86,23.74z"/>
	<path class="st14" d="M65.49,53.54l8.37-26.69c0.4-1.27,1.69-2.02,2.99-1.75l20.51,4.32c0.35,0.07,0.66,0.22,0.93,0.41
		c-0.27-0.86-0.97-1.56-1.93-1.76l-20.51-4.32c-1.3-0.27-2.59,0.48-2.99,1.75l-8.37,26.69c-0.35,1.11,0.1,2.26,0.99,2.88
		C65.34,54.59,65.32,54.06,65.49,53.54z"/>
	<path class="st19" d="M85.88,80.7c10.57-5.55,14.55-16.32,20.12-31.43c5.57-15.1,5.28-23.24-2.71-30.08
		c-3.78-3.23-9.14-4.82-13.75-5.59l-9.22,1.01c7.66,0.47,18.46,2.51,22.39,10.01c6.35,12.12-5.07,38.36-12.02,45.93
		C85.92,75.76,76.73,88.3,62,79.84c0.15,0.4,0.27,0.77,0.36,1.13C70.91,90.04,76.99,85.37,85.88,80.7z"/>
	<g>
		<path class="st17" d="M65.25,66.89c-2.06-2.69-2.46-6.2-2.46-6.2s-0.08-1.91-2.02-1.62c-1.94,0.29-1.84,2.46-1.84,2.46
			s0.02,4.58,1.92,8.81L65.25,66.89z"/>
		<path class="st17" d="M87.35,65.94c-1.67-1.83-3.7-0.24-3.7-0.24c-1.76,1.57-3.72,2.94-6.18,3.71l2.47,5.83
			C85.59,72.29,88.49,67.19,87.35,65.94z"/>
		<path class="st17" d="M75.24,69.9c-1.51,0.21-3.19,0.22-5.11-0.05c-1.33-0.19-2.41-0.7-3.3-1.38c-1.57,1.3-3.58,2.97-4.82,3.98
			c1.71,2.61,4.37,4.7,8.52,4.87c2.64,0.11,5.02-0.34,7.13-1.11C77.05,74.65,75.97,71.81,75.24,69.9z"/>
	</g>
	<g>
		<path d="M74.02,38.93l-0.76-0.17L74,36.6c0.34-1.01,0.74-1.45,1.2-1.34l2.95,0.67c0.46,0.11,0.52,0.65,0.18,1.66l-1.14,3.34
			c-0.2,0.59-0.45,0.9-0.69,0.89c0.2,0.13,0.23,0.44,0.03,1.03l-1.21,3.55c-0.34,1.01-0.74,1.45-1.2,1.34l-2.95-0.67
			c-0.46-0.11-0.52-0.65-0.18-1.66l0.73-2.15l0.76,0.17l-0.66,1.94c-0.17,0.49-0.16,0.6,0.07,0.65l2.27,0.52
			c0.23,0.05,0.3-0.03,0.47-0.53l1.06-3.11c0.17-0.49,0.16-0.6-0.07-0.65l-1.62-0.37l0.39-1.14l1.62,0.37
			c0.23,0.05,0.3-0.03,0.47-0.53l1.01-2.96c0.17-0.49,0.16-0.6-0.07-0.65l-2.27-0.52c-0.23-0.05-0.3,0.03-0.47,0.53L74.02,38.93z"/>
		<path d="M82.12,42.31c0.46,0.11,0.52,0.65,0.18,1.66l-1.27,3.72c-0.34,1.01-0.74,1.45-1.2,1.34l-2.83-0.64
			c-0.46-0.11-0.52-0.65-0.18-1.66l3-8.81c0.34-1.01,0.74-1.45,1.2-1.34l2.8,0.64c0.46,0.11,0.52,0.65,0.18,1.66l-0.75,2.2
			l-0.75-0.17l0.68-1.99c0.17-0.49,0.16-0.6-0.07-0.65l-2.12-0.48c-0.23-0.05-0.3,0.03-0.47,0.53l-1.15,3.38L82.12,42.31z
			 M81.46,44.01c0.17-0.49,0.16-0.6-0.07-0.65l-2.41-0.55l-1.33,3.89c-0.17,0.49-0.16,0.6,0.07,0.65l2.14,0.49
			c0.23,0.05,0.3-0.03,0.47-0.53L81.46,44.01z"/>
		<path d="M82.49,47.27l0.86,0.2l-0.75,2.2l-0.86-0.2L82.49,47.27z"/>
		<path d="M91.14,39.93l-6.08,10.3l-0.81-0.19l5.99-10.16l-3.11-0.71l0.38-1.12l3.97,0.9L91.14,39.93z"/>
	</g>
	<path class="st17" d="M57.28,69.8c4.51,9.71,5.88,10.74,5.12,14.96c-0.76,4.22-11.51,45.04-14.29,57.17
		c-2.78,12.13-11.24,39.34-0.91,45.48c10.33,6.14,38.04,7.41,40.18-4.35c2.13-11.76,8.78-55.66,10.91-65.07
		c2.13-9.41,7.37-31.6,12.07-38.63c4.7-7.03,15.2-17.52,24.2-21.19c9-3.68,18.15-6.04,20.33-14.98c1.39-5.72,2.6-11.52,3.3-14.95
		c0.08-0.38,0.13-0.77,0.19-1.16c-18.05,16.91-68.5,57.96-102.21,24.71C54.58,58.84,54.66,64.17,57.28,69.8z"/>
</g>
</svg>
