<?xml version="1.0" encoding="utf-8"?>
<!-- Generator: Adobe Illustrator 25.2.3, SVG Export Plug-In . SVG Version: 6.00 Build 0)  -->
<svg version="1.1" id="Capa_1" xmlns="http://www.w3.org/2000/svg" xmlns:xlink="http://www.w3.org/1999/xlink" x="0px" y="0px"
	 viewBox="0 0 550 300" style="enable-background:new 0 0 550 300;" xml:space="preserve">
<style type="text/css">
	.st0{fill:#A0D8EC;stroke:#A0D8EC;stroke-width:3.5932;stroke-miterlimit:10;}
	.st1{fill:#8BC2D1;stroke:#8BC2D1;stroke-width:4.1249;stroke-miterlimit:10;}
	.st2{fill:#293377;stroke:#293377;stroke-width:4.8278;stroke-miterlimit:10;}
	.st3{fill:#2C59A5;stroke:#2C59A5;stroke-width:4.1249;stroke-miterlimit:10;}
	.st4{fill:#3EAEC9;stroke:#3EAEC9;stroke-width:1.2442;stroke-miterlimit:10;}
	.st5{fill:#8BC2D1;stroke:#8BC2D1;stroke-width:4.3067;stroke-miterlimit:10;}
	.st6{opacity:0.5;fill:#36B2CE;stroke:#36B2CE;stroke-width:4.3067;stroke-miterlimit:10;enable-background:new    ;}
	.st7{fill:#293377;stroke:#293377;stroke-width:5.0406;stroke-miterlimit:10;}
	.st8{fill:#1E2142;stroke:#1E2142;stroke-width:5.0406;stroke-miterlimit:10;}
	.st9{fill:#0AA5D1;stroke:#0AA5D1;stroke-width:4.3067;stroke-miterlimit:10;}
	.st10{opacity:0.5;fill:#2C5CA8;stroke:#2C5CA8;stroke-width:4.3067;stroke-miterlimit:10;enable-background:new    ;}
	.st11{fill:#9BD2CB;stroke:#9BD2CB;stroke-width:4.3067;stroke-miterlimit:10;}
	.st12{fill:#5FBEB3;}
	.st13{fill:#FCC556;stroke:#FCC556;stroke-width:3.5932;stroke-miterlimit:10;}
	.st14{opacity:0.5;fill:#F3914E;stroke:#F3914E;stroke-width:3.5932;stroke-miterlimit:10;enable-background:new    ;}
	.st15{stroke:#000000;stroke-width:0.9512;stroke-miterlimit:10;}
	.st16{fill:#FFFFFF;stroke:#FFFFFF;stroke-width:0.2985;stroke-miterlimit:10.0006;}
	.st17{fill:#3E9BB1;stroke:#3E9BB1;stroke-width:3.364;stroke-miterlimit:10;}
	.st18{fill:#7FCDEB;stroke:#7FCDEB;stroke-width:3.5932;stroke-miterlimit:10;}
	.st19{opacity:0.61;fill:#CEEAF9;stroke:#CEEAF9;stroke-width:3.5932;stroke-miterlimit:10;enable-background:new    ;}
	.st20{opacity:0.49;fill:#A37F58;enable-background:new    ;}
	.st21{fill:#34BDE7;stroke:#34BDE7;stroke-width:3.5932;stroke-miterlimit:10;}
	.st22{opacity:0.5;fill:#15A6C7;enable-background:new    ;}
	.st23{fill:#293377;stroke:#293377;stroke-width:5.5678;stroke-miterlimit:10;}
	.st24{fill:#23AEE5;stroke:#23AEE5;stroke-width:5.5678;stroke-miterlimit:10;}
	.st25{fill:#8ACCC8;stroke:#8ACCC8;stroke-width:5.5678;stroke-miterlimit:10;}
	.st26{opacity:0.49;fill:#D6ECEA;enable-background:new    ;}
	.st27{fill:#51BBB5;}
	.st28{fill:#202447;}
	.st29{fill:#3987C7;}
	.st30{fill:#92CFCD;}
	.st31{fill:#3EAEC9;}
	.st32{fill:#1E2142;}
	.st33{opacity:0.5;fill:#2C5CA8;enable-background:new    ;}
	.st34{fill:url(#SVGID_1_);}
	.st35{fill:#632425;}
	.st36{stroke:#000000;stroke-width:0.9956;stroke-miterlimit:10.0001;}
	.st37{fill:#FFFFFF;stroke:#FFFFFF;stroke-width:0.3125;stroke-miterlimit:9.9998;}
	.st38{opacity:0.62;fill:#CC7C11;enable-background:new    ;}
	.st39{fill:#EDEDED;}
	.st40{fill:#FCC00E;}
</style>
<g id="Parrot">
	<path class="st0" d="M64,188.7c-8.8,0.7-16.9,3-25.9,2.6c-7.6-0.4-16.4-3.4-24-1.1c0.7,9.9,12,10.1,18.7,12.9
		c-4,1.8-19.4,4.8-15.7,10.4c4,6.3,17,4.3,23.1,5.4c-1.8,1.4-7.5,1.2-8.3,3.3c-1.1,2.9,6.3,3.9,8,4.5c11.1,3.2,21.8,1.1,33.1,0.7
		c12-0.4,25.6-1.7,36.1-8.1c4.2-2.6,9-8.8,8.9-14.1c-0.2-7-11.4-11.3-16.9-13.1c-12-4-27.7-4.7-40.2-3.1C60.1,189,62.2,189,64,188.7
		z"/>
	<g>
		<path class="st1" d="M98.9,232.7c0,0,0-0.1,0-0.1C99.1,232.4,99.1,232.5,98.9,232.7z"/>
		<path class="st1" d="M115.1,243c0.1,0.7-1.8,2.9-2.2,3.5c-4.4,6.9-10.4,12.6-17.1,17.7c-4.4,3.3-8.2,6.8-13.2,9.5
			c-4.8,2.6-9.4,4.8-14.4,6.7c-0.3,0.1-0.7,0.3-1,0.4c-5.1,1.9-10.2,3.3-15.6,3.6c-3.4,0.2-8.3,0.6-9.8-2.9
			c-1.9-4.4,7.1-7.3,10.2-8.8c-2.3,1-6.9,1.3-9.6,1.3c-5.9-0.1-11.6-1.4-16.5-4.3c-3.7-2.2-7-5.4-6.1-10.2c0.7-3.4,3.2-4,6.4-3.8
			c5.2,0.2,11.1,1.6,16,3.1c3.7,1.1,9.2,3.1,14.4,3.5c3.5,0.2,6.9-0.3,9.5-2.3c-3.5,0.7-7.7,0.4-11.4,0c-0.7-0.1-1.3-0.1-1.9-0.2
			c-5.7-0.6-9.9-2.8-14.2-6.2c-2.5-1.9-7-6.4-7-10.6c0-1,0.3-2.1,1-3c2.6-3.8,9-0.1,11.5,1.1c4.7,2.1,9.4,4.7,14.3,6.5
			c2.6,1,5.3,1.7,8.1,2.2c7.5,1.1,14.1-2.8,20.3-7.2c2.3-1.6,4.5-3.5,6.6-5.3c0.4-0.3,0.8-0.7,1.2-1l0,0c0.8-0.7,1.6-1.4,2.4-2.1
			c0.1-0.1,0.4-0.3,0.7-0.6c0.1-0.1,0.2-0.2,0.3-0.2c0.3-0.3,0.6-0.5,0.8-0.7c0.1,0.5,0.4,1,0.9,1.5c1.2,1.2,3.6,2.4,5.7,3.4
			c1.6,0.7,3,1.3,3.8,1.7C110.6,239.9,114.9,241.4,115.1,243z"/>
		<path class="st2" d="M99.9,263.4c-7.9,6.6-20.2,15.8-30.4,17.3c-0.8,0.1-1.6,0.2-2.2,0.2c-7.7-0.1-5.2-8.2-0.8-13.2
			c5.1-5.8,13.1-9,18.7-14c-7.6,3.5-16.7,12.3-25.4,10.3c-1.1-0.2-2.1-0.8-3-1.4c-0.8-0.6-1.4-1.5-1.9-2.4c-0.8-1.5-1.2-3.3-1-5.1
			c0.1-1.6,0.6-3.1,1.5-4.5c0.9-1.3,1.9-2.2,3.1-2.9c2.9-1.8,6.5-2.2,9.9-3.1c5.6-1.4,11.2-2.7,16.7-4.4c1.9-0.6,6.5-2.1,9.7-3.9
			l0,0c1.6-0.9,2.8-1.8,3.1-2.7c0.1-0.1,0.1-0.2,0.1-0.3c0.1,0,0.1,0.1,0.2,0.1c0.6,0.3,1.1,0.6,1.7,0.8c2,0.9,4.2,1.7,6.3,2.5
			c3.8,1.4,7.4,2.9,9.6,5.5C120,247.2,103.9,260,99.9,263.4z"/>
		<path class="st3" d="M98.9,232.7c0,0,0-0.1,0-0.1C99.1,232.4,99.1,232.5,98.9,232.7z"/>
		<path class="st4" d="M106.1,236.8c-0.2,0.3-0.4,0.6-0.7,0.9c-2.7,3.7-5.8,7-10.2,9.7c-4.2,2.6-8.6,4.8-13.5,5.5
			c-5.7,0.9-10.2-0.1-15.6-0.8c-4-0.5-9.2-0.2-12.3,3c-0.2,0.2-0.4,0.4-0.6,0.6c-0.3,0,0-0.2,0-0.4c-3.2-4.2-8.8-8.5-13.8-10.8
			c-2.6-1.2-5.6-1.1-8.3-1.2c0-1,0.6-2.4,1.3-3.4c2.6-3.8,9.4-0.4,11.9,0.7c4.7,2.1,8.8,4.6,13.7,6.4c2.9-1.8,6.6-2.2,10-3
			c5.6-1.4,11.3-2.7,16.8-4.4c1.9-0.6,6.8-1.6,9.9-3.4l0,0c0.8-0.7,1.6-1.4,2.4-2.1c0.1-0.1,0.4-0.3,0.7-0.6
			c0.1-0.1,0.1-0.2,0.1-0.3c0.1,0,0.1,0.1,0.2,0.1c0.3-0.3,0.6-0.5,0.8-0.7c0.1,0.5,0.4,1,0.9,1.5C101.8,235.2,104,236,106.1,236.8z
			"/>
	</g>
	<g>
		<path class="st5" d="M239.4,193.4c1.7,0.2,6.7-2.5,7.1-0.3c0.2,1-1.4,2.8-1.9,3.6c-1.4,2.1-2.9,4.1-4.6,6
			c-6.5,6.8-15.4,10.7-24.2,13.6c-8.1,2.7-16.8,4.7-25.1,6.5c-3,0.7-6.4,1.1-9.5,0.9c-5.3-0.4-7.9-3.7-10.6-8
			c-5.2-8.6-9.6-17.8-13.4-27c-0.7-1.8-1.4-3.4-1.9-5.1c-0.4-1.4-0.6-2.8-0.7-4.4c-0.1-1.3,0.4-2.9,0.2-3.8c1.3-1.5,4.3-2.1,6.2-2.5
			c3.1-0.7,6.4-1.2,9.6-1.8c8.4-1.5,16.9-1.1,24.6,2.6c5.2,2.5,10.2,8.1,16.1,4.8c1.1-0.6,2.2-1.8,3.5-1.6c1.7,0.3,1.9,2.1,2,3.4
			c0,1.4-0.6,2.3,1,2.1c1.6-0.2,3.5-2.3,4.5-3.3c3-2.9,6.1-5.7,9.2-8.6c1.6-1.6,3.2-3.2,4.8-4.9c0.9-1,2-2.7,3.1-1.6
			c2,1.9-0.5,7.9-1.1,10c-0.9,3.1-2.3,5.7-3.5,8.7c3.8-0.5,6.9-6.4,8.6-9.1c1.6-2.5,2.6-5.4,4.2-7.9c0.9-1.5,1.8-2.7,2.6-0.7
			c0.6,1.4,0.9,3.1,0.9,4.7c0,4.4-1.8,9.1-3.5,12.6c-1.2,2.3-2.4,4.5-4.1,6.5C242.5,190,240.1,191.8,239.4,193.4z"/>
		<path class="st6" d="M251.4,169.6c-1.8,2.9-4.2,5.6-5.7,7.4c-1.8,2.2-6.6,10.5-10.4,9.1c-3.1-1.2-0.1-8.9-0.2-11.6
			c-2.3,1-3.9,4.2-5.6,6c-2.9,3-7,6.3-11.1,7.4c-4.5,1.2-6.4-1.4-10.2-1.8c-2.3-0.2-4.9,0.5-7.3,0.4c-6.5-0.1-12.2-3.4-18.5-4.9
			c-5.8-1.3-12.5-1.8-18.4-1c-2.4,0.4-4.9,0.9-7,1.9c-0.5,0.2-1,0.6-1.5,1c-0.4-1.4-0.6-2.8-0.7-4.4c-0.1-1.3,0.4-2.9,0.2-3.8
			c1.3-1.5,4.3-2.1,6.2-2.5c3.1-0.7,6.4-1.2,9.6-1.8c8.4-1.5,16.9-1.1,24.6,2.6c5.2,2.5,10.2,8.1,16.1,4.8c1.1-0.6,2.2-1.8,3.5-1.6
			c1.7,0.3,1.9,2.1,2,3.4c0,1.4-0.6,2.3,1,2.1c1.6-0.2,3.5-2.3,4.5-3.3c3-2.9,6.1-5.7,9.2-8.6c1.6-1.6,3.2-3.2,4.8-4.9
			c0.9-1,2-2.7,3.1-1.6c2,1.9-0.5,7.9-1.1,10c-0.9,3.1-2.3,5.7-3.5,8.7c3.8-0.5,6.9-6.4,8.6-9.1c1.6-2.5,2.6-5.4,4.2-7.9
			c0.9-1.5,1.8-2.7,2.6-0.7C251.1,166.3,251.3,167.9,251.4,169.6z"/>
		<path class="st7" d="M207.1,207.7c-3.2,1.7-6.8,3.5-10.3,4.4c-10.7,2.9-13.4-4.6-12.4-12c0.8-6.1,4.1-12.2,7.6-12.2
			c2.5-0.5,5.2-1.2,7.8-2c1.9-0.6,5.2-2.4,7.2-1.3c2.1,1.3,1.9,2.9,0.8,4.6c-1.5,2.2-4.4,4.5-5.1,5.9c-1.5,2.9,2.6,2.2,4.6,2
			c2.1-0.2,6.8-1.6,7.7,1.2C215.9,201.9,209.5,206.4,207.1,207.7z"/>
		<path class="st8" d="M207.6,189.3c-0.6,0.1-1.3,0.2-2,0.3c-3.6,0.7-7.4,1.7-10.8,3.2c-4.2,1.9-7.4,4.5-10.5,7.3
			c0.8-6.1,4.1-12.2,7.6-12.2c2.5-0.5,5.2-1.2,7.8-2c1.9-0.6,5.2-2.4,7.2-1.3C209,186,208.7,187.7,207.6,189.3z"/>
		<path class="st9" d="M189.8,207.3c3.1,3,11.4-0.2,15.2,0.4c5.6,0.9-2,5.6-3.9,6.5c-5.1,2.3-10.3,3.4-16,3c-2.4-0.2-4.7-0.4-7-1
			c-4-1-3.8-3.2-3.2-7c0.4-2.9,0.9-5.8,1.5-8.7c1-5.2,2-10.3,2.6-15.5c0.3,0,0.4-0.1,0.3-2.1c3.6,1.4,9.8-1,13.3-2.1
			c2.4-0.8,11.9-5,9.3,1.4c-0.2,0.6-0.5,1.1-0.8,1.5c-2.4,3.9-7.2,5.6-10.3,8.7c-3.1,3.1,3.1,2.9,5.2,2.4c2.8-0.6,9.4-3.8,12-1.5
			C213.5,198.4,192.4,205.6,189.8,207.3z"/>
		<path class="st10" d="M201.9,182.2c-0.2,0.6-0.5,1.1-0.8,1.5c-2.7,1.5-5.6,2.6-8.4,4c-5.7,3.1-12.1,7.3-16.3,12.7
			c1-5.2,2-10.3,2.6-15.5c0.3,0,0.4-0.1,0.3-2.1c3.6,1.4,9.8-1,13.3-2.1C194.9,180,204.4,175.8,201.9,182.2z"/>
		<path class="st11" d="M187.6,223.2c-4.7,1.9-9.9,2.9-14.9,3.3c-1.7,0.1-3.9,0.5-5.4-0.4c-2.6-1.4-4.2-6.1-5.1-8.6
			c-2.7-7.7-2.7-16.4-1.5-24.4c0.1-0.6,0.2-1.4,0.4-2.4c0.6-3.5,1.5-8.8,2.8-9.5c4.6-1.1,9.6-1.5,14.4-0.6
			c5.1,0.9,12.6,2.1,15.2,7.2c1.3,2.6,0,4.6-1.6,6.6c3.2,0.2,6.6,2.1,8,5c1.5,3.3,0.4,5-2,6.9c-0.2,0.1-0.4,0.3-0.6,0.5
			C207.8,212.1,192.6,221.2,187.6,223.2z"/>
		<path class="st12" d="M193,193.9c1.4-1.7,2.1-3.6,1.4-5.7c-0.7-2-2.4-3.9-4.5-4.9c-1.3-0.6-2.6-1.1-3.9-1.6
			c-2.2-0.8-4.6-1.4-6.9-1.8c-2.9-0.5-5.8-0.7-8.8-0.6c-2,0.1-5.3,0.1-7,1.4c-1.4,1-1.5,3.7-1.9,5.2c-0.6,2.4-1,4.8-1.1,7.2
			c0,0.3,0,0.6,0,0.9c0.1-0.1,0.1-0.1,0.1-0.2c1.7-3.2,3.5-5.9,7-7.3c2.7-1,5.9-0.9,8.7-0.6c3.7,0.3,7.8,1,11.2,2.4
			C189.7,189.2,193.1,191,193,193.9z"/>
		<path class="st12" d="M198.3,206.7c2.3-1.8,3.6-4.5,2.3-7.3c-0.3-0.6-0.7-1.3-1.1-1.7c-1.6-2-3.6-3.1-5.7-3.6
			c-2.4-0.6-5.3-0.1-7.8,0.1c-4.7,0.5-9.5,1.8-13.9,3.5c-3.1,1.2-6.1,2.5-8.9,4.1c-0.7,0.4-3.7,1.8-3.8,2.6
			c-0.4,3.1,0.2,6.3,0.9,9.4c0.2,0.9,0.4,2,0.8,2.7c0.1-1.7,1.1-3.8,2-5.2c1.3-2.2,2.9-3.8,5.1-5.1c4.4-2.7,9.3-4.6,14.4-5.3
			c3.8-0.5,8.5-1,12.2,0.6c1.5,0.6,2.7,1.2,3.5,2.6C198.7,204.5,198.6,206,198.3,206.7z"/>
		<path class="st12" d="M199.7,215.6c1.6-1.4,2.4-4.7,1.2-6.5c-2.1-3.1-4.9-2.9-7.9-2.4c-8.6,1.4-17.6,5.1-24.6,10.3
			c-1.3,1-2.5,2.1-3.6,3.4c-0.4,0.5-1.6,1.8-1.4,2.2c0.2,0.9,1.1,1.6,1.6,2.4c0.5,0.7,1.1,1.6,1.9,1.8c0.4-1.2,1.8-2.4,2.7-3.3
			c1.6-1.6,3.4-3.3,5.4-4.6c3.6-2.4,7.7-3.9,11.7-5.4c2.8-1,6-2,9-1.7C198.1,212,199.9,213.1,199.7,215.6z"/>
	</g>
	<path class="st13" d="M118.9,281.4c-2.5,0.2-4.6-1.5-6.4-3.2c-1.5-1.5-2.6,0.1-3.8,1.6c-1.8,2.1-3.8,5.9-6.5,6.4
		c-3.5,0.6,0.2-6.3,1-7.6c-1.2,1.1-2.9,4.3-4.9,4.4c-0.4,0-0.7-0.1-1.1-0.3c0,0-0.1,0-0.1-0.1c-3.5-2.5,3.4-7.5,4.8-8.7
		c2.9-2.4,5.9-4.2,8.1-7.5c0.7-1,1.3-2,1.9-3.2c0.2-0.5,0.7-2,1.1-2.2c0.2-0.1,0.6-0.1,0.9,0c0.3,0.1,0.6,0.2,0.9,0.2
		c0.3,0.1,0.6,0.1,0.8,0.1c0.6,0,1.6,0,1.9-0.1c-0.9,2.6-2.1,5.2-3.2,7.7c-0.5,1.1-0.9,2.3-0.1,3.4c1,1.3,3.1,0.6,4.4,1.1
		c1.7,0.7,3.6,2.6,4,4.7C122.9,280.9,120.8,281.3,118.9,281.4z"/>
	<path class="st14" d="M114.6,261.1c-0.6,2.2-2.7,4.5-3.9,6.2c-1.6,2.2-3.5,4.1-5.2,6.2c-1.6,1.9-3.4,2.9-5.1,5
		c-1,1.2-1.7,2.5-2,4.1c0,0.1,0,0.2-0.1,0.3c-0.4,0-0.7-0.1-1.1-0.3c0,0-0.1,0-0.1-0.1c-3.5-2.5,3.4-7.5,4.8-8.7
		c2.9-2.4,5.9-4.2,8.1-7.5c0.7-1,1.3-2,1.9-3.2c0.2-0.5,0.7-2,1.1-2.2c0.2-0.1,0.6-0.1,0.9,0C114,260.9,114.3,261,114.6,261.1z"/>
	<path class="st13" d="M155,277.2c0.7,0.6,1.4,1.1,2,1.8c0.2,0.3,0.4,0.7,0.5,1.2c0.4,2.4-1.4,3.6-3.2,3.7
		c-3.8,0.1-7.7-3.5-10.4-6.2c-1.8-1.8-4.1-5.5-6.5-2.6c-1.4,1.7-3,3.7-4.9,4.7c-2.3,1.3-5,0.3-4.4-3.2c0.4-2.2,1.6-3.6,3.1-4.7
		c1.9-1.5,4.8-3.1,5.4-5.9c0.5-2.1,0.1-5.1-0.6-7.2c0,0,0,0,0-0.1c0,0,0.1,0,0.1,0.1c0.3,0.3,0.7,0.5,1.2,0.6
		c1.3,0.3,3.1-0.1,3.9-0.8c0.6,1.9,0.4,4.4,0.8,6.5c0.3,1.5,0.6,2.1,2,2.2c1.6,0.2,3.3,0.2,4.9,0.5c3.2,0.4,7.8,1.9,9.7,5.2
		C160.4,276,157.6,278.8,155,277.2z"/>
	<path class="st14" d="M154.3,283.9c-3.8,0.1-7.7-3.5-10.4-6.2c-1.8-1.8-4.1-5.5-6.5-2.6c-1.4,1.7-3,3.7-4.9,4.7
		c-2.3,1.3-5,0.3-4.4-3.2c0.4-2.2,1.6-3.6,3.1-4.7c1.9-1.5,4.8-3.1,5.4-5.9c0.5-2.1,0.1-5.1-0.6-7.2h0.1c0.4,0,0.7,0.2,1.2,0.5
		c0,0,0,0,0,0c0.2,0.2,0.5,0.5,0.7,0.8c0,0,0,0,0,0c0.5,0.9,0.2,2.9,0,3.9c-0.4,1.5-1.1,3.1-1.9,4.3c-0.9,1.4-2.2,2.5-3.2,3.8
		c-0.8,1.1-2.2,3.7-1.6,5.2c0.9,2.3,3.5-1.1,4.3-2c1.2-1.4,2.6-2.6,4.4-2.8c2.7-0.3,4.7,2,6.4,4.2c2.1,2.8,4.4,5.6,7.9,4.7
		c1.2-0.3,1.6-1.1,2.3-2.1c0.1-0.1,0.2-0.3,0.3-0.5c0.2,0.3,0.4,0.7,0.5,1.2C157.9,282.7,156.1,283.9,154.3,283.9z"/>
	<path class="st0" d="M170.4,141.1c-2.4,3.2-7,5.5-8.6,9.5c-1.9,4.6,0.6,10.4,2.3,14.5c4.1,9.9,5.4,21.5,5.5,32.5
		c0.1,9.6,0.4,20-2.2,29.1c-3.4,12-13.1,22.7-23.6,24.6c-1.6,2.6-0.8,7.1-4.3,8.2c-2.4,0.8-5-2-5.9-4.5c-2.7-0.2-6.8-0.5-8.9,0
		c-1.5,0.4-2,2-3.3,3c-1.3,1-2.5,2.4-3.9,2.9c-2.4,0.9-4.3,0.9-5.1-2.4c-0.7-3.1,0.2-4.1-1.4-6.1c-0.2-0.2-0.3-0.4-0.5-0.6
		c-0.3-0.3-0.6-0.5-0.8-0.8c1-1.1,2-2.2,3-3.3c0.8-0.9-2.1-1.9-2.9-2.1c-1.2-0.4-2.5-0.8-3.8-1.3c-0.6-0.2-1.3-0.3-2-0.6
		c-0.1,0.3-0.3,0.7-0.5,1c-0.2-0.3-0.5-0.6-0.7-0.9c-0.6-0.8-1.1-1.7-1.7-2.7c-0.8-1.5-1.5-3-2.1-4.5c0,0,0,0,0,0
		c-0.1-0.3-0.3-0.7-0.4-1c-0.7-1.8-1.2-3.6-1.7-5.4c-0.2-0.7-0.3-1.4-0.5-2.1c-0.4-1.9-0.8-3.9-1-5.9c-0.4-2.6-0.6-5.2-0.8-7.8
		c-0.1-1.5-0.2-3.1-0.3-4.6c0-0.7-0.1-1.4-0.1-2.1c-0.1-1.1-0.1-2.1-0.1-3.2c0-0.1,0-0.2,0-0.2c0.1-6.9,2-12.6,6-18.5
		c0.2-0.3,0.4-0.6,0.7-0.9c1-1.4,2.1-2.8,3.2-4.1c0.4-0.5,0.8-0.9,1.2-1.4c0.9-1.1,1.8-2.1,2.8-3.2c6.8-7.7,13.2-15.7,10.5-27.8
		c-1.3-5.9-4-11.1-4.9-17.1c-1-6.1-1-12-1-18.2c-2.2,0.2-6.8-1-7.7-4.2c2.6,0.1,6.3-1.8,7.7-4.5c-5.8-1.6-9.5-14.4-3.3-18.5
		c0.4,2.8,0.3,6.2,2,8.5c1.3,1.8,4.5,3.4,6.2,1.9c-1.3-2.2-3.3-3-4.3-5.6c-0.9-2.3-1.3-4.6-1.4-7.1c-0.2-4.4,1.4-11.1,6.1-12.1
		c-2.2,2.5-0.3,9.1,1.1,12.1c2.2,4.7,6.6,6.8,11.1,6.2c0.3,0,0.7-0.1,1-0.2c0.2,0,0.4-0.1,0.6-0.1c8.1-1.7,14.8-4.4,22.9,0.1
		c6.4,3.6,8.6,10.1,11.2,17.3c1.3,3.7,2.6,6.3,4.9,9.2c2,2.5,3.7,4.8,4.5,8.1C176.3,130.9,174,136.1,170.4,141.1z"/>
	<g>
		
			<ellipse transform="matrix(0.9988 -4.899994e-02 4.899994e-02 0.9988 -5.1091 8.1874)" class="st15" cx="164.4" cy="108.3" rx="2.6" ry="4.2"/>
		
			<ellipse transform="matrix(0.9572 -0.2893 0.2893 0.9572 -23.6616 52.405)" class="st16" cx="165.5" cy="106.2" rx="0.8" ry="1.3"/>
	</g>
	<path class="st17" d="M168.9,100c-1.8-1.9-3.6-3.6-5.8-4.5c-1.1-0.5-2.3-0.9-3.5-1c-0.7-0.1-1.8,0.3-2.4,0c-0.9-0.4-0.7-4-0.3-4.9
		c0.6-1.7,2.8-1.3,4.1-0.7c2.3,1,4.3,2.7,6,4.8c1.2,1.5,2.6,3.5,3.1,5.5C170.5,100.6,169.6,100.6,168.9,100z"/>
	<path class="st18" d="M165.4,190.3c1.7,6.9,1.2,17.4-0.1,24.2c-1.7,8.4-3.9,17.4-9,23.7c-4.9,5.9-15.8,13.8-21.8,5.4
		c-4.9-6.9-2.1-17-0.6-24.6c1.9-9.5,5.6-18.5,10.4-26.5c3-5.1,8.7-12.1,14.5-10.6C162.4,182.7,163.9,184.9,165.4,190.3z"/>
	<path class="st19" d="M134.6,89.9c2.3-0.9,4.7-1.2,7.1-1.3c3-0.2,6.1-0.2,8.9,0.9c2.1,0.8,4.9,4,3.7,6.9c-0.8,1.9-2.5,2.2-4,2.5
		c-2.8,0.5-5.5,0.3-8.2,0.2c-2.7-0.1-6.6-0.8-8.3-3.6C132.6,93.7,133.4,90.9,134.6,89.9z"/>
	<path class="st19" d="M123.5,90.3c-4.1-1.3-7.1-6.9-7.5-11.7c-0.1-1.2-0.1-2.5-0.1-3.7c0-1.1-0.4-1.7-1.1-0.5
		c-0.9,1.6-0.7,4.5-0.5,6.3c0.3,2.9,1.3,6.1,2.9,8.4c1.1,1.6,2.8,3,4.6,3.1c0.6,0,1.5,0,1.9-0.7C123.9,91.1,123.9,90.6,123.5,90.3z"
		/>
	<path class="st19" d="M116.5,97.7c-1.3,0.4-3.2-0.7-4.3-1.6c-1.4-1.1-2.4-2.6-2.9-4.6c-0.2-0.7,0-2.3-0.5-2.9
		c-0.7-0.9-1.2,0.3-1.3,1.1c-0.5,3.1,1.4,7.4,3.6,9.1c1.1,0.8,2.5,1.2,3.7,0.9c0.4-0.1,1.6-0.4,1.8-0.9
		C116.7,98.3,116.4,97.8,116.5,97.7z"/>
	<path class="st20" d="M157,278.2c-0.5-0.4-0.9-1.2-1.3-1.8c-0.5-0.7-1.1-1.4-1.7-2c-1.4-1.3-3.1-2.5-4.8-3.2
		c-0.4-0.1-2.3-0.8-2.4-0.6c1.3-0.8,3.5,0.2,4.8,0.8c1.8,0.9,3.1,2,4.1,3.9C156.2,276.1,156.8,277.2,157,278.2z"/>
	<path class="st20" d="M100.8,282.1c0.3-0.4,0.6-0.9,0.8-1.3c0.3-0.5,0.7-1,1-1.5c0.8-1.2,1.6-2.4,2.5-3.6c0.6-0.7,1.2-1.4,1.9-2
		c-1,0.7-2,1.4-2.8,2.4c-0.9,1.1-1.9,2.5-2.6,3.8c-0.2,0.4-0.3,0.9-0.5,1.3C101,281.4,100.7,282.1,100.8,282.1z"/>
	<path class="st21" d="M104,179.9c0.1-0.1,0.2-0.1,0.2-0.1c-0.1,0.1-0.2,0.3-0.3,0.5C104.2,179.8,103.8,180.1,104,179.9z"/>
	<path class="st22" d="M119.3,114.7c0.9-8.9,4.5-18.7,10.4-25c-4.5,0.5-8.7-1.4-10.9-6.2c-1.4-3.1-3.3-10.4,0-12.6
		c-6.6,0.9-8,8.6-7.8,13c0.1,2.5,0.6,5.2,1.5,7.5c1,2.6,2.3,3,3.9,5c-1.7,0.8-3.8-0.2-5.1-2c-1.7-2.3-1.6-6.2-2-9
		c-7.3,4.3-3.4,17.9,2.5,19.5c-1.7,2.5-5.2,3.8-7.8,3.8c0.5,3.7,5.8,5.6,8,5.4c0,6.2-0.1,11.5,0.8,17.5c1,6,3.9,11.3,5.1,17.3
		c2.4,12-3.5,19.4-10.3,27.1c-1.2,1.4-1.8,1.8-2.7,3c-0.2,0.1-1.2,0.5-1.5,0.8c-0.4,0.6,0.1,0.8,0.1,0.8c-0.1,0.1-0.3,0.4-0.4,0.4
		c-1.1,1.2-2.2,2.4-3.4,4c0,0-0.3,0.3-0.5,0.4c-0.2,0.1-0.4,0.3-0.7,0.5c1.5,2.2,3.2,4.2,5.2,6c0.1,0.1,0.2,0.1,0.2,0.2
		c2.3-2.5,4.8-4.8,7.6-7.4c0,0,0.1-0.1,0.1-0.1c0.4-0.3,0.7-0.7,1.1-1c0.6-0.6,1.2-1.1,1.9-1.7c3.1-2.8,6.7-5.8,10.6-7.5
		c0.3-0.1,0.6-0.2,0.9-0.4c0.2-0.1,0.5-0.2,0.7-0.3c0-0.5,1.9-6,2.1-8.5c0.2-3.8-0.2-7.3-1.1-10.8
		C124.6,141.9,117.9,128.5,119.3,114.7z"/>
	<g>
		<path class="st23" d="M90.6,212c-2.6,3.2-8,5.7-14.6,6.6c-2.6,0.4-5.3,0.5-7.9,0.4c-0.4,0-0.8,0-1.2,0c-0.1,0-0.1,0-0.2,0
			c-4.8-0.2-9.5-1-14.4-2.1c-0.7-0.2-1.4-0.3-2.1-0.5c-4.8-1.2-11.4-2.4-15.5-4.8c-0.3-0.2-0.5-0.3-0.8-0.5
			c4.5-1.4,10.3-1.8,15.3-2.8c2-0.4,4.8-0.9,7.6-1.6c3.5-0.9,6.9-2.1,8.1-3.6c-1.8-0.4-5-0.8-8.7-1.3c-1.5-0.2-3-0.4-4.6-0.6
			c-2.6-0.3-5.4-0.7-8.1-1.1c-7.2-1.1-14.1-2.7-17.2-4.9c5.8-1.5,11.8-1.8,15.2-2.1c1.9-0.1,3.8-0.3,5.8-0.5c2.5-0.2,5-0.3,7.4-0.2
			c2.6,0.1,5.3,0.2,8.1,0.3c1.2,0.1,2.4,0.1,3.6,0.3c0.1,0,0.2,0,0.3,0c1.4,0.1,2.9,0.3,4.4,0.6c1.1,0.2,2.2,0.4,3.3,0.7
			c3,0.8,6.1,1.9,9.2,3.5C92.8,202.6,94,207.9,90.6,212z"/>
		<path class="st24" d="M97.2,225.7c-1.7,0.5-3.4,0.9-5.2,1.2c-5.8,0.9-16.1,1.4-21.6-2.1c-0.1-0.1-0.2-0.2-0.4-0.2
			c-1.1-0.8-2-1.7-2.6-2.9c-0.5-1-0.7-1.9-0.7-2.7c0-0.1,0-0.2,0-0.3c0.1-0.7,0.4-1.3,0.8-1.9c1.3-1.9,4.1-3.3,6.7-4.8
			c1.6-1,3.2-2,4.2-3.1c-2.2,0.3-4.4,0.9-6.5,1.3c-1.8,0.4-3.6,0.6-5.4,0.6c-0.8,0-1.7-0.1-2.5-0.3c-1.7-0.4-3.4-1.1-5.2-2.3
			c-0.8-0.5-1.4-1-1.8-1.5c-0.1-0.1-0.2-0.3-0.3-0.4c0,0,0,0,0-0.1c-1.1-1.5-1.1-3.1-0.3-4.4c0.6-1,1.5-1.9,2.7-2.7
			c0.2-0.1,0.3-0.2,0.5-0.3c-1.1-0.1-2.5-0.2-3.8-0.6c-3.9-0.8-8.1-2.6-8.3-5.3c0-0.1,0-0.2,0-0.4c0.3-4.3,12.4-9.1,16.8-10.9
			c4.1-1.7,9.7-4.1,15.4-5.2c0,0,0,0,0,0c0.4-0.1,0.7-0.1,1.1-0.2c2-0.3,4-0.5,6-0.3c0.7-0.1,6.3,0.6,9.7,1.2
			c0.6,0.1,1.1,0.2,1.5,0.3c0.6,0.1,1.1,0.2,1.6,0.3c1.1,0.2,2.1,0.5,3.1,0.8c1.7,0.5,3.2,1.1,4.6,1.8c3,1.6,5.5,3.6,7.7,6.3
			c2.6,3.3,4.1,6.8,4.7,10.4C121.1,208.9,112,221.2,97.2,225.7z"/>
		<path class="st25" d="M133.8,184.3c-0.1,0.6-0.2,1.3-0.3,1.9c-1.1,7.3-3.1,14.3-6.8,20.8c-1.7,2.8-3.6,5.5-6.1,8.1
			c-3.9,4.1-13.5,11.8-23.4,10.6c-1.5-0.2-3.1-0.6-4.6-1.3c-8-3.5-2.9-8.4-2-12.4c0-0.1,0.1-0.2,0.1-0.3c-3.9,1.9-11.7,2.9-16.5,0.3
			c-0.2-0.1-0.5-0.3-0.7-0.4c-0.7-0.4-1.2-0.9-1.7-1.4c-3.7-4,0.7-8.8,1.9-12.2c-0.6,0.3-1.3,0.5-1.9,0.6c-0.7,0.2-1.4,0.3-2.1,0.3
			c0,0,0,0,0,0c-0.5,0-0.9,0-1.4,0c-0.1,0-0.2,0-0.3,0c-0.7-0.1-1.4-0.3-2.1-0.5c-1.4-0.6-2.5-1.6-3-3.1c-0.2-0.5-0.3-1.1-0.3-1.7
			c0-0.3,0-0.6,0-0.9c0.5-6.6,8.7-12.4,16.7-16.3c0,0,0,0,0,0c2.3-1.1,4.7-2.1,6.8-2.9c0.2-0.1,0.3-0.1,0.5-0.2
			c0.9-0.3,1.8-0.6,2.7-0.9c10.1-3.2,24-4.6,35.2,0.7c0.3,0.1,0.6,0.3,0.9,0.4c0.3,0.1,0.5,0.3,0.8,0.4
			C132.4,177.1,137.3,182.9,133.8,184.3z"/>
		<path class="st26" d="M86.7,172.5c0.6-0.4-0.2-0.2,0.2-0.3c0.1,0,0.3,0,0.4-0.1C87.1,172.3,86.9,172.4,86.7,172.5z"/>
		<path class="st26" d="M134.4,187.3c-0.1,2.7-0.9,5.2-1.6,7.8c-1,3.6-2.7,9.5-6.1,13.2c0-0.4,0-0.9,0-1.3c0.1-2.2,0.3-4.1-1.3-6.6
			c-1.3-2-3.5-3.1-6.1-3.5c-1-0.1-2.1-0.1-3.3,0c0.3-2.4,1.4-4.2-0.8-6.8c-3.5-4-8.8-3.1-14-4.5c0.1-0.4,0.2-0.7,0.2-1.1
			c0.2-1.8-0.1-3.7-1.2-5.5c-0.3-0.5-0.6-1-1-1.5c-0.2-0.2-0.4-0.4-0.6-0.7c-0.6-0.7-1.4-1.3-2.3-1.9c-1.7-1.1-4.5-2.4-7-2.8
			c-0.1,0-0.3,0-0.4-0.1c-0.6-0.1-1.2-0.1-1.7,0c1.8-0.9,4.4-1.6,7-2.2c2.4-0.5,4.9-0.8,6.9-1.1c5.3-0.7,14.2,0.1,19.7,1.7
			c1.5,0.4,3.3,1.1,5,2.1c0.4,0.2,0.8,0.4,1.2,0.6c4.4,2.5,8.6,6.2,8.8,9c0.1,1.6-1.2,2.9-1.5,4.5
			C134.4,187,134.4,187.2,134.4,187.3z"/>
	</g>
	<path class="st27" d="M64.5,198.4c1.2-9.6,13.2-15.5,24.9-19.4c2.3-0.8,6-2.3,8.9-2.2c-0.4-1.9-5.6-3.8-7.8-4.5
		c-3.8-1.1-7,0.1-9.6,1.5c-7.3,3.8-14.5,7.8-18.3,13.8C61.2,189.6,58.9,195.7,64.5,198.4z"/>
	<path class="st27" d="M71.4,199.1c1.3-2.4,5.9-4.6,8.6-6.3c3.8-2.3,8.3-4.1,13-5.7c2.2-0.8,4.6-1.1,6.9-1.4
		c2.2-0.2,4.9,0.3,7.3,0.6c2.1,0.3,4.8,1.2,5.7,2.6c-2.8-0.2-6.1,1.2-8.4,1.8c-3.1,0.8-5.8,1.9-8.7,2.9c-4,1.5-7.4,3.6-10.7,5.6
		c-3.5,2.2-6.9,4.6-9.5,7.4c-1,1.1-4.2,4.4-3.3,5.4c-5.1-3.7-4-6.1-2.9-9.4C69.8,201.7,70.9,200,71.4,199.1z"/>
	<path class="st27" d="M88.2,222.7c-2.9-2.9-1.8-5.6-0.5-8.4c0.9-2.1,3.3-4,5.4-5.5c4.3-3,8.3-5.8,13.3-8.3c2.6-1.4,5.5-2.8,8.6-3.6
		c3.9-1,8.3,0.9,9.7,3.3c0.3,0.6,0.8,1.6,1,2.1c-2.1-0.6-5.3-0.1-7.2,0.3c-3.6,0.8-7.1,1.5-10.1,2.9c-7.4,3.5-12.1,8.6-14.6,14.5
		c-0.5,1.1-1.4,4.5,0.3,5.5C92.5,225.4,89.3,223.8,88.2,222.7z"/>
	<path class="st28" d="M24,194.5c2.5,0.6,5.5,1,8.1,1.5c4.4,0.8,8.8,1.2,13.2,1.3c1.5,0,3.6-0.1,5.1,0c-2-0.7-4.5-2.8-4.8-4.1
		c-0.1-0.4-0.1-1.2,0-1.5c-2.5-0.1-4.8,0.4-7.2,0.6c-3.2,0.2-6.5,0.4-9.5,0.9C27.3,193.5,25.2,193.8,24,194.5z"/>
	<path class="st28" d="M31.6,210.6c4.7,0.8,9.7,1.2,14.4,1.3c6.5,0.2,13.1,0.8,19.3,0.2c1.4-0.1,2.8-0.2,4.2-0.4
		c0.7-0.1,1.2-0.3,1.9-0.3c-0.2-0.1-0.6-0.6-0.6-0.7c-0.7,0.1-1.5,0.1-2.2,0.3c-1.1,0.2-2.2,0.2-3.4,0.1c-0.7,0-1.2-0.1-1.9-0.2
		c-1.3-0.2-2.4-0.6-3.6-1.1c-1.4-0.6-2.6-1.3-3.6-2.1c-0.5-0.4-1.3-1.1-1.5-1.6c-1.9,0.2-3.9,0.8-5.7,1.2c-3.5,0.8-7.5,0.9-11.1,1.6
		c-1.2,0.2-2.3,0.5-3.5,0.8C33.7,209.9,32,210.1,31.6,210.6z"/>
	<path class="st0" d="M112.7,247.8c-1,1.1-2,2.2-3,3.3c-1.2-1.1-2.5-2.2-3.6-3.3c-0.9-0.9-1.8-1.8-2.6-2.9c0.2-0.4,0.4-0.7,0.5-1
		c0.7,0.2,1.4,0.3,2,0.6c1.3,0.4,2.6,0.9,3.8,1.3C110.5,245.9,113.5,246.9,112.7,247.8z"/>
	<path class="st28" d="M111.5,253.9c-1,1.4-12,10.9-13.1,11.8c-2.3,1.8-4.7,3.6-6.9,5.4c-2.3,1.8-4.8,3.4-7.5,4.7
		c-3.4,1.6-6.7,3.6-10.1,4.6c-1.9,0.5-3.8,1.2-5.7,1.4c-2.3,0.2-4.9-0.4-6-2.6c-0.9-1.7-0.6-5,0.5-6.6c1.2,1.5,3.4,2,5.5,1.9
		c5.8-0.3,11.6-3.8,16.2-7.5c3-2.3,5.7-5,8.4-7.5c1.1-1,2.6-2.3,3.6-3.6c2.3-1.6,9.7-8.7,10.5-7.7
		C107.8,249.4,110.4,252.6,111.5,253.9z"/>
	<path class="st29" d="M49,196.6c0.3-2.3,2.4-3.9,4.3-5.6c2.3-2.1,4.8-4,8-5.5c1.2-0.6,2.7-1,3.8-1.7c3.4-2,5.9-4.8,9.7-6.7
		c0.9-0.5,1.9-1.2,2.9-1.6c-5.9,1.1-10.6,3.2-15.5,5.3c-5.8,2.5-13.4,4.7-16.3,9.2C44.7,191.9,45.1,195.5,49,196.6z"/>
	<path class="st29" d="M56.6,199.1c1.8-0.7,4.1-1.5,6-1.8c0.4,0.2,0.6,0.6,1,0.9c0.5,0.3,1.1,0.5,1.7,0.7c1.3,0.4,2.8,0.6,4.1,0.6
		c0.6,0,1.3-0.1,1.9-0.2c0.1,0,0,0,0,0.1c-1.9,1-4.6,1.1-6.6,2c-2.7,1.1-6.3,2.5-7.2,4.7c-0.3,0.6-0.4,1.8,0,2.5
		c-0.4-0.3-1.3-0.9-1.7-1.3c-0.5-0.5-1-1.1-1.3-1.7c-0.9-1.6-0.6-3.2,0.3-4.5C55.2,200.4,55.7,199.5,56.6,199.1z"/>
	<path class="st29" d="M71.8,211.6c3.8,2.5,9,2.6,13.4,2c1.1-0.1,2.3-0.5,3.2-0.7c-1.1,0.7-2.8,1.2-4.1,1.7c-1.5,0.6-3,1.2-4.5,1.8
		c-3.5,1.3-6.9,3.4-7.9,6.2c-0.3,1-0.8,2.8,0.3,3.8c-2.6-0.8-4.9-2.5-6.1-4.3c-1.7-2.6-1.4-5.2,0.9-7.2
		C68.4,213.7,70.2,212.7,71.8,211.6z"/>
	<path class="st30" d="M127.1,173.3c-8.4-0.6-17.3-0.1-24.7,2.1c-1,0.3-3.4,1.3-3.6,1.6c-1.7-1.9-5.5-3.9-8.7-4.6
		c-1-0.2-2.2-0.3-3.1-0.3c0.1,0,0.4-0.1,0.4-0.2c2.1-1,4.4-1.8,7.1-2.2c5.5-0.9,10.7-1.5,16.8-1c1.9,0.2,3.9,0.4,5.9,0.8
		c1.2,0.2,3.3,0.8,4.4,1.2c1.3,0.5,3,1,4.3,1.8C126.3,172.8,126.9,173.1,127.1,173.3z"/>
	<path class="st31" d="M20.5,265.9c-2.3-3.4-2.3-9.8,3.3-10.5c1.2-0.2,2.7,0,3.9,0.1c3.3,0.2,7,0.8,10.4,1.7c3.8,0.9,7.1,2.5,11,3.3
		c1.9,0.4,4,0.6,5.8,1.2c2.5,3.8,7.8,3.9,12.2,2.5c1.5-0.5,3-1.1,4.3-1.7c-1.8,1.1-3.4,2.4-5,3c-2.8,1.1-5.7,2.4-8.7,2.6
		c-6.1,0.4-11.4-1-16.9-2.9c-3.9-1.4-8.3-2.5-12.6-2.7c-2.5-0.1-6.7,0.5-7.5,3.6C20.6,265.8,20.5,266,20.5,265.9z"/>
	<path class="st31" d="M43.8,284.4c-0.5-0.3-1.1-0.5-1.6-1c-0.5-0.5-0.8-1.2-1-1.9c-0.6-1.8,0.4-3.6,2-4.9c1.2-0.9,2.4-1.6,3.6-2.3
		c1.3-0.8,3-1.1,4.5-1.6c2.9-1,5.8-1.5,8.7-2c1-0.2,2.5-0.5,3.5-0.4c-0.5,0.8-1,1.7-1.3,2.6c-0.4,1.2-0.8,2.4-0.7,3.6
		c0,0.6,0.1,1.3,0.3,1.8c-0.5-0.2-1.5-0.3-2.1-0.4c-1.2-0.2-2.4-0.3-3.6-0.3c-2,0-4.1,0.3-6.1,1c-1.8,0.6-3.8,1.6-5.1,3
		C44.2,282.6,43.9,283.6,43.8,284.4z"/>
	<path class="st32" d="M199.4,207.2c0.2,0,0.4-0.4,0.6-0.5c0.3-0.3,0.6-0.5,1-0.8c1-0.8,2-1.6,3.1-2.4c1.4-0.9,2.8-1.8,4.2-2.6
		c1.6-0.9,3.2-1.9,5-2.3c0.6-0.1,1.8-0.4,2.2,0.1c0-1-0.3-1.7-1.1-2.3c-0.8-0.7-2.1-0.8-3.2-0.8c-0.6,0-1.2,0.2-1.8,0.2
		c-0.1,0,0,0,0.1,0c-0.1,0-0.3,0.5-0.4,0.7c-0.1,0.3-0.3,0.5-0.5,0.7c-0.4,0.4-0.7,0.9-1.2,1.3c-1.2,1.1-2.6,1.9-4,2.6
		c-0.4,0.2-0.8,0.5-1.3,0.7c-0.2,0.1-1,0.5-0.9,0.6c-0.3,0.6-0.5,1.2-0.8,1.8c-0.3,0.6-0.8,1.1-1.2,1.6c-0.2,0.3-0.5,0.5-0.8,0.7
		c0,0,0.1-0.1,0.1-0.1C198.7,206.5,199.2,207,199.4,207.2z"/>
	<path class="st33" d="M198.8,196.9c1-0.7,2.2-1.2,3.4-1.6c1.7-0.7,3.6-1.8,5.6-1.6c0.5,0.1,1.2,0.1,1.5,0.5
		c-0.2-1.4-2.2-2.2-3.4-2.3c-0.9-0.1-1.9,0.1-2.7,0.2c-1.2,0.2-2.5,0.5-3.7,0.9c-1.5,0.4-3,1.2-4.5,1.4c0.7,0.2,1.4,0.6,1.9,0.9
		C197.5,195.7,198.3,196.3,198.8,196.9z"/>
	<path class="st33" d="M201.1,209.3c0.8-0.3,1.8-0.5,2.6-0.6c1-0.1,2.3-0.2,3.2,0.3c0.2,0.1,0.7,0.5,0.6,0.8
		c0.4-0.8,0.1-1.9-0.9-2.3c-1.4-0.6-3.1-0.6-4.6-0.4c-0.8,0.1-1.8,0.2-2.6,0.3c0.3,0.2,0.6,0.5,0.8,0.8c0.2,0.2,0.3,0.4,0.5,0.6
		C200.9,209,201,209.2,201.1,209.3z"/>
	<path class="st17" d="M126.4,110.5c1-2.7,2-5.1,3.8-7.2c0.9-1,1.9-2.1,3-2.8c0.6-0.4,1.9-0.7,2.4-1.3c0.7-0.9-1.1-3.9-1.9-4.5
		c-1.4-1.1-3.4,0.4-4.4,1.6c-1.8,2.1-3.1,4.7-3.8,7.6c-0.5,2-1,4.5-0.6,6.6C125.1,112,126,111.4,126.4,110.5z"/>
	<g>
		
			<radialGradient id="SVGID_1_" cx="1154.6244" cy="344.2512" r="16.25" gradientTransform="matrix(-0.9237 0.4433 -0.4327 -0.9016 1379.0951 -70.9712)" gradientUnits="userSpaceOnUse">
			<stop  offset="0" style="stop-color:#FCEA10"/>
			<stop  offset="0.9975" style="stop-color:#F39200"/>
		</radialGradient>
		<path class="st34" d="M149.6,123.3c1.1-3.9,3.8-7.4,7.6-9.2c3.7-1.8,8.3-1.7,11.8,0.5c1,0.7,2,1.5,2.8,2.3c3.3,3.3,6,7.2,7.4,11.6
			c1.4,4.4,1.3,9.4-0.6,13.6c-0.2,0.5-0.6,1.1-1.2,1.3c-0.5,0.1-1.1-0.2-1.4-0.6s-0.5-0.9-0.7-1.4c-1.1-2.1-3.4-3.5-5.8-3.3
			c-0.1,1.5,0.2,3.2,0.7,4.6c0.4,1.1,0.9,2.2,0.4,3.3c-0.3,0.7-1,1.1-1.8,1.2s-1.5,0.1-2.2-0.1c-1.4-0.3-2.8-0.9-4.2-1.5
			c-2.9-1.3-5.9-2.7-8.3-4.8c-1.1-1-2.1-2.2-3-3.4c-2.2-3-4.1-6.3-5.4-9.8c-0.4-1-0.8-2.1-0.9-3.2c0-0.2,0-0.4,0.1-0.6
			c0.3-0.5,1-0.3,1.6-0.2c0.8,0.2,1.7,0.2,2.5,0.1c0.2,0,0.4-0.1,0.5-0.2C149.4,123.3,149.8,123.3,149.6,123.3z"/>
		<path class="st35" d="M153,133.4c1.6,2.2,3.2,4.3,5.1,6.3c0.9,1,2,1.9,3.2,2.6s2.6,1.2,4,1.1c1.2-0.1,2.5-0.7,2.9-1.8
			c0.3-0.8,0-1.6-0.1-2.4c-0.1-0.9,0.2-1.2-0.7-1.5c-1.6-0.4-3.4-0.2-5.1-0.5c-1.7-0.3-3.3-0.8-4.9-1.4c-0.8-0.3-1.6-0.6-2.3-1
			C154.7,134.5,153.3,133.9,153,133.4z"/>
		<g>
			<g>
				<g>
					<path class="st35" d="M157,136.6c0-1.1,0.1-1.6-0.4-2c-0.2-0.2-1-0.9-1.6-1.6c-0.6-0.7-1-1.4-1-1.4s-0.4-0.7-0.8-1.5
						c-0.4-0.8-0.7-1.7-0.8-2.1c-0.2-0.6-0.7-0.8-1.7-1.2c-0.8,0.7-1.2,1.2-1,1.9c0.1,0.4,0.5,1.5,0.9,2.5c0.5,1,1,1.8,1,1.8
						s0.5,0.8,1.2,1.7c0.7,0.8,1.6,1.6,1.9,1.9C155.4,137.1,156,137,157,136.6z"/>
				</g>
			</g>
		</g>
		<g>
			<g>
				<g>
					<path class="st35" d="M149.1,127.5c-0.1,0.9,0.1,1.4,0.4,1.5c0.2,0,0.8,0,1.3-0.2c0.5-0.2,0.9-0.5,0.9-0.5s0.4-0.3,0.7-0.7
						c0.3-0.4,0.5-1,0.5-1.2c0.1-0.3-0.4-0.7-1.3-0.8c-0.9,0.2-1.4,0.1-1.4,0.2c0,0.1-0.2,0.3-0.2,0.3c0,0-0.3,0.1-0.3,0.1
						C149.5,126.2,149.5,126.7,149.1,127.5z"/>
				</g>
			</g>
		</g>
	</g>
	<g>
		
			<ellipse transform="matrix(0.9972 -7.489933e-02 7.489933e-02 0.9972 -7.9437 10.9371)" class="st36" cx="141.8" cy="111.4" rx="2.8" ry="4.4"/>
		<ellipse transform="matrix(0.9494 -0.314 0.314 0.9494 -27.067 50.3752)" class="st37" cx="142.8" cy="109.2" rx="0.9" ry="1.4"/>
	</g>
	<path class="st38" d="M150.7,127.8c-0.5,2.6,5.4,10.5,10,14.1c1.8,1.4,3.9,2.3,6.6,1c-0.9,1.2-2.5,1.9-3.9,1.7
		c-1.5-0.2-2.8-0.9-4.1-1.8c-3.6-2.4-6.7-5.8-8.4-9.8C150.1,131.3,150.1,129.4,150.7,127.8z"/>
</g>
<g id="Message_bubble">
	<path class="st39" d="M534.4,82.8c0,36.8-73.5,66.7-164.3,66.7c-37.4,0-71.9-5.1-99.5-13.6c0,0-31.2,21.2-81.4,2
		c0,0,33.8,10.6,57-11.3c-25.1-11.7-40.4-27-40.4-43.8c0-36.9,73.5-66.7,164.3-66.7S534.4,45.9,534.4,82.8z"/>
	<path class="st40" d="M533,79.6c0,36.8-73.5,66.7-164.3,66.7c-37.4,0-71.9-5.1-99.5-13.6c0,0-29.8,24.4-79.9,5.2
		c0,0,32.4,7.3,55.6-14.5c-25.1-11.7-40.4-27-40.4-43.8c0-36.9,73.5-66.7,164.3-66.7S533,42.7,533,79.6z"/>
</g>
<g>
	<path d="M240.3,51.2h1.3v9h4.3v1.1h-5.6V51.2z"/>
	<path d="M253.2,59.3c0,0.8,0,1.4,0.1,2h-1.2l-0.1-1.2h0c-0.3,0.6-1.1,1.4-2.4,1.4c-1.1,0-2.5-0.6-2.5-3.2V54h1.3v4
		c0,1.4,0.4,2.3,1.6,2.3c0.9,0,1.5-0.6,1.7-1.2c0.1-0.2,0.1-0.4,0.1-0.7V54h1.3V59.3z"/>
	<path d="M256.1,57.9c0,1.8,1.2,2.5,2.5,2.5c0.9,0,1.5-0.2,2-0.4l0.2,0.9c-0.5,0.2-1.3,0.4-2.4,0.4c-2.2,0-3.6-1.5-3.6-3.7
		s1.3-3.9,3.4-3.9c2.4,0,3,2.1,3,3.4c0,0.3,0,0.5,0,0.6H256.1z M260,56.9c0-0.8-0.3-2.1-1.8-2.1c-1.3,0-1.9,1.2-2,2.1H260z"/>
	<path d="M263.1,61.3V55h-1v-1h1v-0.3c0-1,0.2-2,0.8-2.5c0.5-0.5,1.2-0.7,1.8-0.7c0.5,0,0.9,0.1,1.1,0.2l-0.2,1
		c-0.2-0.1-0.5-0.2-0.8-0.2c-1.1,0-1.4,1-1.4,2.1V54h1.8v1h-1.8v6.3H263.1z"/>
	<path d="M269.1,51.9V54h1.9v1h-1.9v3.9c0,0.9,0.3,1.4,1,1.4c0.3,0,0.6,0,0.8-0.1l0.1,1c-0.3,0.1-0.7,0.2-1.2,0.2
		c-0.6,0-1.1-0.2-1.4-0.6c-0.4-0.4-0.5-1-0.5-1.9v-4h-1.1v-1h1.1v-1.7L269.1,51.9z"/>
	<path d="M273,54l1.6,4.3c0.2,0.5,0.3,1,0.5,1.5h0c0.1-0.4,0.3-1,0.5-1.5L277,54h1.4l-2,5.2c-0.9,2.5-1.6,3.8-2.5,4.5
		c-0.6,0.6-1.3,0.8-1.6,0.9l-0.3-1.1c0.3-0.1,0.8-0.3,1.2-0.6c0.4-0.3,0.8-0.8,1.1-1.5c0.1-0.1,0.1-0.2,0.1-0.3c0-0.1,0-0.2-0.1-0.3
		l-2.7-6.7H273z"/>
	<path d="M288,61c-0.3,0.2-1.1,0.4-2.1,0.4c-2.2,0-3.6-1.5-3.6-3.7c0-2.2,1.5-3.9,3.9-3.9c0.8,0,1.5,0.2,1.8,0.4l-0.3,1
		c-0.3-0.2-0.8-0.3-1.5-0.3c-1.7,0-2.6,1.2-2.6,2.7c0,1.7,1.1,2.7,2.5,2.7c0.8,0,1.2-0.2,1.6-0.4L288,61z"/>
	<path d="M296,57.6c0,2.7-1.9,3.9-3.6,3.9c-2,0-3.5-1.4-3.5-3.7c0-2.4,1.6-3.9,3.6-3.9C294.6,53.8,296,55.4,296,57.6z M290.2,57.6
		c0,1.6,0.9,2.8,2.2,2.8c1.3,0,2.2-1.2,2.2-2.8c0-1.2-0.6-2.8-2.2-2.8S290.2,56.3,290.2,57.6z"/>
	<path d="M297.7,56c0-0.8,0-1.4-0.1-2h1.2l0.1,1.2h0c0.4-0.7,1.2-1.4,2.4-1.4c1,0,2.6,0.6,2.6,3.1v4.3h-1.3v-4.2
		c0-1.2-0.4-2.1-1.7-2.1c-0.9,0-1.5,0.6-1.8,1.3c-0.1,0.2-0.1,0.4-0.1,0.6v4.4h-1.3V56z"/>
	<path d="M306,56c0-0.8,0-1.4-0.1-2h1.2l0.1,1.2h0c0.4-0.7,1.2-1.4,2.4-1.4c1,0,2.6,0.6,2.6,3.1v4.3h-1.3v-4.2
		c0-1.2-0.4-2.1-1.7-2.1c-0.9,0-1.5,0.6-1.8,1.3c-0.1,0.2-0.1,0.4-0.1,0.6v4.4H306V56z"/>
	<path d="M315.1,57.9c0,1.8,1.2,2.5,2.5,2.5c0.9,0,1.5-0.2,2-0.4l0.2,0.9c-0.5,0.2-1.3,0.4-2.4,0.4c-2.2,0-3.6-1.5-3.6-3.7
		s1.3-3.9,3.4-3.9c2.4,0,3,2.1,3,3.4c0,0.3,0,0.5,0,0.6H315.1z M318.9,56.9c0-0.8-0.3-2.1-1.8-2.1c-1.3,0-1.9,1.2-2,2.1H318.9z"/>
	<path d="M327,61c-0.3,0.2-1.1,0.4-2.1,0.4c-2.2,0-3.6-1.5-3.6-3.7c0-2.2,1.5-3.9,3.9-3.9c0.8,0,1.5,0.2,1.8,0.4l-0.3,1
		c-0.3-0.2-0.8-0.3-1.5-0.3c-1.7,0-2.6,1.2-2.6,2.7c0,1.7,1.1,2.7,2.5,2.7c0.8,0,1.2-0.2,1.6-0.4L327,61z"/>
	<path d="M330.3,51.9V54h1.9v1h-1.9v3.9c0,0.9,0.3,1.4,1,1.4c0.3,0,0.6,0,0.8-0.1l0.1,1c-0.3,0.1-0.7,0.2-1.2,0.2
		c-0.6,0-1.1-0.2-1.4-0.6c-0.4-0.4-0.5-1-0.5-1.9v-4h-1.1v-1h1.1v-1.7L330.3,51.9z"/>
	<path d="M333.5,59.9c0.4,0.3,1.1,0.5,1.7,0.5c1,0,1.4-0.5,1.4-1.1c0-0.6-0.4-1-1.3-1.3c-1.3-0.5-1.9-1.2-1.9-2.1
		c0-1.2,0.9-2.1,2.5-2.1c0.7,0,1.4,0.2,1.8,0.5l-0.3,1c-0.3-0.2-0.8-0.4-1.5-0.4c-0.8,0-1.2,0.4-1.2,1c0,0.6,0.4,0.9,1.4,1.2
		c1.3,0.5,1.9,1.1,1.9,2.2c0,1.3-1,2.2-2.7,2.2c-0.8,0-1.5-0.2-2-0.5L333.5,59.9z"/>
	<path d="M343.3,54l1.6,4.3c0.2,0.5,0.3,1,0.5,1.5h0c0.1-0.4,0.3-1,0.5-1.5l1.4-4.3h1.4l-2,5.2c-0.9,2.5-1.6,3.8-2.5,4.5
		c-0.6,0.6-1.3,0.8-1.6,0.9l-0.3-1.1c0.3-0.1,0.8-0.3,1.2-0.6c0.4-0.3,0.8-0.8,1.1-1.5c0.1-0.1,0.1-0.2,0.1-0.3c0-0.1,0-0.2-0.1-0.3
		l-2.7-6.7H343.3z"/>
	<path d="M356.3,57.6c0,2.7-1.9,3.9-3.6,3.9c-2,0-3.5-1.4-3.5-3.7c0-2.4,1.6-3.9,3.6-3.9C354.9,53.8,356.3,55.4,356.3,57.6z
		 M350.6,57.6c0,1.6,0.9,2.8,2.2,2.8c1.3,0,2.2-1.2,2.2-2.8c0-1.2-0.6-2.8-2.2-2.8C351.2,54.8,350.6,56.3,350.6,57.6z"/>
	<path d="M364.1,59.3c0,0.8,0,1.4,0.1,2H363l-0.1-1.2h0c-0.3,0.6-1.1,1.4-2.4,1.4c-1.1,0-2.5-0.6-2.5-3.2V54h1.3v4
		c0,1.4,0.4,2.3,1.6,2.3c0.9,0,1.5-0.6,1.7-1.2c0.1-0.2,0.1-0.4,0.1-0.7V54h1.3V59.3z"/>
	<path d="M375.7,50.6v8.8c0,0.6,0,1.4,0.1,1.9h-1.2l-0.1-1.3h0c-0.4,0.8-1.3,1.4-2.5,1.4c-1.8,0-3.1-1.5-3.1-3.7
		c0-2.4,1.5-3.9,3.3-3.9c1.1,0,1.9,0.5,2.2,1.1h0v-4.3H375.7z M374.4,57c0-0.2,0-0.4-0.1-0.6c-0.2-0.8-0.9-1.5-1.9-1.5
		c-1.4,0-2.2,1.2-2.2,2.8c0,1.5,0.7,2.7,2.1,2.7c0.9,0,1.7-0.6,1.9-1.6c0-0.2,0.1-0.4,0.1-0.6V57z"/>
	<path d="M379.4,52c0,0.5-0.3,0.8-0.8,0.8c-0.5,0-0.8-0.4-0.8-0.8c0-0.5,0.3-0.8,0.8-0.8C379,51.1,379.4,51.5,379.4,52z M377.9,61.3
		V54h1.3v7.3H377.9z"/>
	<path d="M381.4,56.3c0-0.9,0-1.6-0.1-2.3h1.2l0,1.4h0.1c0.3-1,1.1-1.6,2-1.6c0.2,0,0.3,0,0.4,0v1.2c-0.1,0-0.3,0-0.4,0
		c-0.9,0-1.6,0.7-1.8,1.7c0,0.2-0.1,0.4-0.1,0.6v3.9h-1.3V56.3z"/>
	<path d="M386.9,57.9c0,1.8,1.2,2.5,2.5,2.5c0.9,0,1.5-0.2,2-0.4l0.2,0.9c-0.5,0.2-1.3,0.4-2.4,0.4c-2.2,0-3.6-1.5-3.6-3.7
		s1.3-3.9,3.4-3.9c2.4,0,3,2.1,3,3.4c0,0.3,0,0.5,0,0.6H386.9z M390.8,56.9c0-0.8-0.3-2.1-1.8-2.1c-1.3,0-1.9,1.2-2,2.1H390.8z"/>
	<path d="M398.8,61c-0.3,0.2-1.1,0.4-2.1,0.4c-2.2,0-3.6-1.5-3.6-3.7c0-2.2,1.5-3.9,3.9-3.9c0.8,0,1.5,0.2,1.8,0.4l-0.3,1
		c-0.3-0.2-0.8-0.3-1.5-0.3c-1.7,0-2.6,1.2-2.6,2.7c0,1.7,1.1,2.7,2.5,2.7c0.8,0,1.2-0.2,1.6-0.4L398.8,61z"/>
	<path d="M402.2,51.9V54h1.9v1h-1.9v3.9c0,0.9,0.3,1.4,1,1.4c0.3,0,0.6,0,0.8-0.1l0.1,1c-0.3,0.1-0.7,0.2-1.2,0.2
		c-0.6,0-1.1-0.2-1.4-0.6c-0.4-0.4-0.5-1-0.5-1.9v-4h-1.1v-1h1.1v-1.7L402.2,51.9z"/>
	<path d="M405.6,50.6h1.3v10.6h-1.3V50.6z"/>
	<path d="M409.6,54l1.6,4.3c0.2,0.5,0.3,1,0.5,1.5h0c0.1-0.4,0.3-1,0.5-1.5l1.4-4.3h1.4l-2,5.2c-0.9,2.5-1.6,3.8-2.5,4.5
		c-0.6,0.6-1.3,0.8-1.6,0.9l-0.3-1.1c0.3-0.1,0.8-0.3,1.2-0.6c0.4-0.3,0.8-0.8,1.1-1.5c0.1-0.1,0.1-0.2,0.1-0.3c0-0.1,0-0.2-0.1-0.3
		l-2.7-6.7H409.6z"/>
	<path d="M420.9,51.9V54h1.9v1h-1.9v3.9c0,0.9,0.3,1.4,1,1.4c0.3,0,0.6,0,0.8-0.1l0.1,1c-0.3,0.1-0.7,0.2-1.2,0.2
		c-0.6,0-1.1-0.2-1.4-0.6c-0.4-0.4-0.5-1-0.5-1.9v-4h-1.1v-1h1.1v-1.7L420.9,51.9z"/>
	<path d="M430.8,57.6c0,2.7-1.9,3.9-3.6,3.9c-2,0-3.5-1.4-3.5-3.7c0-2.4,1.6-3.9,3.6-3.9C429.4,53.8,430.8,55.4,430.8,57.6z
		 M425,57.6c0,1.6,0.9,2.8,2.2,2.8c1.3,0,2.2-1.2,2.2-2.8c0-1.2-0.6-2.8-2.2-2.8S425,56.3,425,57.6z"/>
	<path d="M440.8,61c-0.3,0.2-1.1,0.4-2.1,0.4c-2.2,0-3.6-1.5-3.6-3.7c0-2.2,1.5-3.9,3.9-3.9c0.8,0,1.5,0.2,1.8,0.4l-0.3,1
		c-0.3-0.2-0.8-0.3-1.5-0.3c-1.7,0-2.6,1.2-2.6,2.7c0,1.7,1.1,2.7,2.5,2.7c0.8,0,1.2-0.2,1.6-0.4L440.8,61z"/>
	<path d="M442.3,50.6h1.3v4.5h0c0.2-0.4,0.5-0.7,0.9-0.9c0.4-0.2,0.9-0.4,1.3-0.4c1,0,2.5,0.6,2.5,3.1v4.3h-1.3v-4.2
		c0-1.2-0.4-2.2-1.7-2.2c-0.9,0-1.5,0.6-1.8,1.3c-0.1,0.2-0.1,0.4-0.1,0.6v4.4h-1.3V50.6z"/>
	<path d="M454.7,61.3l-0.1-0.9h0c-0.4,0.6-1.2,1.1-2.2,1.1c-1.5,0-2.2-1-2.2-2.1c0-1.8,1.6-2.7,4.4-2.7v-0.2c0-0.6-0.2-1.7-1.7-1.7
		c-0.7,0-1.4,0.2-1.9,0.5l-0.3-0.9c0.6-0.4,1.5-0.6,2.4-0.6c2.2,0,2.8,1.5,2.8,3v2.7c0,0.6,0,1.2,0.1,1.7H454.7z M454.5,57.6
		c-1.4,0-3.1,0.2-3.1,1.6c0,0.9,0.6,1.3,1.2,1.3c0.9,0,1.5-0.6,1.8-1.2c0-0.1,0.1-0.3,0.1-0.4V57.6z"/>
	<path d="M464,59.3c0,0.8,0,1.4,0.1,2h-1.2l-0.1-1.2h0c-0.3,0.6-1.1,1.4-2.4,1.4c-1.1,0-2.5-0.6-2.5-3.2V54h1.3v4
		c0,1.4,0.4,2.3,1.6,2.3c0.9,0,1.5-0.6,1.7-1.2c0.1-0.2,0.1-0.4,0.1-0.7V54h1.3V59.3z"/>
	<path d="M470.6,61.3V55h-3v6.3h-1.3V55h-1v-1h1v-0.2c0-1,0.2-1.9,0.8-2.5c0.4-0.4,1-0.7,1.8-0.7c0.4,0,0.8,0.1,1,0.3l-0.3,1
		c-0.2-0.1-0.5-0.2-0.8-0.2c-1,0-1.3,0.9-1.3,2V54h3v-0.3c0-1,0.2-2,0.9-2.5c0.5-0.5,1.2-0.7,1.8-0.7c0.5,0,0.9,0.1,1.1,0.2l-0.2,1
		c-0.2-0.1-0.5-0.2-0.9-0.2c-1.1,0-1.4,1-1.4,2.1V54h1.8v1H472v6.3H470.6z"/>
	<path d="M475.5,57.9c0,1.8,1.2,2.5,2.5,2.5c0.9,0,1.5-0.2,2-0.4l0.2,0.9c-0.5,0.2-1.3,0.4-2.4,0.4c-2.2,0-3.6-1.5-3.6-3.7
		s1.3-3.9,3.4-3.9c2.4,0,3,2.1,3,3.4c0,0.3,0,0.5,0,0.6H475.5z M479.3,56.9c0-0.8-0.3-2.1-1.8-2.1c-1.3,0-1.9,1.2-2,2.1H479.3z"/>
	<path d="M488.3,59.3c0,0.8,0,1.4,0.1,2h-1.2l-0.1-1.2h0c-0.3,0.6-1.1,1.4-2.4,1.4c-1.1,0-2.5-0.6-2.5-3.2V54h1.3v4
		c0,1.4,0.4,2.3,1.6,2.3c0.9,0,1.5-0.6,1.7-1.2c0.1-0.2,0.1-0.4,0.1-0.7V54h1.3V59.3z"/>
	<path d="M490.5,56.3c0-0.9,0-1.6-0.1-2.3h1.2l0,1.4h0.1c0.3-1,1.1-1.6,2-1.6c0.2,0,0.3,0,0.4,0v1.2c-0.1,0-0.3,0-0.4,0
		c-0.9,0-1.6,0.7-1.8,1.7c0,0.2-0.1,0.4-0.1,0.6v3.9h-1.3V56.3z"/>
	<path d="M495.2,59.9c0.4,0.3,1.1,0.5,1.7,0.5c1,0,1.4-0.5,1.4-1.1c0-0.6-0.4-1-1.3-1.3c-1.3-0.5-1.9-1.2-1.9-2.1
		c0-1.2,0.9-2.1,2.5-2.1c0.7,0,1.4,0.2,1.8,0.5l-0.3,1c-0.3-0.2-0.8-0.4-1.5-0.4c-0.8,0-1.2,0.4-1.2,1c0,0.6,0.4,0.9,1.4,1.2
		c1.3,0.5,1.9,1.1,1.9,2.2c0,1.3-1,2.2-2.7,2.2c-0.8,0-1.5-0.2-2-0.5L495.2,59.9z"/>
	<path d="M228.4,72l1,3.7c0.2,0.8,0.4,1.6,0.5,2.3h0c0.2-0.7,0.4-1.5,0.6-2.3l1.2-3.7h1.1l1.1,3.6c0.3,0.9,0.5,1.6,0.6,2.4h0
		c0.1-0.7,0.3-1.5,0.6-2.4l1-3.6h1.3l-2.3,7.3h-1.2l-1.1-3.5c-0.3-0.8-0.5-1.5-0.6-2.4h0c-0.2,0.9-0.4,1.6-0.7,2.4l-1.2,3.4h-1.2
		l-2.2-7.3H228.4z"/>
	<path d="M239,68.6h1.3v4.5h0c0.2-0.4,0.5-0.7,0.9-0.9c0.4-0.2,0.9-0.4,1.3-0.4c1,0,2.5,0.6,2.5,3.1v4.3h-1.3v-4.2
		c0-1.2-0.4-2.2-1.7-2.2c-0.9,0-1.5,0.6-1.8,1.3c-0.1,0.2-0.1,0.4-0.1,0.6v4.4H239V68.6z"/>
	<path d="M253.9,75.6c0,2.7-1.9,3.9-3.6,3.9c-2,0-3.5-1.4-3.5-3.7c0-2.4,1.6-3.9,3.6-3.9C252.4,71.8,253.9,73.4,253.9,75.6z
		 M248.1,75.6c0,1.6,0.9,2.8,2.2,2.8c1.3,0,2.2-1.2,2.2-2.8c0-1.2-0.6-2.8-2.2-2.8C248.8,72.8,248.1,74.3,248.1,75.6z"/>
	<path d="M258.7,74c0-0.8,0-1.4-0.1-2h1.2l0.1,1.2h0c0.4-0.7,1.1-1.3,2.3-1.3c1,0,1.7,0.6,2.1,1.5h0c0.2-0.4,0.5-0.7,0.8-0.9
		c0.4-0.3,0.9-0.5,1.6-0.5c1,0,2.4,0.6,2.4,3.1v4.3h-1.3v-4.1c0-1.4-0.5-2.2-1.6-2.2c-0.8,0-1.3,0.6-1.6,1.2
		c-0.1,0.2-0.1,0.4-0.1,0.7v4.5h-1.3v-4.3c0-1.2-0.5-2-1.5-2c-0.8,0-1.4,0.7-1.6,1.3c-0.1,0.2-0.1,0.4-0.1,0.6v4.4h-1.3V74z"/>
	<path d="M275.2,79.3l-0.1-0.9h0c-0.4,0.6-1.2,1.1-2.2,1.1c-1.5,0-2.2-1-2.2-2.1c0-1.8,1.6-2.7,4.4-2.7v-0.2c0-0.6-0.2-1.7-1.6-1.7
		c-0.7,0-1.4,0.2-1.9,0.5l-0.3-0.9c0.6-0.4,1.5-0.6,2.4-0.6c2.2,0,2.8,1.5,2.8,3v2.7c0,0.6,0,1.2,0.1,1.7H275.2z M275,75.6
		c-1.4,0-3.1,0.2-3.1,1.6c0,0.9,0.6,1.3,1.2,1.3c0.9,0,1.5-0.6,1.8-1.2c0-0.1,0.1-0.3,0.1-0.4V75.6z"/>
	<path d="M279.7,75.3L279.7,75.3c0.2-0.3,0.5-0.6,0.7-0.8l2.1-2.5h1.6l-2.8,3l3.2,4.3h-1.6l-2.5-3.5l-0.7,0.8v2.7h-1.3V68.6h1.3
		V75.3z"/>
	<path d="M286.2,75.9c0,1.8,1.2,2.5,2.5,2.5c0.9,0,1.5-0.2,2-0.4l0.2,0.9c-0.5,0.2-1.3,0.4-2.4,0.4c-2.2,0-3.6-1.5-3.6-3.7
		s1.3-3.9,3.4-3.9c2.4,0,3,2.1,3,3.4c0,0.3,0,0.5,0,0.6H286.2z M290.1,74.9c0-0.8-0.3-2.1-1.8-2.1c-1.3,0-1.9,1.2-2,2.1H290.1z"/>
	<path d="M296.2,74.4c0-0.9,0-1.7-0.1-2.4h1.2l0.1,1.2h0c0.5-0.9,1.4-1.4,2.6-1.4c1.8,0,3.1,1.5,3.1,3.7c0,2.6-1.6,3.9-3.3,3.9
		c-1,0-1.8-0.4-2.2-1.1h0v3.9h-1.3V74.4z M297.5,76.3c0,0.2,0,0.4,0.1,0.5c0.2,0.9,1,1.5,2,1.5c1.4,0,2.2-1.1,2.2-2.8
		c0-1.5-0.8-2.7-2.2-2.7c-0.9,0-1.7,0.6-2,1.6c0,0.2-0.1,0.4-0.1,0.5V76.3z"/>
	<path d="M304.7,74.3c0-0.9,0-1.6-0.1-2.3h1.2l0,1.4h0.1c0.3-1,1.1-1.6,2-1.6c0.2,0,0.3,0,0.4,0v1.2c-0.1,0-0.3,0-0.4,0
		c-0.9,0-1.6,0.7-1.8,1.7c0,0.2-0.1,0.4-0.1,0.6v3.9h-1.3V74.3z"/>
	<path d="M311.1,70c0,0.5-0.3,0.8-0.8,0.8c-0.5,0-0.8-0.4-0.8-0.8c0-0.5,0.3-0.8,0.8-0.8C310.8,69.1,311.1,69.5,311.1,70z
		 M309.7,79.3V72h1.3v7.3H309.7z"/>
	<path d="M318.3,79c-0.3,0.2-1.1,0.4-2.1,0.4c-2.2,0-3.6-1.5-3.6-3.7c0-2.2,1.5-3.9,3.9-3.9c0.8,0,1.5,0.2,1.8,0.4l-0.3,1
		c-0.3-0.2-0.8-0.3-1.5-0.3c-1.7,0-2.6,1.2-2.6,2.7c0,1.7,1.1,2.7,2.5,2.7c0.8,0,1.2-0.2,1.6-0.4L318.3,79z"/>
	<path d="M320.5,75.9c0,1.8,1.2,2.5,2.5,2.5c0.9,0,1.5-0.2,2-0.4l0.2,0.9c-0.5,0.2-1.3,0.4-2.4,0.4c-2.2,0-3.6-1.5-3.6-3.7
		s1.3-3.9,3.4-3.9c2.4,0,3,2.1,3,3.4c0,0.3,0,0.5,0,0.6H320.5z M324.4,74.9c0-0.8-0.3-2.1-1.8-2.1c-1.3,0-1.9,1.2-2,2.1H324.4z"/>
	<path d="M337.1,75.6c0,2.7-1.9,3.9-3.6,3.9c-2,0-3.5-1.4-3.5-3.7c0-2.4,1.6-3.9,3.6-3.9C335.7,71.8,337.1,73.4,337.1,75.6z
		 M331.3,75.6c0,1.6,0.9,2.8,2.2,2.8c1.3,0,2.2-1.2,2.2-2.8c0-1.2-0.6-2.8-2.2-2.8C332,72.8,331.3,74.3,331.3,75.6z"/>
	<path d="M343.2,79.3V73h-3v6.3h-1.3V73h-1v-1h1v-0.2c0-1,0.2-1.9,0.8-2.5c0.4-0.4,1-0.7,1.8-0.7c0.4,0,0.8,0.1,1,0.3l-0.3,1
		c-0.2-0.1-0.5-0.2-0.8-0.2c-1,0-1.3,0.9-1.3,2V72h3v-0.3c0-1,0.2-2,0.9-2.5c0.5-0.5,1.2-0.7,1.8-0.7c0.5,0,0.9,0.1,1.1,0.2l-0.2,1
		c-0.2-0.1-0.5-0.2-0.9-0.2c-1.1,0-1.4,1-1.4,2.1V72h1.8v1h-1.7v6.3H343.2z"/>
	<path d="M348,75.9c0,1.8,1.2,2.5,2.5,2.5c0.9,0,1.5-0.2,2-0.4l0.2,0.9c-0.5,0.2-1.3,0.4-2.4,0.4c-2.2,0-3.6-1.5-3.6-3.7
		s1.3-3.9,3.4-3.9c2.4,0,3,2.1,3,3.4c0,0.3,0,0.5,0,0.6H348z M351.9,74.9c0-0.8-0.3-2.1-1.8-2.1c-1.3,0-1.9,1.2-2,2.1H351.9z"/>
	<path d="M354.8,74.3c0-0.9,0-1.6-0.1-2.3h1.2l0,1.4h0.1c0.3-1,1.1-1.6,2-1.6c0.2,0,0.3,0,0.4,0v1.2c-0.1,0-0.3,0-0.4,0
		c-0.9,0-1.6,0.7-1.8,1.7c0,0.2-0.1,0.4-0.1,0.6v3.9h-1.3V74.3z"/>
	<path d="M359.5,77.9c0.4,0.3,1.1,0.5,1.7,0.5c1,0,1.4-0.5,1.4-1.1c0-0.6-0.4-1-1.3-1.3c-1.3-0.5-1.9-1.2-1.9-2.1
		c0-1.2,0.9-2.1,2.5-2.1c0.7,0,1.4,0.2,1.8,0.5l-0.3,1c-0.3-0.2-0.8-0.4-1.5-0.4c-0.8,0-1.2,0.4-1.2,1c0,0.6,0.4,0.9,1.4,1.2
		c1.3,0.5,1.9,1.1,1.9,2.2c0,1.3-1,2.2-2.7,2.2c-0.8,0-1.5-0.2-2-0.5L359.5,77.9z"/>
	<path d="M365.2,78.5c0-0.6,0.4-0.9,0.9-0.9s0.9,0.4,0.9,0.9c0,0.5-0.3,0.9-0.9,0.9C365.5,79.4,365.2,79,365.2,78.5z"/>
	<path d="M373.4,79.3V75l-3.2-5.8h1.5l1.4,2.8c0.4,0.8,0.7,1.4,1,2.1h0c0.3-0.7,0.6-1.3,1-2.1l1.5-2.8h1.5l-3.4,5.8v4.3H373.4z"/>
	<path d="M384.6,75.6c0,2.7-1.9,3.9-3.6,3.9c-2,0-3.5-1.4-3.5-3.7c0-2.4,1.6-3.9,3.6-3.9C383.2,71.8,384.6,73.4,384.6,75.6z
		 M378.9,75.6c0,1.6,0.9,2.8,2.2,2.8c1.3,0,2.2-1.2,2.2-2.8c0-1.2-0.6-2.8-2.2-2.8C379.5,72.8,378.9,74.3,378.9,75.6z"/>
	<path d="M392.4,77.3c0,0.8,0,1.4,0.1,2h-1.2l-0.1-1.2h0c-0.3,0.6-1.1,1.4-2.4,1.4c-1.1,0-2.5-0.6-2.5-3.2V72h1.3v4
		c0,1.4,0.4,2.3,1.6,2.3c0.9,0,1.5-0.6,1.7-1.2c0.1-0.2,0.1-0.4,0.1-0.7V72h1.3V77.3z"/>
	<path d="M404,68.6v8.8c0,0.6,0,1.4,0.1,1.9h-1.2l-0.1-1.3h0c-0.4,0.8-1.3,1.4-2.5,1.4c-1.8,0-3.1-1.5-3.1-3.7
		c0-2.4,1.5-3.9,3.3-3.9c1.1,0,1.9,0.5,2.2,1.1h0v-4.3H404z M402.7,75c0-0.2,0-0.4-0.1-0.6c-0.2-0.8-0.9-1.5-1.9-1.5
		c-1.4,0-2.2,1.2-2.2,2.8c0,1.5,0.7,2.7,2.1,2.7c0.9,0,1.7-0.6,1.9-1.6c0-0.2,0.1-0.4,0.1-0.6V75z"/>
	<path d="M412.8,75.6c0,2.7-1.9,3.9-3.6,3.9c-2,0-3.5-1.4-3.5-3.7c0-2.4,1.6-3.9,3.6-3.9C411.3,71.8,412.8,73.4,412.8,75.6z
		 M407,75.6c0,1.6,0.9,2.8,2.2,2.8c1.3,0,2.2-1.2,2.2-2.8c0-1.2-0.6-2.8-2.2-2.8C407.7,72.8,407,74.3,407,75.6z"/>
	<path d="M417.6,74c0-0.8,0-1.4-0.1-2h1.2l0.1,1.2h0c0.4-0.7,1.2-1.4,2.4-1.4c1,0,2.6,0.6,2.6,3.1v4.3h-1.3v-4.2
		c0-1.2-0.4-2.1-1.7-2.1c-0.9,0-1.5,0.6-1.8,1.3c-0.1,0.2-0.1,0.4-0.1,0.6v4.4h-1.3V74z"/>
	<path d="M432.5,75.6c0,2.7-1.9,3.9-3.6,3.9c-2,0-3.5-1.4-3.5-3.7c0-2.4,1.6-3.9,3.6-3.9C431.1,71.8,432.5,73.4,432.5,75.6z
		 M426.7,75.6c0,1.6,0.9,2.8,2.2,2.8c1.3,0,2.2-1.2,2.2-2.8c0-1.2-0.6-2.8-2.2-2.8S426.7,74.3,426.7,75.6z"/>
	<path d="M435.8,69.9V72h1.9v1h-1.9v3.9c0,0.9,0.3,1.4,1,1.4c0.3,0,0.6,0,0.8-0.1l0.1,1c-0.3,0.1-0.7,0.2-1.2,0.2
		c-0.6,0-1.1-0.2-1.4-0.6c-0.4-0.4-0.5-1-0.5-1.9v-4h-1.1v-1h1.1v-1.7L435.8,69.9z"/>
	<path d="M442.3,74.4c0-0.9,0-1.7-0.1-2.4h1.2l0.1,1.2h0c0.5-0.9,1.4-1.4,2.6-1.4c1.8,0,3.1,1.5,3.1,3.7c0,2.6-1.6,3.9-3.3,3.9
		c-1,0-1.8-0.4-2.2-1.1h0v3.9h-1.3V74.4z M443.6,76.3c0,0.2,0,0.4,0.1,0.5c0.2,0.9,1,1.5,2,1.5c1.4,0,2.2-1.1,2.2-2.8
		c0-1.5-0.8-2.7-2.2-2.7c-0.9,0-1.7,0.6-2,1.6c0,0.2-0.1,0.4-0.1,0.5V76.3z"/>
	<path d="M454.9,79.3l-0.1-0.9h0c-0.4,0.6-1.2,1.1-2.2,1.1c-1.5,0-2.2-1-2.2-2.1c0-1.8,1.6-2.7,4.4-2.7v-0.2c0-0.6-0.2-1.7-1.6-1.7
		c-0.7,0-1.4,0.2-1.9,0.5l-0.3-0.9c0.6-0.4,1.5-0.6,2.4-0.6c2.2,0,2.8,1.5,2.8,3v2.7c0,0.6,0,1.2,0.1,1.7H454.9z M454.7,75.6
		c-1.4,0-3.1,0.2-3.1,1.6c0,0.9,0.6,1.3,1.2,1.3c0.9,0,1.5-0.6,1.8-1.2c0-0.1,0.1-0.3,0.1-0.4V75.6z"/>
	<path d="M458.4,72l1.6,4.3c0.2,0.5,0.3,1,0.5,1.5h0c0.1-0.4,0.3-1,0.5-1.5l1.4-4.3h1.4l-2,5.2c-0.9,2.5-1.6,3.8-2.5,4.5
		c-0.6,0.6-1.3,0.8-1.6,0.9l-0.3-1.1c0.3-0.1,0.8-0.3,1.2-0.6c0.4-0.3,0.8-0.8,1.1-1.5c0.1-0.1,0.1-0.2,0.1-0.3c0-0.1,0-0.2-0.1-0.3
		L457,72H458.4z"/>
	<path d="M472.2,79.3l-0.1-0.9h0c-0.4,0.6-1.2,1.1-2.2,1.1c-1.5,0-2.2-1-2.2-2.1c0-1.8,1.6-2.7,4.4-2.7v-0.2c0-0.6-0.2-1.7-1.6-1.7
		c-0.7,0-1.4,0.2-1.9,0.5l-0.3-0.9c0.6-0.4,1.5-0.6,2.4-0.6c2.2,0,2.8,1.5,2.8,3v2.7c0,0.6,0,1.2,0.1,1.7H472.2z M472,75.6
		c-1.4,0-3.1,0.2-3.1,1.6c0,0.9,0.6,1.3,1.2,1.3c0.9,0,1.5-0.6,1.8-1.2c0-0.1,0.1-0.3,0.1-0.4V75.6z"/>
	<path d="M481.7,72c0,0.5-0.1,1.1-0.1,2v4.2c0,1.7-0.3,2.7-1,3.3c-0.7,0.7-1.7,0.9-2.6,0.9c-0.9,0-1.8-0.2-2.4-0.6l0.3-1
		c0.5,0.3,1.2,0.6,2.1,0.6c1.4,0,2.3-0.7,2.3-2.5V78h0c-0.4,0.7-1.2,1.2-2.3,1.2c-1.8,0-3.1-1.5-3.1-3.5c0-2.5,1.6-3.9,3.3-3.9
		c1.3,0,1.9,0.7,2.3,1.3h0l0.1-1.1H481.7z M480.3,74.9c0-0.2,0-0.4-0.1-0.6c-0.2-0.8-0.9-1.4-1.8-1.4c-1.3,0-2.2,1.1-2.2,2.7
		c0,1.4,0.7,2.6,2.1,2.6c0.8,0,1.5-0.5,1.8-1.3c0.1-0.2,0.1-0.5,0.1-0.7V74.9z"/>
	<path d="M484.5,75.9c0,1.8,1.2,2.5,2.5,2.5c0.9,0,1.5-0.2,2-0.4l0.2,0.9c-0.5,0.2-1.3,0.4-2.4,0.4c-2.2,0-3.6-1.5-3.6-3.7
		s1.3-3.9,3.4-3.9c2.4,0,3,2.1,3,3.4c0,0.3,0,0.5,0,0.6H484.5z M488.4,74.9c0-0.8-0.3-2.1-1.8-2.1c-1.3,0-1.9,1.2-2,2.1H488.4z"/>
	<path d="M491.3,74c0-0.8,0-1.4-0.1-2h1.2l0.1,1.2h0c0.4-0.7,1.2-1.4,2.4-1.4c1,0,2.6,0.6,2.6,3.1v4.3h-1.3v-4.2
		c0-1.2-0.4-2.1-1.7-2.1c-0.9,0-1.5,0.6-1.8,1.3c-0.1,0.2-0.1,0.4-0.1,0.6v4.4h-1.3V74z"/>
	<path d="M504.8,79c-0.3,0.2-1.1,0.4-2.1,0.4c-2.2,0-3.6-1.5-3.6-3.7c0-2.2,1.5-3.9,3.9-3.9c0.8,0,1.5,0.2,1.8,0.4l-0.3,1
		c-0.3-0.2-0.8-0.3-1.5-0.3c-1.7,0-2.6,1.2-2.6,2.7c0,1.7,1.1,2.7,2.5,2.7c0.8,0,1.2-0.2,1.6-0.4L504.8,79z"/>
	<path d="M507.1,72l1.6,4.3c0.2,0.5,0.3,1,0.5,1.5h0c0.1-0.4,0.3-1,0.5-1.5l1.4-4.3h1.4l-2,5.2c-0.9,2.5-1.6,3.8-2.5,4.5
		c-0.6,0.6-1.3,0.8-1.6,0.9l-0.3-1.1c0.3-0.1,0.8-0.3,1.2-0.6c0.4-0.3,0.8-0.8,1.1-1.5c0.1-0.1,0.1-0.2,0.1-0.3c0-0.1,0-0.2-0.1-0.3
		l-2.7-6.7H507.1z"/>
	<path d="M246.8,97.3V91h-1v-1h1v-0.3c0-1,0.2-2,0.8-2.5c0.5-0.5,1.2-0.7,1.8-0.7c0.5,0,0.9,0.1,1.1,0.2l-0.2,1
		c-0.2-0.1-0.5-0.2-0.8-0.2c-1.1,0-1.4,1-1.4,2.1V90h1.8v1h-1.8v6.3H246.8z"/>
	<path d="M251.5,93.9c0,1.8,1.2,2.5,2.5,2.5c0.9,0,1.5-0.2,2-0.4l0.2,0.9c-0.5,0.2-1.3,0.4-2.4,0.4c-2.2,0-3.6-1.5-3.6-3.7
		s1.3-3.9,3.4-3.9c2.4,0,3,2.1,3,3.4c0,0.3,0,0.5,0,0.6H251.5z M255.4,92.9c0-0.8-0.3-2.1-1.8-2.1c-1.3,0-1.9,1.2-2,2.1H255.4z"/>
	<path d="M259.1,93.9c0,1.8,1.2,2.5,2.5,2.5c0.9,0,1.5-0.2,2-0.4l0.2,0.9c-0.5,0.2-1.3,0.4-2.4,0.4c-2.2,0-3.6-1.5-3.6-3.7
		s1.3-3.9,3.4-3.9c2.4,0,3,2.1,3,3.4c0,0.3,0,0.5,0,0.6H259.1z M262.9,92.9c0-0.8-0.3-2.1-1.8-2.1c-1.3,0-1.9,1.2-2,2.1H262.9z"/>
	<path d="M265.7,95.9c0.4,0.3,1.1,0.5,1.7,0.5c1,0,1.4-0.5,1.4-1.1c0-0.6-0.4-1-1.3-1.3c-1.3-0.5-1.9-1.2-1.9-2.1
		c0-1.2,0.9-2.1,2.5-2.1c0.7,0,1.4,0.2,1.8,0.5l-0.3,1c-0.3-0.2-0.8-0.4-1.5-0.4c-0.8,0-1.2,0.4-1.2,1c0,0.6,0.4,0.9,1.4,1.2
		c1.3,0.5,1.9,1.1,1.9,2.2c0,1.3-1,2.2-2.7,2.2c-0.8,0-1.5-0.2-2-0.5L265.7,95.9z"/>
	<path d="M279,97.3l-0.1-0.9h0c-0.4,0.6-1.2,1.1-2.2,1.1c-1.5,0-2.2-1-2.2-2.1c0-1.8,1.6-2.7,4.4-2.7v-0.2c0-0.6-0.2-1.7-1.6-1.7
		c-0.7,0-1.4,0.2-1.9,0.5l-0.3-0.9c0.6-0.4,1.5-0.6,2.4-0.6c2.2,0,2.8,1.5,2.8,3v2.7c0,0.6,0,1.2,0.1,1.7H279z M278.8,93.6
		c-1.4,0-3.1,0.2-3.1,1.6c0,0.9,0.6,1.3,1.2,1.3c0.9,0,1.5-0.6,1.8-1.2c0-0.1,0.1-0.3,0.1-0.4V93.6z"/>
	<path d="M282.2,92c0-0.8,0-1.4-0.1-2h1.2l0.1,1.2h0c0.4-0.7,1.2-1.4,2.4-1.4c1,0,2.6,0.6,2.6,3.1v4.3H287v-4.2
		c0-1.2-0.4-2.1-1.7-2.1c-0.9,0-1.5,0.6-1.8,1.3c-0.1,0.2-0.1,0.4-0.1,0.6v4.4h-1.3V92z"/>
	<path d="M296.8,86.6v8.8c0,0.6,0,1.4,0.1,1.9h-1.2l-0.1-1.3h0c-0.4,0.8-1.3,1.4-2.5,1.4c-1.8,0-3.1-1.5-3.1-3.7
		c0-2.4,1.5-3.9,3.3-3.9c1.1,0,1.9,0.5,2.2,1.1h0v-4.3H296.8z M295.5,93c0-0.2,0-0.4-0.1-0.6c-0.2-0.8-0.9-1.5-1.9-1.5
		c-1.4,0-2.2,1.2-2.2,2.8c0,1.5,0.7,2.7,2.1,2.7c0.9,0,1.7-0.6,1.9-1.6c0-0.2,0.1-0.4,0.1-0.6V93z"/>
	<path d="M302.6,90l1.6,4.3c0.2,0.5,0.3,1,0.5,1.5h0c0.1-0.4,0.3-1,0.5-1.5l1.4-4.3h1.4l-2,5.2c-0.9,2.5-1.6,3.8-2.5,4.5
		c-0.6,0.6-1.3,0.8-1.6,0.9l-0.3-1.1c0.3-0.1,0.8-0.3,1.2-0.6c0.4-0.3,0.8-0.8,1.1-1.5c0.1-0.1,0.1-0.2,0.1-0.3c0-0.1,0-0.2-0.1-0.3
		l-2.7-6.7H302.6z"/>
	<path d="M315.6,93.6c0,2.7-1.9,3.9-3.6,3.9c-2,0-3.5-1.4-3.5-3.7c0-2.4,1.6-3.9,3.6-3.9C314.2,89.8,315.6,91.4,315.6,93.6z
		 M309.9,93.6c0,1.6,0.9,2.8,2.2,2.8c1.3,0,2.2-1.2,2.2-2.8c0-1.2-0.6-2.8-2.2-2.8S309.9,92.3,309.9,93.6z"/>
	<path d="M323.4,95.3c0,0.8,0,1.4,0.1,2h-1.2l-0.1-1.2h0c-0.3,0.6-1.1,1.4-2.4,1.4c-1.1,0-2.5-0.6-2.5-3.2V90h1.3v4
		c0,1.4,0.4,2.3,1.6,2.3c0.9,0,1.5-0.6,1.7-1.2c0.1-0.2,0.1-0.4,0.1-0.7V90h1.3V95.3z"/>
	<path d="M335,90c0,0.5-0.1,1.1-0.1,2v4.2c0,1.7-0.3,2.7-1,3.3c-0.7,0.7-1.7,0.9-2.6,0.9c-0.9,0-1.8-0.2-2.4-0.6l0.3-1
		c0.5,0.3,1.2,0.6,2.1,0.6c1.4,0,2.3-0.7,2.3-2.5V96h0c-0.4,0.7-1.2,1.2-2.3,1.2c-1.8,0-3.1-1.5-3.1-3.5c0-2.5,1.6-3.9,3.3-3.9
		c1.3,0,1.9,0.7,2.3,1.3h0l0.1-1.1H335z M333.6,92.9c0-0.2,0-0.4-0.1-0.6c-0.2-0.8-0.9-1.4-1.8-1.4c-1.3,0-2.2,1.1-2.2,2.7
		c0,1.4,0.7,2.6,2.1,2.6c0.8,0,1.5-0.5,1.8-1.3c0.1-0.2,0.1-0.5,0.1-0.7V92.9z"/>
	<path d="M337.9,93.9c0,1.8,1.2,2.5,2.5,2.5c0.9,0,1.5-0.2,2-0.4l0.2,0.9c-0.5,0.2-1.3,0.4-2.4,0.4c-2.2,0-3.6-1.5-3.6-3.7
		s1.3-3.9,3.4-3.9c2.4,0,3,2.1,3,3.4c0,0.3,0,0.5,0,0.6H337.9z M341.7,92.9c0-0.8-0.3-2.1-1.8-2.1c-1.3,0-1.9,1.2-2,2.1H341.7z"/>
	<path d="M346.2,87.9V90h1.9v1h-1.9v3.9c0,0.9,0.3,1.4,1,1.4c0.3,0,0.6,0,0.8-0.1l0.1,1c-0.3,0.1-0.7,0.2-1.2,0.2
		c-0.6,0-1.1-0.2-1.4-0.6c-0.4-0.4-0.5-1-0.5-1.9v-4h-1.1v-1h1.1v-1.7L346.2,87.9z"/>
	<path d="M352.9,97.3V91h-1v-1h1v-0.3c0-1,0.2-2,0.8-2.5c0.5-0.5,1.2-0.7,1.8-0.7c0.5,0,0.9,0.1,1.1,0.2l-0.2,1
		c-0.2-0.1-0.5-0.2-0.8-0.2c-1.1,0-1.4,1-1.4,2.1V90h1.8v1h-1.8v6.3H352.9z"/>
	<path d="M361.2,97.3l-0.1-0.9h0c-0.4,0.6-1.2,1.1-2.2,1.1c-1.5,0-2.2-1-2.2-2.1c0-1.8,1.6-2.7,4.4-2.7v-0.2c0-0.6-0.2-1.7-1.6-1.7
		c-0.7,0-1.4,0.2-1.9,0.5l-0.3-0.9c0.6-0.4,1.5-0.6,2.4-0.6c2.2,0,2.8,1.5,2.8,3v2.7c0,0.6,0,1.2,0.1,1.7H361.2z M361,93.6
		c-1.4,0-3.1,0.2-3.1,1.6c0,0.9,0.6,1.3,1.2,1.3c0.9,0,1.5-0.6,1.8-1.2c0-0.1,0.1-0.3,0.1-0.4V93.6z"/>
	<path d="M364.4,92c0-0.8,0-1.4-0.1-2h1.2l0.1,1.2h0c0.4-0.7,1.2-1.4,2.4-1.4c1,0,2.6,0.6,2.6,3.1v4.3h-1.3v-4.2
		c0-1.2-0.4-2.1-1.7-2.1c-0.9,0-1.5,0.6-1.8,1.3c-0.1,0.2-0.1,0.4-0.1,0.6v4.4h-1.3V92z"/>
	<path d="M374.3,87.9V90h1.9v1h-1.9v3.9c0,0.9,0.3,1.4,1,1.4c0.3,0,0.6,0,0.8-0.1l0.1,1c-0.3,0.1-0.7,0.2-1.2,0.2
		c-0.6,0-1.1-0.2-1.4-0.6c-0.4-0.4-0.5-1-0.5-1.9v-4h-1.1v-1h1.1v-1.7L374.3,87.9z"/>
	<path d="M381.6,97.3l-0.1-0.9h0c-0.4,0.6-1.2,1.1-2.2,1.1c-1.5,0-2.2-1-2.2-2.1c0-1.8,1.6-2.7,4.4-2.7v-0.2c0-0.6-0.2-1.7-1.6-1.7
		c-0.7,0-1.4,0.2-1.9,0.5l-0.3-0.9c0.6-0.4,1.5-0.6,2.4-0.6c2.2,0,2.8,1.5,2.8,3v2.7c0,0.6,0,1.2,0.1,1.7H381.6z M381.5,93.6
		c-1.4,0-3.1,0.2-3.1,1.6c0,0.9,0.6,1.3,1.2,1.3c0.9,0,1.5-0.6,1.8-1.2c0-0.1,0.1-0.3,0.1-0.4V93.6z"/>
	<path d="M384.7,95.9c0.4,0.3,1.1,0.5,1.7,0.5c1,0,1.4-0.5,1.4-1.1c0-0.6-0.4-1-1.4-1.3c-1.3-0.5-1.9-1.2-1.9-2.1
		c0-1.2,0.9-2.1,2.5-2.1c0.7,0,1.4,0.2,1.8,0.5l-0.3,1c-0.3-0.2-0.8-0.4-1.5-0.4c-0.8,0-1.2,0.4-1.2,1c0,0.6,0.4,0.9,1.4,1.2
		c1.3,0.5,1.9,1.1,1.9,2.2c0,1.3-1,2.2-2.7,2.2c-0.8,0-1.5-0.2-2-0.5L384.7,95.9z"/>
	<path d="M392.4,87.9V90h1.9v1h-1.9v3.9c0,0.9,0.3,1.4,1,1.4c0.3,0,0.6,0,0.8-0.1l0.1,1c-0.3,0.1-0.7,0.2-1.2,0.2
		c-0.6,0-1.1-0.2-1.4-0.6c-0.4-0.4-0.5-1-0.5-1.9v-4H390v-1h1.1v-1.7L392.4,87.9z"/>
	<path d="M397.2,88c0,0.5-0.3,0.8-0.8,0.8c-0.5,0-0.8-0.4-0.8-0.8c0-0.5,0.3-0.8,0.8-0.8C396.9,87.1,397.2,87.5,397.2,88z
		 M395.8,97.3V90h1.3v7.3H395.8z"/>
	<path d="M404.4,97c-0.3,0.2-1.1,0.4-2.1,0.4c-2.2,0-3.6-1.5-3.6-3.7c0-2.2,1.5-3.9,3.9-3.9c0.8,0,1.5,0.2,1.8,0.4l-0.3,1
		c-0.3-0.2-0.8-0.3-1.5-0.3c-1.7,0-2.6,1.2-2.6,2.7c0,1.7,1.1,2.7,2.5,2.7c0.8,0,1.2-0.2,1.6-0.4L404.4,97z"/>
	<path d="M415.4,86.6v8.8c0,0.6,0,1.4,0.1,1.9h-1.2l-0.1-1.3h0c-0.4,0.8-1.3,1.4-2.5,1.4c-1.8,0-3.1-1.5-3.1-3.7
		c0-2.4,1.5-3.9,3.3-3.9c1.1,0,1.9,0.5,2.2,1.1h0v-4.3H415.4z M414.1,93c0-0.2,0-0.4-0.1-0.6c-0.2-0.8-0.9-1.5-1.9-1.5
		c-1.4,0-2.2,1.2-2.2,2.8c0,1.5,0.7,2.7,2.1,2.7c0.9,0,1.7-0.6,1.9-1.6c0-0.2,0.1-0.4,0.1-0.6V93z"/>
	<path d="M419.1,88c0,0.5-0.3,0.8-0.8,0.8c-0.5,0-0.8-0.4-0.8-0.8c0-0.5,0.3-0.8,0.8-0.8C418.8,87.1,419.1,87.5,419.1,88z
		 M417.6,97.3V90h1.3v7.3H417.6z"/>
	<path d="M421.1,92.3c0-0.9,0-1.6-0.1-2.3h1.2l0,1.4h0.1c0.3-1,1.1-1.6,2-1.6c0.1,0,0.3,0,0.4,0v1.2c-0.1,0-0.3,0-0.5,0
		c-0.9,0-1.6,0.7-1.8,1.7c0,0.2-0.1,0.4-0.1,0.6v3.9h-1.3V92.3z"/>
	<path d="M426.6,93.9c0,1.8,1.2,2.5,2.5,2.5c0.9,0,1.5-0.2,2-0.4l0.2,0.9c-0.5,0.2-1.3,0.4-2.4,0.4c-2.2,0-3.6-1.5-3.6-3.7
		s1.3-3.9,3.4-3.9c2.4,0,3,2.1,3,3.4c0,0.3,0,0.5,0,0.6H426.6z M430.5,92.9c0-0.8-0.3-2.1-1.8-2.1c-1.3,0-1.9,1.2-2,2.1H430.5z"/>
	<path d="M438.6,97c-0.3,0.2-1.1,0.4-2.1,0.4c-2.2,0-3.6-1.5-3.6-3.7c0-2.2,1.5-3.9,3.9-3.9c0.8,0,1.5,0.2,1.8,0.4l-0.3,1
		c-0.3-0.2-0.8-0.3-1.5-0.3c-1.7,0-2.6,1.2-2.6,2.7c0,1.7,1.1,2.7,2.5,2.7c0.8,0,1.2-0.2,1.6-0.4L438.6,97z"/>
	<path d="M441.9,87.9V90h1.9v1h-1.9v3.9c0,0.9,0.3,1.4,1,1.4c0.3,0,0.6,0,0.8-0.1l0.1,1c-0.3,0.1-0.7,0.2-1.2,0.2
		c-0.6,0-1.1-0.2-1.4-0.6c-0.4-0.4-0.5-1-0.5-1.9v-4h-1.1v-1h1.1v-1.7L441.9,87.9z"/>
	<path d="M448.3,95.9c0.4,0.3,1.1,0.5,1.7,0.5c1,0,1.4-0.5,1.4-1.1c0-0.6-0.4-1-1.3-1.3c-1.3-0.5-1.9-1.2-1.9-2.1
		c0-1.2,0.9-2.1,2.5-2.1c0.7,0,1.4,0.2,1.8,0.5l-0.3,1c-0.3-0.2-0.8-0.4-1.5-0.4c-0.8,0-1.2,0.4-1.2,1c0,0.6,0.4,0.9,1.4,1.2
		c1.3,0.5,1.9,1.1,1.9,2.2c0,1.3-1,2.2-2.7,2.2c-0.8,0-1.5-0.2-2-0.5L448.3,95.9z"/>
	<path d="M455.1,93.9c0,1.8,1.2,2.5,2.5,2.5c0.9,0,1.5-0.2,2-0.4l0.2,0.9c-0.5,0.2-1.3,0.4-2.4,0.4c-2.2,0-3.6-1.5-3.6-3.7
		s1.3-3.9,3.4-3.9c2.4,0,3,2.1,3,3.4c0,0.3,0,0.5,0,0.6H455.1z M459,92.9c0-0.8-0.3-2.1-1.8-2.1c-1.3,0-1.9,1.2-2,2.1H459z"/>
	<path d="M461.9,92.3c0-0.9,0-1.6-0.1-2.3h1.2l0,1.4h0.1c0.3-1,1.1-1.6,2-1.6c0.1,0,0.3,0,0.4,0v1.2c-0.1,0-0.3,0-0.5,0
		c-0.9,0-1.6,0.7-1.8,1.7c0,0.2-0.1,0.4-0.1,0.6v3.9h-1.3V92.3z"/>
	<path d="M467.7,90l1.4,4.1c0.2,0.7,0.4,1.3,0.6,1.9h0c0.2-0.6,0.4-1.2,0.6-1.9l1.4-4.1h1.4l-2.9,7.3h-1.3l-2.8-7.3H467.7z"/>
	<path d="M475.9,88c0,0.5-0.3,0.8-0.8,0.8c-0.5,0-0.8-0.4-0.8-0.8c0-0.5,0.3-0.8,0.8-0.8C475.6,87.1,475.9,87.5,475.9,88z
		 M474.4,97.3V90h1.3v7.3H474.4z"/>
	<path d="M483.1,97c-0.3,0.2-1.1,0.4-2.1,0.4c-2.2,0-3.6-1.5-3.6-3.7c0-2.2,1.5-3.9,3.9-3.9c0.8,0,1.5,0.2,1.8,0.4l-0.3,1
		c-0.3-0.2-0.8-0.3-1.5-0.3c-1.7,0-2.6,1.2-2.6,2.7c0,1.7,1.1,2.7,2.5,2.7c0.8,0,1.2-0.2,1.6-0.4L483.1,97z"/>
	<path d="M485.3,93.9c0,1.8,1.2,2.5,2.5,2.5c0.9,0,1.5-0.2,2-0.4L490,97c-0.5,0.2-1.3,0.4-2.4,0.4c-2.2,0-3.6-1.5-3.6-3.7
		s1.3-3.9,3.4-3.9c2.4,0,3,2.1,3,3.4c0,0.3,0,0.5,0,0.6H485.3z M489.2,92.9c0-0.8-0.3-2.1-1.8-2.1c-1.3,0-1.9,1.2-2,2.1H489.2z"/>
	<path d="M491.6,96.5c0-0.6,0.4-0.9,0.9-0.9s0.9,0.4,0.9,0.9c0,0.5-0.3,0.9-0.9,0.9C491.9,97.4,491.6,97,491.6,96.5z"/>
	<path d="M265.8,105.2v4.2h4.9v-4.2h1.3v10.1h-1.3v-4.7h-4.9v4.7h-1.3v-10.1H265.8z"/>
	<path d="M275.8,106c0,0.5-0.3,0.8-0.8,0.8c-0.5,0-0.8-0.4-0.8-0.8c0-0.5,0.3-0.8,0.8-0.8C275.5,105.1,275.8,105.5,275.8,106z
		 M274.3,115.3V108h1.3v7.3H274.3z"/>
	<path d="M284.1,108c0,0.5-0.1,1.1-0.1,2v4.2c0,1.7-0.3,2.7-1,3.3c-0.7,0.7-1.7,0.9-2.6,0.9c-0.9,0-1.8-0.2-2.4-0.6l0.3-1
		c0.5,0.3,1.2,0.6,2.1,0.6c1.4,0,2.3-0.7,2.3-2.5V114h0c-0.4,0.7-1.2,1.2-2.3,1.2c-1.8,0-3.1-1.5-3.1-3.5c0-2.5,1.6-3.9,3.3-3.9
		c1.3,0,1.9,0.7,2.3,1.3h0l0.1-1.1H284.1z M282.7,110.9c0-0.2,0-0.4-0.1-0.6c-0.2-0.8-0.9-1.4-1.8-1.4c-1.3,0-2.2,1.1-2.2,2.7
		c0,1.4,0.7,2.6,2.1,2.6c0.8,0,1.5-0.5,1.8-1.3c0.1-0.2,0.1-0.5,0.1-0.7V110.9z"/>
	<path d="M286.2,104.6h1.3v4.5h0c0.2-0.4,0.5-0.7,0.9-0.9c0.4-0.2,0.9-0.4,1.3-0.4c1,0,2.5,0.6,2.5,3.1v4.3h-1.3v-4.2
		c0-1.2-0.4-2.2-1.7-2.2c-0.9,0-1.5,0.6-1.8,1.3c-0.1,0.2-0.1,0.4-0.1,0.6v4.4h-1.3V104.6z"/>
	<path d="M302.7,114.1L302.7,114.1c-0.4,0.7-1.2,1.3-2.4,1.3c-1.7,0-3.1-1.5-3.1-3.7c0-2.7,1.8-3.9,3.3-3.9c1.1,0,1.9,0.6,2.2,1.3h0
		l0-1.1h1.2c0,0.6,0,1.2,0,2v8.2h-1.3V114.1z M302.7,110.9c0-0.2,0-0.4-0.1-0.6c-0.2-0.8-0.9-1.5-1.9-1.5c-1.4,0-2.2,1.2-2.2,2.8
		c0,1.4,0.7,2.7,2.1,2.7c0.9,0,1.6-0.5,1.9-1.4c0.1-0.2,0.1-0.4,0.1-0.6V110.9z"/>
	<path d="M312.3,113.3c0,0.8,0,1.4,0.1,2h-1.2l-0.1-1.2h0c-0.3,0.6-1.1,1.4-2.4,1.4c-1.1,0-2.5-0.6-2.5-3.2V108h1.3v4
		c0,1.4,0.4,2.3,1.6,2.3c0.9,0,1.5-0.6,1.7-1.2c0.1-0.2,0.1-0.4,0.1-0.7V108h1.3V113.3z"/>
	<path d="M318.5,115.3l-0.1-0.9h0c-0.4,0.6-1.2,1.1-2.2,1.1c-1.5,0-2.2-1-2.2-2.1c0-1.8,1.6-2.7,4.4-2.7v-0.2c0-0.6-0.2-1.7-1.6-1.7
		c-0.7,0-1.4,0.2-1.9,0.5l-0.3-0.9c0.6-0.4,1.5-0.6,2.4-0.6c2.2,0,2.8,1.5,2.8,3v2.7c0,0.6,0,1.2,0.1,1.7H318.5z M318.3,111.6
		c-1.4,0-3.1,0.2-3.1,1.6c0,0.9,0.6,1.3,1.2,1.3c0.9,0,1.5-0.6,1.8-1.2c0-0.1,0.1-0.3,0.1-0.4V111.6z"/>
	<path d="M321.7,104.6h1.3v10.6h-1.3V104.6z"/>
	<path d="M326.7,106c0,0.5-0.3,0.8-0.8,0.8c-0.5,0-0.8-0.4-0.8-0.8c0-0.5,0.3-0.8,0.8-0.8C326.4,105.1,326.7,105.5,326.7,106z
		 M325.2,115.3V108h1.3v7.3H325.2z"/>
	<path d="M330.3,105.9v2.1h1.9v1h-1.9v3.9c0,0.9,0.3,1.4,1,1.4c0.3,0,0.6,0,0.8-0.1l0.1,1c-0.3,0.1-0.7,0.2-1.2,0.2
		c-0.6,0-1.1-0.2-1.4-0.6c-0.4-0.4-0.5-1-0.5-1.9v-4h-1.1v-1h1.1v-1.7L330.3,105.9z"/>
	<path d="M334.3,108l1.6,4.3c0.2,0.5,0.3,1,0.5,1.5h0c0.1-0.4,0.3-1,0.5-1.5l1.4-4.3h1.4l-2,5.2c-0.9,2.5-1.6,3.8-2.5,4.5
		c-0.6,0.6-1.3,0.8-1.6,0.9l-0.3-1.1c0.3-0.1,0.8-0.3,1.2-0.6c0.4-0.3,0.8-0.8,1.1-1.5c0.1-0.1,0.1-0.2,0.1-0.3c0-0.1,0-0.2-0.1-0.3
		l-2.7-6.7H334.3z"/>
	<path d="M344.2,115.3V109h-1v-1h1v-0.3c0-1,0.2-2,0.8-2.5c0.5-0.5,1.2-0.7,1.8-0.7c0.5,0,0.9,0.1,1.1,0.2l-0.2,1
		c-0.2-0.1-0.5-0.2-0.8-0.2c-1.1,0-1.4,1-1.4,2.1v0.4h1.8v1h-1.8v6.3H344.2z"/>
	<path d="M354.8,111.6c0,2.7-1.9,3.9-3.6,3.9c-2,0-3.5-1.4-3.5-3.7c0-2.4,1.6-3.9,3.6-3.9C353.4,107.8,354.8,109.4,354.8,111.6z
		 M349.1,111.6c0,1.6,0.9,2.8,2.2,2.8c1.3,0,2.2-1.2,2.2-2.8c0-1.2-0.6-2.8-2.2-2.8S349.1,110.3,349.1,111.6z"/>
	<path d="M356.5,110.3c0-0.9,0-1.6-0.1-2.3h1.2l0,1.4h0.1c0.3-1,1.1-1.6,2-1.6c0.1,0,0.3,0,0.4,0v1.2c-0.1,0-0.3,0-0.5,0
		c-0.9,0-1.6,0.7-1.8,1.7c0,0.2-0.1,0.4-0.1,0.6v3.9h-1.3V110.3z"/>
	<path d="M368.6,115.3l-0.1-0.9h0c-0.4,0.6-1.2,1.1-2.2,1.1c-1.5,0-2.2-1-2.2-2.1c0-1.8,1.6-2.7,4.4-2.7v-0.2c0-0.6-0.2-1.7-1.6-1.7
		c-0.7,0-1.4,0.2-1.9,0.5l-0.3-0.9c0.6-0.4,1.5-0.6,2.4-0.6c2.2,0,2.8,1.5,2.8,3v2.7c0,0.6,0,1.2,0.1,1.7H368.6z M368.4,111.6
		c-1.4,0-3.1,0.2-3.1,1.6c0,0.9,0.6,1.3,1.2,1.3c0.9,0,1.5-0.6,1.8-1.2c0-0.1,0.1-0.3,0.1-0.4V111.6z"/>
	<path d="M371.6,113.9c0.4,0.3,1.1,0.5,1.7,0.5c1,0,1.4-0.5,1.4-1.1c0-0.6-0.4-1-1.3-1.3c-1.3-0.5-1.9-1.2-1.9-2.1
		c0-1.2,0.9-2.1,2.5-2.1c0.7,0,1.4,0.2,1.8,0.5l-0.3,1c-0.3-0.2-0.8-0.4-1.5-0.4c-0.8,0-1.2,0.4-1.2,1c0,0.6,0.4,0.9,1.4,1.2
		c1.3,0.5,1.9,1.1,1.9,2.2c0,1.3-1,2.2-2.7,2.2c-0.8,0-1.5-0.2-2-0.5L371.6,113.9z"/>
	<path d="M379.3,105.9v2.1h1.9v1h-1.9v3.9c0,0.9,0.3,1.4,1,1.4c0.3,0,0.6,0,0.8-0.1l0.1,1c-0.3,0.1-0.7,0.2-1.2,0.2
		c-0.6,0-1.1-0.2-1.4-0.6c-0.4-0.4-0.5-1-0.5-1.9v-4h-1.1v-1h1.1v-1.7L379.3,105.9z"/>
	<path d="M389.2,111.6c0,2.7-1.9,3.9-3.6,3.9c-2,0-3.5-1.4-3.5-3.7c0-2.4,1.6-3.9,3.6-3.9C387.8,107.8,389.2,109.4,389.2,111.6z
		 M383.4,111.6c0,1.6,0.9,2.8,2.2,2.8c1.3,0,2.2-1.2,2.2-2.8c0-1.2-0.6-2.8-2.2-2.8C384.1,108.8,383.4,110.3,383.4,111.6z"/>
	<path d="M390.9,110c0-0.8,0-1.4-0.1-2h1.2l0.1,1.2h0c0.4-0.7,1.2-1.4,2.4-1.4c1,0,2.6,0.6,2.6,3.1v4.3h-1.3v-4.2
		c0-1.2-0.4-2.1-1.7-2.1c-0.9,0-1.5,0.6-1.8,1.3c-0.1,0.2-0.1,0.4-0.1,0.6v4.4h-1.3V110z"/>
	<path d="M400.7,106c0,0.5-0.3,0.8-0.8,0.8c-0.5,0-0.8-0.4-0.8-0.8c0-0.5,0.3-0.8,0.8-0.8C400.3,105.1,400.7,105.5,400.7,106z
		 M399.2,115.3V108h1.3v7.3H399.2z"/>
	<path d="M402.5,113.9c0.4,0.3,1.1,0.5,1.7,0.5c1,0,1.4-0.5,1.4-1.1c0-0.6-0.4-1-1.3-1.3c-1.3-0.5-1.9-1.2-1.9-2.1
		c0-1.2,0.9-2.1,2.5-2.1c0.7,0,1.4,0.2,1.8,0.5l-0.3,1c-0.3-0.2-0.8-0.4-1.5-0.4c-0.8,0-1.2,0.4-1.2,1c0,0.6,0.4,0.9,1.4,1.2
		c1.3,0.5,1.9,1.1,1.9,2.2c0,1.3-1,2.2-2.7,2.2c-0.8,0-1.5-0.2-2-0.5L402.5,113.9z"/>
	<path d="M408.6,104.6h1.3v4.5h0c0.2-0.4,0.5-0.7,0.9-0.9c0.4-0.2,0.9-0.4,1.4-0.4c1,0,2.5,0.6,2.5,3.1v4.3h-1.3v-4.2
		c0-1.2-0.4-2.2-1.7-2.2c-0.9,0-1.5,0.6-1.8,1.3c-0.1,0.2-0.1,0.4-0.1,0.6v4.4h-1.3V104.6z"/>
	<path d="M418.4,106c0,0.5-0.3,0.8-0.8,0.8c-0.5,0-0.8-0.4-0.8-0.8c0-0.5,0.3-0.8,0.8-0.8C418.1,105.1,418.4,105.5,418.4,106z
		 M417,115.3V108h1.3v7.3H417z"/>
	<path d="M420.5,110c0-0.8,0-1.4-0.1-2h1.2l0.1,1.2h0c0.4-0.7,1.2-1.4,2.4-1.4c1,0,2.6,0.6,2.6,3.1v4.3h-1.3v-4.2
		c0-1.2-0.4-2.1-1.7-2.1c-0.9,0-1.5,0.6-1.8,1.3c-0.1,0.2-0.1,0.4-0.1,0.6v4.4h-1.3V110z"/>
	<path d="M435,108c0,0.5-0.1,1.1-0.1,2v4.2c0,1.7-0.3,2.7-1,3.3c-0.7,0.7-1.7,0.9-2.6,0.9c-0.9,0-1.8-0.2-2.4-0.6l0.3-1
		c0.5,0.3,1.2,0.6,2.1,0.6c1.4,0,2.3-0.7,2.3-2.5V114h0c-0.4,0.7-1.2,1.2-2.3,1.2c-1.8,0-3.1-1.5-3.1-3.5c0-2.5,1.6-3.9,3.3-3.9
		c1.3,0,1.9,0.7,2.3,1.3h0l0.1-1.1H435z M433.7,110.9c0-0.2,0-0.4-0.1-0.6c-0.2-0.8-0.9-1.4-1.8-1.4c-1.3,0-2.2,1.1-2.2,2.7
		c0,1.4,0.7,2.6,2.1,2.6c0.8,0,1.5-0.5,1.8-1.3c0.1-0.2,0.1-0.5,0.1-0.7V110.9z"/>
	<path d="M440.4,110.4c0-0.9,0-1.7-0.1-2.4h1.2l0.1,1.2h0c0.5-0.9,1.4-1.4,2.6-1.4c1.8,0,3.1,1.5,3.1,3.7c0,2.6-1.6,3.9-3.3,3.9
		c-1,0-1.8-0.4-2.2-1.1h0v3.9h-1.3V110.4z M441.7,112.3c0,0.2,0,0.4,0.1,0.5c0.2,0.9,1,1.5,2,1.5c1.4,0,2.2-1.1,2.2-2.8
		c0-1.5-0.8-2.7-2.2-2.7c-0.9,0-1.7,0.6-2,1.6c0,0.2-0.1,0.4-0.1,0.5V112.3z"/>
	<path d="M448.9,110.3c0-0.9,0-1.6-0.1-2.3h1.2l0,1.4h0.1c0.3-1,1.1-1.6,2-1.6c0.1,0,0.3,0,0.4,0v1.2c-0.1,0-0.3,0-0.5,0
		c-0.9,0-1.6,0.7-1.8,1.7c0,0.2-0.1,0.4-0.1,0.6v3.9h-1.3V110.3z"/>
	<path d="M455.3,106c0,0.5-0.3,0.8-0.8,0.8c-0.5,0-0.8-0.4-0.8-0.8c0-0.5,0.3-0.8,0.8-0.8C455,105.1,455.3,105.5,455.3,106z
		 M453.9,115.3V108h1.3v7.3H453.9z"/>
	<path d="M462.5,115c-0.3,0.2-1.1,0.4-2.1,0.4c-2.2,0-3.6-1.5-3.6-3.7c0-2.2,1.5-3.9,3.9-3.9c0.8,0,1.5,0.2,1.8,0.4l-0.3,1
		c-0.3-0.2-0.8-0.3-1.5-0.3c-1.7,0-2.6,1.2-2.6,2.7c0,1.7,1.1,2.7,2.5,2.7c0.8,0,1.2-0.2,1.6-0.4L462.5,115z"/>
	<path d="M464.7,111.9c0,1.8,1.2,2.5,2.5,2.5c0.9,0,1.5-0.2,2-0.4l0.2,0.9c-0.5,0.2-1.3,0.4-2.4,0.4c-2.2,0-3.6-1.5-3.6-3.7
		s1.3-3.9,3.4-3.9c2.4,0,3,2.1,3,3.4c0,0.3,0,0.5,0,0.6H464.7z M468.6,110.9c0-0.8-0.3-2.1-1.8-2.1c-1.3,0-1.9,1.2-2,2.1H468.6z"/>
	<path d="M471.3,113.9c0.4,0.3,1.1,0.5,1.7,0.5c1,0,1.4-0.5,1.4-1.1c0-0.6-0.4-1-1.4-1.3c-1.3-0.5-1.9-1.2-1.9-2.1
		c0-1.2,0.9-2.1,2.5-2.1c0.7,0,1.4,0.2,1.8,0.5l-0.3,1c-0.3-0.2-0.8-0.4-1.5-0.4c-0.8,0-1.2,0.4-1.2,1c0,0.6,0.4,0.9,1.4,1.2
		c1.3,0.5,1.9,1.1,1.9,2.2c0,1.3-1,2.2-2.7,2.2c-0.8,0-1.5-0.2-2-0.5L471.3,113.9z"/>
	<path d="M477,114.5c0-0.6,0.4-0.9,0.9-0.9s0.9,0.4,0.9,0.9c0,0.5-0.3,0.9-0.9,0.9C477.3,115.4,477,115,477,114.5z"/>
</g>
</svg>
