<?xml version="1.0" encoding="utf-8"?>
<!-- Generator: Adobe Illustrator 25.2.3, SVG Export Plug-In . SVG Version: 6.00 Build 0)  -->
<svg version="1.1" id="Capa_1" xmlns="http://www.w3.org/2000/svg" xmlns:xlink="http://www.w3.org/1999/xlink" x="0px" y="0px"
	 viewBox="0 0 300 350" style="enable-background:new 0 0 300 350;" xml:space="preserve">
<style type="text/css">
	.st0{fill:#A0D8EC;stroke:#A0D8EC;stroke-width:3.5932;stroke-miterlimit:10;}
	.st1{fill:#8BC2D1;stroke:#8BC2D1;stroke-width:4.1249;stroke-miterlimit:10;}
	.st2{fill:#293377;stroke:#293377;stroke-width:4.8278;stroke-miterlimit:10;}
	.st3{fill:#2C59A5;stroke:#2C59A5;stroke-width:4.1249;stroke-miterlimit:10;}
	.st4{fill:#3EAEC9;stroke:#3EAEC9;stroke-width:1.2442;stroke-miterlimit:10;}
	.st5{fill:#8BC2D1;stroke:#8BC2D1;stroke-width:4.3067;stroke-miterlimit:10;}
	.st6{opacity:0.5;fill:#36B2CE;stroke:#36B2CE;stroke-width:4.3067;stroke-miterlimit:10;enable-background:new    ;}
	.st7{fill:#293377;stroke:#293377;stroke-width:5.0406;stroke-miterlimit:10;}
	.st8{fill:#1E2142;stroke:#1E2142;stroke-width:5.0406;stroke-miterlimit:10;}
	.st9{fill:#0AA5D1;stroke:#0AA5D1;stroke-width:4.3067;stroke-miterlimit:10;}
	.st10{opacity:0.5;fill:#2C5CA8;stroke:#2C5CA8;stroke-width:4.3067;stroke-miterlimit:10;enable-background:new    ;}
	.st11{fill:#9BD2CB;stroke:#9BD2CB;stroke-width:4.3067;stroke-miterlimit:10;}
	.st12{fill:#5FBEB3;}
	.st13{fill:#FCC556;stroke:#FCC556;stroke-width:3.5932;stroke-miterlimit:10;}
	.st14{opacity:0.5;fill:#F3914E;stroke:#F3914E;stroke-width:3.5932;stroke-miterlimit:10;enable-background:new    ;}
	.st15{clip-path:url(#SVGID_2_);}
	.st16{clip-path:url(#SVGID_4_);}
	.st17{clip-path:url(#SVGID_6_);}
	.st18{stroke:#000000;stroke-width:0.9512;stroke-miterlimit:10;}
	.st19{fill:#FFFFFF;stroke:#FFFFFF;stroke-width:0.2985;stroke-miterlimit:10.0006;}
	.st20{fill:#3E9BB1;stroke:#3E9BB1;stroke-width:3.364;stroke-miterlimit:10;}
	.st21{fill:#7FCDEB;stroke:#7FCDEB;stroke-width:3.5932;stroke-miterlimit:10;}
	.st22{opacity:0.61;fill:#CEEAF9;stroke:#CEEAF9;stroke-width:3.5932;stroke-miterlimit:10;enable-background:new    ;}
	.st23{opacity:0.49;fill:#A37F58;enable-background:new    ;}
	.st24{fill:#34BDE7;stroke:#34BDE7;stroke-width:3.5932;stroke-miterlimit:10;}
	.st25{opacity:0.5;fill:#15A6C7;enable-background:new    ;}
	.st26{fill:#293377;stroke:#293377;stroke-width:5.5678;stroke-miterlimit:10;}
	.st27{fill:#23AEE5;stroke:#23AEE5;stroke-width:5.5678;stroke-miterlimit:10;}
	.st28{fill:#8ACCC8;stroke:#8ACCC8;stroke-width:5.5678;stroke-miterlimit:10;}
	.st29{opacity:0.49;fill:#D6ECEA;enable-background:new    ;}
	.st30{fill:#51BBB5;}
	.st31{fill:#202447;}
	.st32{fill:#3987C7;}
	.st33{fill:#92CFCD;}
	.st34{fill:#3EAEC9;}
	.st35{fill:#1E2142;}
	.st36{opacity:0.5;fill:#2C5CA8;enable-background:new    ;}
	.st37{fill:url(#SVGID_7_);}
	.st38{fill:#632425;}
	.st39{clip-path:url(#SVGID_9_);}
	.st40{clip-path:url(#SVGID_11_);}
	.st41{clip-path:url(#SVGID_13_);}
	.st42{stroke:#000000;stroke-width:0.9956;stroke-miterlimit:10.0001;}
	.st43{fill:#FFFFFF;stroke:#FFFFFF;stroke-width:0.3125;stroke-miterlimit:9.9998;}
	.st44{opacity:0.62;fill:#CC7C11;enable-background:new    ;}
	.st45{fill:#EDEDED;}
	.st46{fill:#FCC010;}
	.st47{font-family:'OpenSans';}
	.st48{font-size:16px;}
</style>
<g id="Parrot">
	<path class="st0" d="M71.2,244.5c-8.8,0.7-16.9,3-25.9,2.6c-7.6-0.4-16.4-3.4-24-1.1c0.7,9.9,12,10.1,18.7,12.9
		c-4,1.8-19.4,4.8-15.7,10.5c4,6.3,17,4.3,23.1,5.4c-1.8,1.4-7.5,1.2-8.3,3.3c-1.1,2.9,6.3,4,8,4.5c11.1,3.2,21.8,1.1,33.1,0.7
		c12-0.4,25.6-1.7,36.1-8.1c4.2-2.6,9-8.8,8.9-14.1c-0.2-7-11.4-11.3-16.9-13.1c-12-4-27.7-4.7-40.2-3.1
		C67.4,244.9,69.4,244.8,71.2,244.5z"/>
	<g>
		<path class="st1" d="M106.2,288.5c0,0,0-0.1,0-0.1C106.4,288.3,106.3,288.4,106.2,288.5z"/>
		<path class="st1" d="M122.4,298.8c0.1,0.7-1.8,2.9-2.2,3.5c-4.4,6.9-10.4,12.6-17.1,17.7c-4.4,3.3-8.2,6.8-13.2,9.5
			c-4.8,2.6-9.4,4.8-14.4,6.7c-0.3,0.1-0.7,0.3-1,0.4c-5.1,1.9-10.2,3.3-15.6,3.6c-3.4,0.2-8.3,0.6-9.8-2.9
			c-1.9-4.4,7.1-7.3,10.2-8.8c-2.3,1-6.9,1.3-9.6,1.3c-5.9-0.1-11.6-1.4-16.5-4.3c-3.7-2.2-7-5.4-6.1-10.2c0.7-3.4,3.2-4,6.4-3.8
			c5.2,0.2,11.1,1.6,16,3.1c3.7,1.1,9.2,3.1,14.4,3.5c3.5,0.2,6.9-0.3,9.5-2.3c-3.5,0.7-7.7,0.4-11.4,0c-0.7-0.1-1.3-0.1-1.9-0.2
			c-5.7-0.6-9.9-2.8-14.2-6.2c-2.5-2-7-6.4-7-10.6c0-1,0.3-2,1-3c2.6-3.8,9-0.1,11.5,1c4.7,2.1,9.4,4.7,14.3,6.5
			c2.6,1,5.3,1.7,8.1,2.2c7.5,1.1,14.1-2.8,20.3-7.2c2.3-1.6,4.5-3.5,6.6-5.3c0.4-0.3,0.8-0.7,1.2-1l0,0c0.8-0.7,1.6-1.4,2.4-2.1
			c0.1-0.1,0.4-0.3,0.7-0.6c0.1-0.1,0.2-0.2,0.3-0.2c0.3-0.3,0.6-0.5,0.8-0.7c0.1,0.5,0.4,1,0.9,1.5c1.2,1.2,3.6,2.5,5.7,3.4
			c1.6,0.7,3,1.3,3.8,1.7C117.8,295.8,122.2,297.3,122.4,298.8z"/>
		<path class="st2" d="M107.1,319.2c-7.9,6.6-20.2,15.8-30.4,17.3c-0.8,0.1-1.6,0.2-2.2,0.2c-7.7-0.1-5.2-8.2-0.8-13.2
			c5.1-5.8,13.1-9,18.7-14c-7.6,3.5-16.7,12.3-25.4,10.3c-1.1-0.2-2.1-0.8-3-1.4c-0.8-0.6-1.4-1.5-1.9-2.4c-0.8-1.5-1.2-3.3-1-5.1
			c0.1-1.5,0.6-3.1,1.5-4.5c0.9-1.3,1.9-2.2,3.1-2.9c2.9-1.8,6.5-2.2,9.9-3.1c5.6-1.4,11.2-2.7,16.7-4.4c1.9-0.6,6.5-2.1,9.7-3.9
			l0,0c1.6-0.9,2.8-1.8,3.1-2.7c0.1-0.1,0.1-0.2,0.1-0.3c0.1,0,0.1,0.1,0.2,0.1c0.6,0.3,1.1,0.6,1.7,0.8c2,0.9,4.2,1.7,6.3,2.5
			c3.8,1.4,7.4,2.9,9.6,5.5C127.3,303,111.2,315.8,107.1,319.2z"/>
		<path class="st3" d="M106.2,288.5c0,0,0-0.1,0-0.1C106.4,288.3,106.3,288.4,106.2,288.5z"/>
		<path class="st4" d="M113.4,292.6c-0.2,0.3-0.4,0.6-0.7,0.9c-2.7,3.7-5.8,7-10.2,9.7c-4.2,2.6-8.6,4.8-13.5,5.5
			c-5.7,0.9-10.2-0.1-15.6-0.8c-4-0.5-9.2-0.2-12.3,3c-0.2,0.2-0.4,0.4-0.6,0.6c-0.3,0,0-0.2,0-0.4c-3.2-4.2-8.8-8.5-13.8-10.8
			c-2.6-1.2-5.6-1.1-8.3-1.2c0-1,0.6-2.4,1.2-3.4c2.6-3.8,9.4-0.4,11.9,0.7c4.7,2.1,8.8,4.6,13.7,6.4c2.9-1.8,6.6-2.2,10-3
			c5.6-1.4,11.3-2.7,16.8-4.4c1.9-0.6,6.8-1.6,9.9-3.4l0,0c0.8-0.7,1.6-1.4,2.4-2.1c0.1-0.1,0.4-0.3,0.7-0.6
			c0.1-0.1,0.1-0.2,0.1-0.3c0.1,0,0.1,0.1,0.2,0.1c0.3-0.3,0.6-0.5,0.8-0.7c0.1,0.5,0.4,1,0.9,1.5
			C109.1,291,111.3,291.8,113.4,292.6z"/>
	</g>
	<g>
		<path class="st5" d="M246.7,249.2c1.7,0.2,6.7-2.5,7.1-0.3c0.2,1-1.4,2.8-1.9,3.6c-1.4,2.1-2.9,4.2-4.6,6
			c-6.5,6.8-15.4,10.7-24.2,13.6c-8.1,2.7-16.8,4.7-25.1,6.5c-3,0.7-6.4,1.1-9.5,0.9c-5.3-0.4-7.9-3.7-10.6-8
			c-5.2-8.6-9.6-17.8-13.4-27c-0.7-1.8-1.4-3.4-1.9-5.1c-0.4-1.4-0.6-2.8-0.7-4.4c-0.1-1.3,0.4-2.9,0.2-3.8c1.3-1.5,4.3-2.1,6.2-2.5
			c3.1-0.7,6.4-1.2,9.6-1.8c8.4-1.5,16.9-1.1,24.6,2.6c5.2,2.5,10.2,8.1,16.1,4.8c1.1-0.6,2.2-1.8,3.5-1.6c1.7,0.3,1.9,2.1,2,3.4
			c0,1.4-0.6,2.3,1,2.1c1.6-0.2,3.5-2.3,4.5-3.3c3-2.9,6.1-5.7,9.2-8.6c1.6-1.6,3.2-3.2,4.8-4.9c0.9-1,2-2.7,3.1-1.6
			c2,1.9-0.5,7.9-1.1,10c-0.9,3.1-2.3,5.7-3.5,8.7c3.8-0.5,6.9-6.4,8.6-9.1c1.6-2.5,2.6-5.4,4.2-7.9c0.9-1.5,1.8-2.7,2.6-0.7
			c0.6,1.4,0.9,3.1,0.9,4.7c0,4.4-1.8,9.1-3.5,12.6c-1.2,2.3-2.4,4.5-4.1,6.5C249.8,245.9,247.3,247.6,246.7,249.2z"/>
		<path class="st6" d="M258.6,225.4c-1.8,2.9-4.2,5.6-5.7,7.4c-1.8,2.2-6.6,10.5-10.4,9.1c-3.1-1.2-0.1-8.9-0.2-11.6
			c-2.3,1-3.9,4.2-5.6,6c-2.9,3-7,6.3-11.1,7.4c-4.5,1.2-6.4-1.4-10.2-1.8c-2.3-0.2-4.9,0.5-7.3,0.4c-6.5-0.1-12.2-3.4-18.5-4.9
			c-5.8-1.3-12.5-1.8-18.4-1c-2.4,0.4-4.9,0.9-7,1.9c-0.5,0.2-1,0.6-1.5,1c-0.4-1.4-0.6-2.8-0.7-4.4c-0.1-1.3,0.4-2.9,0.2-3.8
			c1.3-1.5,4.3-2.1,6.2-2.5c3.1-0.7,6.4-1.2,9.6-1.8c8.4-1.5,16.9-1.1,24.6,2.6c5.2,2.5,10.2,8.1,16.1,4.8c1.1-0.6,2.2-1.8,3.5-1.6
			c1.7,0.3,1.9,2.1,2,3.4c0,1.4-0.6,2.3,1,2.1c1.6-0.2,3.5-2.3,4.5-3.3c3-2.9,6.1-5.7,9.2-8.6c1.6-1.6,3.2-3.2,4.8-4.9
			c0.9-1,2-2.7,3.1-1.6c2,1.9-0.5,7.9-1.1,10c-0.9,3.1-2.3,5.7-3.5,8.7c3.8-0.5,6.9-6.4,8.6-9.1c1.6-2.5,2.6-5.4,4.2-7.9
			c0.9-1.5,1.8-2.7,2.6-0.7C258.3,222.1,258.6,223.8,258.6,225.4z"/>
		<path class="st7" d="M214.3,263.5c-3.2,1.7-6.8,3.5-10.3,4.4c-10.7,2.9-13.4-4.6-12.4-12c0.8-6.1,4.1-12.2,7.6-12.2
			c2.5-0.5,5.2-1.2,7.8-2c1.9-0.6,5.2-2.4,7.2-1.3c2.1,1.3,1.9,2.9,0.8,4.6c-1.5,2.2-4.4,4.5-5.1,5.9c-1.5,2.9,2.6,2.2,4.6,2
			c2.1-0.2,6.8-1.6,7.7,1.2C223.1,257.7,216.7,262.2,214.3,263.5z"/>
		<path class="st8" d="M214.9,245.2c-0.6,0.1-1.3,0.2-2,0.3c-3.6,0.7-7.4,1.7-10.8,3.2c-4.2,1.9-7.4,4.5-10.5,7.3
			c0.8-6.1,4.1-12.2,7.6-12.2c2.5-0.5,5.2-1.2,7.8-2c1.9-0.6,5.2-2.4,7.2-1.3C216.2,241.8,216,243.5,214.9,245.2z"/>
		<path class="st9" d="M197,263.1c3.1,3,11.4-0.2,15.2,0.4c5.6,0.9-2,5.6-3.9,6.5c-5.1,2.3-10.3,3.5-16,3c-2.4-0.2-4.7-0.4-7-1
			c-4-1-3.8-3.2-3.2-7c0.4-2.9,0.9-5.8,1.5-8.7c1-5.2,2-10.3,2.6-15.5c0.3,0,0.4-0.1,0.3-2.1c3.6,1.4,9.8-1,13.3-2.1
			c2.4-0.8,11.9-5,9.3,1.4c-0.2,0.6-0.5,1.1-0.8,1.5c-2.4,3.9-7.2,5.6-10.3,8.7c-3.1,3.1,3.1,2.9,5.2,2.4c2.8-0.6,9.4-3.8,12-1.5
			C220.8,254.2,199.6,261.5,197,263.1z"/>
		<path class="st10" d="M209.1,238c-0.2,0.6-0.5,1.1-0.8,1.5c-2.7,1.5-5.6,2.6-8.4,4c-5.7,3.1-12.1,7.3-16.3,12.7
			c1-5.2,2-10.3,2.6-15.5c0.3,0,0.4-0.1,0.3-2.1c3.6,1.4,9.8-1,13.3-2.1C202.1,235.9,211.7,231.7,209.1,238z"/>
		<path class="st11" d="M194.9,279.1c-4.7,1.9-9.9,2.9-14.9,3.3c-1.7,0.1-3.9,0.5-5.4-0.4c-2.6-1.4-4.2-6.1-5.1-8.6
			c-2.7-7.7-2.7-16.4-1.5-24.4c0.1-0.6,0.2-1.4,0.4-2.4c0.6-3.5,1.5-8.8,2.8-9.5c4.6-1.1,9.6-1.5,14.4-0.6
			c5.1,0.9,12.6,2.1,15.2,7.2c1.3,2.6,0,4.6-1.6,6.6c3.2,0.2,6.6,2.1,8,5c1.5,3.3,0.4,5-2,6.9c-0.2,0.1-0.4,0.3-0.6,0.5
			C215.1,268,199.9,277,194.9,279.1z"/>
		<path class="st12" d="M200.3,249.7c1.4-1.7,2.1-3.6,1.4-5.7c-0.7-2-2.4-3.9-4.5-4.9c-1.3-0.6-2.6-1.1-3.9-1.6
			c-2.2-0.8-4.6-1.4-6.9-1.8c-2.9-0.5-5.8-0.7-8.8-0.6c-2,0.1-5.3,0.1-7,1.4c-1.4,1-1.5,3.7-1.9,5.2c-0.6,2.4-1,4.8-1.1,7.2
			c0,0.3,0,0.6,0,0.9c0.1-0.1,0.1-0.1,0.1-0.2c1.7-3.2,3.5-5.9,7-7.3c2.7-1,5.9-0.9,8.7-0.6c3.7,0.3,7.8,1,11.2,2.4
			C197,245,200.3,246.8,200.3,249.7z"/>
		<path class="st12" d="M205.6,262.5c2.3-1.8,3.6-4.5,2.3-7.3c-0.3-0.6-0.7-1.3-1.1-1.7c-1.6-2-3.6-3.1-5.7-3.6
			c-2.4-0.6-5.3-0.1-7.8,0.1c-4.7,0.5-9.5,1.8-13.9,3.5c-3.1,1.2-6.1,2.5-8.9,4.1c-0.7,0.4-3.7,1.8-3.8,2.6
			c-0.4,3.1,0.2,6.3,0.9,9.4c0.2,0.9,0.4,2,0.8,2.7c0.1-1.7,1.1-3.8,2-5.2c1.3-2.2,2.9-3.8,5.1-5.1c4.4-2.7,9.3-4.6,14.4-5.3
			c3.8-0.5,8.5-1,12.2,0.5c1.5,0.6,2.7,1.2,3.5,2.6C206,260.3,205.9,261.8,205.6,262.5z"/>
		<path class="st12" d="M207,271.4c1.6-1.4,2.4-4.7,1.2-6.5c-2.1-3.1-4.9-2.9-7.9-2.4c-8.6,1.4-17.6,5.1-24.6,10.3
			c-1.3,1-2.5,2.1-3.6,3.4c-0.4,0.5-1.6,1.8-1.4,2.2c0.2,0.9,1.1,1.6,1.6,2.4c0.5,0.7,1.1,1.6,1.9,1.8c0.4-1.2,1.8-2.4,2.7-3.3
			c1.6-1.6,3.4-3.3,5.4-4.6c3.6-2.4,7.7-3.9,11.7-5.4c2.8-1,6-2,9-1.7C205.4,267.9,207.1,269,207,271.4z"/>
	</g>
	<path class="st13" d="M126.1,337.3c-2.5,0.2-4.6-1.5-6.4-3.2c-1.5-1.5-2.6,0.1-3.8,1.6c-1.8,2.1-3.8,5.9-6.5,6.4
		c-3.5,0.6,0.2-6.3,1-7.6c-1.2,1.1-2.9,4.3-4.9,4.4c-0.4,0-0.7-0.1-1.1-0.3c0,0-0.1,0-0.1-0.1c-3.5-2.5,3.4-7.5,4.8-8.7
		c2.9-2.4,5.9-4.2,8.1-7.5c0.7-1,1.3-2,1.9-3.2c0.2-0.5,0.7-2,1.1-2.2c0.2-0.1,0.6-0.1,0.9,0c0.3,0.1,0.6,0.2,0.9,0.2
		c0.3,0.1,0.6,0.1,0.8,0.1c0.6,0,1.6,0,1.9-0.1c-0.9,2.6-2.1,5.2-3.2,7.7c-0.5,1.1-0.9,2.3-0.1,3.4c1,1.3,3.1,0.6,4.4,1.1
		c1.7,0.7,3.6,2.6,4,4.7C130.2,336.7,128,337.1,126.1,337.3z"/>
	<path class="st14" d="M121.9,316.9c-0.6,2.2-2.7,4.5-3.9,6.2c-1.6,2.2-3.5,4.1-5.2,6.2c-1.6,1.9-3.4,2.9-5.1,5
		c-1,1.2-1.7,2.5-2,4.1c0,0.1,0,0.2-0.1,0.3c-0.4,0-0.7-0.1-1.1-0.3c0,0-0.1,0-0.1-0.1c-3.5-2.5,3.4-7.5,4.8-8.7
		c2.9-2.4,5.9-4.2,8.1-7.5c0.7-1,1.3-2,1.9-3.2c0.2-0.5,0.7-2,1.1-2.2c0.2-0.1,0.6-0.1,0.9,0C121.3,316.8,121.6,316.9,121.9,316.9z"
		/>
	<path class="st13" d="M162.3,333c0.7,0.6,1.4,1.1,2,1.8c0.2,0.3,0.4,0.7,0.5,1.2c0.4,2.4-1.4,3.6-3.2,3.7
		c-3.8,0.1-7.7-3.5-10.4-6.2c-1.8-1.8-4.1-5.5-6.5-2.6c-1.4,1.7-3,3.7-4.9,4.7c-2.3,1.3-5,0.3-4.4-3.2c0.4-2.2,1.6-3.6,3.1-4.7
		c1.9-1.5,4.8-3.1,5.4-5.9c0.5-2.1,0.1-5.1-0.6-7.2c0,0,0,0,0-0.1c0,0,0.1,0,0.1,0.1c0.3,0.3,0.7,0.5,1.2,0.6
		c1.3,0.3,3.1-0.1,3.9-0.8c0.6,1.9,0.4,4.4,0.8,6.5c0.3,1.5,0.6,2.1,2,2.2c1.6,0.2,3.3,0.2,4.9,0.5c3.2,0.4,7.8,1.9,9.7,5.2
		C167.6,331.8,164.9,334.6,162.3,333z"/>
	<path class="st14" d="M161.5,339.8c-3.8,0.1-7.7-3.5-10.4-6.2c-1.8-1.8-4.1-5.5-6.5-2.6c-1.4,1.7-3,3.7-4.9,4.7
		c-2.3,1.3-5,0.3-4.4-3.2c0.4-2.2,1.6-3.6,3.1-4.7c1.9-1.5,4.8-3.1,5.4-5.9c0.5-2.1,0.1-5.1-0.6-7.2h0.1c0.4,0,0.7,0.2,1.2,0.5
		c0,0,0,0,0,0c0.2,0.2,0.5,0.5,0.7,0.8c0,0,0,0,0,0c0.5,0.9,0.2,2.9,0,3.9c-0.4,1.5-1.1,3.1-1.9,4.3c-0.9,1.4-2.2,2.5-3.2,3.8
		c-0.8,1.1-2.2,3.7-1.6,5.2c0.9,2.3,3.5-1.1,4.3-2c1.2-1.4,2.6-2.6,4.4-2.8c2.7-0.3,4.7,2,6.4,4.2c2.1,2.8,4.4,5.6,7.9,4.7
		c1.2-0.3,1.6-1.1,2.3-2.1c0.1-0.1,0.2-0.3,0.3-0.5c0.2,0.3,0.4,0.7,0.5,1.2C165.2,338.5,163.4,339.7,161.5,339.8z"/>
	<path class="st0" d="M177.7,196.9c-2.4,3.2-7,5.5-8.6,9.5c-1.9,4.6,0.6,10.4,2.3,14.5c4.1,9.9,5.4,21.5,5.5,32.5
		c0.1,9.6,0.4,20-2.2,29.1c-3.4,12-13.1,22.7-23.6,24.6c-1.6,2.6-0.8,7.1-4.3,8.2c-2.4,0.8-5-2-5.9-4.5c-2.7-0.2-6.8-0.5-8.9,0
		c-1.5,0.4-2,2-3.3,3c-1.3,1-2.5,2.4-3.9,2.9c-2.4,0.9-4.3,0.9-5.1-2.4c-0.7-3.1,0.2-4.1-1.4-6c-0.2-0.2-0.3-0.4-0.5-0.5
		c-0.3-0.3-0.6-0.5-0.8-0.8c1-1.1,2-2.2,3-3.3c0.8-0.9-2.1-1.9-2.9-2.1c-1.2-0.4-2.5-0.8-3.8-1.3c-0.6-0.2-1.3-0.3-2-0.5
		c-0.1,0.3-0.3,0.7-0.5,1c-0.2-0.3-0.5-0.6-0.7-0.9c-0.6-0.8-1.1-1.7-1.7-2.7c-0.8-1.5-1.5-3-2.1-4.5c0,0,0,0,0,0
		c-0.1-0.3-0.3-0.7-0.4-1c-0.7-1.8-1.2-3.5-1.7-5.4c-0.2-0.7-0.3-1.4-0.5-2.1c-0.4-1.9-0.8-3.9-1-5.9c-0.4-2.6-0.6-5.2-0.8-7.8
		c-0.1-1.5-0.2-3.1-0.3-4.6c0-0.7-0.1-1.4-0.1-2.1c-0.1-1.1-0.1-2.1-0.1-3.2c0-0.1,0-0.2,0-0.2c0.1-6.9,2-12.6,6-18.5
		c0.2-0.3,0.4-0.6,0.7-0.9c1-1.4,2.1-2.8,3.2-4.1c0.4-0.5,0.8-0.9,1.2-1.4c0.9-1.1,1.8-2.1,2.8-3.2c6.8-7.7,13.2-15.7,10.5-27.8
		c-1.3-5.9-4-11.1-4.9-17.1c-1-6.1-1-12-1-18.2c-2.2,0.2-6.8-1-7.7-4.2c2.6,0.1,6.3-1.8,7.7-4.5c-5.8-1.6-9.5-14.4-3.3-18.5
		c0.4,2.8,0.3,6.2,2,8.5c1.3,1.8,4.5,3.4,6.2,1.9c-1.3-2.2-3.3-3-4.3-5.6c-0.9-2.3-1.3-4.6-1.4-7.1c-0.2-4.4,1.4-11.1,6.1-12.1
		c-2.2,2.5-0.3,9.1,1.1,12.1c2.2,4.7,6.6,6.8,11.1,6.2c0.3,0,0.7-0.1,1-0.1c0.2,0,0.4-0.1,0.6-0.1c8.1-1.7,14.8-4.4,22.9,0.1
		c6.4,3.6,8.6,10.1,11.2,17.3c1.3,3.7,2.6,6.3,4.9,9.2c2,2.5,3.7,4.8,4.5,8.1C183.6,186.8,181.3,192,177.7,196.9z"/>
	<g>
		<g>
			<g>
				<g>
					<defs>
						
							<ellipse id="SVGID_1_" transform="matrix(0.992 -0.1266 0.1266 0.992 -19.4052 22.9304)" cx="170.7" cy="164.1" rx="5.7" ry="9.1"/>
					</defs>
					<clipPath id="SVGID_2_">
						<use xlink:href="#SVGID_1_"  style="overflow:visible;"/>
					</clipPath>
					<g class="st15">
						<g>
							<g>
								<defs>
									<rect id="SVGID_3_" x="159.9" y="150.1" width="21.5" height="28.1"/>
								</defs>
								<clipPath id="SVGID_4_">
									<use xlink:href="#SVGID_3_"  style="overflow:visible;"/>
								</clipPath>
								<g class="st16">
									<g>
										<defs>
											<rect id="SVGID_5_" x="159.9" y="150.1" width="21.5" height="28.1"/>
										</defs>
										<clipPath id="SVGID_6_">
											<use xlink:href="#SVGID_5_"  style="overflow:visible;"/>
										</clipPath>
										<g class="st17">
											
												<image style="overflow:visible;enable-background:new    ;" width="48" height="63" xlink:href="D1A44A914BA2DF1A.jpeg"  transform="matrix(0.4571 0 0 0.4571 159.9086 149.6337)">
											</image>
										</g>
									</g>
								</g>
							</g>
						</g>
					</g>
				</g>
			</g>
		</g>
		
			<ellipse transform="matrix(0.9988 -4.899994e-02 4.899994e-02 0.9988 -7.836 8.6106)" class="st18" cx="171.7" cy="164.1" rx="2.6" ry="4.2"/>
		
			<ellipse transform="matrix(0.9572 -0.2893 0.2893 0.9572 -39.5043 56.8972)" class="st19" cx="172.7" cy="162.1" rx="0.8" ry="1.3"/>
	</g>
	<path class="st20" d="M176.2,155.8c-1.8-1.9-3.6-3.6-5.8-4.5c-1.1-0.5-2.3-0.9-3.5-1c-0.7-0.1-1.8,0.3-2.4,0
		c-0.9-0.4-0.7-4-0.3-4.9c0.6-1.7,2.8-1.3,4.1-0.7c2.3,1,4.3,2.6,6,4.8c1.2,1.5,2.6,3.5,3.1,5.5
		C177.8,156.5,176.9,156.4,176.2,155.8z"/>
	<path class="st21" d="M172.7,246.1c1.7,6.9,1.2,17.4-0.1,24.2c-1.7,8.4-3.9,17.4-9,23.7c-4.9,6-15.8,13.8-21.8,5.5
		c-4.9-6.9-2.1-17-0.6-24.6c1.9-9.5,5.6-18.5,10.4-26.5c3-5.1,8.7-12.1,14.5-10.6C169.7,238.5,171.2,240.7,172.7,246.1z"/>
	<path class="st22" d="M141.8,145.7c2.3-0.9,4.7-1.2,7.1-1.3c3-0.2,6.1-0.2,8.9,0.9c2.1,0.8,4.9,4,3.7,6.9c-0.8,1.9-2.5,2.2-4,2.5
		c-2.8,0.5-5.5,0.4-8.2,0.2c-2.7-0.1-6.6-0.8-8.3-3.6C139.9,149.5,140.7,146.7,141.8,145.7z"/>
	<path class="st22" d="M130.8,146.1c-4.1-1.3-7.1-6.9-7.5-11.7c-0.1-1.2-0.1-2.5-0.1-3.7c0-1.1-0.4-1.7-1.1-0.5
		c-0.9,1.6-0.7,4.5-0.5,6.3c0.3,2.9,1.3,6.1,2.9,8.4c1.1,1.6,2.8,3,4.6,3.1c0.6,0,1.5,0,1.9-0.6C131.1,147,131.1,146.4,130.8,146.1z
		"/>
	<path class="st22" d="M123.7,153.6c-1.3,0.4-3.2-0.7-4.3-1.6c-1.4-1.1-2.4-2.6-2.9-4.6c-0.2-0.7,0-2.3-0.5-2.9
		c-0.7-0.9-1.2,0.3-1.3,1.1c-0.5,3.1,1.4,7.4,3.6,9.1c1.1,0.9,2.5,1.2,3.7,0.9c0.4-0.1,1.6-0.4,1.8-0.9
		C124,154.1,123.7,153.6,123.7,153.6z"/>
	<path class="st23" d="M164.3,334c-0.5-0.4-0.9-1.2-1.3-1.8c-0.5-0.7-1.1-1.4-1.7-2c-1.4-1.3-3.1-2.5-4.8-3.2
		c-0.4-0.1-2.3-0.8-2.4-0.6c1.3-0.8,3.5,0.2,4.8,0.8c1.8,0.9,3.1,2,4.1,3.9C163.5,332,164,333,164.3,334z"/>
	<path class="st23" d="M108,338c0.3-0.4,0.6-0.9,0.8-1.3c0.3-0.5,0.7-1,1-1.5c0.8-1.2,1.6-2.4,2.5-3.6c0.6-0.7,1.2-1.4,1.9-2
		c-1,0.7-2,1.4-2.8,2.4c-0.9,1.1-1.9,2.5-2.6,3.8c-0.2,0.4-0.3,0.9-0.5,1.3C108.3,337.3,108,337.9,108,338z"/>
	<path class="st24" d="M111.3,235.7c0.1-0.1,0.2-0.1,0.2-0.1c-0.1,0.1-0.2,0.3-0.3,0.5C111.5,235.6,111.1,235.9,111.3,235.7z"/>
	<path class="st25" d="M126.6,170.5c0.9-8.9,4.5-18.7,10.4-25c-4.5,0.5-8.7-1.4-10.9-6.1c-1.4-3.1-3.3-10.4,0-12.6
		c-6.6,0.9-8,8.6-7.8,13c0.1,2.5,0.6,5.2,1.5,7.5c1,2.6,2.3,3,3.9,5c-1.7,0.8-3.8-0.2-5.1-2c-1.7-2.3-1.6-6.1-2-9
		c-7.3,4.3-3.4,17.9,2.5,19.5c-1.7,2.5-5.2,3.9-7.8,3.8c0.5,3.7,5.8,5.6,8,5.4c0,6.2-0.1,11.5,0.8,17.5c1,6,3.9,11.3,5.1,17.3
		c2.4,12-3.5,19.4-10.3,27.1c-1.2,1.4-1.8,1.8-2.7,3c-0.2,0.1-1.2,0.5-1.5,0.8c-0.4,0.6,0.1,0.8,0.1,0.8c-0.1,0.1-0.3,0.4-0.4,0.4
		c-1.1,1.2-2.2,2.4-3.4,4c0,0-0.3,0.3-0.5,0.4c-0.2,0.1-0.4,0.3-0.7,0.5c1.5,2.2,3.2,4.2,5.2,6c0.1,0.1,0.2,0.1,0.2,0.2
		c2.3-2.5,4.8-4.8,7.6-7.4c0,0,0.1-0.1,0.1-0.1c0.4-0.3,0.7-0.7,1.1-1c0.6-0.6,1.2-1.1,1.9-1.7c3.1-2.8,6.7-5.8,10.6-7.5
		c0.3-0.1,0.6-0.2,0.9-0.4c0.2-0.1,0.5-0.2,0.7-0.3c0-0.5,1.9-6,2.1-8.5c0.2-3.8-0.2-7.3-1.1-10.8
		C131.9,197.8,125.2,184.4,126.6,170.5z"/>
	<g>
		<path class="st26" d="M97.8,267.8c-2.6,3.2-8,5.7-14.6,6.6c-2.6,0.4-5.3,0.5-7.9,0.5c-0.4,0-0.8,0-1.2,0c-0.1,0-0.1,0-0.2,0
			c-4.8-0.2-9.6-1-14.4-2.1c-0.7-0.2-1.4-0.3-2.1-0.5c-4.8-1.2-11.4-2.4-15.5-4.8c-0.3-0.2-0.5-0.3-0.8-0.5
			c4.5-1.4,10.3-1.8,15.3-2.8c2-0.4,4.8-0.9,7.6-1.6c3.5-0.9,6.9-2.1,8.1-3.6c-1.8-0.4-4.9-0.8-8.7-1.3c-1.5-0.2-3-0.4-4.6-0.6
			c-2.6-0.3-5.4-0.7-8.1-1.1c-7.2-1.1-14.1-2.7-17.2-4.9c5.8-1.5,11.8-1.8,15.2-2.1c1.9-0.1,3.8-0.3,5.8-0.5c2.5-0.2,5-0.3,7.4-0.2
			c2.6,0.1,5.3,0.2,8.1,0.3c1.2,0.1,2.4,0.1,3.6,0.3c0.1,0,0.2,0,0.3,0c1.4,0.1,2.9,0.3,4.4,0.6c1.1,0.2,2.2,0.4,3.3,0.7
			c3,0.8,6.1,1.9,9.2,3.5C100,258.4,101.2,263.7,97.8,267.8z"/>
		<path class="st27" d="M104.5,281.5c-1.7,0.5-3.4,0.9-5.2,1.2c-5.8,1-16.1,1.4-21.6-2.1c-0.1-0.1-0.2-0.2-0.4-0.2
			c-1.1-0.8-2-1.7-2.6-2.9c-0.5-1-0.7-1.9-0.7-2.7c0-0.1,0-0.2,0-0.3c0.1-0.7,0.4-1.3,0.8-1.9c1.3-1.9,4.1-3.3,6.7-4.8
			c1.6-1,3.2-2,4.2-3.1c-2.2,0.3-4.4,0.9-6.5,1.3c-1.8,0.4-3.6,0.6-5.4,0.6c-0.8,0-1.7-0.1-2.5-0.3c-1.7-0.4-3.4-1-5.2-2.3
			c-0.8-0.5-1.4-1-1.8-1.5c-0.1-0.1-0.2-0.3-0.3-0.4c0,0,0,0,0-0.1c-1.1-1.5-1.1-3.1-0.3-4.5c0.6-1,1.5-1.9,2.7-2.7
			c0.2-0.1,0.3-0.2,0.5-0.3c-1.1-0.1-2.5-0.2-3.8-0.6c-3.9-0.8-8.1-2.6-8.3-5.3c0-0.1,0-0.2,0-0.4c0.3-4.3,12.4-9.1,16.8-10.9
			c4.1-1.7,9.7-4.1,15.4-5.2c0,0,0,0,0,0c0.4-0.1,0.7-0.1,1.1-0.2c2-0.3,4-0.5,6-0.3c0.7-0.1,6.3,0.6,9.7,1.2
			c0.6,0.1,1.1,0.2,1.5,0.3c0.6,0.1,1.1,0.2,1.6,0.3c1.1,0.2,2.1,0.5,3.1,0.8c1.7,0.5,3.2,1.1,4.6,1.8c3,1.6,5.5,3.6,7.7,6.3
			c2.6,3.3,4.1,6.8,4.7,10.4C128.4,264.8,119.2,277,104.5,281.5z"/>
		<path class="st28" d="M141.1,240.2c-0.1,0.6-0.2,1.3-0.3,1.9c-1.1,7.3-3.1,14.3-6.8,20.8c-1.6,2.8-3.6,5.5-6.1,8.1
			c-3.9,4.1-13.5,11.8-23.4,10.6c-1.5-0.2-3.1-0.6-4.6-1.3c-8-3.5-2.9-8.5-2-12.4c0-0.1,0.1-0.2,0.1-0.3c-3.9,1.9-11.7,2.9-16.5,0.3
			c-0.2-0.1-0.5-0.3-0.7-0.4c-0.7-0.5-1.2-0.9-1.7-1.4c-3.7-4,0.7-8.8,1.9-12.2c-0.6,0.3-1.3,0.5-1.9,0.6c-0.7,0.2-1.4,0.3-2.1,0.3
			c0,0,0,0,0,0c-0.5,0-0.9,0-1.4,0c-0.1,0-0.2,0-0.3,0c-0.7-0.1-1.4-0.3-2.1-0.5c-1.4-0.6-2.5-1.6-3-3.1c-0.2-0.5-0.3-1.1-0.3-1.7
			c0-0.3,0-0.6,0-0.9c0.5-6.6,8.7-12.4,16.7-16.3c0,0,0,0,0,0c2.3-1.1,4.7-2.1,6.8-2.9c0.2-0.1,0.3-0.1,0.5-0.2
			c0.9-0.3,1.8-0.6,2.7-0.9c10.1-3.2,24-4.6,35.2,0.7c0.3,0.1,0.6,0.3,0.9,0.4c0.3,0.1,0.5,0.3,0.8,0.4
			C139.7,233,144.6,238.8,141.1,240.2z"/>
		<path class="st29" d="M93.9,228.4c0.6-0.4-0.2-0.2,0.2-0.3c0.1,0,0.3,0,0.4-0.1C94.3,228.1,94.1,228.2,93.9,228.4z"/>
		<path class="st29" d="M141.6,243.2c-0.1,2.7-0.9,5.2-1.6,7.8c-1,3.6-2.7,9.5-6.1,13.2c0-0.4,0-0.9,0-1.3c0.1-2.2,0.3-4.1-1.3-6.6
			c-1.3-2-3.5-3.1-6.1-3.5c-1-0.1-2.1-0.1-3.3,0c0.3-2.4,1.4-4.2-0.8-6.8c-3.5-4-8.8-3.1-14-4.5c0.1-0.4,0.2-0.7,0.2-1.1
			c0.2-1.8-0.1-3.7-1.2-5.5c-0.3-0.5-0.6-1-1-1.5c-0.2-0.2-0.4-0.4-0.6-0.7c-0.6-0.7-1.4-1.3-2.3-1.9c-1.7-1.1-4.5-2.4-7-2.8
			c-0.1,0-0.3,0-0.4-0.1c-0.6-0.1-1.2-0.1-1.7,0c1.8-0.9,4.4-1.6,7-2.2c2.4-0.5,4.9-0.8,6.9-1.1c5.3-0.7,14.2,0.1,19.7,1.7
			c1.5,0.4,3.3,1.1,5,2.1c0.4,0.2,0.8,0.4,1.2,0.6c4.4,2.5,8.6,6.2,8.8,9c0.1,1.6-1.2,2.9-1.5,4.5
			C141.7,242.9,141.7,243,141.6,243.2z"/>
	</g>
	<path class="st30" d="M71.7,254.3c1.2-9.6,13.2-15.5,24.9-19.4c2.3-0.8,6-2.3,8.9-2.2c-0.4-1.9-5.6-3.8-7.8-4.5
		c-3.8-1.1-7,0.1-9.6,1.5c-7.3,3.8-14.5,7.8-18.3,13.8C68.5,245.4,66.2,251.5,71.7,254.3z"/>
	<path class="st30" d="M78.6,255c1.3-2.4,5.9-4.6,8.6-6.3c3.8-2.3,8.3-4.1,13-5.7c2.2-0.8,4.6-1.1,6.9-1.4c2.2-0.2,4.9,0.3,7.3,0.6
		c2.1,0.3,4.8,1.2,5.7,2.6c-2.8-0.2-6.1,1.2-8.4,1.8c-3.1,0.8-5.8,1.9-8.7,2.9c-4,1.5-7.4,3.6-10.7,5.6c-3.5,2.2-6.9,4.6-9.5,7.4
		c-1,1.1-4.2,4.4-3.3,5.4c-5.1-3.7-4-6-2.9-9.4C77.1,257.6,78.2,255.8,78.6,255z"/>
	<path class="st30" d="M95.5,278.5c-2.9-2.9-1.8-5.6-0.5-8.4c0.9-2.1,3.3-4,5.4-5.5c4.3-3,8.3-5.8,13.3-8.3c2.6-1.4,5.5-2.8,8.6-3.6
		c3.9-1,8.3,0.9,9.7,3.3c0.3,0.6,0.8,1.6,1,2.1c-2.1-0.6-5.3-0.1-7.2,0.3c-3.6,0.8-7.1,1.5-10.1,2.9c-7.4,3.5-12.1,8.6-14.6,14.5
		c-0.5,1.1-1.4,4.5,0.3,5.5C99.8,281.2,96.5,279.6,95.5,278.5z"/>
	<path class="st31" d="M31.3,250.4c2.5,0.6,5.5,1,8.1,1.5c4.4,0.8,8.8,1.2,13.2,1.3c1.5,0,3.6-0.1,5.1,0c-2-0.7-4.5-2.8-4.8-4.1
		c-0.1-0.4-0.1-1.2,0-1.5c-2.5-0.1-4.8,0.4-7.2,0.6c-3.2,0.2-6.5,0.4-9.5,0.9C34.6,249.4,32.5,249.6,31.3,250.4z"/>
	<path class="st31" d="M38.9,266.4c4.7,0.8,9.7,1.2,14.4,1.3c6.5,0.2,13.1,0.8,19.3,0.2c1.4-0.1,2.8-0.2,4.2-0.4
		c0.7-0.1,1.2-0.3,1.9-0.3c-0.2-0.1-0.6-0.6-0.6-0.7c-0.7,0.1-1.5,0.1-2.2,0.3c-1.1,0.2-2.2,0.2-3.4,0.1c-0.7,0-1.2-0.1-1.9-0.2
		c-1.3-0.2-2.4-0.6-3.6-1.1c-1.4-0.5-2.6-1.3-3.6-2.1c-0.5-0.5-1.3-1.1-1.5-1.6c-1.9,0.2-3.9,0.8-5.7,1.2c-3.5,0.8-7.5,0.9-11.1,1.6
		c-1.2,0.2-2.3,0.5-3.5,0.8C41,265.7,39.3,265.9,38.9,266.4z"/>
	<path class="st0" d="M119.9,303.6c-1,1.1-2,2.2-3,3.3c-1.2-1.1-2.5-2.2-3.6-3.3c-0.9-0.9-1.8-1.8-2.6-2.9c0.2-0.4,0.4-0.7,0.5-1
		c0.7,0.2,1.4,0.3,2,0.5c1.3,0.4,2.6,0.9,3.8,1.3C117.8,301.7,120.7,302.8,119.9,303.6z"/>
	<path class="st31" d="M118.7,309.7c-1,1.4-12,10.9-13.1,11.8c-2.3,1.8-4.7,3.6-6.9,5.4c-2.3,1.8-4.8,3.4-7.5,4.7
		c-3.4,1.6-6.7,3.6-10.1,4.6c-1.9,0.5-3.8,1.2-5.7,1.4c-2.3,0.2-4.9-0.4-6-2.6c-0.9-1.7-0.6-5,0.5-6.6c1.2,1.5,3.4,2,5.5,1.9
		c5.8-0.3,11.6-3.8,16.2-7.5c3-2.3,5.7-5,8.4-7.5c1.1-1,2.6-2.3,3.6-3.5c2.3-1.5,9.7-8.7,10.5-7.7
		C115,305.3,117.7,308.4,118.7,309.7z"/>
	<path class="st32" d="M56.3,252.4c0.3-2.3,2.4-3.9,4.3-5.6c2.3-2.1,4.8-4,7.9-5.5c1.2-0.6,2.7-1,3.8-1.7c3.4-2,5.9-4.8,9.7-6.7
		c0.9-0.5,1.9-1.2,2.9-1.6c-5.9,1.1-10.6,3.2-15.5,5.3c-5.8,2.5-13.4,4.7-16.3,9.2C52,247.8,52.3,251.4,56.3,252.4z"/>
	<path class="st32" d="M63.9,254.9c1.8-0.7,4.1-1.5,6.1-1.8c0.4,0.2,0.6,0.6,1,0.9c0.5,0.3,1.1,0.5,1.7,0.7c1.3,0.4,2.8,0.6,4.1,0.6
		c0.6,0,1.3-0.1,1.9-0.2c0.1,0,0,0,0,0.1c-1.9,1-4.6,1.2-6.6,2c-2.7,1.1-6.3,2.5-7.2,4.7c-0.3,0.6-0.4,1.8,0,2.5
		c-0.4-0.3-1.3-0.9-1.7-1.3c-0.5-0.5-1-1.1-1.3-1.7c-0.9-1.6-0.6-3.2,0.3-4.5C62.5,256.2,63,255.3,63.9,254.9z"/>
	<path class="st32" d="M79.1,267.5c3.8,2.5,9,2.6,13.4,2c1.1-0.1,2.3-0.5,3.2-0.7c-1.1,0.7-2.8,1.2-4.1,1.7c-1.5,0.6-3,1.2-4.5,1.8
		c-3.5,1.3-6.9,3.4-7.9,6.2c-0.3,1-0.8,2.8,0.3,3.8c-2.6-0.8-4.9-2.5-6.1-4.3c-1.7-2.6-1.4-5.2,0.9-7.2
		C75.7,269.5,77.5,268.6,79.1,267.5z"/>
	<path class="st33" d="M134.4,229.2c-8.4-0.6-17.3-0.1-24.7,2.1c-1,0.3-3.4,1.3-3.6,1.6c-1.7-1.9-5.5-3.9-8.7-4.6
		c-1-0.2-2.2-0.3-3.1-0.3c0.1,0,0.4-0.1,0.4-0.2c2.1-1,4.4-1.8,7.1-2.2c5.5-0.9,10.7-1.5,16.8-1c1.9,0.2,3.9,0.4,5.9,0.8
		c1.2,0.2,3.3,0.8,4.4,1.2c1.4,0.5,3,1,4.3,1.8C133.6,228.6,134.1,229,134.4,229.2z"/>
	<path class="st34" d="M27.8,321.7c-2.3-3.4-2.3-9.8,3.3-10.5c1.2-0.2,2.7,0,3.9,0.1c3.3,0.2,7,0.8,10.4,1.7c3.8,0.9,7.1,2.5,11,3.3
		c1.9,0.4,4,0.6,5.8,1.2c2.4,3.8,7.8,3.9,12.2,2.5c1.5-0.5,3-1.1,4.3-1.7c-1.8,1.1-3.4,2.4-5,3c-2.8,1.1-5.7,2.4-8.7,2.6
		c-6.1,0.4-11.4-1-16.9-2.9c-3.9-1.4-8.3-2.5-12.6-2.7c-2.5-0.1-6.7,0.5-7.5,3.6C27.9,321.7,27.8,321.8,27.8,321.7z"/>
	<path class="st34" d="M51,340.3c-0.5-0.3-1.1-0.5-1.6-1c-0.5-0.5-0.8-1.2-1-1.9c-0.6-1.8,0.4-3.6,2-4.9c1.2-0.9,2.4-1.6,3.6-2.3
		c1.3-0.8,3-1.1,4.5-1.6c2.9-1,5.8-1.5,8.7-2c1-0.2,2.6-0.5,3.6-0.4c-0.5,0.8-1,1.7-1.3,2.6c-0.4,1.2-0.8,2.4-0.7,3.6
		c0,0.6,0.1,1.3,0.3,1.8c-0.6-0.2-1.5-0.3-2.1-0.4c-1.2-0.2-2.4-0.3-3.6-0.3c-2,0-4.1,0.3-6.1,1c-1.8,0.6-3.8,1.6-5.1,3
		C51.5,338.4,51.2,339.5,51,340.3z"/>
	<path class="st35" d="M206.7,263c0.2,0,0.4-0.4,0.6-0.5c0.3-0.3,0.6-0.5,1-0.8c1-0.8,2-1.6,3.1-2.4c1.4-0.9,2.8-1.8,4.2-2.6
		c1.6-0.9,3.2-1.9,5-2.3c0.6-0.1,1.8-0.4,2.2,0.1c0-1-0.3-1.7-1.1-2.3c-0.8-0.7-2.1-0.8-3.2-0.8c-0.6,0-1.2,0.2-1.8,0.2
		c-0.1,0,0,0,0.1,0c-0.1,0-0.3,0.5-0.4,0.7c-0.1,0.3-0.3,0.5-0.5,0.7c-0.4,0.4-0.7,0.9-1.2,1.3c-1.2,1.1-2.6,1.9-4,2.6
		c-0.4,0.2-0.8,0.5-1.3,0.7c-0.2,0.1-1,0.5-0.9,0.5c-0.3,0.6-0.5,1.2-0.8,1.8c-0.3,0.5-0.8,1.1-1.2,1.6c-0.2,0.3-0.5,0.5-0.8,0.7
		c0,0,0.1-0.1,0.1-0.1C206,262.4,206.5,262.8,206.7,263z"/>
	<path class="st36" d="M206.1,252.7c1-0.7,2.2-1.2,3.4-1.6c1.7-0.7,3.6-1.8,5.6-1.6c0.5,0.1,1.2,0.1,1.5,0.5
		c-0.2-1.4-2.2-2.2-3.4-2.3c-0.9-0.1-1.9,0.1-2.7,0.2c-1.2,0.2-2.5,0.5-3.7,0.9c-1.5,0.4-3,1.2-4.5,1.4c0.7,0.2,1.4,0.6,1.9,0.9
		C204.8,251.6,205.6,252.2,206.1,252.7z"/>
	<path class="st36" d="M208.3,265.1c0.8-0.3,1.8-0.5,2.6-0.6c1-0.1,2.3-0.2,3.2,0.3c0.2,0.1,0.7,0.5,0.6,0.8
		c0.4-0.8,0.1-1.9-0.9-2.3c-1.4-0.6-3.1-0.6-4.6-0.4c-0.8,0.1-1.8,0.2-2.6,0.3c0.3,0.2,0.6,0.5,0.8,0.8c0.2,0.2,0.3,0.4,0.5,0.6
		C208.1,264.8,208.2,265,208.3,265.1z"/>
	<path class="st20" d="M133.7,166.4c1-2.6,2-5.1,3.8-7.2c0.9-1,1.9-2.1,3-2.8c0.6-0.4,1.9-0.7,2.4-1.3c0.7-0.9-1.1-3.9-1.9-4.5
		c-1.4-1.1-3.4,0.4-4.4,1.6c-1.9,2.1-3.1,4.7-3.9,7.6c-0.5,2-1,4.5-0.6,6.6C132.4,167.8,133.3,167.3,133.7,166.4z"/>
	<g>
		
			<radialGradient id="SVGID_7_" cx="759.5698" cy="245.7028" r="16.25" gradientTransform="matrix(-0.9237 0.4433 -0.4327 -0.9016 978.8013 71.1353)" gradientUnits="userSpaceOnUse">
			<stop  offset="0" style="stop-color:#FCEA10"/>
			<stop  offset="0.9975" style="stop-color:#F39200"/>
		</radialGradient>
		<path class="st37" d="M156.9,179.1c1.1-3.9,3.8-7.4,7.6-9.2c3.7-1.8,8.3-1.7,11.8,0.5c1,0.6,2,1.5,2.8,2.3c3.3,3.3,6,7.2,7.4,11.6
			s1.3,9.4-0.6,13.6c-0.2,0.5-0.6,1.1-1.2,1.3c-0.5,0.1-1.1-0.2-1.4-0.6s-0.5-0.9-0.7-1.4c-1.1-2.1-3.4-3.5-5.8-3.3
			c-0.1,1.5,0.2,3.2,0.7,4.6c0.4,1.1,0.9,2.2,0.4,3.3c-0.3,0.7-1,1.1-1.8,1.2s-1.5,0.1-2.2-0.1c-1.4-0.3-2.8-0.9-4.2-1.5
			c-2.9-1.3-5.9-2.7-8.3-4.8c-1.1-1-2.1-2.2-3-3.4c-2.2-3-4.1-6.3-5.4-9.8c-0.4-1-0.8-2.1-0.9-3.2c0-0.2,0-0.4,0.1-0.6
			c0.3-0.5,1-0.3,1.6-0.2c0.8,0.2,1.7,0.2,2.5,0.1c0.2,0,0.4-0.1,0.5-0.2C156.7,179.1,157.1,179.1,156.9,179.1z"/>
		<path class="st38" d="M160.3,189.2c1.6,2.2,3.2,4.3,5.1,6.3c0.9,1,2,1.9,3.2,2.6s2.6,1.2,4,1.1c1.2-0.1,2.5-0.7,2.9-1.8
			c0.3-0.8,0-1.6-0.1-2.4c-0.1-0.9,0.2-1.2-0.7-1.5c-1.6-0.4-3.4-0.2-5.1-0.5c-1.7-0.3-3.3-0.8-4.9-1.4c-0.8-0.3-1.6-0.6-2.3-1
			C162,190.3,160.5,189.7,160.3,189.2z"/>
		<g>
			<g>
				<g>
					<path class="st38" d="M164.2,192.4c0-1.1,0.1-1.6-0.4-2c-0.2-0.2-1-0.9-1.6-1.6c-0.6-0.7-1-1.4-1-1.4s-0.4-0.7-0.8-1.5
						c-0.4-0.8-0.7-1.7-0.8-2.1c-0.2-0.6-0.7-0.8-1.7-1.2c-0.8,0.7-1.2,1.2-1,1.9c0.1,0.4,0.5,1.5,0.9,2.5c0.5,1,1,1.8,1,1.8
						s0.5,0.8,1.2,1.7c0.7,0.8,1.6,1.6,1.9,1.9C162.6,193,163.3,192.8,164.2,192.4z"/>
				</g>
			</g>
		</g>
		<g>
			<g>
				<g>
					<path class="st38" d="M156.3,183.3c-0.1,0.9,0.1,1.4,0.4,1.5c0.2,0,0.8,0,1.3-0.2c0.5-0.2,0.9-0.5,0.9-0.5s0.4-0.3,0.7-0.7
						c0.3-0.4,0.5-1,0.5-1.2c0.1-0.4-0.4-0.7-1.3-0.8c-0.9,0.2-1.4,0.1-1.4,0.2c0,0.1-0.2,0.3-0.2,0.3c0,0-0.3,0.1-0.3,0.1
						C156.8,182,156.8,182.5,156.3,183.3z"/>
				</g>
			</g>
		</g>
	</g>
	<g>
		<g>
			<g>
				<g>
					<defs>
						
							<ellipse id="SVGID_8_" transform="matrix(0.9972 -7.489933e-02 7.489933e-02 0.9972 -12.1078 11.5641)" cx="148.1" cy="167.2" rx="6" ry="9.5"/>
					</defs>
					<clipPath id="SVGID_9_">
						<use xlink:href="#SVGID_8_"  style="overflow:visible;"/>
					</clipPath>
					<g class="st39">
						<g>
							<g>
								<defs>
									<rect id="SVGID_10_" x="137.1" y="152.7" width="22" height="29"/>
								</defs>
								<clipPath id="SVGID_11_">
									<use xlink:href="#SVGID_10_"  style="overflow:visible;"/>
								</clipPath>
								<g class="st40">
									<g>
										<defs>
											<rect id="SVGID_12_" x="137.1" y="152.7" width="22" height="29"/>
										</defs>
										<clipPath id="SVGID_13_">
											<use xlink:href="#SVGID_12_"  style="overflow:visible;"/>
										</clipPath>
										<g class="st41">
											
												<image style="overflow:visible;enable-background:new    ;" width="50" height="63" xlink:href="D1A44A914BA2DF1E.jpeg"  transform="matrix(0.4512 0 0 0.4512 136.8 152.9409)">
											</image>
										</g>
									</g>
								</g>
							</g>
						</g>
					</g>
				</g>
			</g>
		</g>
		
			<ellipse transform="matrix(0.9972 -7.489933e-02 7.489933e-02 0.9972 -12.105 11.6382)" class="st42" cx="149.1" cy="167.2" rx="2.8" ry="4.4"/>
		<ellipse transform="matrix(0.9494 -0.314 0.314 0.9494 -44.231 55.4787)" class="st43" cx="150.1" cy="165" rx="0.9" ry="1.4"/>
	</g>
	<path class="st44" d="M157.9,183.6c-0.5,2.6,5.4,10.5,10,14.1c1.8,1.4,3.9,2.3,6.6,1c-0.9,1.2-2.5,1.9-3.9,1.7
		c-1.5-0.2-2.8-0.9-4.1-1.8c-3.6-2.4-6.7-5.8-8.4-9.8C157.4,187.1,157.3,185.2,157.9,183.6z"/>
</g>
<path class="st45" d="M254.2,101.9c0.1,10.1-5.5,39.9-50.2,61.1c0.7-0.6,27.7-19.6,21.9-51.2c-21.6,5.7-47.2,9-74.7,9
	c-77,0-139.4-26-139.4-58c0-32,62.4-58,139.4-58s139.4,26,139.4,58C290.5,77.9,276.7,91.7,254.2,101.9z"/>
<path class="st46" d="M251.9,100c0.1,10.1-3.3,41.8-48,63.1c0.7-0.6,25.5-21.6,19.7-53.2c-21.6,5.7-47.2,9-74.7,9
	c-77,0-139.4-26-139.4-58c0-32,62.4-58,139.4-58s139.4,26,139.4,58C288.3,76,274.5,89.7,251.9,100z"/>
<text transform="matrix(1 0 0 1 35.75 48.1996)" class="st47 st48">Only highly qualified suppliers </text>
<text transform="matrix(1 0 0 1 52.12 68.5996)" class="st47 st48">are invited to bid in Luefty </text>
<text transform="matrix(1 0 0 1 55.18 88.9996)" class="st47 st48">auctions for your booking.</text>
</svg>
