<?xml version="1.0" encoding="utf-8"?>
<!-- Generator: Adobe Illustrator 25.2.3, SVG Export Plug-In . SVG Version: 6.00 Build 0)  -->
<svg version="1.1" id="Capa_1" xmlns="http://www.w3.org/2000/svg" xmlns:xlink="http://www.w3.org/1999/xlink" x="0px" y="0px"
	 viewBox="0 0 300 350" style="enable-background:new 0 0 300 350;" xml:space="preserve">
<style type="text/css">
	.st0{fill:#A0D8EC;stroke:#A0D8EC;stroke-width:3.5932;stroke-miterlimit:10;}
	.st1{fill:#8BC2D1;stroke:#8BC2D1;stroke-width:4.1249;stroke-miterlimit:10;}
	.st2{fill:#293377;stroke:#293377;stroke-width:4.8278;stroke-miterlimit:10;}
	.st3{fill:#2C59A5;stroke:#2C59A5;stroke-width:4.1249;stroke-miterlimit:10;}
	.st4{fill:#3EAEC9;stroke:#3EAEC9;stroke-width:1.2442;stroke-miterlimit:10;}
	.st5{fill:#8BC2D1;stroke:#8BC2D1;stroke-width:4.3067;stroke-miterlimit:10;}
	.st6{opacity:0.5;fill:#36B2CE;stroke:#36B2CE;stroke-width:4.3067;stroke-miterlimit:10;enable-background:new    ;}
	.st7{fill:#293377;stroke:#293377;stroke-width:5.0406;stroke-miterlimit:10;}
	.st8{fill:#1E2142;stroke:#1E2142;stroke-width:5.0406;stroke-miterlimit:10;}
	.st9{fill:#0AA5D1;stroke:#0AA5D1;stroke-width:4.3067;stroke-miterlimit:10;}
	.st10{opacity:0.5;fill:#2C5CA8;stroke:#2C5CA8;stroke-width:4.3067;stroke-miterlimit:10;enable-background:new    ;}
	.st11{fill:#9BD2CB;stroke:#9BD2CB;stroke-width:4.3067;stroke-miterlimit:10;}
	.st12{fill:#5FBEB3;}
	.st13{fill:#FCC556;stroke:#FCC556;stroke-width:3.5932;stroke-miterlimit:10;}
	.st14{opacity:0.5;fill:#F3914E;stroke:#F3914E;stroke-width:3.5932;stroke-miterlimit:10;enable-background:new    ;}
	.st15{stroke:#000000;stroke-width:0.9512;stroke-miterlimit:10;}
	.st16{fill:#FFFFFF;stroke:#FFFFFF;stroke-width:0.2985;stroke-miterlimit:10.0006;}
	.st17{fill:#3E9BB1;stroke:#3E9BB1;stroke-width:3.364;stroke-miterlimit:10;}
	.st18{fill:#7FCDEB;stroke:#7FCDEB;stroke-width:3.5932;stroke-miterlimit:10;}
	.st19{opacity:0.61;fill:#CEEAF9;stroke:#CEEAF9;stroke-width:3.5932;stroke-miterlimit:10;enable-background:new    ;}
	.st20{opacity:0.49;fill:#A37F58;enable-background:new    ;}
	.st21{fill:#34BDE7;stroke:#34BDE7;stroke-width:3.5932;stroke-miterlimit:10;}
	.st22{opacity:0.5;fill:#15A6C7;enable-background:new    ;}
	.st23{fill:#293377;stroke:#293377;stroke-width:5.5678;stroke-miterlimit:10;}
	.st24{fill:#23AEE5;stroke:#23AEE5;stroke-width:5.5678;stroke-miterlimit:10;}
	.st25{fill:#8ACCC8;stroke:#8ACCC8;stroke-width:5.5678;stroke-miterlimit:10;}
	.st26{opacity:0.49;fill:#D6ECEA;enable-background:new    ;}
	.st27{fill:#51BBB5;}
	.st28{fill:#202447;}
	.st29{fill:#3987C7;}
	.st30{fill:#92CFCD;}
	.st31{fill:#3EAEC9;}
	.st32{fill:#1E2142;}
	.st33{opacity:0.5;fill:#2C5CA8;enable-background:new    ;}
	.st34{fill:url(#SVGID_1_);}
	.st35{fill:#632425;}
	.st36{stroke:#000000;stroke-width:0.9956;stroke-miterlimit:10.0001;}
	.st37{fill:#FFFFFF;stroke:#FFFFFF;stroke-width:0.3125;stroke-miterlimit:9.9998;}
	.st38{opacity:0.62;fill:#CC7C11;enable-background:new    ;}
	.st39{fill:#EDEDED;}
	.st40{fill:#FCC010;}
	.st41{display:none;}
	.st42{display:inline;}
</style>
<g id="Parrot">
	<path class="st0" d="M71.2,244.5c-8.8,0.7-16.9,3-25.9,2.6c-7.6-0.4-16.4-3.4-24-1.1c0.7,9.9,12,10.1,18.7,12.9
		c-4,1.8-19.4,4.8-15.7,10.5c4,6.3,17,4.3,23.1,5.4c-1.8,1.4-7.5,1.2-8.3,3.3c-1.1,2.9,6.3,4,8,4.5c11.1,3.2,21.8,1.1,33.1,0.7
		c12-0.4,25.6-1.7,36.1-8.1c4.2-2.6,9-8.8,8.9-14.1c-0.2-7-11.4-11.3-16.9-13.1c-12-4-27.7-4.7-40.2-3.1
		C67.4,244.9,69.4,244.8,71.2,244.5z"/>
	<g>
		<path class="st1" d="M106.2,288.5c0,0,0-0.1,0-0.1C106.4,288.3,106.3,288.4,106.2,288.5z"/>
		<path class="st1" d="M122.4,298.8c0.1,0.7-1.8,2.9-2.2,3.5c-4.4,6.9-10.4,12.6-17.1,17.7c-4.4,3.3-8.2,6.8-13.2,9.5
			c-4.8,2.6-9.4,4.8-14.4,6.7c-0.3,0.1-0.7,0.3-1,0.4c-5.1,1.9-10.2,3.3-15.6,3.6c-3.4,0.2-8.3,0.6-9.8-2.9
			c-1.9-4.4,7.1-7.3,10.2-8.8c-2.3,1-6.9,1.3-9.6,1.3c-5.9-0.1-11.6-1.4-16.5-4.3c-3.7-2.2-7-5.4-6.1-10.2c0.7-3.4,3.2-4,6.4-3.8
			c5.2,0.2,11.1,1.6,16,3.1c3.7,1.1,9.2,3.1,14.4,3.5c3.5,0.2,6.9-0.3,9.5-2.3c-3.5,0.7-7.7,0.4-11.4,0c-0.7-0.1-1.3-0.1-1.9-0.2
			c-5.7-0.6-9.9-2.8-14.2-6.2c-2.5-2-7-6.4-7-10.6c0-1,0.3-2,1-3c2.6-3.8,9-0.1,11.5,1c4.7,2.1,9.4,4.7,14.3,6.5
			c2.6,1,5.3,1.7,8.1,2.2c7.5,1.1,14.1-2.8,20.3-7.2c2.3-1.6,4.5-3.5,6.6-5.3c0.4-0.3,0.8-0.7,1.2-1l0,0c0.8-0.7,1.6-1.4,2.4-2.1
			c0.1-0.1,0.4-0.3,0.7-0.6c0.1-0.1,0.2-0.2,0.3-0.2c0.3-0.3,0.6-0.5,0.8-0.7c0.1,0.5,0.4,1,0.9,1.5c1.2,1.2,3.6,2.5,5.7,3.4
			c1.6,0.7,3,1.3,3.8,1.7C117.8,295.8,122.2,297.3,122.4,298.8z"/>
		<path class="st2" d="M107.1,319.2c-7.9,6.6-20.2,15.8-30.4,17.3c-0.8,0.1-1.6,0.2-2.2,0.2c-7.7-0.1-5.2-8.2-0.8-13.2
			c5.1-5.8,13.1-9,18.7-14c-7.6,3.5-16.7,12.3-25.4,10.3c-1.1-0.2-2.1-0.8-3-1.4c-0.8-0.6-1.4-1.5-1.9-2.4c-0.8-1.5-1.2-3.3-1-5.1
			c0.1-1.5,0.6-3.1,1.5-4.5c0.9-1.3,1.9-2.2,3.1-2.9c2.9-1.8,6.5-2.2,9.9-3.1c5.6-1.4,11.2-2.7,16.7-4.4c1.9-0.6,6.5-2.1,9.7-3.9
			l0,0c1.6-0.9,2.8-1.8,3.1-2.7c0.1-0.1,0.1-0.2,0.1-0.3c0.1,0,0.1,0.1,0.2,0.1c0.6,0.3,1.1,0.6,1.7,0.8c2,0.9,4.2,1.7,6.3,2.5
			c3.8,1.4,7.4,2.9,9.6,5.5C127.3,303,111.2,315.8,107.1,319.2z"/>
		<path class="st3" d="M106.2,288.5c0,0,0-0.1,0-0.1C106.4,288.3,106.3,288.4,106.2,288.5z"/>
		<path class="st4" d="M113.4,292.6c-0.2,0.3-0.4,0.6-0.7,0.9c-2.7,3.7-5.8,7-10.2,9.7c-4.2,2.6-8.6,4.8-13.5,5.5
			c-5.7,0.9-10.2-0.1-15.6-0.8c-4-0.5-9.2-0.2-12.3,3c-0.2,0.2-0.4,0.4-0.6,0.6c-0.3,0,0-0.2,0-0.4c-3.2-4.2-8.8-8.5-13.8-10.8
			c-2.6-1.2-5.6-1.1-8.3-1.2c0-1,0.6-2.4,1.2-3.4c2.6-3.8,9.4-0.4,11.9,0.7c4.7,2.1,8.8,4.6,13.7,6.4c2.9-1.8,6.6-2.2,10-3
			c5.6-1.4,11.3-2.7,16.8-4.4c1.9-0.6,6.8-1.6,9.9-3.4l0,0c0.8-0.7,1.6-1.4,2.4-2.1c0.1-0.1,0.4-0.3,0.7-0.6
			c0.1-0.1,0.1-0.2,0.1-0.3c0.1,0,0.1,0.1,0.2,0.1c0.3-0.3,0.6-0.5,0.8-0.7c0.1,0.5,0.4,1,0.9,1.5
			C109.1,291,111.3,291.8,113.4,292.6z"/>
	</g>
	<g>
		<path class="st5" d="M246.7,249.2c1.7,0.2,6.7-2.5,7.1-0.3c0.2,1-1.4,2.8-1.9,3.6c-1.4,2.1-2.9,4.2-4.6,6
			c-6.5,6.8-15.4,10.7-24.2,13.6c-8.1,2.7-16.8,4.7-25.1,6.5c-3,0.7-6.4,1.1-9.5,0.9c-5.3-0.4-7.9-3.7-10.6-8
			c-5.2-8.6-9.6-17.8-13.4-27c-0.7-1.8-1.4-3.4-1.9-5.1c-0.4-1.4-0.6-2.8-0.7-4.4c-0.1-1.3,0.4-2.9,0.2-3.8c1.3-1.5,4.3-2.1,6.2-2.5
			c3.1-0.7,6.4-1.2,9.6-1.8c8.4-1.5,16.9-1.1,24.6,2.6c5.2,2.5,10.2,8.1,16.1,4.8c1.1-0.6,2.2-1.8,3.5-1.6c1.7,0.3,1.9,2.1,2,3.4
			c0,1.4-0.6,2.3,1,2.1c1.6-0.2,3.5-2.3,4.5-3.3c3-2.9,6.1-5.7,9.2-8.6c1.6-1.6,3.2-3.2,4.8-4.9c0.9-1,2-2.7,3.1-1.6
			c2,1.9-0.5,7.9-1.1,10c-0.9,3.1-2.3,5.7-3.5,8.7c3.8-0.5,6.9-6.4,8.6-9.1c1.6-2.5,2.6-5.4,4.2-7.9c0.9-1.5,1.8-2.7,2.6-0.7
			c0.6,1.4,0.9,3.1,0.9,4.7c0,4.4-1.8,9.1-3.5,12.6c-1.2,2.3-2.4,4.5-4.1,6.5C249.8,245.9,247.3,247.6,246.7,249.2z"/>
		<path class="st6" d="M258.6,225.4c-1.8,2.9-4.2,5.6-5.7,7.4c-1.8,2.2-6.6,10.5-10.4,9.1c-3.1-1.2-0.1-8.9-0.2-11.6
			c-2.3,1-3.9,4.2-5.6,6c-2.9,3-7,6.3-11.1,7.4c-4.5,1.2-6.4-1.4-10.2-1.8c-2.3-0.2-4.9,0.5-7.3,0.4c-6.5-0.1-12.2-3.4-18.5-4.9
			c-5.8-1.3-12.5-1.8-18.4-1c-2.4,0.4-4.9,0.9-7,1.9c-0.5,0.2-1,0.6-1.5,1c-0.4-1.4-0.6-2.8-0.7-4.4c-0.1-1.3,0.4-2.9,0.2-3.8
			c1.3-1.5,4.3-2.1,6.2-2.5c3.1-0.7,6.4-1.2,9.6-1.8c8.4-1.5,16.9-1.1,24.6,2.6c5.2,2.5,10.2,8.1,16.1,4.8c1.1-0.6,2.2-1.8,3.5-1.6
			c1.7,0.3,1.9,2.1,2,3.4c0,1.4-0.6,2.3,1,2.1c1.6-0.2,3.5-2.3,4.5-3.3c3-2.9,6.1-5.7,9.2-8.6c1.6-1.6,3.2-3.2,4.8-4.9
			c0.9-1,2-2.7,3.1-1.6c2,1.9-0.5,7.9-1.1,10c-0.9,3.1-2.3,5.7-3.5,8.7c3.8-0.5,6.9-6.4,8.6-9.1c1.6-2.5,2.6-5.4,4.2-7.9
			c0.9-1.5,1.8-2.7,2.6-0.7C258.3,222.1,258.6,223.8,258.6,225.4z"/>
		<path class="st7" d="M214.3,263.5c-3.2,1.7-6.8,3.5-10.3,4.4c-10.7,2.9-13.4-4.6-12.4-12c0.8-6.1,4.1-12.2,7.6-12.2
			c2.5-0.5,5.2-1.2,7.8-2c1.9-0.6,5.2-2.4,7.2-1.3c2.1,1.3,1.9,2.9,0.8,4.6c-1.5,2.2-4.4,4.5-5.1,5.9c-1.5,2.9,2.6,2.2,4.6,2
			c2.1-0.2,6.8-1.6,7.7,1.2C223.1,257.7,216.7,262.2,214.3,263.5z"/>
		<path class="st8" d="M214.9,245.2c-0.6,0.1-1.3,0.2-2,0.3c-3.6,0.7-7.4,1.7-10.8,3.2c-4.2,1.9-7.4,4.5-10.5,7.3
			c0.8-6.1,4.1-12.2,7.6-12.2c2.5-0.5,5.2-1.2,7.8-2c1.9-0.6,5.2-2.4,7.2-1.3C216.2,241.8,216,243.5,214.9,245.2z"/>
		<path class="st9" d="M197,263.1c3.1,3,11.4-0.2,15.2,0.4c5.6,0.9-2,5.6-3.9,6.5c-5.1,2.3-10.3,3.5-16,3c-2.4-0.2-4.7-0.4-7-1
			c-4-1-3.8-3.2-3.2-7c0.4-2.9,0.9-5.8,1.5-8.7c1-5.2,2-10.3,2.6-15.5c0.3,0,0.4-0.1,0.3-2.1c3.6,1.4,9.8-1,13.3-2.1
			c2.4-0.8,11.9-5,9.3,1.4c-0.2,0.6-0.5,1.1-0.8,1.5c-2.4,3.9-7.2,5.6-10.3,8.7c-3.1,3.1,3.1,2.9,5.2,2.4c2.8-0.6,9.4-3.8,12-1.5
			C220.8,254.2,199.6,261.5,197,263.1z"/>
		<path class="st10" d="M209.1,238c-0.2,0.6-0.5,1.1-0.8,1.5c-2.7,1.5-5.6,2.6-8.4,4c-5.7,3.1-12.1,7.3-16.3,12.7
			c1-5.2,2-10.3,2.6-15.5c0.3,0,0.4-0.1,0.3-2.1c3.6,1.4,9.8-1,13.3-2.1C202.1,235.9,211.7,231.7,209.1,238z"/>
		<path class="st11" d="M194.9,279.1c-4.7,1.9-9.9,2.9-14.9,3.3c-1.7,0.1-3.9,0.5-5.4-0.4c-2.6-1.4-4.2-6.1-5.1-8.6
			c-2.7-7.7-2.7-16.4-1.5-24.4c0.1-0.6,0.2-1.4,0.4-2.4c0.6-3.5,1.5-8.8,2.8-9.5c4.6-1.1,9.6-1.5,14.4-0.6
			c5.1,0.9,12.6,2.1,15.2,7.2c1.3,2.6,0,4.6-1.6,6.6c3.2,0.2,6.6,2.1,8,5c1.5,3.3,0.4,5-2,6.9c-0.2,0.1-0.4,0.3-0.6,0.5
			C215.1,268,199.9,277,194.9,279.1z"/>
		<path class="st12" d="M200.3,249.7c1.4-1.7,2.1-3.6,1.4-5.7c-0.7-2-2.4-3.9-4.5-4.9c-1.3-0.6-2.6-1.1-3.9-1.6
			c-2.2-0.8-4.6-1.4-6.9-1.8c-2.9-0.5-5.8-0.7-8.8-0.6c-2,0.1-5.3,0.1-7,1.4c-1.4,1-1.5,3.7-1.9,5.2c-0.6,2.4-1,4.8-1.1,7.2
			c0,0.3,0,0.6,0,0.9c0.1-0.1,0.1-0.1,0.1-0.2c1.7-3.2,3.5-5.9,7-7.3c2.7-1,5.9-0.9,8.7-0.6c3.7,0.3,7.8,1,11.2,2.4
			C197,245,200.3,246.8,200.3,249.7z"/>
		<path class="st12" d="M205.6,262.5c2.3-1.8,3.6-4.5,2.3-7.3c-0.3-0.6-0.7-1.3-1.1-1.7c-1.6-2-3.6-3.1-5.7-3.6
			c-2.4-0.6-5.3-0.1-7.8,0.1c-4.7,0.5-9.5,1.8-13.9,3.5c-3.1,1.2-6.1,2.5-8.9,4.1c-0.7,0.4-3.7,1.8-3.8,2.6
			c-0.4,3.1,0.2,6.3,0.9,9.4c0.2,0.9,0.4,2,0.8,2.7c0.1-1.7,1.1-3.8,2-5.2c1.3-2.2,2.9-3.8,5.1-5.1c4.4-2.7,9.3-4.6,14.4-5.3
			c3.8-0.5,8.5-1,12.2,0.5c1.5,0.6,2.7,1.2,3.5,2.6C206,260.3,205.9,261.8,205.6,262.5z"/>
		<path class="st12" d="M207,271.4c1.6-1.4,2.4-4.7,1.2-6.5c-2.1-3.1-4.9-2.9-7.9-2.4c-8.6,1.4-17.6,5.1-24.6,10.3
			c-1.3,1-2.5,2.1-3.6,3.4c-0.4,0.5-1.6,1.8-1.4,2.2c0.2,0.9,1.1,1.6,1.6,2.4c0.5,0.7,1.1,1.6,1.9,1.8c0.4-1.2,1.8-2.4,2.7-3.3
			c1.6-1.6,3.4-3.3,5.4-4.6c3.6-2.4,7.7-3.9,11.7-5.4c2.8-1,6-2,9-1.7C205.4,267.9,207.1,269,207,271.4z"/>
	</g>
	<path class="st13" d="M126.1,337.3c-2.5,0.2-4.6-1.5-6.4-3.2c-1.5-1.5-2.6,0.1-3.8,1.6c-1.8,2.1-3.8,5.9-6.5,6.4
		c-3.5,0.6,0.2-6.3,1-7.6c-1.2,1.1-2.9,4.3-4.9,4.4c-0.4,0-0.7-0.1-1.1-0.3c0,0-0.1,0-0.1-0.1c-3.5-2.5,3.4-7.5,4.8-8.7
		c2.9-2.4,5.9-4.2,8.1-7.5c0.7-1,1.3-2,1.9-3.2c0.2-0.5,0.7-2,1.1-2.2c0.2-0.1,0.6-0.1,0.9,0c0.3,0.1,0.6,0.2,0.9,0.2
		c0.3,0.1,0.6,0.1,0.8,0.1c0.6,0,1.6,0,1.9-0.1c-0.9,2.6-2.1,5.2-3.2,7.7c-0.5,1.1-0.9,2.3-0.1,3.4c1,1.3,3.1,0.6,4.4,1.1
		c1.7,0.7,3.6,2.6,4,4.7C130.2,336.7,128,337.1,126.1,337.3z"/>
	<path class="st14" d="M121.9,316.9c-0.6,2.2-2.7,4.5-3.9,6.2c-1.6,2.2-3.5,4.1-5.2,6.2c-1.6,1.9-3.4,2.9-5.1,5
		c-1,1.2-1.7,2.5-2,4.1c0,0.1,0,0.2-0.1,0.3c-0.4,0-0.7-0.1-1.1-0.3c0,0-0.1,0-0.1-0.1c-3.5-2.5,3.4-7.5,4.8-8.7
		c2.9-2.4,5.9-4.2,8.1-7.5c0.7-1,1.3-2,1.9-3.2c0.2-0.5,0.7-2,1.1-2.2c0.2-0.1,0.6-0.1,0.9,0C121.3,316.8,121.6,316.9,121.9,316.9z"
		/>
	<path class="st13" d="M162.3,333c0.7,0.6,1.4,1.1,2,1.8c0.2,0.3,0.4,0.7,0.5,1.2c0.4,2.4-1.4,3.6-3.2,3.7
		c-3.8,0.1-7.7-3.5-10.4-6.2c-1.8-1.8-4.1-5.5-6.5-2.6c-1.4,1.7-3,3.7-4.9,4.7c-2.3,1.3-5,0.3-4.4-3.2c0.4-2.2,1.6-3.6,3.1-4.7
		c1.9-1.5,4.8-3.1,5.4-5.9c0.5-2.1,0.1-5.1-0.6-7.2c0,0,0,0,0-0.1c0,0,0.1,0,0.1,0.1c0.3,0.3,0.7,0.5,1.2,0.6
		c1.3,0.3,3.1-0.1,3.9-0.8c0.6,1.9,0.4,4.4,0.8,6.5c0.3,1.5,0.6,2.1,2,2.2c1.6,0.2,3.3,0.2,4.9,0.5c3.2,0.4,7.8,1.9,9.7,5.2
		C167.6,331.8,164.9,334.6,162.3,333z"/>
	<path class="st14" d="M161.5,339.8c-3.8,0.1-7.7-3.5-10.4-6.2c-1.8-1.8-4.1-5.5-6.5-2.6c-1.4,1.7-3,3.7-4.9,4.7
		c-2.3,1.3-5,0.3-4.4-3.2c0.4-2.2,1.6-3.6,3.1-4.7c1.9-1.5,4.8-3.1,5.4-5.9c0.5-2.1,0.1-5.1-0.6-7.2h0.1c0.4,0,0.7,0.2,1.2,0.5
		c0,0,0,0,0,0c0.2,0.2,0.5,0.5,0.7,0.8c0,0,0,0,0,0c0.5,0.9,0.2,2.9,0,3.9c-0.4,1.5-1.1,3.1-1.9,4.3c-0.9,1.4-2.2,2.5-3.2,3.8
		c-0.8,1.1-2.2,3.7-1.6,5.2c0.9,2.3,3.5-1.1,4.3-2c1.2-1.4,2.6-2.6,4.4-2.8c2.7-0.3,4.7,2,6.4,4.2c2.1,2.8,4.4,5.6,7.9,4.7
		c1.2-0.3,1.6-1.1,2.3-2.1c0.1-0.1,0.2-0.3,0.3-0.5c0.2,0.3,0.4,0.7,0.5,1.2C165.2,338.5,163.4,339.7,161.5,339.8z"/>
	<path class="st0" d="M177.7,196.9c-2.4,3.2-7,5.5-8.6,9.5c-1.9,4.6,0.6,10.4,2.3,14.5c4.1,9.9,5.4,21.5,5.5,32.5
		c0.1,9.6,0.4,20-2.2,29.1c-3.4,12-13.1,22.7-23.6,24.6c-1.6,2.6-0.8,7.1-4.3,8.2c-2.4,0.8-5-2-5.9-4.5c-2.7-0.2-6.8-0.5-8.9,0
		c-1.5,0.4-2,2-3.3,3c-1.3,1-2.5,2.4-3.9,2.9c-2.4,0.9-4.3,0.9-5.1-2.4c-0.7-3.1,0.2-4.1-1.4-6c-0.2-0.2-0.3-0.4-0.5-0.5
		c-0.3-0.3-0.6-0.5-0.8-0.8c1-1.1,2-2.2,3-3.3c0.8-0.9-2.1-1.9-2.9-2.1c-1.2-0.4-2.5-0.8-3.8-1.3c-0.6-0.2-1.3-0.3-2-0.5
		c-0.1,0.3-0.3,0.7-0.5,1c-0.2-0.3-0.5-0.6-0.7-0.9c-0.6-0.8-1.1-1.7-1.7-2.7c-0.8-1.5-1.5-3-2.1-4.5c0,0,0,0,0,0
		c-0.1-0.3-0.3-0.7-0.4-1c-0.7-1.8-1.2-3.5-1.7-5.4c-0.2-0.7-0.3-1.4-0.5-2.1c-0.4-1.9-0.8-3.9-1-5.9c-0.4-2.6-0.6-5.2-0.8-7.8
		c-0.1-1.5-0.2-3.1-0.3-4.6c0-0.7-0.1-1.4-0.1-2.1c-0.1-1.1-0.1-2.1-0.1-3.2c0-0.1,0-0.2,0-0.2c0.1-6.9,2-12.6,6-18.5
		c0.2-0.3,0.4-0.6,0.7-0.9c1-1.4,2.1-2.8,3.2-4.1c0.4-0.5,0.8-0.9,1.2-1.4c0.9-1.1,1.8-2.1,2.8-3.2c6.8-7.7,13.2-15.7,10.5-27.8
		c-1.3-5.9-4-11.1-4.9-17.1c-1-6.1-1-12-1-18.2c-2.2,0.2-6.8-1-7.7-4.2c2.6,0.1,6.3-1.8,7.7-4.5c-5.8-1.6-9.5-14.4-3.3-18.5
		c0.4,2.8,0.3,6.2,2,8.5c1.3,1.8,4.5,3.4,6.2,1.9c-1.3-2.2-3.3-3-4.3-5.6c-0.9-2.3-1.3-4.6-1.4-7.1c-0.2-4.4,1.4-11.1,6.1-12.1
		c-2.2,2.5-0.3,9.1,1.1,12.1c2.2,4.7,6.6,6.8,11.1,6.2c0.3,0,0.7-0.1,1-0.1c0.2,0,0.4-0.1,0.6-0.1c8.1-1.7,14.8-4.4,22.9,0.1
		c6.4,3.6,8.6,10.1,11.2,17.3c1.3,3.7,2.6,6.3,4.9,9.2c2,2.5,3.7,4.8,4.5,8.1C183.6,186.8,181.3,192,177.7,196.9z"/>
	<g>
		
			<ellipse transform="matrix(0.9988 -4.899994e-02 4.899994e-02 0.9988 -7.836 8.6106)" class="st15" cx="171.7" cy="164.1" rx="2.6" ry="4.2"/>
		
			<ellipse transform="matrix(0.9572 -0.2893 0.2893 0.9572 -39.5043 56.8972)" class="st16" cx="172.7" cy="162.1" rx="0.8" ry="1.3"/>
	</g>
	<path class="st17" d="M176.2,155.8c-1.8-1.9-3.6-3.6-5.8-4.5c-1.1-0.5-2.3-0.9-3.5-1c-0.7-0.1-1.8,0.3-2.4,0
		c-0.9-0.4-0.7-4-0.3-4.9c0.6-1.7,2.8-1.3,4.1-0.7c2.3,1,4.3,2.6,6,4.8c1.2,1.5,2.6,3.5,3.1,5.5
		C177.8,156.5,176.9,156.4,176.2,155.8z"/>
	<path class="st18" d="M172.7,246.1c1.7,6.9,1.2,17.4-0.1,24.2c-1.7,8.4-3.9,17.4-9,23.7c-4.9,6-15.8,13.8-21.8,5.5
		c-4.9-6.9-2.1-17-0.6-24.6c1.9-9.5,5.6-18.5,10.4-26.5c3-5.1,8.7-12.1,14.5-10.6C169.7,238.5,171.2,240.7,172.7,246.1z"/>
	<path class="st19" d="M141.8,145.7c2.3-0.9,4.7-1.2,7.1-1.3c3-0.2,6.1-0.2,8.9,0.9c2.1,0.8,4.9,4,3.7,6.9c-0.8,1.9-2.5,2.2-4,2.5
		c-2.8,0.5-5.5,0.4-8.2,0.2c-2.7-0.1-6.6-0.8-8.3-3.6C139.9,149.5,140.7,146.7,141.8,145.7z"/>
	<path class="st19" d="M130.8,146.1c-4.1-1.3-7.1-6.9-7.5-11.7c-0.1-1.2-0.1-2.5-0.1-3.7c0-1.1-0.4-1.7-1.1-0.5
		c-0.9,1.6-0.7,4.5-0.5,6.3c0.3,2.9,1.3,6.1,2.9,8.4c1.1,1.6,2.8,3,4.6,3.1c0.6,0,1.5,0,1.9-0.6C131.1,147,131.1,146.4,130.8,146.1z
		"/>
	<path class="st19" d="M123.7,153.6c-1.3,0.4-3.2-0.7-4.3-1.6c-1.4-1.1-2.4-2.6-2.9-4.6c-0.2-0.7,0-2.3-0.5-2.9
		c-0.7-0.9-1.2,0.3-1.3,1.1c-0.5,3.1,1.4,7.4,3.6,9.1c1.1,0.9,2.5,1.2,3.7,0.9c0.4-0.1,1.6-0.4,1.8-0.9
		C124,154.1,123.7,153.6,123.7,153.6z"/>
	<path class="st20" d="M164.3,334c-0.5-0.4-0.9-1.2-1.3-1.8c-0.5-0.7-1.1-1.4-1.7-2c-1.4-1.3-3.1-2.5-4.8-3.2
		c-0.4-0.1-2.3-0.8-2.4-0.6c1.3-0.8,3.5,0.2,4.8,0.8c1.8,0.9,3.1,2,4.1,3.9C163.5,332,164,333,164.3,334z"/>
	<path class="st20" d="M108,338c0.3-0.4,0.6-0.9,0.8-1.3c0.3-0.5,0.7-1,1-1.5c0.8-1.2,1.6-2.4,2.5-3.6c0.6-0.7,1.2-1.4,1.9-2
		c-1,0.7-2,1.4-2.8,2.4c-0.9,1.1-1.9,2.5-2.6,3.8c-0.2,0.4-0.3,0.9-0.5,1.3C108.3,337.3,108,337.9,108,338z"/>
	<path class="st21" d="M111.3,235.7c0.1-0.1,0.2-0.1,0.2-0.1c-0.1,0.1-0.2,0.3-0.3,0.5C111.5,235.6,111.1,235.9,111.3,235.7z"/>
	<path class="st22" d="M126.6,170.5c0.9-8.9,4.5-18.7,10.4-25c-4.5,0.5-8.7-1.4-10.9-6.1c-1.4-3.1-3.3-10.4,0-12.6
		c-6.6,0.9-8,8.6-7.8,13c0.1,2.5,0.6,5.2,1.5,7.5c1,2.6,2.3,3,3.9,5c-1.7,0.8-3.8-0.2-5.1-2c-1.7-2.3-1.6-6.1-2-9
		c-7.3,4.3-3.4,17.9,2.5,19.5c-1.7,2.5-5.2,3.9-7.8,3.8c0.5,3.7,5.8,5.6,8,5.4c0,6.2-0.1,11.5,0.8,17.5c1,6,3.9,11.3,5.1,17.3
		c2.4,12-3.5,19.4-10.3,27.1c-1.2,1.4-1.8,1.8-2.7,3c-0.2,0.1-1.2,0.5-1.5,0.8c-0.4,0.6,0.1,0.8,0.1,0.8c-0.1,0.1-0.3,0.4-0.4,0.4
		c-1.1,1.2-2.2,2.4-3.4,4c0,0-0.3,0.3-0.5,0.4c-0.2,0.1-0.4,0.3-0.7,0.5c1.5,2.2,3.2,4.2,5.2,6c0.1,0.1,0.2,0.1,0.2,0.2
		c2.3-2.5,4.8-4.8,7.6-7.4c0,0,0.1-0.1,0.1-0.1c0.4-0.3,0.7-0.7,1.1-1c0.6-0.6,1.2-1.1,1.9-1.7c3.1-2.8,6.7-5.8,10.6-7.5
		c0.3-0.1,0.6-0.2,0.9-0.4c0.2-0.1,0.5-0.2,0.7-0.3c0-0.5,1.9-6,2.1-8.5c0.2-3.8-0.2-7.3-1.1-10.8
		C131.9,197.8,125.2,184.4,126.6,170.5z"/>
	<g>
		<path class="st23" d="M97.8,267.8c-2.6,3.2-8,5.7-14.6,6.6c-2.6,0.4-5.3,0.5-7.9,0.5c-0.4,0-0.8,0-1.2,0c-0.1,0-0.1,0-0.2,0
			c-4.8-0.2-9.6-1-14.4-2.1c-0.7-0.2-1.4-0.3-2.1-0.5c-4.8-1.2-11.4-2.4-15.5-4.8c-0.3-0.2-0.5-0.3-0.8-0.5
			c4.5-1.4,10.3-1.8,15.3-2.8c2-0.4,4.8-0.9,7.6-1.6c3.5-0.9,6.9-2.1,8.1-3.6c-1.8-0.4-4.9-0.8-8.7-1.3c-1.5-0.2-3-0.4-4.6-0.6
			c-2.6-0.3-5.4-0.7-8.1-1.1c-7.2-1.1-14.1-2.7-17.2-4.9c5.8-1.5,11.8-1.8,15.2-2.1c1.9-0.1,3.8-0.3,5.8-0.5c2.5-0.2,5-0.3,7.4-0.2
			c2.6,0.1,5.3,0.2,8.1,0.3c1.2,0.1,2.4,0.1,3.6,0.3c0.1,0,0.2,0,0.3,0c1.4,0.1,2.9,0.3,4.4,0.6c1.1,0.2,2.2,0.4,3.3,0.7
			c3,0.8,6.1,1.9,9.2,3.5C100,258.4,101.2,263.7,97.8,267.8z"/>
		<path class="st24" d="M104.5,281.5c-1.7,0.5-3.4,0.9-5.2,1.2c-5.8,1-16.1,1.4-21.6-2.1c-0.1-0.1-0.2-0.2-0.4-0.2
			c-1.1-0.8-2-1.7-2.6-2.9c-0.5-1-0.7-1.9-0.7-2.7c0-0.1,0-0.2,0-0.3c0.1-0.7,0.4-1.3,0.8-1.9c1.3-1.9,4.1-3.3,6.7-4.8
			c1.6-1,3.2-2,4.2-3.1c-2.2,0.3-4.4,0.9-6.5,1.3c-1.8,0.4-3.6,0.6-5.4,0.6c-0.8,0-1.7-0.1-2.5-0.3c-1.7-0.4-3.4-1-5.2-2.3
			c-0.8-0.5-1.4-1-1.8-1.5c-0.1-0.1-0.2-0.3-0.3-0.4c0,0,0,0,0-0.1c-1.1-1.5-1.1-3.1-0.3-4.5c0.6-1,1.5-1.9,2.7-2.7
			c0.2-0.1,0.3-0.2,0.5-0.3c-1.1-0.1-2.5-0.2-3.8-0.6c-3.9-0.8-8.1-2.6-8.3-5.3c0-0.1,0-0.2,0-0.4c0.3-4.3,12.4-9.1,16.8-10.9
			c4.1-1.7,9.7-4.1,15.4-5.2c0,0,0,0,0,0c0.4-0.1,0.7-0.1,1.1-0.2c2-0.3,4-0.5,6-0.3c0.7-0.1,6.3,0.6,9.7,1.2
			c0.6,0.1,1.1,0.2,1.5,0.3c0.6,0.1,1.1,0.2,1.6,0.3c1.1,0.2,2.1,0.5,3.1,0.8c1.7,0.5,3.2,1.1,4.6,1.8c3,1.6,5.5,3.6,7.7,6.3
			c2.6,3.3,4.1,6.8,4.7,10.4C128.4,264.8,119.2,277,104.5,281.5z"/>
		<path class="st25" d="M141.1,240.2c-0.1,0.6-0.2,1.3-0.3,1.9c-1.1,7.3-3.1,14.3-6.8,20.8c-1.6,2.8-3.6,5.5-6.1,8.1
			c-3.9,4.1-13.5,11.8-23.4,10.6c-1.5-0.2-3.1-0.6-4.6-1.3c-8-3.5-2.9-8.5-2-12.4c0-0.1,0.1-0.2,0.1-0.3c-3.9,1.9-11.7,2.9-16.5,0.3
			c-0.2-0.1-0.5-0.3-0.7-0.4c-0.7-0.5-1.2-0.9-1.7-1.4c-3.7-4,0.7-8.8,1.9-12.2c-0.6,0.3-1.3,0.5-1.9,0.6c-0.7,0.2-1.4,0.3-2.1,0.3
			c0,0,0,0,0,0c-0.5,0-0.9,0-1.4,0c-0.1,0-0.2,0-0.3,0c-0.7-0.1-1.4-0.3-2.1-0.5c-1.4-0.6-2.5-1.6-3-3.1c-0.2-0.5-0.3-1.1-0.3-1.7
			c0-0.3,0-0.6,0-0.9c0.5-6.6,8.7-12.4,16.7-16.3c0,0,0,0,0,0c2.3-1.1,4.7-2.1,6.8-2.9c0.2-0.1,0.3-0.1,0.5-0.2
			c0.9-0.3,1.8-0.6,2.7-0.9c10.1-3.2,24-4.6,35.2,0.7c0.3,0.1,0.6,0.3,0.9,0.4c0.3,0.1,0.5,0.3,0.8,0.4
			C139.7,233,144.6,238.8,141.1,240.2z"/>
		<path class="st26" d="M93.9,228.4c0.6-0.4-0.2-0.2,0.2-0.3c0.1,0,0.3,0,0.4-0.1C94.3,228.1,94.1,228.2,93.9,228.4z"/>
		<path class="st26" d="M141.6,243.2c-0.1,2.7-0.9,5.2-1.6,7.8c-1,3.6-2.7,9.5-6.1,13.2c0-0.4,0-0.9,0-1.3c0.1-2.2,0.3-4.1-1.3-6.6
			c-1.3-2-3.5-3.1-6.1-3.5c-1-0.1-2.1-0.1-3.3,0c0.3-2.4,1.4-4.2-0.8-6.8c-3.5-4-8.8-3.1-14-4.5c0.1-0.4,0.2-0.7,0.2-1.1
			c0.2-1.8-0.1-3.7-1.2-5.5c-0.3-0.5-0.6-1-1-1.5c-0.2-0.2-0.4-0.4-0.6-0.7c-0.6-0.7-1.4-1.3-2.3-1.9c-1.7-1.1-4.5-2.4-7-2.8
			c-0.1,0-0.3,0-0.4-0.1c-0.6-0.1-1.2-0.1-1.7,0c1.8-0.9,4.4-1.6,7-2.2c2.4-0.5,4.9-0.8,6.9-1.1c5.3-0.7,14.2,0.1,19.7,1.7
			c1.5,0.4,3.3,1.1,5,2.1c0.4,0.2,0.8,0.4,1.2,0.6c4.4,2.5,8.6,6.2,8.8,9c0.1,1.6-1.2,2.9-1.5,4.5
			C141.7,242.9,141.7,243,141.6,243.2z"/>
	</g>
	<path class="st27" d="M71.7,254.3c1.2-9.6,13.2-15.5,24.9-19.4c2.3-0.8,6-2.3,8.9-2.2c-0.4-1.9-5.6-3.8-7.8-4.5
		c-3.8-1.1-7,0.1-9.6,1.5c-7.3,3.8-14.5,7.8-18.3,13.8C68.5,245.4,66.2,251.5,71.7,254.3z"/>
	<path class="st27" d="M78.6,255c1.3-2.4,5.9-4.6,8.6-6.3c3.8-2.3,8.3-4.1,13-5.7c2.2-0.8,4.6-1.1,6.9-1.4c2.2-0.2,4.9,0.3,7.3,0.6
		c2.1,0.3,4.8,1.2,5.7,2.6c-2.8-0.2-6.1,1.2-8.4,1.8c-3.1,0.8-5.8,1.9-8.7,2.9c-4,1.5-7.4,3.6-10.7,5.6c-3.5,2.2-6.9,4.6-9.5,7.4
		c-1,1.1-4.2,4.4-3.3,5.4c-5.1-3.7-4-6-2.9-9.4C77.1,257.6,78.2,255.8,78.6,255z"/>
	<path class="st27" d="M95.5,278.5c-2.9-2.9-1.8-5.6-0.5-8.4c0.9-2.1,3.3-4,5.4-5.5c4.3-3,8.3-5.8,13.3-8.3c2.6-1.4,5.5-2.8,8.6-3.6
		c3.9-1,8.3,0.9,9.7,3.3c0.3,0.6,0.8,1.6,1,2.1c-2.1-0.6-5.3-0.1-7.2,0.3c-3.6,0.8-7.1,1.5-10.1,2.9c-7.4,3.5-12.1,8.6-14.6,14.5
		c-0.5,1.1-1.4,4.5,0.3,5.5C99.8,281.2,96.5,279.6,95.5,278.5z"/>
	<path class="st28" d="M31.3,250.4c2.5,0.6,5.5,1,8.1,1.5c4.4,0.8,8.8,1.2,13.2,1.3c1.5,0,3.6-0.1,5.1,0c-2-0.7-4.5-2.8-4.8-4.1
		c-0.1-0.4-0.1-1.2,0-1.5c-2.5-0.1-4.8,0.4-7.2,0.6c-3.2,0.2-6.5,0.4-9.5,0.9C34.6,249.4,32.5,249.6,31.3,250.4z"/>
	<path class="st28" d="M38.9,266.4c4.7,0.8,9.7,1.2,14.4,1.3c6.5,0.2,13.1,0.8,19.3,0.2c1.4-0.1,2.8-0.2,4.2-0.4
		c0.7-0.1,1.2-0.3,1.9-0.3c-0.2-0.1-0.6-0.6-0.6-0.7c-0.7,0.1-1.5,0.1-2.2,0.3c-1.1,0.2-2.2,0.2-3.4,0.1c-0.7,0-1.2-0.1-1.9-0.2
		c-1.3-0.2-2.4-0.6-3.6-1.1c-1.4-0.5-2.6-1.3-3.6-2.1c-0.5-0.5-1.3-1.1-1.5-1.6c-1.9,0.2-3.9,0.8-5.7,1.2c-3.5,0.8-7.5,0.9-11.1,1.6
		c-1.2,0.2-2.3,0.5-3.5,0.8C41,265.7,39.3,265.9,38.9,266.4z"/>
	<path class="st0" d="M119.9,303.6c-1,1.1-2,2.2-3,3.3c-1.2-1.1-2.5-2.2-3.6-3.3c-0.9-0.9-1.8-1.8-2.6-2.9c0.2-0.4,0.4-0.7,0.5-1
		c0.7,0.2,1.4,0.3,2,0.5c1.3,0.4,2.6,0.9,3.8,1.3C117.8,301.7,120.7,302.8,119.9,303.6z"/>
	<path class="st28" d="M118.7,309.7c-1,1.4-12,10.9-13.1,11.8c-2.3,1.8-4.7,3.6-6.9,5.4c-2.3,1.8-4.8,3.4-7.5,4.7
		c-3.4,1.6-6.7,3.6-10.1,4.6c-1.9,0.5-3.8,1.2-5.7,1.4c-2.3,0.2-4.9-0.4-6-2.6c-0.9-1.7-0.6-5,0.5-6.6c1.2,1.5,3.4,2,5.5,1.9
		c5.8-0.3,11.6-3.8,16.2-7.5c3-2.3,5.7-5,8.4-7.5c1.1-1,2.6-2.3,3.6-3.5c2.3-1.5,9.7-8.7,10.5-7.7
		C115,305.3,117.7,308.4,118.7,309.7z"/>
	<path class="st29" d="M56.3,252.4c0.3-2.3,2.4-3.9,4.3-5.6c2.3-2.1,4.8-4,7.9-5.5c1.2-0.6,2.7-1,3.8-1.7c3.4-2,5.9-4.8,9.7-6.7
		c0.9-0.5,1.9-1.2,2.9-1.6c-5.9,1.1-10.6,3.2-15.5,5.3c-5.8,2.5-13.4,4.7-16.3,9.2C52,247.8,52.3,251.4,56.3,252.4z"/>
	<path class="st29" d="M63.9,254.9c1.8-0.7,4.1-1.5,6.1-1.8c0.4,0.2,0.6,0.6,1,0.9c0.5,0.3,1.1,0.5,1.7,0.7c1.3,0.4,2.8,0.6,4.1,0.6
		c0.6,0,1.3-0.1,1.9-0.2c0.1,0,0,0,0,0.1c-1.9,1-4.6,1.2-6.6,2c-2.7,1.1-6.3,2.5-7.2,4.7c-0.3,0.6-0.4,1.8,0,2.5
		c-0.4-0.3-1.3-0.9-1.7-1.3c-0.5-0.5-1-1.1-1.3-1.7c-0.9-1.6-0.6-3.2,0.3-4.5C62.5,256.2,63,255.3,63.9,254.9z"/>
	<path class="st29" d="M79.1,267.5c3.8,2.5,9,2.6,13.4,2c1.1-0.1,2.3-0.5,3.2-0.7c-1.1,0.7-2.8,1.2-4.1,1.7c-1.5,0.6-3,1.2-4.5,1.8
		c-3.5,1.3-6.9,3.4-7.9,6.2c-0.3,1-0.8,2.8,0.3,3.8c-2.6-0.8-4.9-2.5-6.1-4.3c-1.7-2.6-1.4-5.2,0.9-7.2
		C75.7,269.5,77.5,268.6,79.1,267.5z"/>
	<path class="st30" d="M134.4,229.2c-8.4-0.6-17.3-0.1-24.7,2.1c-1,0.3-3.4,1.3-3.6,1.6c-1.7-1.9-5.5-3.9-8.7-4.6
		c-1-0.2-2.2-0.3-3.1-0.3c0.1,0,0.4-0.1,0.4-0.2c2.1-1,4.4-1.8,7.1-2.2c5.5-0.9,10.7-1.5,16.8-1c1.9,0.2,3.9,0.4,5.9,0.8
		c1.2,0.2,3.3,0.8,4.4,1.2c1.4,0.5,3,1,4.3,1.8C133.6,228.6,134.1,229,134.4,229.2z"/>
	<path class="st31" d="M27.8,321.7c-2.3-3.4-2.3-9.8,3.3-10.5c1.2-0.2,2.7,0,3.9,0.1c3.3,0.2,7,0.8,10.4,1.7c3.8,0.9,7.1,2.5,11,3.3
		c1.9,0.4,4,0.6,5.8,1.2c2.4,3.8,7.8,3.9,12.2,2.5c1.5-0.5,3-1.1,4.3-1.7c-1.8,1.1-3.4,2.4-5,3c-2.8,1.1-5.7,2.4-8.7,2.6
		c-6.1,0.4-11.4-1-16.9-2.9c-3.9-1.4-8.3-2.5-12.6-2.7c-2.5-0.1-6.7,0.5-7.5,3.6C27.9,321.7,27.8,321.8,27.8,321.7z"/>
	<path class="st31" d="M51,340.3c-0.5-0.3-1.1-0.5-1.6-1c-0.5-0.5-0.8-1.2-1-1.9c-0.6-1.8,0.4-3.6,2-4.9c1.2-0.9,2.4-1.6,3.6-2.3
		c1.3-0.8,3-1.1,4.5-1.6c2.9-1,5.8-1.5,8.7-2c1-0.2,2.6-0.5,3.6-0.4c-0.5,0.8-1,1.7-1.3,2.6c-0.4,1.2-0.8,2.4-0.7,3.6
		c0,0.6,0.1,1.3,0.3,1.8c-0.6-0.2-1.5-0.3-2.1-0.4c-1.2-0.2-2.4-0.3-3.6-0.3c-2,0-4.1,0.3-6.1,1c-1.8,0.6-3.8,1.6-5.1,3
		C51.5,338.4,51.2,339.5,51,340.3z"/>
	<path class="st32" d="M206.7,263c0.2,0,0.4-0.4,0.6-0.5c0.3-0.3,0.6-0.5,1-0.8c1-0.8,2-1.6,3.1-2.4c1.4-0.9,2.8-1.8,4.2-2.6
		c1.6-0.9,3.2-1.9,5-2.3c0.6-0.1,1.8-0.4,2.2,0.1c0-1-0.3-1.7-1.1-2.3c-0.8-0.7-2.1-0.8-3.2-0.8c-0.6,0-1.2,0.2-1.8,0.2
		c-0.1,0,0,0,0.1,0c-0.1,0-0.3,0.5-0.4,0.7c-0.1,0.3-0.3,0.5-0.5,0.7c-0.4,0.4-0.7,0.9-1.2,1.3c-1.2,1.1-2.6,1.9-4,2.6
		c-0.4,0.2-0.8,0.5-1.3,0.7c-0.2,0.1-1,0.5-0.9,0.5c-0.3,0.6-0.5,1.2-0.8,1.8c-0.3,0.5-0.8,1.1-1.2,1.6c-0.2,0.3-0.5,0.5-0.8,0.7
		c0,0,0.1-0.1,0.1-0.1C206,262.4,206.5,262.8,206.7,263z"/>
	<path class="st33" d="M206.1,252.7c1-0.7,2.2-1.2,3.4-1.6c1.7-0.7,3.6-1.8,5.6-1.6c0.5,0.1,1.2,0.1,1.5,0.5
		c-0.2-1.4-2.2-2.2-3.4-2.3c-0.9-0.1-1.9,0.1-2.7,0.2c-1.2,0.2-2.5,0.5-3.7,0.9c-1.5,0.4-3,1.2-4.5,1.4c0.7,0.2,1.4,0.6,1.9,0.9
		C204.8,251.6,205.6,252.2,206.1,252.7z"/>
	<path class="st33" d="M208.3,265.1c0.8-0.3,1.8-0.5,2.6-0.6c1-0.1,2.3-0.2,3.2,0.3c0.2,0.1,0.7,0.5,0.6,0.8
		c0.4-0.8,0.1-1.9-0.9-2.3c-1.4-0.6-3.1-0.6-4.6-0.4c-0.8,0.1-1.8,0.2-2.6,0.3c0.3,0.2,0.6,0.5,0.8,0.8c0.2,0.2,0.3,0.4,0.5,0.6
		C208.1,264.8,208.2,265,208.3,265.1z"/>
	<path class="st17" d="M133.7,166.4c1-2.6,2-5.1,3.8-7.2c0.9-1,1.9-2.1,3-2.8c0.6-0.4,1.9-0.7,2.4-1.3c0.7-0.9-1.1-3.9-1.9-4.5
		c-1.4-1.1-3.4,0.4-4.4,1.6c-1.9,2.1-3.1,4.7-3.9,7.6c-0.5,2-1,4.5-0.6,6.6C132.4,167.8,133.3,167.3,133.7,166.4z"/>
	<g>
		
			<radialGradient id="SVGID_1_" cx="759.5698" cy="245.7028" r="16.25" gradientTransform="matrix(-0.9237 0.4433 -0.4327 -0.9016 978.8013 71.1353)" gradientUnits="userSpaceOnUse">
			<stop  offset="0" style="stop-color:#FCEA10"/>
			<stop  offset="0.9975" style="stop-color:#F39200"/>
		</radialGradient>
		<path class="st34" d="M156.9,179.1c1.1-3.9,3.8-7.4,7.6-9.2c3.7-1.8,8.3-1.7,11.8,0.5c1,0.6,2,1.5,2.8,2.3c3.3,3.3,6,7.2,7.4,11.6
			s1.3,9.4-0.6,13.6c-0.2,0.5-0.6,1.1-1.2,1.3c-0.5,0.1-1.1-0.2-1.4-0.6s-0.5-0.9-0.7-1.4c-1.1-2.1-3.4-3.5-5.8-3.3
			c-0.1,1.5,0.2,3.2,0.7,4.6c0.4,1.1,0.9,2.2,0.4,3.3c-0.3,0.7-1,1.1-1.8,1.2s-1.5,0.1-2.2-0.1c-1.4-0.3-2.8-0.9-4.2-1.5
			c-2.9-1.3-5.9-2.7-8.3-4.8c-1.1-1-2.1-2.2-3-3.4c-2.2-3-4.1-6.3-5.4-9.8c-0.4-1-0.8-2.1-0.9-3.2c0-0.2,0-0.4,0.1-0.6
			c0.3-0.5,1-0.3,1.6-0.2c0.8,0.2,1.7,0.2,2.5,0.1c0.2,0,0.4-0.1,0.5-0.2C156.7,179.1,157.1,179.1,156.9,179.1z"/>
		<path class="st35" d="M160.3,189.2c1.6,2.2,3.2,4.3,5.1,6.3c0.9,1,2,1.9,3.2,2.6s2.6,1.2,4,1.1c1.2-0.1,2.5-0.7,2.9-1.8
			c0.3-0.8,0-1.6-0.1-2.4c-0.1-0.9,0.2-1.2-0.7-1.5c-1.6-0.4-3.4-0.2-5.1-0.5c-1.7-0.3-3.3-0.8-4.9-1.4c-0.8-0.3-1.6-0.6-2.3-1
			C162,190.3,160.5,189.7,160.3,189.2z"/>
		<g>
			<g>
				<g>
					<path class="st35" d="M164.2,192.4c0-1.1,0.1-1.6-0.4-2c-0.2-0.2-1-0.9-1.6-1.6c-0.6-0.7-1-1.4-1-1.4s-0.4-0.7-0.8-1.5
						c-0.4-0.8-0.7-1.7-0.8-2.1c-0.2-0.6-0.7-0.8-1.7-1.2c-0.8,0.7-1.2,1.2-1,1.9c0.1,0.4,0.5,1.5,0.9,2.5c0.5,1,1,1.8,1,1.8
						s0.5,0.8,1.2,1.7c0.7,0.8,1.6,1.6,1.9,1.9C162.6,193,163.3,192.8,164.2,192.4z"/>
				</g>
			</g>
		</g>
		<g>
			<g>
				<g>
					<path class="st35" d="M156.3,183.3c-0.1,0.9,0.1,1.4,0.4,1.5c0.2,0,0.8,0,1.3-0.2c0.5-0.2,0.9-0.5,0.9-0.5s0.4-0.3,0.7-0.7
						c0.3-0.4,0.5-1,0.5-1.2c0.1-0.4-0.4-0.7-1.3-0.8c-0.9,0.2-1.4,0.1-1.4,0.2c0,0.1-0.2,0.3-0.2,0.3c0,0-0.3,0.1-0.3,0.1
						C156.8,182,156.8,182.5,156.3,183.3z"/>
				</g>
			</g>
		</g>
	</g>
	<g>
		
			<ellipse transform="matrix(0.9972 -7.489933e-02 7.489933e-02 0.9972 -12.105 11.6382)" class="st36" cx="149.1" cy="167.2" rx="2.8" ry="4.4"/>
		<ellipse transform="matrix(0.9494 -0.314 0.314 0.9494 -44.231 55.4787)" class="st37" cx="150.1" cy="165" rx="0.9" ry="1.4"/>
	</g>
	<path class="st38" d="M157.9,183.6c-0.5,2.6,5.4,10.5,10,14.1c1.8,1.4,3.9,2.3,6.6,1c-0.9,1.2-2.5,1.9-3.9,1.7
		c-1.5-0.2-2.8-0.9-4.1-1.8c-3.6-2.4-6.7-5.8-8.4-9.8C157.4,187.1,157.3,185.2,157.9,183.6z"/>
</g>
<path class="st39" d="M254.2,101.9c0.1,10.1-5.5,39.9-50.2,61.1c0.7-0.6,27.7-19.6,21.9-51.2c-21.6,5.7-47.2,9-74.7,9
	c-77,0-139.4-26-139.4-58c0-32,62.4-58,139.4-58s139.4,26,139.4,58C290.5,77.9,276.7,91.7,254.2,101.9z"/>
<path class="st40" d="M251.9,100c0.1,10.1-3.3,41.8-48,63.1c0.7-0.6,25.5-21.6,19.7-53.2c-21.6,5.7-47.2,9-74.7,9
	c-77,0-139.4-26-139.4-58c0-32,62.4-58,139.4-58s139.4,26,139.4,58C288.3,76,274.5,89.7,251.9,100z"/>
<g class="st41">
	<path class="st42" d="M41.6,45.6c0,1.9-0.5,3.3-1.4,4.4s-2.3,1.5-4,1.5S33,51,32.1,50s-1.4-2.5-1.4-4.4c0-1.9,0.5-3.3,1.4-4.4
		c0.9-1,2.3-1.5,4-1.5s3.1,0.5,4,1.5C41.1,42.2,41.6,43.7,41.6,45.6z M33.2,45.6c0,1.3,0.2,2.2,0.7,2.9c0.5,0.7,1.2,1,2.2,1
		c1.9,0,2.9-1.3,2.9-3.8s-1-3.9-2.9-3.9c-1,0-1.7,0.3-2.2,1C33.5,43.4,33.2,44.3,33.2,45.6z"/>
	<path class="st42" d="M51.8,51.3h-2.4v-5.1c0-0.6-0.1-1.1-0.3-1.4c-0.2-0.3-0.6-0.5-1.1-0.5c-0.7,0-1.2,0.2-1.5,0.7
		s-0.5,1.2-0.5,2.2v4.1h-2.4v-8.7h1.8l0.3,1.1H46c0.3-0.4,0.6-0.7,1.1-1c0.5-0.2,1-0.3,1.6-0.3c1,0,1.8,0.3,2.3,0.8
		c0.5,0.5,0.8,1.3,0.8,2.4L51.8,51.3L51.8,51.3z"/>
	<path class="st42" d="M56.6,51.3h-2.4V39.2h2.4V51.3z"/>
	<path class="st42" d="M57.9,42.6h2.6l1.7,4.9c0.1,0.4,0.2,0.9,0.3,1.5h0c0.1-0.5,0.2-1,0.3-1.5l1.6-4.9H67l-3.7,9.9
		c-0.3,0.9-0.8,1.6-1.5,2c-0.6,0.5-1.4,0.7-2.2,0.7c-0.4,0-0.8,0-1.2-0.1v-1.9c0.3,0.1,0.6,0.1,0.9,0.1c0.4,0,0.8-0.1,1.1-0.4
		c0.3-0.3,0.6-0.7,0.7-1.2l0.1-0.4L57.9,42.6z"/>
	<path class="st42" d="M80.4,51.3h-2.4v-5.1c0-1.3-0.5-1.9-1.4-1.9c-0.7,0-1.2,0.2-1.4,0.7s-0.4,1.2-0.4,2.2v4.1h-2.4V39.2h2.4v2.5
		c0,0.2,0,0.7-0.1,1.4l-0.1,0.7h0.1c0.5-0.8,1.4-1.3,2.5-1.3c1,0,1.8,0.3,2.3,0.8c0.5,0.5,0.8,1.3,0.8,2.4V51.3z"/>
	<path class="st42" d="M82.8,40.3c0-0.8,0.4-1.2,1.3-1.2c0.9,0,1.3,0.4,1.3,1.2c0,0.4-0.1,0.7-0.3,0.9c-0.2,0.2-0.5,0.3-1,0.3
		C83.2,41.5,82.8,41.1,82.8,40.3z M85.3,51.3h-2.4v-8.7h2.4V51.3z"/>
	<path class="st42" d="M95.4,42.6v1.2L94,44.1c0.2,0.4,0.4,0.8,0.4,1.3c0,0.9-0.3,1.7-1,2.2s-1.6,0.8-2.7,0.8l-0.4,0l-0.3,0
		c-0.2,0.2-0.4,0.4-0.4,0.6c0,0.3,0.4,0.5,1.3,0.5h1.5c1,0,1.7,0.2,2.2,0.6s0.8,1,0.8,1.8c0,1-0.4,1.8-1.3,2.4s-2.1,0.8-3.7,0.8
		c-1.2,0-2.2-0.2-2.8-0.6c-0.6-0.4-1-1-1-1.8c0-0.5,0.2-1,0.5-1.3s0.8-0.6,1.4-0.8c-0.2-0.1-0.5-0.3-0.6-0.5
		c-0.2-0.2-0.3-0.5-0.3-0.8c0-0.3,0.1-0.6,0.3-0.8s0.5-0.4,0.8-0.7c-0.5-0.2-0.8-0.5-1.1-1c-0.3-0.4-0.4-1-0.4-1.5
		c0-1,0.3-1.7,0.9-2.2s1.5-0.8,2.7-0.8c0.2,0,0.5,0,0.9,0.1c0.3,0,0.6,0.1,0.6,0.1L95.4,42.6L95.4,42.6z M88.7,52.6
		c0,0.3,0.2,0.6,0.5,0.8c0.3,0.2,0.8,0.3,1.3,0.3c0.8,0,1.5-0.1,2-0.3s0.7-0.5,0.7-1c0-0.3-0.1-0.5-0.4-0.7
		c-0.3-0.1-0.7-0.2-1.3-0.2h-1.2c-0.4,0-0.8,0.1-1.1,0.3C88.8,52,88.7,52.2,88.7,52.6z M89.5,45.5c0,0.5,0.1,0.8,0.3,1.1
		c0.2,0.3,0.6,0.4,1,0.4c0.4,0,0.8-0.1,1-0.4c0.2-0.3,0.3-0.7,0.3-1.1c0-1-0.4-1.6-1.3-1.6C89.9,43.9,89.5,44.4,89.5,45.5z"/>
	<path class="st42" d="M104.9,51.3h-2.4v-5.1c0-1.3-0.5-1.9-1.4-1.9c-0.7,0-1.2,0.2-1.4,0.7s-0.4,1.2-0.4,2.2v4.1h-2.4V39.2h2.4v2.5
		c0,0.2,0,0.7-0.1,1.4l-0.1,0.7h0.1c0.5-0.8,1.4-1.3,2.5-1.3c1,0,1.8,0.3,2.3,0.8c0.5,0.5,0.8,1.3,0.8,2.4V51.3z"/>
	<path class="st42" d="M109.7,51.3h-2.4V39.2h2.4V51.3z"/>
	<path class="st42" d="M111,42.6h2.6l1.7,4.9c0.1,0.4,0.2,0.9,0.3,1.5h0.1c0.1-0.5,0.2-1,0.3-1.5l1.6-4.9h2.6l-3.7,9.9
		c-0.3,0.9-0.8,1.6-1.4,2c-0.6,0.5-1.4,0.7-2.2,0.7c-0.4,0-0.8,0-1.2-0.1v-1.9c0.3,0.1,0.6,0.1,0.9,0.1c0.4,0,0.8-0.1,1.1-0.4
		c0.3-0.3,0.6-0.7,0.7-1.2l0.1-0.4L111,42.6z"/>
	<path class="st42" d="M128.2,51.5c-1,0-1.8-0.4-2.4-1.2c-0.6-0.8-0.9-1.9-0.9-3.3c0-1.4,0.3-2.5,0.9-3.3c0.6-0.8,1.4-1.2,2.5-1.2
		c0.6,0,1,0.1,1.4,0.3c0.4,0.2,0.8,0.5,1.1,1h0.1l0.2-1.1h2v12.6h-2.4v-3.7c0-0.3,0-0.8,0.1-1.3h-0.1c-0.3,0.4-0.6,0.7-1,1
		S128.8,51.5,128.2,51.5z M129.1,49.6c0.6,0,1.1-0.2,1.3-0.5c0.3-0.3,0.4-1,0.5-1.8V47c0-0.9-0.1-1.6-0.4-2s-0.8-0.6-1.4-0.6
		c-1.1,0-1.7,0.9-1.7,2.6c0,0.9,0.1,1.5,0.4,2C128.1,49.4,128.5,49.6,129.1,49.6z"/>
	<path class="st42" d="M141.8,51.3l-0.3-1.1h-0.1c-0.3,0.4-0.6,0.7-1.1,0.9s-1,0.3-1.6,0.3c-1,0-1.8-0.3-2.3-0.8s-0.8-1.3-0.8-2.4
		v-5.7h2.4v5.1c0,0.6,0.1,1.1,0.3,1.4c0.2,0.3,0.6,0.5,1.1,0.5c0.7,0,1.1-0.2,1.4-0.7s0.4-1.2,0.4-2.2v-4.1h2.4v8.7L141.8,51.3
		L141.8,51.3z"/>
	<path class="st42" d="M151.7,51.3l-0.5-1.2h-0.1c-0.4,0.5-0.8,0.9-1.2,1c-0.4,0.2-1,0.3-1.7,0.3c-0.8,0-1.5-0.2-2-0.7
		s-0.7-1.2-0.7-2c0-0.9,0.3-1.6,1-2s1.6-0.7,2.9-0.7l1.5,0v-0.4c0-0.9-0.4-1.3-1.4-1.3c-0.7,0-1.5,0.2-2.5,0.6l-0.8-1.6
		c1-0.5,2.1-0.8,3.3-0.8c1.2,0,2.1,0.3,2.7,0.8c0.6,0.5,0.9,1.3,0.9,2.3v5.8H151.7z M151,47.3l-0.9,0c-0.7,0-1.2,0.2-1.6,0.4
		s-0.5,0.6-0.5,1c0,0.7,0.4,1,1.2,1c0.6,0,1-0.2,1.3-0.5s0.5-0.7,0.5-1.3L151,47.3L151,47.3z"/>
	<path class="st42" d="M158.2,51.3h-2.4V39.2h2.4V51.3z"/>
	<path class="st42" d="M160.6,40.3c0-0.8,0.4-1.2,1.3-1.2s1.3,0.4,1.3,1.2c0,0.4-0.1,0.7-0.3,0.9c-0.2,0.2-0.5,0.3-1,0.3
		C161,41.5,160.6,41.1,160.6,40.3z M163.1,51.3h-2.4v-8.7h2.4V51.3z"/>
	<path class="st42" d="M170.4,44.4h-2.1v7h-2.4v-7h-1.3v-1.2l1.3-0.6V42c0-1,0.2-1.7,0.7-2.2c0.5-0.5,1.3-0.7,2.4-0.7
		c0.8,0,1.6,0.1,2.2,0.4l-0.6,1.8c-0.5-0.2-0.9-0.2-1.3-0.2c-0.3,0-0.6,0.1-0.7,0.3s-0.2,0.5-0.2,0.8v0.5h2.1V44.4z M171.6,40.3
		c0-0.8,0.4-1.2,1.3-1.2s1.3,0.4,1.3,1.2c0,0.4-0.1,0.7-0.3,0.9c-0.2,0.2-0.5,0.3-1,0.3C172.1,41.5,171.6,41.1,171.6,40.3z
		 M174.1,51.3h-2.4v-8.7h2.4V51.3z"/>
	<path class="st42" d="M180.6,51.5c-1.4,0-2.5-0.4-3.3-1.2c-0.8-0.8-1.2-1.9-1.2-3.3c0-1.5,0.4-2.6,1.1-3.4c0.7-0.8,1.7-1.2,3-1.2
		c1.2,0,2.2,0.3,2.9,1s1,1.7,1,2.9v1.2h-5.6c0,0.7,0.2,1.2,0.6,1.6c0.4,0.4,0.9,0.6,1.6,0.6c0.5,0,1,0,1.5-0.2s1-0.3,1.5-0.5v1.8
		c-0.4,0.2-0.9,0.4-1.3,0.5C181.8,51.4,181.3,51.5,180.6,51.5z M180.2,44.1c-0.5,0-0.9,0.2-1.2,0.5c-0.3,0.3-0.4,0.8-0.5,1.4h3.3
		c0-0.6-0.2-1-0.5-1.4S180.8,44.1,180.2,44.1z"/>
	<path class="st42" d="M188.9,51.5c-1,0-1.8-0.4-2.4-1.2s-0.9-1.9-0.9-3.3c0-1.4,0.3-2.5,0.9-3.3c0.6-0.8,1.4-1.2,2.5-1.2
		c1.1,0,1.9,0.4,2.5,1.3h0.1c-0.1-0.7-0.2-1.2-0.2-1.7v-2.8h2.4v12.2h-1.8l-0.5-1.1h-0.1C190.8,51,190,51.5,188.9,51.5z M189.7,49.6
		c0.6,0,1.1-0.2,1.3-0.5s0.4-1,0.5-1.8V47c0-0.9-0.1-1.6-0.4-2s-0.8-0.6-1.4-0.6c-0.5,0-0.9,0.2-1.2,0.7c-0.3,0.5-0.4,1.1-0.4,2
		s0.1,1.5,0.4,1.9S189.1,49.6,189.7,49.6z"/>
	<path class="st42" d="M206.5,48.7c0,0.9-0.3,1.6-0.9,2s-1.6,0.7-2.8,0.7c-0.6,0-1.2,0-1.6-0.1s-0.9-0.2-1.3-0.4v-2
		c0.4,0.2,0.9,0.4,1.5,0.5s1,0.2,1.5,0.2c0.9,0,1.3-0.2,1.3-0.8c0-0.2-0.1-0.3-0.2-0.5s-0.3-0.2-0.6-0.4s-0.7-0.3-1.1-0.5
		c-0.7-0.3-1.2-0.5-1.5-0.8c-0.3-0.2-0.5-0.5-0.7-0.8c-0.1-0.3-0.2-0.7-0.2-1.1c0-0.8,0.3-1.4,0.9-1.8c0.6-0.4,1.4-0.6,2.6-0.6
		c1.1,0,2.1,0.2,3.1,0.7l-0.7,1.7c-0.4-0.2-0.9-0.3-1.2-0.5c-0.4-0.1-0.8-0.2-1.2-0.2c-0.7,0-1.1,0.2-1.1,0.6c0,0.2,0.1,0.4,0.3,0.5
		s0.7,0.4,1.5,0.7c0.7,0.3,1.2,0.5,1.5,0.8s0.6,0.5,0.7,0.8S206.5,48.3,206.5,48.7z"/>
	<path class="st42" d="M214.5,51.3l-0.3-1.1h-0.1c-0.2,0.4-0.6,0.7-1.1,0.9s-1,0.3-1.6,0.3c-1,0-1.8-0.3-2.3-0.8s-0.8-1.3-0.8-2.4
		v-5.7h2.4v5.1c0,0.6,0.1,1.1,0.3,1.4c0.2,0.3,0.6,0.5,1.1,0.5c0.7,0,1.1-0.2,1.4-0.7s0.4-1.2,0.4-2.2v-4.1h2.4v8.7L214.5,51.3
		L214.5,51.3z"/>
	<path class="st42" d="M223.6,51.5c-1,0-1.8-0.4-2.4-1.1h-0.1c0.1,0.7,0.1,1.2,0.1,1.3v3.5h-2.4V42.6h1.9l0.3,1.1h0.1
		c0.6-0.9,1.4-1.3,2.5-1.3c1,0,1.8,0.4,2.4,1.2s0.9,1.9,0.9,3.3c0,0.9-0.1,1.7-0.4,2.4s-0.7,1.2-1.2,1.6S224.3,51.5,223.6,51.5z
		 M222.9,44.3c-0.6,0-1,0.2-1.3,0.5c-0.3,0.4-0.4,1-0.4,1.8v0.3c0,0.9,0.1,1.6,0.4,2s0.7,0.6,1.3,0.6c1.1,0,1.6-0.9,1.6-2.6
		c0-0.9-0.1-1.5-0.4-1.9S223.5,44.3,222.9,44.3z"/>
	<path class="st42" d="M233.8,51.5c-1,0-1.8-0.4-2.4-1.1h-0.1c0.1,0.7,0.1,1.2,0.1,1.3v3.5H229V42.6h1.9l0.3,1.1h0.1
		c0.6-0.9,1.4-1.3,2.5-1.3c1,0,1.8,0.4,2.4,1.2s0.9,1.9,0.9,3.3c0,0.9-0.1,1.7-0.4,2.4s-0.7,1.2-1.2,1.6S234.4,51.5,233.8,51.5z
		 M233.1,44.3c-0.6,0-1,0.2-1.3,0.5c-0.3,0.4-0.4,1-0.4,1.8v0.3c0,0.9,0.1,1.6,0.4,2s0.7,0.6,1.3,0.6c1.1,0,1.6-0.9,1.6-2.6
		c0-0.9-0.1-1.5-0.4-1.9S233.6,44.3,233.1,44.3z"/>
	<path class="st42" d="M241.5,51.3h-2.4V39.2h2.4V51.3z"/>
	<path class="st42" d="M243.9,40.3c0-0.8,0.4-1.2,1.3-1.2s1.3,0.4,1.3,1.2c0,0.4-0.1,0.7-0.3,0.9c-0.2,0.2-0.5,0.3-1,0.3
		C244.3,41.5,243.9,41.1,243.9,40.3z M246.4,51.3H244v-8.7h2.4V51.3z"/>
	<path class="st42" d="M252.8,51.5c-1.4,0-2.5-0.4-3.3-1.2c-0.8-0.8-1.2-1.9-1.2-3.3c0-1.5,0.4-2.6,1.1-3.4c0.7-0.8,1.7-1.2,3-1.2
		c1.2,0,2.2,0.3,2.9,1s1,1.7,1,2.9v1.2h-5.6c0,0.7,0.2,1.2,0.6,1.6c0.4,0.4,0.9,0.6,1.6,0.6c0.5,0,1,0,1.5-0.2s1-0.3,1.5-0.5v1.8
		c-0.4,0.2-0.9,0.4-1.3,0.5S253.5,51.5,252.8,51.5z M252.5,44.1c-0.5,0-0.9,0.2-1.2,0.5s-0.4,0.8-0.5,1.4h3.3c0-0.6-0.2-1-0.5-1.4
		S253,44.1,252.5,44.1z"/>
	<path class="st42" d="M263.2,42.4c0.3,0,0.6,0,0.8,0.1l-0.2,2.2c-0.2,0-0.4-0.1-0.7-0.1c-0.8,0-1.4,0.2-1.8,0.6s-0.6,0.9-0.6,1.6
		v4.5h-2.4v-8.7h1.8l0.4,1.5h0.1c0.3-0.5,0.6-0.9,1.1-1.2C262.1,42.6,262.6,42.4,263.2,42.4z"/>
	<path class="st42" d="M271.7,48.7c0,0.9-0.3,1.6-0.9,2s-1.5,0.7-2.8,0.7c-0.6,0-1.2,0-1.6-0.1s-0.9-0.2-1.3-0.4v-2
		c0.4,0.2,0.9,0.4,1.5,0.5s1,0.2,1.5,0.2c0.9,0,1.3-0.2,1.3-0.8c0-0.2-0.1-0.3-0.2-0.5s-0.3-0.2-0.6-0.4s-0.7-0.3-1.1-0.5
		c-0.7-0.3-1.2-0.5-1.5-0.8c-0.3-0.2-0.5-0.5-0.7-0.8c-0.1-0.3-0.2-0.7-0.2-1.1c0-0.8,0.3-1.4,0.9-1.8s1.5-0.6,2.6-0.6
		c1,0,2.1,0.2,3.1,0.7l-0.7,1.7c-0.4-0.2-0.9-0.3-1.2-0.5s-0.8-0.2-1.2-0.2c-0.7,0-1,0.2-1,0.6c0,0.2,0.1,0.4,0.3,0.5
		s0.7,0.4,1.5,0.7c0.7,0.3,1.2,0.5,1.5,0.8s0.5,0.5,0.7,0.8S271.7,48.3,271.7,48.7z"/>
	<path class="st42" d="M52,70.5l-0.5-1.2h-0.1c-0.4,0.5-0.8,0.9-1.2,1.1c-0.4,0.2-1,0.3-1.7,0.3c-0.8,0-1.5-0.2-2-0.7
		s-0.7-1.2-0.7-2.1c0-0.9,0.3-1.6,1-2.1s1.6-0.7,2.9-0.7l1.5-0.1v-0.4c0-0.9-0.5-1.3-1.4-1.3c-0.7,0-1.5,0.2-2.5,0.6l-0.8-1.6
		c1-0.5,2.1-0.8,3.3-0.8c1.2,0,2.1,0.3,2.7,0.8c0.6,0.5,0.9,1.3,0.9,2.3v5.8H52z M51.2,66.5l-0.9,0c-0.7,0-1.2,0.2-1.5,0.4
		c-0.3,0.2-0.5,0.6-0.5,1.1c0,0.7,0.4,1,1.2,1c0.5,0,1-0.2,1.3-0.5c0.3-0.3,0.5-0.7,0.5-1.3C51.3,67.2,51.3,66.5,51.2,66.5z"/>
	<path class="st42" d="M61,61.6c0.3,0,0.6,0,0.8,0.1l-0.2,2.2c-0.2,0-0.4-0.1-0.7-0.1c-0.8,0-1.3,0.2-1.8,0.6
		c-0.4,0.4-0.6,0.9-0.6,1.6v4.4h-2.4v-8.7h1.8l0.3,1.5h0.1c0.3-0.5,0.6-0.9,1.1-1.2C59.9,61.8,60.4,61.6,61,61.6z"/>
	<path class="st42" d="M67.3,70.7c-1.4,0-2.5-0.4-3.3-1.2c-0.8-0.8-1.2-1.9-1.2-3.3c0-1.5,0.4-2.6,1.1-3.4c0.7-0.8,1.7-1.2,3-1.2
		c1.2,0,2.2,0.3,2.9,1s1,1.7,1,2.9v1.2h-5.6c0,0.7,0.2,1.2,0.6,1.6c0.4,0.4,0.9,0.6,1.6,0.6c0.5,0,1-0.1,1.5-0.2s1-0.3,1.5-0.5v1.8
		c-0.4,0.2-0.9,0.4-1.3,0.5C68.6,70.6,68,70.7,67.3,70.7z M66.9,63.3c-0.5,0-0.9,0.2-1.2,0.5c-0.3,0.3-0.4,0.8-0.5,1.4h3.3
		c0-0.6-0.2-1-0.5-1.4S67.5,63.3,66.9,63.3z"/>
	<path class="st42" d="M76.8,59.5c0-0.8,0.4-1.2,1.3-1.2c0.9,0,1.3,0.4,1.3,1.2c0,0.4-0.1,0.7-0.3,0.9c-0.2,0.2-0.5,0.3-1,0.3
		C77.3,60.7,76.8,60.3,76.8,59.5z M79.3,70.5H77v-8.7h2.4V70.5z"/>
	<path class="st42" d="M89.9,70.5h-2.4v-5.1c0-0.6-0.1-1.1-0.3-1.4c-0.2-0.3-0.6-0.5-1.1-0.5c-0.7,0-1.2,0.2-1.4,0.7
		s-0.4,1.2-0.4,2.2v4.1h-2.4v-8.7h1.8l0.3,1.1h0.1c0.3-0.4,0.6-0.7,1.1-1c0.5-0.2,1-0.3,1.6-0.3c1,0,1.8,0.3,2.3,0.8
		c0.5,0.5,0.8,1.3,0.8,2.4L89.9,70.5L89.9,70.5z"/>
	<path class="st42" d="M94.4,70.5l-3.3-8.7h2.5l1.7,5c0.2,0.6,0.3,1.2,0.3,1.8h0.1c0-0.5,0.1-1.1,0.3-1.8l1.7-5h2.5l-3.3,8.7H94.4z"
		/>
	<path class="st42" d="M101.3,59.5c0-0.8,0.4-1.2,1.3-1.2c0.9,0,1.3,0.4,1.3,1.2c0,0.4-0.1,0.7-0.3,0.9c-0.2,0.2-0.5,0.3-1,0.3
		C101.8,60.7,101.3,60.3,101.3,59.5z M103.8,70.5h-2.4v-8.7h2.4V70.5z"/>
	<path class="st42" d="M110,68.8c0.4,0,0.9-0.1,1.5-0.3v1.8c-0.6,0.3-1.3,0.4-2.2,0.4c-0.9,0-1.7-0.2-2.1-0.7
		c-0.4-0.5-0.7-1.2-0.7-2.2v-4.2h-1.1v-1l1.3-0.8l0.7-1.8h1.5v1.9h2.4v1.8H109v4.2c0,0.3,0.1,0.6,0.3,0.8
		C109.4,68.7,109.7,68.8,110,68.8z"/>
	<path class="st42" d="M117.2,70.7c-1.4,0-2.5-0.4-3.3-1.2c-0.8-0.8-1.2-1.9-1.2-3.3c0-1.5,0.4-2.6,1.1-3.4c0.7-0.8,1.7-1.2,3-1.2
		c1.2,0,2.2,0.3,2.9,1s1,1.7,1,2.9v1.2h-5.6c0,0.7,0.2,1.2,0.6,1.6c0.4,0.4,0.9,0.6,1.6,0.6c0.5,0,1-0.1,1.5-0.2s1-0.3,1.5-0.5v1.8
		c-0.4,0.2-0.9,0.4-1.3,0.5C118.5,70.6,117.9,70.7,117.2,70.7z M116.9,63.3c-0.5,0-0.9,0.2-1.2,0.5c-0.3,0.3-0.4,0.8-0.5,1.4h3.3
		c0-0.6-0.2-1-0.5-1.4S117.4,63.3,116.9,63.3z"/>
	<path class="st42" d="M125.5,70.7c-1,0-1.8-0.4-2.4-1.2s-0.9-1.9-0.9-3.3c0-1.4,0.3-2.5,0.9-3.3c0.6-0.8,1.4-1.2,2.5-1.2
		c1.1,0,1.9,0.4,2.5,1.3h0.1c-0.1-0.7-0.2-1.2-0.2-1.7v-2.8h2.4v12.2h-1.8l-0.5-1.1H128C127.4,70.2,126.6,70.7,125.5,70.7z
		 M126.3,68.8c0.6,0,1.1-0.2,1.3-0.5s0.4-1,0.5-1.8v-0.3c0-0.9-0.1-1.6-0.4-2s-0.8-0.6-1.4-0.6c-0.5,0-0.9,0.2-1.2,0.7
		c-0.3,0.4-0.4,1.1-0.4,2s0.2,1.5,0.4,1.9S125.8,68.8,126.3,68.8z"/>
	<path class="st42" d="M140.7,68.8c0.4,0,0.9-0.1,1.5-0.3v1.8c-0.6,0.3-1.3,0.4-2.2,0.4c-0.9,0-1.6-0.2-2.1-0.7
		c-0.4-0.5-0.6-1.2-0.6-2.2v-4.2h-1.1v-1l1.3-0.8l0.7-1.8h1.5v1.9h2.4v1.8h-2.4v4.2c0,0.3,0.1,0.6,0.3,0.8
		C140.1,68.7,140.4,68.8,140.7,68.8z"/>
	<path class="st42" d="M151.9,66.1c0,1.4-0.4,2.5-1.1,3.3c-0.8,0.8-1.8,1.2-3.1,1.2c-0.8,0-1.6-0.2-2.2-0.6s-1.1-0.9-1.5-1.6
		s-0.5-1.5-0.5-2.4c0-1.4,0.4-2.5,1.1-3.3c0.7-0.8,1.8-1.2,3.1-1.2c0.8,0,1.6,0.2,2.2,0.5c0.6,0.4,1.1,0.9,1.5,1.6
		C151.7,64.4,151.9,65.2,151.9,66.1z M145.9,66.1c0,0.9,0.1,1.5,0.4,2c0.3,0.4,0.8,0.7,1.4,0.7s1.1-0.2,1.4-0.7s0.4-1.1,0.4-2
		c0-0.9-0.1-1.5-0.4-1.9c-0.3-0.4-0.7-0.7-1.4-0.7s-1.1,0.2-1.4,0.6S145.9,65.3,145.9,66.1z"/>
	<path class="st42" d="M162.9,61.6c1,0,1.8,0.4,2.4,1.2s0.9,1.9,0.9,3.3c0,1.4-0.3,2.6-0.9,3.3c-0.6,0.8-1.4,1.2-2.5,1.2
		c-1,0-1.8-0.4-2.4-1.1h-0.2l-0.4,1H158V58.4h2.4v2.8c0,0.4,0,0.9-0.1,1.7h0.1C161,62.1,161.8,61.6,162.9,61.6z M162.1,63.5
		c-0.6,0-1,0.2-1.3,0.5c-0.3,0.4-0.4,1-0.4,1.8v0.3c0,0.9,0.1,1.6,0.4,2s0.7,0.6,1.3,0.6c0.5,0,0.9-0.2,1.2-0.7s0.4-1.1,0.4-2
		s-0.1-1.5-0.4-1.9S162.6,63.5,162.1,63.5z"/>
	<path class="st42" d="M168,59.5c0-0.8,0.4-1.2,1.3-1.2s1.3,0.4,1.3,1.2c0,0.4-0.1,0.7-0.3,0.9c-0.2,0.2-0.5,0.3-1,0.3
		C168.5,60.7,168,60.3,168,59.5z M170.5,70.5h-2.4v-8.7h2.4V70.5z"/>
	<path class="st42" d="M175.8,70.7c-1,0-1.8-0.4-2.4-1.2s-0.9-1.9-0.9-3.3c0-1.4,0.3-2.5,0.9-3.3c0.6-0.8,1.4-1.2,2.5-1.2
		c1.1,0,1.9,0.4,2.5,1.3h0.1c-0.1-0.7-0.2-1.2-0.2-1.7v-2.8h2.4v12.2h-1.8l-0.5-1.1h-0.1C177.7,70.2,176.9,70.7,175.8,70.7z
		 M176.6,68.8c0.6,0,1.1-0.2,1.3-0.5s0.4-1,0.5-1.8v-0.3c0-0.9-0.1-1.6-0.4-2c-0.3-0.4-0.8-0.6-1.4-0.6c-0.5,0-0.9,0.2-1.2,0.7
		c-0.3,0.4-0.4,1.1-0.4,2s0.1,1.5,0.4,1.9S176.1,68.8,176.6,68.8z"/>
	<path class="st42" d="M187.2,59.5c0-0.8,0.4-1.2,1.3-1.2s1.3,0.4,1.3,1.2c0,0.4-0.1,0.7-0.3,0.9c-0.2,0.2-0.5,0.3-1,0.3
		C187.6,60.7,187.2,60.3,187.2,59.5z M189.7,70.5h-2.4v-8.7h2.4V70.5z"/>
	<path class="st42" d="M200.2,70.5h-2.4v-5.1c0-0.6-0.1-1.1-0.3-1.4c-0.2-0.3-0.6-0.5-1.1-0.5c-0.7,0-1.1,0.2-1.4,0.7
		s-0.4,1.2-0.4,2.2v4.1h-2.4v-8.7h1.8l0.3,1.1h0.1c0.3-0.4,0.6-0.7,1.1-1c0.5-0.2,1-0.3,1.6-0.3c1,0,1.8,0.3,2.3,0.8
		c0.5,0.5,0.8,1.3,0.8,2.4L200.2,70.5L200.2,70.5z"/>
	<path class="st42" d="M207.1,70.5V59.1h2.4v9.4h4.6v2H207.1z"/>
	<path class="st42" d="M222.1,70.5l-0.3-1.1h-0.1c-0.2,0.4-0.6,0.7-1.1,0.9s-1,0.3-1.6,0.3c-1,0-1.8-0.3-2.3-0.8s-0.8-1.3-0.8-2.4
		v-5.7h2.4v5.1c0,0.6,0.1,1.1,0.3,1.4c0.2,0.3,0.6,0.5,1.1,0.5c0.7,0,1.1-0.2,1.4-0.7s0.4-1.2,0.4-2.2v-4.1h2.4v8.7L222.1,70.5
		L222.1,70.5z"/>
	<path class="st42" d="M230.4,70.7c-1.4,0-2.5-0.4-3.3-1.2c-0.8-0.8-1.2-1.9-1.2-3.3c0-1.5,0.4-2.6,1.1-3.4c0.7-0.8,1.7-1.2,3-1.2
		c1.2,0,2.2,0.3,2.9,1s1,1.7,1,2.9v1.2h-5.6c0,0.7,0.2,1.2,0.6,1.6c0.4,0.4,0.9,0.6,1.6,0.6c0.5,0,1-0.1,1.5-0.2s1-0.3,1.5-0.5v1.8
		c-0.4,0.2-0.9,0.4-1.3,0.5S231.1,70.7,230.4,70.7z M230,63.3c-0.5,0-0.9,0.2-1.2,0.5c-0.3,0.3-0.4,0.8-0.5,1.4h3.3
		c0-0.6-0.2-1-0.5-1.4S230.5,63.3,230,63.3z"/>
	<path class="st42" d="M240.7,63.6h-2.1v6.9h-2.4v-7h-1.3v-1.2l1.3-0.6v-0.6c0-1,0.2-1.7,0.7-2.2c0.5-0.5,1.3-0.7,2.4-0.7
		c0.8,0,1.6,0.1,2.2,0.4l-0.6,1.8c-0.5-0.2-0.9-0.2-1.3-0.2c-0.3,0-0.6,0.1-0.7,0.3s-0.2,0.5-0.2,0.8v0.5h2.1V63.6z"/>
	<path class="st42" d="M245.7,68.8c0.4,0,0.9-0.1,1.5-0.3v1.8c-0.6,0.3-1.3,0.4-2.2,0.4c-0.9,0-1.6-0.2-2.1-0.7
		c-0.4-0.5-0.6-1.2-0.6-2.2v-4.2h-1.1v-1l1.3-0.8l0.7-1.8h1.5v1.9h2.4v1.8h-2.4v4.2c0,0.3,0.1,0.6,0.3,0.8
		C245.2,68.7,245.4,68.8,245.7,68.8z"/>
	<path class="st42" d="M247.8,61.8h2.6l1.6,4.9c0.1,0.4,0.2,0.9,0.3,1.5h0.1c0.1-0.5,0.2-1,0.3-1.5l1.6-4.9h2.5l-3.7,9.9
		c-0.3,0.9-0.8,1.6-1.4,2.1s-1.4,0.7-2.2,0.7c-0.4,0-0.8,0-1.2-0.1v-1.9c0.3,0.1,0.6,0.1,0.9,0.1c0.4,0,0.8-0.1,1.1-0.4
		s0.6-0.7,0.7-1.2l0.1-0.4L247.8,61.8z"/>
	<path class="st42" d="M54.8,89.7l-0.5-1.2h-0.1c-0.4,0.5-0.8,0.9-1.2,1.1c-0.4,0.2-1,0.3-1.7,0.3c-0.8,0-1.5-0.2-2-0.7
		s-0.7-1.2-0.7-2.1c0-0.9,0.3-1.6,1-2.1s1.6-0.7,2.9-0.7l1.5-0.1v-0.4c0-0.9-0.5-1.3-1.4-1.3c-0.7,0-1.5,0.2-2.5,0.6l-0.8-1.6
		c1-0.5,2.1-0.8,3.3-0.8c1.2,0,2.1,0.3,2.7,0.8c0.6,0.5,0.9,1.3,0.9,2.3v5.8C56.5,89.7,54.8,89.7,54.8,89.7z M54.1,85.7l-0.9,0
		c-0.7,0-1.2,0.2-1.5,0.4c-0.3,0.2-0.5,0.6-0.5,1.1c0,0.7,0.4,1,1.2,1c0.5,0,1-0.2,1.3-0.5c0.3-0.3,0.5-0.7,0.5-1.3
		C54.1,86.4,54.1,85.7,54.1,85.7z"/>
	<path class="st42" d="M65.1,89.7l-0.3-1.1h-0.1c-0.3,0.4-0.6,0.7-1.1,0.9s-1,0.3-1.6,0.3c-1,0-1.8-0.3-2.3-0.8s-0.8-1.3-0.8-2.4V81
		h2.4v5.1c0,0.6,0.1,1.1,0.3,1.4c0.2,0.3,0.6,0.5,1.1,0.5c0.7,0,1.2-0.2,1.5-0.7c0.3-0.4,0.4-1.2,0.4-2.2V81H67v8.7L65.1,89.7
		L65.1,89.7z"/>
	<path class="st42" d="M73,89.9c-2.7,0-4.1-1.5-4.1-4.5c0-1.5,0.4-2.6,1.1-3.4s1.8-1.2,3.2-1.2c1,0,1.9,0.2,2.7,0.6l-0.7,1.8
		c-0.4-0.2-0.7-0.3-1.1-0.4c-0.3-0.1-0.7-0.1-1-0.1c-1.2,0-1.9,0.9-1.9,2.6c0,1.7,0.6,2.6,1.9,2.6c0.5,0,0.9-0.1,1.3-0.2
		s0.8-0.3,1.2-0.6v2c-0.4,0.2-0.8,0.4-1.2,0.5C74.1,89.8,73.6,89.9,73,89.9z"/>
	<path class="st42" d="M81.4,88c0.4,0,0.9-0.1,1.5-0.3v1.8c-0.6,0.3-1.3,0.4-2.2,0.4c-0.9,0-1.7-0.2-2.1-0.7C78.2,88.7,78,88,78,87
		v-4.2h-1.1v-1l1.3-0.8l0.7-1.8h1.5V81h2.4v1.8h-2.4V87c0,0.3,0.1,0.6,0.3,0.8C80.8,87.9,81.1,88,81.4,88z"/>
	<path class="st42" d="M84.5,78.7c0-0.8,0.4-1.2,1.3-1.2c0.9,0,1.3,0.4,1.3,1.2c0,0.4-0.1,0.7-0.3,0.9c-0.2,0.2-0.5,0.3-1,0.3
		C85,79.9,84.5,79.5,84.5,78.7z M87,89.7h-2.4V81H87V89.7z"/>
	<path class="st42" d="M97.5,85.3c0,1.4-0.4,2.5-1.1,3.3c-0.8,0.8-1.8,1.2-3.1,1.2c-0.8,0-1.6-0.2-2.2-0.6s-1.1-0.9-1.5-1.6
		S89,86.3,89,85.3c0-1.4,0.4-2.5,1.1-3.3c0.7-0.8,1.8-1.2,3.1-1.2c0.8,0,1.6,0.2,2.2,0.6c0.6,0.4,1.1,0.9,1.5,1.6
		C97.3,83.6,97.5,84.4,97.5,85.3z M91.4,85.3c0,0.9,0.1,1.5,0.4,2c0.3,0.4,0.8,0.7,1.4,0.7s1.1-0.2,1.4-0.7c0.3-0.4,0.4-1.1,0.4-2
		c0-0.9-0.1-1.5-0.4-1.9c-0.3-0.4-0.7-0.7-1.4-0.7s-1.1,0.2-1.4,0.6S91.4,84.5,91.4,85.3z"/>
	<path class="st42" d="M107.5,89.7h-2.4v-5.1c0-0.6-0.1-1.1-0.3-1.4c-0.2-0.3-0.6-0.5-1.1-0.5c-0.7,0-1.2,0.2-1.4,0.7
		s-0.4,1.2-0.4,2.2v4.1h-2.4V81h1.8l0.3,1.1h0.1c0.3-0.4,0.6-0.7,1.1-1s1-0.3,1.6-0.3c1,0,1.8,0.3,2.3,0.8c0.5,0.6,0.8,1.3,0.8,2.4
		L107.5,89.7L107.5,89.7z"/>
	<path class="st42" d="M116,87.1c0,0.9-0.3,1.6-0.9,2.1s-1.6,0.7-2.8,0.7c-0.6,0-1.2,0-1.6-0.1c-0.4-0.1-0.9-0.2-1.3-0.4v-2
		c0.4,0.2,0.9,0.4,1.5,0.5s1,0.2,1.5,0.2c0.9,0,1.3-0.2,1.3-0.8c0-0.2-0.1-0.3-0.2-0.5s-0.3-0.2-0.6-0.4s-0.7-0.3-1.1-0.5
		c-0.7-0.3-1.2-0.5-1.5-0.8c-0.3-0.2-0.5-0.5-0.7-0.8c-0.1-0.3-0.2-0.7-0.2-1.1c0-0.8,0.3-1.4,0.9-1.8c0.6-0.4,1.4-0.6,2.6-0.6
		c1.1,0,2.1,0.2,3.1,0.7l-0.7,1.7c-0.4-0.2-0.8-0.3-1.2-0.5c-0.4-0.1-0.8-0.2-1.2-0.2c-0.7,0-1.1,0.2-1.1,0.6c0,0.2,0.1,0.4,0.3,0.6
		s0.7,0.4,1.5,0.7c0.7,0.3,1.2,0.5,1.5,0.8s0.6,0.5,0.7,0.8C116,86.3,116,86.7,116,87.1z"/>
	<path class="st42" d="M126.9,82.8h-2.1v6.9h-2.4v-6.9h-1.3v-1.2l1.3-0.6v-0.6c0-1,0.2-1.7,0.7-2.2c0.5-0.5,1.3-0.7,2.3-0.7
		c0.8,0,1.6,0.1,2.2,0.4l-0.6,1.8c-0.5-0.2-0.9-0.2-1.3-0.2c-0.3,0-0.6,0.1-0.7,0.3c-0.2,0.2-0.2,0.5-0.2,0.8V81h2.1
		C126.9,81,126.9,82.8,126.9,82.8z"/>
	<path class="st42" d="M136.2,85.3c0,1.4-0.4,2.5-1.1,3.3c-0.8,0.8-1.8,1.2-3.1,1.2c-0.8,0-1.6-0.2-2.2-0.6s-1.1-0.9-1.5-1.6
		s-0.5-1.5-0.5-2.4c0-1.4,0.4-2.5,1.1-3.3c0.7-0.8,1.8-1.2,3.1-1.2c0.8,0,1.6,0.2,2.2,0.6c0.6,0.4,1.1,0.9,1.5,1.6
		C136,83.6,136.2,84.4,136.2,85.3z M130.1,85.3c0,0.9,0.1,1.5,0.4,2c0.3,0.4,0.8,0.7,1.4,0.7s1.1-0.2,1.4-0.7s0.4-1.1,0.4-2
		c0-0.9-0.1-1.5-0.4-1.9c-0.3-0.4-0.7-0.7-1.4-0.7s-1.1,0.2-1.4,0.6S130.1,84.5,130.1,85.3z"/>
	<path class="st42" d="M143,80.8c0.3,0,0.6,0,0.8,0.1l-0.2,2.2c-0.2-0.1-0.4-0.1-0.7-0.1c-0.8,0-1.4,0.2-1.8,0.6
		c-0.4,0.4-0.6,0.9-0.6,1.6v4.4h-2.4V81h1.8l0.4,1.5h0.1c0.3-0.5,0.6-0.9,1.1-1.2C142,81,142.5,80.8,143,80.8z"/>
	<path class="st42" d="M148.3,81h2.6l1.6,4.9c0.1,0.4,0.2,0.9,0.3,1.5h0.1c0.1-0.5,0.2-1,0.3-1.5l1.6-4.9h2.6l-3.7,9.8
		c-0.3,0.9-0.8,1.6-1.4,2.1s-1.4,0.7-2.2,0.7c-0.4,0-0.8,0-1.2-0.1v-1.9c0.3,0.1,0.6,0.1,0.9,0.1c0.4,0,0.8-0.1,1.1-0.4
		c0.3-0.3,0.6-0.7,0.7-1.2l0.1-0.4L148.3,81z"/>
	<path class="st42" d="M166.6,85.3c0,1.4-0.4,2.5-1.1,3.3c-0.8,0.8-1.8,1.2-3.1,1.2c-0.8,0-1.6-0.2-2.2-0.6s-1.1-0.9-1.5-1.6
		s-0.5-1.5-0.5-2.4c0-1.4,0.4-2.5,1.1-3.3s1.8-1.2,3.1-1.2c0.8,0,1.6,0.2,2.2,0.6c0.6,0.4,1.1,0.9,1.5,1.6
		C166.4,83.6,166.6,84.4,166.6,85.3z M160.6,85.3c0,0.9,0.1,1.5,0.4,2c0.3,0.4,0.8,0.7,1.4,0.7s1.1-0.2,1.4-0.7s0.4-1.1,0.4-2
		c0-0.9-0.1-1.5-0.4-1.9c-0.3-0.4-0.7-0.7-1.4-0.7s-1.1,0.2-1.4,0.6S160.6,84.5,160.6,85.3z"/>
	<path class="st42" d="M174.8,89.7l-0.3-1.1h-0.1c-0.2,0.4-0.6,0.7-1.1,0.9s-1,0.3-1.6,0.3c-1,0-1.8-0.3-2.3-0.8s-0.8-1.3-0.8-2.4
		V81h2.4v5.1c0,0.6,0.1,1.1,0.3,1.4c0.2,0.3,0.6,0.5,1.1,0.5c0.7,0,1.1-0.2,1.4-0.7s0.4-1.2,0.4-2.2V81h2.4v8.7L174.8,89.7
		L174.8,89.7z"/>
	<path class="st42" d="M184,80.8c0.3,0,0.6,0,0.8,0.1l-0.2,2.2c-0.2-0.1-0.4-0.1-0.7-0.1c-0.8,0-1.4,0.2-1.8,0.6s-0.6,0.9-0.6,1.6
		v4.4h-2.4V81h1.8l0.4,1.5h0.1c0.3-0.5,0.6-0.9,1.1-1.2C182.9,81,183.4,80.8,184,80.8z"/>
	<path class="st42" d="M195.4,80.8c1,0,1.8,0.4,2.4,1.2s0.9,1.9,0.9,3.3c0,1.4-0.3,2.6-0.9,3.3c-0.6,0.8-1.4,1.2-2.5,1.2
		c-1,0-1.8-0.4-2.4-1.1h-0.2l-0.4,1h-1.8V77.6h2.4v2.8c0,0.4,0,0.9-0.1,1.7h0.1C193.5,81.3,194.3,80.8,195.4,80.8z M194.6,82.7
		c-0.6,0-1,0.2-1.3,0.5c-0.3,0.4-0.4,1-0.4,1.8v0.3c0,0.9,0.1,1.6,0.4,2s0.7,0.6,1.3,0.6c0.5,0,0.9-0.2,1.2-0.7s0.4-1.1,0.4-2
		s-0.1-1.5-0.4-1.9S195.1,82.7,194.6,82.7z"/>
	<path class="st42" d="M208.6,85.3c0,1.4-0.4,2.5-1.1,3.3c-0.8,0.8-1.8,1.2-3.1,1.2c-0.8,0-1.6-0.2-2.2-0.6s-1.1-0.9-1.5-1.6
		s-0.5-1.5-0.5-2.4c0-1.4,0.4-2.5,1.1-3.3s1.8-1.2,3.1-1.2c0.8,0,1.6,0.2,2.2,0.6c0.6,0.4,1.1,0.9,1.5,1.6
		C208.4,83.6,208.6,84.4,208.6,85.3z M202.6,85.3c0,0.9,0.1,1.5,0.4,2c0.3,0.4,0.8,0.7,1.4,0.7s1.1-0.2,1.4-0.7s0.4-1.1,0.4-2
		c0-0.9-0.1-1.5-0.4-1.9c-0.3-0.4-0.7-0.7-1.4-0.7s-1.1,0.2-1.4,0.6S202.6,84.5,202.6,85.3z"/>
	<path class="st42" d="M218.5,85.3c0,1.4-0.4,2.5-1.1,3.3c-0.8,0.8-1.8,1.2-3.1,1.2c-0.8,0-1.6-0.2-2.2-0.6s-1.1-0.9-1.5-1.6
		s-0.5-1.5-0.5-2.4c0-1.4,0.4-2.5,1.1-3.3s1.8-1.2,3.1-1.2c0.8,0,1.6,0.2,2.2,0.6c0.6,0.4,1.1,0.9,1.5,1.6
		C218.3,83.6,218.5,84.4,218.5,85.3z M212.5,85.3c0,0.9,0.1,1.5,0.4,2c0.3,0.4,0.8,0.7,1.4,0.7s1.1-0.2,1.4-0.7s0.4-1.1,0.4-2
		c0-0.9-0.1-1.5-0.4-1.9c-0.3-0.4-0.7-0.7-1.4-0.7s-1.1,0.2-1.4,0.6S212.5,84.5,212.5,85.3z"/>
	<path class="st42" d="M222.8,85l1-1.3l2.4-2.7h2.7l-3.5,3.8l3.7,4.9h-2.8l-2.5-3.5l-1,0.8v2.7h-2.4V77.6h2.4V83L222.8,85L222.8,85z
		"/>
	<path class="st42" d="M230.3,78.7c0-0.8,0.4-1.2,1.3-1.2s1.3,0.4,1.3,1.2c0,0.4-0.1,0.7-0.3,0.9c-0.2,0.2-0.5,0.3-1,0.3
		C230.7,79.9,230.3,79.5,230.3,78.7z M232.8,89.7h-2.4V81h2.4V89.7z"/>
	<path class="st42" d="M243.3,89.7h-2.4v-5.1c0-0.6-0.1-1.1-0.3-1.4c-0.2-0.3-0.6-0.5-1.1-0.5c-0.7,0-1.1,0.2-1.4,0.7
		s-0.4,1.2-0.4,2.2v4.1h-2.4V81h1.8l0.3,1.1h0.1c0.3-0.4,0.6-0.7,1.1-1s1-0.3,1.6-0.3c1,0,1.8,0.3,2.3,0.8c0.5,0.6,0.8,1.3,0.8,2.4
		L243.3,89.7L243.3,89.7z"/>
	<path class="st42" d="M253.4,81v1.2l-1.4,0.3c0.2,0.4,0.4,0.8,0.4,1.3c0,0.9-0.3,1.7-1,2.2s-1.6,0.8-2.7,0.8l-0.4,0l-0.4,0
		c-0.2,0.2-0.4,0.4-0.4,0.6c0,0.3,0.4,0.5,1.3,0.5h1.5c1,0,1.7,0.2,2.2,0.6s0.8,1,0.8,1.8c0,1-0.4,1.8-1.3,2.4s-2.1,0.8-3.7,0.8
		c-1.2,0-2.1-0.2-2.8-0.6c-0.6-0.4-1-1-1-1.8c0-0.5,0.2-1,0.5-1.3s0.8-0.6,1.4-0.8c-0.2-0.1-0.5-0.3-0.6-0.5
		c-0.2-0.2-0.3-0.5-0.3-0.8c0-0.3,0.1-0.6,0.3-0.8c0.2-0.2,0.5-0.4,0.8-0.7c-0.5-0.2-0.8-0.5-1.1-0.9s-0.4-0.9-0.4-1.6
		c0-0.9,0.3-1.7,0.9-2.2s1.5-0.8,2.7-0.8c0.2,0,0.5,0,0.9,0.1c0.3,0,0.6,0.1,0.6,0.1L253.4,81L253.4,81z M246.6,91
		c0,0.3,0.2,0.6,0.5,0.8s0.8,0.3,1.3,0.3c0.9,0,1.5-0.1,2-0.3s0.7-0.6,0.7-1c0-0.3-0.1-0.6-0.4-0.7s-0.7-0.2-1.3-0.2h-1.2
		c-0.4,0-0.8,0.1-1.1,0.3C246.8,90.3,246.6,90.6,246.6,91z M247.5,83.8c0,0.5,0.1,0.8,0.3,1.1c0.2,0.3,0.6,0.4,1,0.4
		c0.4,0,0.8-0.1,1-0.4c0.2-0.3,0.3-0.7,0.3-1.1c0-1.1-0.4-1.6-1.3-1.6C247.9,82.3,247.5,82.8,247.5,83.8z"/>
	<path class="st42" d="M254.5,88.6c0-0.4,0.1-0.8,0.4-1c0.2-0.2,0.6-0.3,1-0.3c0.4,0,0.8,0.1,1,0.3c0.2,0.2,0.4,0.6,0.4,1
		c0,0.4-0.1,0.7-0.4,1s-0.6,0.4-1,0.4c-0.4,0-0.8-0.1-1-0.3S254.5,89,254.5,88.6z"/>
</g>
<g>
	<path d="M46,35.1h1v7.2h3.5v0.9H46V35.1z"/>
	<path d="M56.3,41.6c0,0.6,0,1.1,0,1.6h-0.9l-0.1-0.9h0c-0.3,0.5-0.9,1.1-1.9,1.1c-0.9,0-2-0.5-2-2.5v-3.4h1.1v3.2
		c0,1.1,0.3,1.8,1.3,1.8c0.7,0,1.2-0.5,1.4-1c0.1-0.2,0.1-0.3,0.1-0.5v-3.6h1.1V41.6z"/>
	<path d="M58.7,40.5c0,1.4,0.9,2,2,2c0.8,0,1.2-0.1,1.6-0.3l0.2,0.8c-0.4,0.2-1,0.4-1.9,0.4c-1.8,0-2.9-1.2-2.9-2.9s1-3.1,2.7-3.1
		c1.9,0,2.4,1.7,2.4,2.7c0,0.2,0,0.4,0,0.5H58.7z M61.8,39.7c0-0.7-0.3-1.7-1.5-1.7c-1.1,0-1.5,1-1.6,1.7H61.8z"/>
	<path d="M64.2,43.2v-5h-0.8v-0.8h0.8v-0.3c0-0.8,0.2-1.6,0.7-2c0.4-0.4,0.9-0.5,1.4-0.5c0.4,0,0.7,0.1,0.9,0.2l-0.1,0.8
		c-0.2-0.1-0.4-0.1-0.7-0.1c-0.9,0-1.1,0.8-1.1,1.7v0.3h1.4v0.8h-1.4v5H64.2z"/>
	<path d="M69,35.7v1.7h1.5v0.8H69v3.1c0,0.7,0.2,1.1,0.8,1.1c0.3,0,0.5,0,0.6-0.1l0,0.8c-0.2,0.1-0.5,0.1-0.9,0.1
		c-0.5,0-0.9-0.2-1.1-0.4C68.1,42.5,68,42,68,41.3v-3.2h-0.9v-0.8H68V36L69,35.7z"/>
	<path d="M72.2,37.4l1.3,3.4c0.1,0.4,0.3,0.8,0.4,1.2h0c0.1-0.3,0.2-0.8,0.4-1.2l1.2-3.4h1.1l-1.6,4.1c-0.8,2-1.3,3-2,3.6
		c-0.5,0.5-1,0.6-1.3,0.7l-0.3-0.9c0.3-0.1,0.6-0.3,0.9-0.5c0.3-0.2,0.6-0.6,0.9-1.2c0-0.1,0.1-0.2,0.1-0.3c0-0.1,0-0.1-0.1-0.3
		l-2.1-5.3H72.2z"/>
	<path d="M84.2,43c-0.3,0.1-0.9,0.3-1.7,0.3c-1.8,0-2.9-1.2-2.9-3c0-1.8,1.2-3.1,3.1-3.1c0.6,0,1.2,0.2,1.5,0.3l-0.2,0.8
		c-0.3-0.1-0.6-0.3-1.2-0.3c-1.3,0-2.1,1-2.1,2.2c0,1.3,0.9,2.2,2,2.2c0.6,0,1-0.2,1.3-0.3L84.2,43z"/>
	<path d="M90.6,40.2c0,2.1-1.5,3.1-2.9,3.1c-1.6,0-2.8-1.2-2.8-3c0-1.9,1.3-3.1,2.9-3.1C89.5,37.2,90.6,38.4,90.6,40.2z M86,40.3
		c0,1.3,0.7,2.2,1.8,2.2c1,0,1.8-0.9,1.8-2.3c0-1-0.5-2.2-1.7-2.2C86.5,38,86,39.2,86,40.3z"/>
	<path d="M91.9,38.9c0-0.6,0-1.1,0-1.6h0.9l0.1,1h0c0.3-0.6,1-1.1,1.9-1.1c0.8,0,2.1,0.5,2.1,2.5v3.5h-1.1v-3.3
		c0-0.9-0.3-1.7-1.3-1.7c-0.7,0-1.2,0.5-1.4,1.1c0,0.1-0.1,0.3-0.1,0.5v3.5h-1.1V38.9z"/>
	<path d="M98.6,38.9c0-0.6,0-1.1,0-1.6h0.9l0.1,1h0c0.3-0.6,1-1.1,1.9-1.1c0.8,0,2.1,0.5,2.1,2.5v3.5h-1.1v-3.3
		c0-0.9-0.3-1.7-1.3-1.7c-0.7,0-1.2,0.5-1.4,1.1c0,0.1-0.1,0.3-0.1,0.5v3.5h-1.1V38.9z"/>
	<path d="M105.8,40.5c0,1.4,0.9,2,2,2c0.8,0,1.2-0.1,1.6-0.3l0.2,0.8c-0.4,0.2-1,0.4-1.9,0.4c-1.8,0-2.9-1.2-2.9-2.9s1-3.1,2.7-3.1
		c1.9,0,2.4,1.7,2.4,2.7c0,0.2,0,0.4,0,0.5H105.8z M108.9,39.7c0-0.7-0.3-1.7-1.5-1.7c-1.1,0-1.5,1-1.6,1.7H108.9z"/>
	<path d="M115.4,43c-0.3,0.1-0.9,0.3-1.7,0.3c-1.8,0-2.9-1.2-2.9-3c0-1.8,1.2-3.1,3.1-3.1c0.6,0,1.2,0.2,1.5,0.3l-0.2,0.8
		c-0.3-0.1-0.6-0.3-1.2-0.3c-1.3,0-2.1,1-2.1,2.2c0,1.3,0.9,2.2,2,2.2c0.6,0,1-0.2,1.3-0.3L115.4,43z"/>
	<path d="M118.1,35.7v1.7h1.5v0.8h-1.5v3.1c0,0.7,0.2,1.1,0.8,1.1c0.3,0,0.5,0,0.6-0.1l0,0.8c-0.2,0.1-0.5,0.1-0.9,0.1
		c-0.5,0-0.9-0.2-1.1-0.4c-0.3-0.3-0.4-0.8-0.4-1.5v-3.2h-0.9v-0.8h0.9V36L118.1,35.7z"/>
	<path d="M120.6,42.1c0.3,0.2,0.9,0.4,1.4,0.4c0.8,0,1.1-0.4,1.1-0.9c0-0.5-0.3-0.8-1.1-1.1c-1-0.4-1.5-0.9-1.5-1.6
		c0-0.9,0.8-1.7,2-1.7c0.6,0,1.1,0.2,1.4,0.4l-0.3,0.8c-0.2-0.1-0.6-0.3-1.2-0.3c-0.6,0-1,0.4-1,0.8c0,0.5,0.3,0.7,1.1,1
		c1,0.4,1.5,0.9,1.5,1.8c0,1-0.8,1.7-2.2,1.7c-0.6,0-1.2-0.2-1.6-0.4L120.6,42.1z"/>
	<path d="M128.4,37.4l1.3,3.4c0.1,0.4,0.3,0.8,0.4,1.2h0c0.1-0.3,0.2-0.8,0.4-1.2l1.2-3.4h1.1l-1.6,4.1c-0.8,2-1.3,3-2,3.6
		c-0.5,0.5-1,0.6-1.3,0.7l-0.3-0.9c0.3-0.1,0.6-0.3,0.9-0.5c0.3-0.2,0.6-0.6,0.9-1.2c0-0.1,0.1-0.2,0.1-0.3c0-0.1,0-0.1-0.1-0.3
		l-2.1-5.3H128.4z"/>
	<path d="M138.8,40.2c0,2.1-1.5,3.1-2.9,3.1c-1.6,0-2.8-1.2-2.8-3c0-1.9,1.3-3.1,2.9-3.1C137.7,37.2,138.8,38.4,138.8,40.2z
		 M134.2,40.3c0,1.3,0.7,2.2,1.8,2.2c1,0,1.8-0.9,1.8-2.3c0-1-0.5-2.2-1.7-2.2C134.8,38,134.2,39.2,134.2,40.3z"/>
	<path d="M145,41.6c0,0.6,0,1.1,0,1.6h-0.9l-0.1-0.9h0c-0.3,0.5-0.9,1.1-1.9,1.1c-0.9,0-2-0.5-2-2.5v-3.4h1.1v3.2
		c0,1.1,0.3,1.8,1.3,1.8c0.7,0,1.2-0.5,1.4-1c0.1-0.2,0.1-0.3,0.1-0.5v-3.6h1.1V41.6z"/>
	<path d="M154.3,34.7v7c0,0.5,0,1.1,0,1.5h-0.9l0-1h0c-0.3,0.6-1,1.1-2,1.1c-1.4,0-2.5-1.2-2.5-3c0-1.9,1.2-3.1,2.6-3.1
		c0.9,0,1.5,0.4,1.8,0.9h0v-3.5H154.3z M153.3,39.7c0-0.1,0-0.3,0-0.4c-0.2-0.7-0.7-1.2-1.5-1.2c-1.1,0-1.7,1-1.7,2.2
		c0,1.2,0.6,2.1,1.7,2.1c0.7,0,1.4-0.5,1.5-1.3c0-0.1,0-0.3,0-0.5V39.7z"/>
	<path d="M157.3,35.7c0,0.4-0.3,0.6-0.7,0.6c-0.4,0-0.6-0.3-0.6-0.6c0-0.4,0.3-0.7,0.7-0.7C157,35.1,157.3,35.4,157.3,35.7z
		 M156.1,43.2v-5.8h1.1v5.8H156.1z"/>
	<path d="M158.9,39.2c0-0.7,0-1.3,0-1.8h0.9l0,1.1h0c0.3-0.8,0.9-1.3,1.6-1.3c0.1,0,0.2,0,0.3,0v1c-0.1,0-0.2,0-0.4,0
		c-0.7,0-1.3,0.6-1.4,1.4c0,0.1,0,0.3,0,0.5v3.1h-1V39.2z"/>
	<path d="M163.3,40.5c0,1.4,0.9,2,2,2c0.8,0,1.2-0.1,1.6-0.3l0.2,0.8c-0.4,0.2-1,0.4-1.9,0.4c-1.8,0-2.9-1.2-2.9-2.9s1-3.1,2.7-3.1
		c1.9,0,2.4,1.7,2.4,2.7c0,0.2,0,0.4,0,0.5H163.3z M166.4,39.7c0-0.7-0.3-1.7-1.5-1.7c-1.1,0-1.5,1-1.6,1.7H166.4z"/>
	<path d="M172.9,43c-0.3,0.1-0.9,0.3-1.7,0.3c-1.8,0-2.9-1.2-2.9-3c0-1.8,1.2-3.1,3.1-3.1c0.6,0,1.2,0.2,1.5,0.3l-0.2,0.8
		c-0.3-0.1-0.6-0.3-1.2-0.3c-1.3,0-2.1,1-2.1,2.2c0,1.3,0.9,2.2,2,2.2c0.6,0,1-0.2,1.3-0.3L172.9,43z"/>
	<path d="M175.5,35.7v1.7h1.5v0.8h-1.5v3.1c0,0.7,0.2,1.1,0.8,1.1c0.3,0,0.5,0,0.6-0.1l0,0.8c-0.2,0.1-0.5,0.1-0.9,0.1
		c-0.5,0-0.9-0.2-1.1-0.4c-0.3-0.3-0.4-0.8-0.4-1.5v-3.2h-0.9v-0.8h0.9V36L175.5,35.7z"/>
	<path d="M178.2,34.7h1.1v8.5h-1.1V34.7z"/>
	<path d="M181.4,37.4l1.3,3.4c0.1,0.4,0.3,0.8,0.4,1.2h0c0.1-0.3,0.2-0.8,0.4-1.2l1.2-3.4h1.1l-1.6,4.1c-0.8,2-1.3,3-2,3.6
		c-0.5,0.5-1,0.6-1.3,0.7l-0.3-0.9c0.3-0.1,0.6-0.3,0.9-0.5c0.3-0.2,0.6-0.6,0.9-1.2c0-0.1,0.1-0.2,0.1-0.3c0-0.1,0-0.1-0.1-0.3
		l-2.1-5.3H181.4z"/>
	<path d="M190.5,35.7v1.7h1.5v0.8h-1.5v3.1c0,0.7,0.2,1.1,0.8,1.1c0.3,0,0.5,0,0.6-0.1l0,0.8c-0.2,0.1-0.5,0.1-0.9,0.1
		c-0.5,0-0.9-0.2-1.1-0.4c-0.3-0.3-0.4-0.8-0.4-1.5v-3.2h-0.9v-0.8h0.9V36L190.5,35.7z"/>
	<path d="M198.4,40.2c0,2.1-1.5,3.1-2.9,3.1c-1.6,0-2.8-1.2-2.8-3c0-1.9,1.3-3.1,2.9-3.1C197.3,37.2,198.4,38.4,198.4,40.2z
		 M193.8,40.3c0,1.3,0.7,2.2,1.8,2.2c1,0,1.8-0.9,1.8-2.3c0-1-0.5-2.2-1.7-2.2S193.8,39.2,193.8,40.3z"/>
	<path d="M206.4,43c-0.3,0.1-0.9,0.3-1.7,0.3c-1.8,0-2.9-1.2-2.9-3c0-1.8,1.2-3.1,3.1-3.1c0.6,0,1.2,0.2,1.5,0.3l-0.2,0.8
		c-0.3-0.1-0.6-0.3-1.2-0.3c-1.3,0-2.1,1-2.1,2.2c0,1.3,0.9,2.2,2,2.2c0.6,0,1-0.2,1.3-0.3L206.4,43z"/>
	<path d="M207.7,34.7h1.1v3.6h0c0.2-0.3,0.4-0.6,0.8-0.7c0.3-0.2,0.7-0.3,1.1-0.3c0.8,0,2,0.5,2,2.5v3.5h-1.1v-3.3
		c0-0.9-0.3-1.7-1.3-1.7c-0.7,0-1.2,0.5-1.4,1.1c-0.1,0.1-0.1,0.3-0.1,0.5v3.5h-1.1V34.7z"/>
	<path d="M217.5,43.2l-0.1-0.7h0c-0.3,0.5-0.9,0.9-1.8,0.9c-1.2,0-1.8-0.8-1.8-1.7c0-1.4,1.2-2.2,3.5-2.2v-0.1
		c0-0.5-0.1-1.3-1.3-1.3c-0.5,0-1.1,0.2-1.5,0.4l-0.2-0.7c0.5-0.3,1.2-0.5,1.9-0.5c1.8,0,2.2,1.2,2.2,2.4v2.2c0,0.5,0,1,0.1,1.4
		H217.5z M217.4,40.2c-1.2,0-2.5,0.2-2.5,1.3c0,0.7,0.5,1,1,1c0.8,0,1.2-0.5,1.4-1c0-0.1,0.1-0.2,0.1-0.3V40.2z"/>
	<path d="M225,41.6c0,0.6,0,1.1,0,1.6h-0.9l-0.1-0.9h0c-0.3,0.5-0.9,1.1-1.9,1.1c-0.9,0-2-0.5-2-2.5v-3.4h1.1v3.2
		c0,1.1,0.3,1.8,1.3,1.8c0.7,0,1.2-0.5,1.4-1c0.1-0.2,0.1-0.3,0.1-0.5v-3.6h1.1V41.6z"/>
	<path d="M230.3,43.2v-5h-2.4v5h-1v-5H226v-0.8h0.8v-0.2c0-0.8,0.2-1.5,0.6-2c0.3-0.3,0.8-0.5,1.5-0.5c0.3,0,0.6,0.1,0.8,0.2
		l-0.2,0.8c-0.2-0.1-0.4-0.1-0.6-0.1c-0.8,0-1.1,0.7-1.1,1.6v0.3h2.4v-0.3c0-0.8,0.2-1.6,0.7-2c0.4-0.4,0.9-0.5,1.4-0.5
		c0.4,0,0.7,0.1,0.9,0.2l-0.1,0.8c-0.2-0.1-0.4-0.1-0.7-0.1c-0.9,0-1.1,0.8-1.1,1.7v0.3h1.4v0.8h-1.4v5H230.3z"/>
	<path d="M234.1,40.5c0,1.4,0.9,2,2,2c0.8,0,1.2-0.1,1.6-0.3l0.2,0.8c-0.4,0.2-1,0.4-1.9,0.4c-1.8,0-2.9-1.2-2.9-2.9s1-3.1,2.7-3.1
		c1.9,0,2.4,1.7,2.4,2.7c0,0.2,0,0.4,0,0.5H234.1z M237.2,39.7c0-0.7-0.3-1.7-1.5-1.7c-1.1,0-1.5,1-1.6,1.7H237.2z"/>
	<path d="M244.4,41.6c0,0.6,0,1.1,0,1.6h-0.9l-0.1-0.9h0c-0.3,0.5-0.9,1.1-1.9,1.1c-0.9,0-2-0.5-2-2.5v-3.4h1.1v3.2
		c0,1.1,0.3,1.8,1.3,1.8c0.7,0,1.2-0.5,1.4-1c0.1-0.2,0.1-0.3,0.1-0.5v-3.6h1.1V41.6z"/>
	<path d="M246.2,39.2c0-0.7,0-1.3,0-1.8h0.9l0,1.1h0c0.3-0.8,0.9-1.3,1.6-1.3c0.1,0,0.2,0,0.3,0v1c-0.1,0-0.2,0-0.4,0
		c-0.7,0-1.3,0.6-1.4,1.4c0,0.1,0,0.3,0,0.5v3.1h-1V39.2z"/>
	<path d="M250,42.1c0.3,0.2,0.9,0.4,1.4,0.4c0.8,0,1.1-0.4,1.1-0.9c0-0.5-0.3-0.8-1.1-1.1c-1-0.4-1.5-0.9-1.5-1.6
		c0-0.9,0.8-1.7,2-1.7c0.6,0,1.1,0.2,1.4,0.4l-0.3,0.8c-0.2-0.1-0.6-0.3-1.2-0.3c-0.6,0-1,0.4-1,0.8c0,0.5,0.3,0.7,1.1,1
		c1,0.4,1.5,0.9,1.5,1.8c0,1-0.8,1.7-2.2,1.7c-0.6,0-1.2-0.2-1.6-0.4L250,42.1z"/>
	<path d="M36.5,51.8l0.8,3c0.2,0.6,0.3,1.2,0.4,1.8h0c0.1-0.6,0.3-1.2,0.5-1.8l0.9-3h0.9l0.9,2.9c0.2,0.7,0.4,1.3,0.5,1.9h0
		c0.1-0.6,0.3-1.2,0.4-1.9l0.8-2.9h1L42,57.6h-1l-0.9-2.8c-0.2-0.6-0.4-1.2-0.5-1.9h0c-0.1,0.7-0.3,1.3-0.5,1.9l-0.9,2.8h-1
		l-1.8-5.8H36.5z"/>
	<path d="M44.9,49.1H46v3.6h0c0.2-0.3,0.4-0.6,0.8-0.7c0.3-0.2,0.7-0.3,1.1-0.3c0.8,0,2,0.5,2,2.5v3.5h-1.1v-3.3
		c0-0.9-0.3-1.7-1.3-1.7c-0.7,0-1.2,0.5-1.4,1.1C46,53.7,46,53.9,46,54.1v3.5h-1.1V49.1z"/>
	<path d="M56.9,54.6c0,2.1-1.5,3.1-2.9,3.1c-1.6,0-2.8-1.2-2.8-3c0-1.9,1.3-3.1,2.9-3.1C55.7,51.6,56.9,52.8,56.9,54.6z M52.3,54.7
		c0,1.3,0.7,2.2,1.8,2.2c1,0,1.8-0.9,1.8-2.3c0-1-0.5-2.2-1.7-2.2C52.8,52.4,52.3,53.6,52.3,54.7z"/>
	<path d="M60.7,53.3c0-0.6,0-1.1,0-1.6h0.9l0,0.9h0c0.3-0.6,0.9-1.1,1.8-1.1c0.8,0,1.4,0.5,1.6,1.2h0c0.2-0.3,0.4-0.6,0.6-0.8
		c0.3-0.3,0.7-0.4,1.3-0.4c0.8,0,1.9,0.5,1.9,2.5v3.4h-1v-3.3c0-1.1-0.4-1.8-1.3-1.8c-0.6,0-1.1,0.4-1.2,1c0,0.1-0.1,0.3-0.1,0.5
		v3.6h-1v-3.5c0-0.9-0.4-1.6-1.2-1.6c-0.7,0-1.1,0.5-1.3,1.1c-0.1,0.2-0.1,0.3-0.1,0.5v3.5h-1V53.3z"/>
	<path d="M74,57.6l-0.1-0.7h0c-0.3,0.5-0.9,0.9-1.8,0.9c-1.2,0-1.8-0.8-1.8-1.7c0-1.4,1.2-2.2,3.5-2.2v-0.1c0-0.5-0.1-1.3-1.3-1.3
		c-0.5,0-1.1,0.2-1.5,0.4l-0.2-0.7c0.5-0.3,1.2-0.5,1.9-0.5c1.8,0,2.2,1.2,2.2,2.4v2.2c0,0.5,0,1,0.1,1.4H74z M73.8,54.6
		c-1.2,0-2.5,0.2-2.5,1.3c0,0.7,0.5,1,1,1c0.8,0,1.2-0.5,1.4-1c0-0.1,0.1-0.2,0.1-0.3V54.6z"/>
	<path d="M77.6,54.4L77.6,54.4c0.2-0.2,0.4-0.5,0.5-0.7l1.7-2h1.3l-2.2,2.4l2.6,3.4h-1.3l-2-2.8l-0.5,0.6v2.2h-1v-8.5h1V54.4z"/>
	<path d="M82.7,54.9c0,1.4,0.9,2,2,2c0.8,0,1.2-0.1,1.6-0.3l0.2,0.8c-0.4,0.2-1,0.4-1.9,0.4c-1.8,0-2.9-1.2-2.9-2.9
		c0-1.8,1-3.1,2.7-3.1c1.9,0,2.4,1.7,2.4,2.7c0,0.2,0,0.4,0,0.5H82.7z M85.8,54.1c0-0.7-0.3-1.7-1.5-1.7c-1.1,0-1.5,1-1.6,1.7H85.8z
		"/>
	<path d="M90.7,53.7c0-0.7,0-1.3,0-1.9h0.9l0,1h0c0.4-0.7,1.1-1.1,2.1-1.1c1.4,0,2.5,1.2,2.5,3c0,2.1-1.3,3.1-2.6,3.1
		c-0.8,0-1.4-0.3-1.8-0.9h0v3.2h-1V53.7z M91.8,55.2c0,0.2,0,0.3,0,0.4c0.2,0.7,0.8,1.2,1.6,1.2c1.1,0,1.8-0.9,1.8-2.2
		c0-1.2-0.6-2.2-1.7-2.2c-0.7,0-1.4,0.5-1.6,1.3c0,0.1-0.1,0.3-0.1,0.4V55.2z"/>
	<path d="M97.5,53.6c0-0.7,0-1.3,0-1.8h0.9l0,1.1h0c0.3-0.8,0.9-1.3,1.6-1.3c0.1,0,0.2,0,0.3,0v1c-0.1,0-0.2,0-0.4,0
		c-0.7,0-1.3,0.6-1.4,1.4c0,0.1,0,0.3,0,0.5v3.1h-1V53.6z"/>
	<path d="M102.7,50.1c0,0.4-0.3,0.6-0.7,0.6c-0.4,0-0.6-0.3-0.6-0.6c0-0.4,0.3-0.7,0.7-0.7C102.4,49.5,102.7,49.8,102.7,50.1z
		 M101.5,57.6v-5.8h1.1v5.8H101.5z"/>
	<path d="M108.5,57.4c-0.3,0.1-0.9,0.3-1.7,0.3c-1.8,0-2.9-1.2-2.9-3c0-1.8,1.2-3.1,3.1-3.1c0.6,0,1.2,0.2,1.5,0.3l-0.2,0.8
		c-0.3-0.1-0.6-0.3-1.2-0.3c-1.3,0-2.1,1-2.1,2.2c0,1.3,0.9,2.2,2,2.2c0.6,0,1-0.2,1.3-0.3L108.5,57.4z"/>
	<path d="M110.2,54.9c0,1.4,0.9,2,2,2c0.8,0,1.2-0.1,1.6-0.3l0.2,0.8c-0.4,0.2-1,0.4-1.9,0.4c-1.8,0-2.9-1.2-2.9-2.9
		c0-1.8,1-3.1,2.7-3.1c1.9,0,2.4,1.7,2.4,2.7c0,0.2,0,0.4,0,0.5H110.2z M113.3,54.1c0-0.7-0.3-1.7-1.5-1.7c-1.1,0-1.5,1-1.6,1.7
		H113.3z"/>
	<path d="M123.4,54.6c0,2.1-1.5,3.1-2.9,3.1c-1.6,0-2.8-1.2-2.8-3c0-1.9,1.3-3.1,2.9-3.1C122.3,51.6,123.4,52.8,123.4,54.6z
		 M118.8,54.7c0,1.3,0.7,2.2,1.8,2.2c1,0,1.8-0.9,1.8-2.3c0-1-0.5-2.2-1.7-2.2C119.4,52.4,118.8,53.6,118.8,54.7z"/>
	<path d="M128.4,57.6v-5h-2.4v5h-1v-5h-0.8v-0.8h0.8v-0.2c0-0.8,0.2-1.5,0.6-2c0.3-0.3,0.8-0.5,1.5-0.5c0.3,0,0.6,0.1,0.8,0.2
		l-0.2,0.8c-0.2-0.1-0.4-0.1-0.6-0.1c-0.8,0-1.1,0.7-1.1,1.6v0.3h2.4v-0.3c0-0.8,0.2-1.6,0.7-2c0.4-0.4,0.9-0.5,1.4-0.5
		c0.4,0,0.7,0.1,0.9,0.2l-0.1,0.8c-0.2-0.1-0.4-0.1-0.7-0.1c-0.9,0-1.1,0.8-1.1,1.7v0.3h1.4v0.8h-1.4v5H128.4z"/>
	<path d="M132.2,54.9c0,1.4,0.9,2,2,2c0.8,0,1.2-0.1,1.6-0.3l0.2,0.8c-0.4,0.2-1,0.4-1.9,0.4c-1.8,0-2.9-1.2-2.9-2.9
		c0-1.8,1-3.1,2.7-3.1c1.9,0,2.4,1.7,2.4,2.7c0,0.2,0,0.4,0,0.5H132.2z M135.3,54.1c0-0.7-0.3-1.7-1.5-1.7c-1.1,0-1.5,1-1.6,1.7
		H135.3z"/>
	<path d="M137.6,53.6c0-0.7,0-1.3,0-1.8h0.9l0,1.1h0c0.3-0.8,0.9-1.3,1.6-1.3c0.1,0,0.2,0,0.3,0v1c-0.1,0-0.2,0-0.4,0
		c-0.7,0-1.3,0.6-1.4,1.4c0,0.1,0,0.3,0,0.5v3.1h-1V53.6z"/>
	<path d="M141.4,56.5c0.3,0.2,0.9,0.4,1.4,0.4c0.8,0,1.1-0.4,1.1-0.9c0-0.5-0.3-0.8-1.1-1.1c-1-0.4-1.5-0.9-1.5-1.6
		c0-0.9,0.8-1.7,2-1.7c0.6,0,1.1,0.2,1.4,0.4l-0.3,0.8c-0.2-0.1-0.6-0.3-1.2-0.3c-0.6,0-1,0.4-1,0.8c0,0.5,0.3,0.7,1.1,1
		c1,0.4,1.5,0.9,1.5,1.8c0,1-0.8,1.7-2.2,1.7c-0.6,0-1.2-0.2-1.6-0.4L141.4,56.5z"/>
	<path d="M145.9,56.9c0-0.4,0.3-0.8,0.7-0.8s0.7,0.3,0.7,0.8c0,0.4-0.3,0.8-0.7,0.8C146.2,57.7,145.9,57.4,145.9,56.9z"/>
	<path d="M152.5,57.6v-3.4l-2.6-4.7h1.2l1.1,2.2c0.3,0.6,0.6,1.1,0.8,1.7h0c0.2-0.5,0.5-1.1,0.8-1.7l1.2-2.2h1.2l-2.7,4.6v3.4H152.5
		z"/>
	<path d="M161.5,54.6c0,2.1-1.5,3.1-2.9,3.1c-1.6,0-2.8-1.2-2.8-3c0-1.9,1.3-3.1,2.9-3.1C160.3,51.6,161.5,52.8,161.5,54.6z
		 M156.9,54.7c0,1.3,0.7,2.2,1.8,2.2c1,0,1.8-0.9,1.8-2.3c0-1-0.5-2.2-1.7-2.2C157.4,52.4,156.9,53.6,156.9,54.7z"/>
	<path d="M167.7,56c0,0.6,0,1.1,0,1.6h-0.9l-0.1-0.9h0c-0.3,0.5-0.9,1.1-1.9,1.1c-0.9,0-2-0.5-2-2.5v-3.4h1.1V55
		c0,1.1,0.3,1.8,1.3,1.8c0.7,0,1.2-0.5,1.4-1c0.1-0.2,0.1-0.3,0.1-0.5v-3.6h1.1V56z"/>
	<path d="M177,49.1v7c0,0.5,0,1.1,0,1.5h-0.9l0-1h0c-0.3,0.6-1,1.1-2,1.1c-1.4,0-2.5-1.2-2.5-3c0-1.9,1.2-3.1,2.6-3.1
		c0.9,0,1.5,0.4,1.8,0.9h0v-3.5H177z M175.9,54.1c0-0.1,0-0.3,0-0.4c-0.2-0.7-0.7-1.2-1.5-1.2c-1.1,0-1.7,1-1.7,2.2
		c0,1.2,0.6,2.1,1.7,2.1c0.7,0,1.4-0.5,1.5-1.3c0-0.1,0-0.3,0-0.5V54.1z"/>
	<path d="M184,54.6c0,2.1-1.5,3.1-2.9,3.1c-1.6,0-2.8-1.2-2.8-3c0-1.9,1.3-3.1,2.9-3.1C182.9,51.6,184,52.8,184,54.6z M179.4,54.7
		c0,1.3,0.7,2.2,1.8,2.2c1,0,1.8-0.9,1.8-2.3c0-1-0.5-2.2-1.7-2.2C179.9,52.4,179.4,53.6,179.4,54.7z"/>
	<path d="M187.9,53.3c0-0.6,0-1.1,0-1.6h0.9l0.1,1h0c0.3-0.6,1-1.1,1.9-1.1c0.8,0,2.1,0.5,2.1,2.5v3.5h-1.1v-3.3
		c0-0.9-0.3-1.7-1.3-1.7c-0.7,0-1.2,0.5-1.4,1.1c0,0.1-0.1,0.3-0.1,0.5v3.5h-1.1V53.3z"/>
	<path d="M199.8,54.6c0,2.1-1.5,3.1-2.9,3.1c-1.6,0-2.8-1.2-2.8-3c0-1.9,1.3-3.1,2.9-3.1C198.6,51.6,199.8,52.8,199.8,54.6z
		 M195.2,54.7c0,1.3,0.7,2.2,1.8,2.2c1,0,1.8-0.9,1.8-2.3c0-1-0.5-2.2-1.7-2.2S195.2,53.6,195.2,54.7z"/>
	<path d="M202.4,50.1v1.7h1.5v0.8h-1.5v3.1c0,0.7,0.2,1.1,0.8,1.1c0.3,0,0.5,0,0.6-0.1l0,0.8c-0.2,0.1-0.5,0.1-0.9,0.1
		c-0.5,0-0.9-0.2-1.1-0.4c-0.3-0.3-0.4-0.8-0.4-1.5v-3.2h-0.9v-0.8h0.9v-1.4L202.4,50.1z"/>
	<path d="M207.6,53.7c0-0.7,0-1.3,0-1.9h0.9l0,1h0c0.4-0.7,1.1-1.1,2.1-1.1c1.4,0,2.5,1.2,2.5,3c0,2.1-1.3,3.1-2.6,3.1
		c-0.8,0-1.4-0.3-1.8-0.9h0v3.2h-1V53.7z M208.7,55.2c0,0.2,0,0.3,0,0.4c0.2,0.7,0.8,1.2,1.6,1.2c1.1,0,1.8-0.9,1.8-2.2
		c0-1.2-0.6-2.2-1.7-2.2c-0.7,0-1.4,0.5-1.6,1.3c0,0.1-0.1,0.3-0.1,0.4V55.2z"/>
	<path d="M217.7,57.6l-0.1-0.7h0c-0.3,0.5-0.9,0.9-1.8,0.9c-1.2,0-1.8-0.8-1.8-1.7c0-1.4,1.2-2.2,3.5-2.2v-0.1
		c0-0.5-0.1-1.3-1.3-1.3c-0.5,0-1.1,0.2-1.5,0.4l-0.2-0.7c0.5-0.3,1.2-0.5,1.9-0.5c1.8,0,2.2,1.2,2.2,2.4v2.2c0,0.5,0,1,0.1,1.4
		H217.7z M217.5,54.6c-1.2,0-2.5,0.2-2.5,1.3c0,0.7,0.5,1,1,1c0.8,0,1.2-0.5,1.4-1c0-0.1,0.1-0.2,0.1-0.3V54.6z"/>
	<path d="M220.5,51.8l1.3,3.4c0.1,0.4,0.3,0.8,0.4,1.2h0c0.1-0.3,0.2-0.8,0.4-1.2l1.2-3.4h1.1l-1.6,4.1c-0.8,2-1.3,3-2,3.6
		c-0.5,0.5-1,0.6-1.3,0.7l-0.3-0.9c0.3-0.1,0.6-0.3,0.9-0.5c0.3-0.2,0.6-0.6,0.9-1.2c0-0.1,0.1-0.2,0.1-0.3c0-0.1,0-0.1-0.1-0.3
		l-2.1-5.3H220.5z"/>
	<path d="M231.6,57.6l-0.1-0.7h0c-0.3,0.5-0.9,0.9-1.8,0.9c-1.2,0-1.8-0.8-1.8-1.7c0-1.4,1.2-2.2,3.5-2.2v-0.1
		c0-0.5-0.1-1.3-1.3-1.3c-0.5,0-1.1,0.2-1.5,0.4l-0.2-0.7c0.5-0.3,1.2-0.5,1.9-0.5c1.8,0,2.2,1.2,2.2,2.4v2.2c0,0.5,0,1,0.1,1.4
		H231.6z M231.4,54.6c-1.2,0-2.5,0.2-2.5,1.3c0,0.7,0.5,1,1,1c0.8,0,1.2-0.5,1.4-1c0-0.1,0.1-0.2,0.1-0.3V54.6z"/>
	<path d="M239.1,51.8c0,0.4,0,0.9,0,1.6v3.4c0,1.3-0.3,2.1-0.8,2.7c-0.6,0.5-1.4,0.7-2.1,0.7c-0.7,0-1.5-0.2-1.9-0.5l0.3-0.8
		c0.4,0.2,1,0.5,1.7,0.5c1.1,0,1.9-0.6,1.9-2v-0.6h0c-0.3,0.5-0.9,1-1.8,1c-1.4,0-2.5-1.2-2.5-2.8c0-2,1.3-3.1,2.6-3.1
		c1,0,1.6,0.5,1.8,1h0l0-0.9H239.1z M238,54.1c0-0.2,0-0.3-0.1-0.5c-0.2-0.6-0.7-1.1-1.5-1.1c-1,0-1.7,0.9-1.7,2.2
		c0,1.1,0.6,2.1,1.7,2.1c0.6,0,1.2-0.4,1.5-1.1c0.1-0.2,0.1-0.4,0.1-0.6V54.1z"/>
	<path d="M241.4,54.9c0,1.4,0.9,2,2,2c0.8,0,1.2-0.1,1.6-0.3l0.2,0.8c-0.4,0.2-1,0.4-1.9,0.4c-1.8,0-2.9-1.2-2.9-2.9
		c0-1.8,1-3.1,2.7-3.1c1.9,0,2.4,1.7,2.4,2.7c0,0.2,0,0.4,0,0.5H241.4z M244.5,54.1c0-0.7-0.3-1.7-1.5-1.7c-1.1,0-1.5,1-1.6,1.7
		H244.5z"/>
	<path d="M246.8,53.3c0-0.6,0-1.1,0-1.6h0.9l0.1,1h0c0.3-0.6,1-1.1,1.9-1.1c0.8,0,2.1,0.5,2.1,2.5v3.5h-1.1v-3.3
		c0-0.9-0.3-1.7-1.3-1.7c-0.7,0-1.2,0.5-1.4,1.1c0,0.1-0.1,0.3-0.1,0.5v3.5h-1.1V53.3z"/>
	<path d="M257.6,57.4c-0.3,0.1-0.9,0.3-1.7,0.3c-1.8,0-2.9-1.2-2.9-3c0-1.8,1.2-3.1,3.1-3.1c0.6,0,1.2,0.2,1.5,0.3l-0.2,0.8
		c-0.3-0.1-0.6-0.3-1.2-0.3c-1.3,0-2.1,1-2.1,2.2c0,1.3,0.9,2.2,2,2.2c0.6,0,1-0.2,1.3-0.3L257.6,57.4z"/>
	<path d="M259.5,51.8l1.3,3.4c0.1,0.4,0.3,0.8,0.4,1.2h0c0.1-0.3,0.2-0.8,0.4-1.2l1.2-3.4h1.1l-1.6,4.1c-0.8,2-1.3,3-2,3.6
		c-0.5,0.5-1,0.6-1.3,0.7l-0.3-0.9c0.3-0.1,0.6-0.3,0.9-0.5c0.3-0.2,0.6-0.6,0.9-1.2c0-0.1,0.1-0.2,0.1-0.3c0-0.1,0-0.1-0.1-0.3
		l-2.1-5.3H259.5z"/>
	<path d="M51.2,72v-5h-0.8v-0.8h0.8v-0.3c0-0.8,0.2-1.6,0.7-2c0.4-0.4,0.9-0.5,1.4-0.5c0.4,0,0.7,0.1,0.9,0.2L54,64.3
		c-0.2-0.1-0.4-0.1-0.7-0.1c-0.9,0-1.1,0.8-1.1,1.7v0.3h1.4V67h-1.4v5H51.2z"/>
	<path d="M55,69.3c0,1.4,0.9,2,2,2c0.8,0,1.2-0.1,1.6-0.3l0.2,0.8c-0.4,0.2-1,0.4-1.9,0.4c-1.8,0-2.9-1.2-2.9-2.9s1-3.1,2.7-3.1
		c1.9,0,2.4,1.7,2.4,2.7c0,0.2,0,0.4,0,0.5H55z M58.1,68.5c0-0.7-0.3-1.7-1.5-1.7c-1.1,0-1.5,1-1.6,1.7H58.1z"/>
	<path d="M61,69.3c0,1.4,0.9,2,2,2c0.8,0,1.2-0.1,1.6-0.3l0.2,0.8c-0.4,0.2-1,0.4-1.9,0.4c-1.8,0-2.9-1.2-2.9-2.9s1-3.1,2.7-3.1
		c1.9,0,2.4,1.7,2.4,2.7c0,0.2,0,0.4,0,0.5H61z M64.1,68.5c0-0.7-0.3-1.7-1.5-1.7c-1.1,0-1.5,1-1.6,1.7H64.1z"/>
	<path d="M66.3,70.9c0.3,0.2,0.9,0.4,1.4,0.4c0.8,0,1.1-0.4,1.1-0.9c0-0.5-0.3-0.8-1.1-1.1c-1-0.4-1.5-0.9-1.5-1.6
		c0-0.9,0.8-1.7,2-1.7c0.6,0,1.1,0.2,1.4,0.4l-0.3,0.8c-0.2-0.1-0.6-0.3-1.2-0.3c-0.6,0-1,0.4-1,0.8c0,0.5,0.3,0.7,1.1,1
		c1,0.4,1.5,0.9,1.5,1.8c0,1-0.8,1.7-2.2,1.7c-0.6,0-1.2-0.2-1.6-0.4L66.3,70.9z"/>
	<path d="M77,72l-0.1-0.7h0c-0.3,0.5-0.9,0.9-1.8,0.9c-1.2,0-1.8-0.8-1.8-1.7c0-1.4,1.2-2.2,3.5-2.2v-0.1c0-0.5-0.1-1.3-1.3-1.3
		c-0.5,0-1.1,0.2-1.5,0.4l-0.2-0.7c0.5-0.3,1.2-0.5,1.9-0.5c1.8,0,2.2,1.2,2.2,2.4v2.2c0,0.5,0,1,0.1,1.4H77z M76.8,69
		c-1.2,0-2.5,0.2-2.5,1.3c0,0.7,0.5,1,1,1c0.8,0,1.2-0.5,1.4-1c0-0.1,0.1-0.2,0.1-0.3V69z"/>
	<path d="M79.5,67.7c0-0.6,0-1.1,0-1.6h0.9l0.1,1h0c0.3-0.6,1-1.1,1.9-1.1c0.8,0,2.1,0.5,2.1,2.5V72h-1.1v-3.3
		c0-0.9-0.3-1.7-1.3-1.7c-0.7,0-1.2,0.5-1.4,1.1c0,0.1-0.1,0.3-0.1,0.5V72h-1.1V67.7z"/>
	<path d="M91.2,63.5v7c0,0.5,0,1.1,0,1.5h-0.9l0-1h0c-0.3,0.6-1,1.1-2,1.1c-1.4,0-2.5-1.2-2.5-3c0-1.9,1.2-3.1,2.6-3.1
		c0.9,0,1.5,0.4,1.8,0.9h0v-3.5H91.2z M90.1,68.5c0-0.1,0-0.3,0-0.4c-0.2-0.7-0.7-1.2-1.5-1.2c-1.1,0-1.7,1-1.7,2.2
		c0,1.2,0.6,2.1,1.7,2.1c0.7,0,1.4-0.5,1.5-1.3c0-0.1,0-0.3,0-0.5V68.5z"/>
	<path d="M95.9,66.2l1.3,3.4c0.1,0.4,0.3,0.8,0.4,1.2h0c0.1-0.3,0.2-0.8,0.4-1.2l1.2-3.4h1.1l-1.6,4.1c-0.8,2-1.3,3-2,3.6
		c-0.5,0.5-1,0.6-1.3,0.7l-0.3-0.9c0.3-0.1,0.6-0.3,0.9-0.5c0.3-0.2,0.6-0.6,0.9-1.2c0-0.1,0.1-0.2,0.1-0.3c0-0.1,0-0.1-0.1-0.3
		l-2.1-5.3H95.9z"/>
	<path d="M106.3,69c0,2.1-1.5,3.1-2.9,3.1c-1.6,0-2.8-1.2-2.8-3c0-1.9,1.3-3.1,2.9-3.1C105.2,66,106.3,67.2,106.3,69z M101.7,69.1
		c0,1.3,0.7,2.2,1.8,2.2c1,0,1.8-0.9,1.8-2.3c0-1-0.5-2.2-1.7-2.2C102.2,66.8,101.7,68,101.7,69.1z"/>
	<path d="M112.5,70.4c0,0.6,0,1.1,0,1.6h-0.9l-0.1-0.9h0c-0.3,0.5-0.9,1.1-1.9,1.1c-0.9,0-2-0.5-2-2.5v-3.4h1.1v3.2
		c0,1.1,0.3,1.8,1.3,1.8c0.7,0,1.2-0.5,1.4-1c0.1-0.2,0.1-0.3,0.1-0.5v-3.6h1.1V70.4z"/>
	<path d="M121.8,66.2c0,0.4,0,0.9,0,1.6v3.4c0,1.3-0.3,2.1-0.8,2.7c-0.6,0.5-1.4,0.7-2.1,0.7c-0.7,0-1.5-0.2-1.9-0.5l0.3-0.8
		c0.4,0.2,1,0.5,1.7,0.5c1.1,0,1.9-0.6,1.9-2V71h0c-0.3,0.5-0.9,1-1.8,1c-1.4,0-2.5-1.2-2.5-2.8c0-2,1.3-3.1,2.6-3.1
		c1,0,1.6,0.5,1.8,1h0l0-0.9H121.8z M120.7,68.5c0-0.2,0-0.3-0.1-0.5c-0.2-0.6-0.7-1.1-1.5-1.1c-1,0-1.7,0.9-1.7,2.2
		c0,1.1,0.6,2.1,1.7,2.1c0.6,0,1.2-0.4,1.5-1.1c0.1-0.2,0.1-0.4,0.1-0.6V68.5z"/>
	<path d="M124.1,69.3c0,1.4,0.9,2,2,2c0.8,0,1.2-0.1,1.6-0.3l0.2,0.8c-0.4,0.2-1,0.4-1.9,0.4c-1.8,0-2.9-1.2-2.9-2.9s1-3.1,2.7-3.1
		c1.9,0,2.4,1.7,2.4,2.7c0,0.2,0,0.4,0,0.5H124.1z M127.2,68.5c0-0.7-0.3-1.7-1.5-1.7c-1.1,0-1.5,1-1.6,1.7H127.2z"/>
	<path d="M130.8,64.5v1.7h1.5V67h-1.5v3.1c0,0.7,0.2,1.1,0.8,1.1c0.3,0,0.5,0,0.6-0.1l0,0.8c-0.2,0.1-0.5,0.1-0.9,0.1
		c-0.5,0-0.9-0.2-1.1-0.4c-0.3-0.3-0.4-0.8-0.4-1.5V67h-0.9v-0.8h0.9v-1.4L130.8,64.5z"/>
	<path d="M136.1,72v-5h-0.8v-0.8h0.8v-0.3c0-0.8,0.2-1.6,0.7-2c0.4-0.4,0.9-0.5,1.4-0.5c0.4,0,0.7,0.1,0.9,0.2l-0.1,0.8
		c-0.2-0.1-0.4-0.1-0.7-0.1c-0.9,0-1.1,0.8-1.1,1.7v0.3h1.4V67h-1.4v5H136.1z"/>
	<path d="M142.7,72l-0.1-0.7h0c-0.3,0.5-0.9,0.9-1.8,0.9c-1.2,0-1.8-0.8-1.8-1.7c0-1.4,1.2-2.2,3.5-2.2v-0.1c0-0.5-0.1-1.3-1.3-1.3
		c-0.5,0-1.1,0.2-1.5,0.4l-0.2-0.7c0.5-0.3,1.2-0.5,1.9-0.5c1.8,0,2.2,1.2,2.2,2.4v2.2c0,0.5,0,1,0.1,1.4H142.7z M142.6,69
		c-1.2,0-2.5,0.2-2.5,1.3c0,0.7,0.5,1,1,1c0.8,0,1.2-0.5,1.4-1c0-0.1,0.1-0.2,0.1-0.3V69z"/>
	<path d="M145.3,67.7c0-0.6,0-1.1,0-1.6h0.9l0.1,1h0c0.3-0.6,1-1.1,1.9-1.1c0.8,0,2.1,0.5,2.1,2.5V72h-1.1v-3.3
		c0-0.9-0.3-1.7-1.3-1.7c-0.7,0-1.2,0.5-1.4,1.1c0,0.1-0.1,0.3-0.1,0.5V72h-1.1V67.7z"/>
	<path d="M153.2,64.5v1.7h1.5V67h-1.5v3.1c0,0.7,0.2,1.1,0.8,1.1c0.3,0,0.5,0,0.6-0.1l0,0.8c-0.2,0.1-0.5,0.1-0.9,0.1
		c-0.5,0-0.9-0.2-1.1-0.4c-0.3-0.3-0.4-0.8-0.4-1.5V67h-0.9v-0.8h0.9v-1.4L153.2,64.5z"/>
	<path d="M159.1,72l-0.1-0.7h0c-0.3,0.5-0.9,0.9-1.8,0.9c-1.2,0-1.8-0.8-1.8-1.7c0-1.4,1.2-2.2,3.5-2.2v-0.1c0-0.5-0.1-1.3-1.3-1.3
		c-0.5,0-1.1,0.2-1.5,0.4l-0.2-0.7c0.5-0.3,1.2-0.5,1.9-0.5c1.8,0,2.2,1.2,2.2,2.4v2.2c0,0.5,0,1,0.1,1.4H159.1z M158.9,69
		c-1.2,0-2.5,0.2-2.5,1.3c0,0.7,0.5,1,1,1c0.8,0,1.2-0.5,1.4-1c0-0.1,0.1-0.2,0.1-0.3V69z"/>
	<path d="M161.5,70.9c0.3,0.2,0.9,0.4,1.4,0.4c0.8,0,1.1-0.4,1.1-0.9c0-0.5-0.3-0.8-1.1-1.1c-1-0.4-1.5-0.9-1.5-1.6
		c0-0.9,0.8-1.7,2-1.7c0.6,0,1.1,0.2,1.4,0.4l-0.3,0.8c-0.2-0.1-0.6-0.3-1.2-0.3c-0.6,0-1,0.4-1,0.8c0,0.5,0.3,0.7,1.1,1
		c1,0.4,1.5,0.9,1.5,1.8c0,1-0.8,1.7-2.2,1.7c-0.6,0-1.2-0.2-1.6-0.4L161.5,70.9z"/>
	<path d="M167.7,64.5v1.7h1.5V67h-1.5v3.1c0,0.7,0.2,1.1,0.8,1.1c0.3,0,0.5,0,0.6-0.1l0,0.8c-0.2,0.1-0.5,0.1-0.9,0.1
		c-0.5,0-0.9-0.2-1.1-0.4c-0.3-0.3-0.4-0.8-0.4-1.5V67h-0.9v-0.8h0.9v-1.4L167.7,64.5z"/>
	<path d="M171.6,64.5c0,0.4-0.3,0.6-0.7,0.6c-0.4,0-0.6-0.3-0.6-0.6c0-0.4,0.3-0.7,0.7-0.7C171.3,63.9,171.6,64.2,171.6,64.5z
		 M170.4,72v-5.8h1.1V72H170.4z"/>
	<path d="M177.3,71.8c-0.3,0.1-0.9,0.3-1.7,0.3c-1.8,0-2.9-1.2-2.9-3c0-1.8,1.2-3.1,3.1-3.1c0.6,0,1.2,0.2,1.5,0.3l-0.2,0.8
		c-0.3-0.1-0.6-0.3-1.2-0.3c-1.3,0-2.1,1-2.1,2.2c0,1.3,0.9,2.2,2,2.2c0.6,0,1-0.2,1.3-0.3L177.3,71.8z"/>
	<path d="M186.1,63.5v7c0,0.5,0,1.1,0,1.5h-0.9l0-1h0c-0.3,0.6-1,1.1-2,1.1c-1.4,0-2.5-1.2-2.5-3c0-1.9,1.2-3.1,2.6-3.1
		c0.9,0,1.5,0.4,1.8,0.9h0v-3.5H186.1z M185.1,68.5c0-0.1,0-0.3,0-0.4c-0.2-0.7-0.7-1.2-1.5-1.2c-1.1,0-1.7,1-1.7,2.2
		c0,1.2,0.6,2.1,1.7,2.1c0.7,0,1.4-0.5,1.5-1.3c0-0.1,0-0.3,0-0.5V68.5z"/>
	<path d="M189.1,64.5c0,0.4-0.3,0.6-0.7,0.6c-0.4,0-0.6-0.3-0.6-0.6c0-0.4,0.3-0.7,0.7-0.7C188.8,63.9,189.1,64.2,189.1,64.5z
		 M187.9,72v-5.8h1.1V72H187.9z"/>
	<path d="M190.7,68c0-0.7,0-1.3,0-1.8h0.9l0,1.1h0c0.3-0.8,0.9-1.3,1.6-1.3c0.1,0,0.2,0,0.3,0v1c-0.1,0-0.2,0-0.4,0
		c-0.7,0-1.3,0.6-1.4,1.4c0,0.1,0,0.3,0,0.5V72h-1V68z"/>
	<path d="M195.1,69.3c0,1.4,0.9,2,2,2c0.8,0,1.2-0.1,1.6-0.3l0.2,0.8c-0.4,0.2-1,0.4-1.9,0.4c-1.8,0-2.9-1.2-2.9-2.9s1-3.1,2.7-3.1
		c1.9,0,2.4,1.7,2.4,2.7c0,0.2,0,0.4,0,0.5H195.1z M198.2,68.5c0-0.7-0.3-1.7-1.5-1.7c-1.1,0-1.5,1-1.6,1.7H198.2z"/>
	<path d="M204.6,71.8c-0.3,0.1-0.9,0.3-1.7,0.3c-1.8,0-2.9-1.2-2.9-3c0-1.8,1.2-3.1,3.1-3.1c0.6,0,1.2,0.2,1.5,0.3l-0.2,0.8
		c-0.3-0.1-0.6-0.3-1.2-0.3c-1.3,0-2.1,1-2.1,2.2c0,1.3,0.9,2.2,2,2.2c0.6,0,1-0.2,1.3-0.3L204.6,71.8z"/>
	<path d="M207.3,64.5v1.7h1.5V67h-1.5v3.1c0,0.7,0.2,1.1,0.8,1.1c0.3,0,0.5,0,0.6-0.1l0,0.8c-0.2,0.1-0.5,0.1-0.9,0.1
		c-0.5,0-0.9-0.2-1.1-0.4c-0.3-0.3-0.4-0.8-0.4-1.5V67h-0.9v-0.8h0.9v-1.4L207.3,64.5z"/>
	<path d="M212.4,70.9c0.3,0.2,0.9,0.4,1.4,0.4c0.8,0,1.1-0.4,1.1-0.9c0-0.5-0.3-0.8-1.1-1.1c-1-0.4-1.5-0.9-1.5-1.6
		c0-0.9,0.8-1.7,2-1.7c0.6,0,1.1,0.2,1.4,0.4l-0.3,0.8c-0.2-0.1-0.6-0.3-1.2-0.3c-0.6,0-1,0.4-1,0.8c0,0.5,0.3,0.7,1.1,1
		c1,0.4,1.5,0.9,1.5,1.8c0,1-0.8,1.7-2.2,1.7c-0.6,0-1.2-0.2-1.6-0.4L212.4,70.9z"/>
	<path d="M217.9,69.3c0,1.4,0.9,2,2,2c0.8,0,1.2-0.1,1.6-0.3l0.2,0.8c-0.4,0.2-1,0.4-1.9,0.4c-1.8,0-2.9-1.2-2.9-2.9s1-3.1,2.7-3.1
		c1.9,0,2.4,1.7,2.4,2.7c0,0.2,0,0.4,0,0.5H217.9z M221,68.5c0-0.7-0.3-1.7-1.5-1.7c-1.1,0-1.5,1-1.6,1.7H221z"/>
	<path d="M223.3,68c0-0.7,0-1.3,0-1.8h0.9l0,1.1h0c0.3-0.8,0.9-1.3,1.6-1.3c0.1,0,0.2,0,0.3,0v1c-0.1,0-0.2,0-0.4,0
		c-0.7,0-1.3,0.6-1.4,1.4c0,0.1,0,0.3,0,0.5V72h-1V68z"/>
	<path d="M228,66.2l1.1,3.3c0.2,0.5,0.3,1,0.5,1.5h0c0.1-0.5,0.3-1,0.5-1.5l1.1-3.3h1.1L230,72h-1l-2.2-5.8H228z"/>
	<path d="M234.5,64.5c0,0.4-0.3,0.6-0.7,0.6c-0.4,0-0.6-0.3-0.6-0.6c0-0.4,0.3-0.7,0.7-0.7C234.2,63.9,234.5,64.2,234.5,64.5z
		 M233.3,72v-5.8h1.1V72H233.3z"/>
	<path d="M240.3,71.8c-0.3,0.1-0.9,0.3-1.7,0.3c-1.8,0-2.9-1.2-2.9-3c0-1.8,1.2-3.1,3.1-3.1c0.6,0,1.2,0.2,1.5,0.3l-0.2,0.8
		c-0.3-0.1-0.6-0.3-1.2-0.3c-1.3,0-2.1,1-2.1,2.2c0,1.3,0.9,2.2,2,2.2c0.6,0,1-0.2,1.3-0.3L240.3,71.8z"/>
	<path d="M242,69.3c0,1.4,0.9,2,2,2c0.8,0,1.2-0.1,1.6-0.3l0.2,0.8c-0.4,0.2-1,0.4-1.9,0.4c-1.8,0-2.9-1.2-2.9-2.9s1-3.1,2.7-3.1
		c1.9,0,2.4,1.7,2.4,2.7c0,0.2,0,0.4,0,0.5H242z M245.1,68.5c0-0.7-0.3-1.7-1.5-1.7c-1.1,0-1.5,1-1.6,1.7H245.1z"/>
	<path d="M247,71.3c0-0.4,0.3-0.8,0.7-0.8s0.7,0.3,0.7,0.8c0,0.4-0.3,0.8-0.7,0.8C247.3,72.1,247,71.8,247,71.3z"/>
	<path d="M66.4,78.3v3.4h3.9v-3.4h1.1v8.1h-1.1v-3.8h-3.9v3.8h-1v-8.1H66.4z"/>
	<path d="M74.4,78.9c0,0.4-0.3,0.6-0.7,0.6c-0.4,0-0.6-0.3-0.6-0.6c0-0.4,0.3-0.7,0.7-0.7C74.2,78.3,74.4,78.6,74.4,78.9z
		 M73.3,86.4v-5.8h1.1v5.8H73.3z"/>
	<path d="M81.1,80.6c0,0.4,0,0.9,0,1.6v3.4c0,1.3-0.3,2.1-0.8,2.7c-0.6,0.5-1.4,0.7-2.1,0.7c-0.7,0-1.5-0.2-1.9-0.5l0.3-0.8
		c0.4,0.2,1,0.5,1.7,0.5c1.1,0,1.9-0.6,1.9-2v-0.6h0c-0.3,0.5-0.9,1-1.8,1c-1.4,0-2.5-1.2-2.5-2.8c0-2,1.3-3.1,2.6-3.1
		c1,0,1.6,0.5,1.8,1h0l0-0.9H81.1z M80,82.9c0-0.2,0-0.3-0.1-0.5c-0.2-0.6-0.7-1.1-1.5-1.1c-1,0-1.7,0.9-1.7,2.2
		c0,1.1,0.6,2.1,1.7,2.1c0.6,0,1.2-0.4,1.5-1.1c0.1-0.2,0.1-0.4,0.1-0.6V82.9z"/>
	<path d="M82.8,77.9h1.1v3.6h0c0.2-0.3,0.4-0.6,0.8-0.7c0.3-0.2,0.7-0.3,1.1-0.3c0.8,0,2,0.5,2,2.5v3.5h-1.1V83
		c0-0.9-0.3-1.7-1.3-1.7c-0.7,0-1.2,0.5-1.4,1.1c-0.1,0.1-0.1,0.3-0.1,0.5v3.5h-1.1V77.9z"/>
	<path d="M95.9,85.5L95.9,85.5c-0.3,0.6-1,1-1.9,1c-1.4,0-2.5-1.2-2.5-2.9c0-2.2,1.4-3.1,2.6-3.1c0.9,0,1.5,0.4,1.8,1h0l0-0.9h1
		c0,0.5,0,1,0,1.6v6.6h-1.1V85.5z M95.9,82.9c0-0.1,0-0.3,0-0.4c-0.2-0.6-0.7-1.2-1.5-1.2c-1.1,0-1.8,0.9-1.8,2.2
		c0,1.2,0.6,2.2,1.7,2.2c0.7,0,1.3-0.4,1.5-1.2c0-0.1,0.1-0.3,0.1-0.5V82.9z"/>
	<path d="M103.6,84.8c0,0.6,0,1.1,0,1.6h-0.9l-0.1-0.9h0c-0.3,0.5-0.9,1.1-1.9,1.1c-0.9,0-2-0.5-2-2.5v-3.4h1.1v3.2
		c0,1.1,0.3,1.8,1.3,1.8c0.7,0,1.2-0.5,1.4-1c0.1-0.2,0.1-0.3,0.1-0.5v-3.6h1.1V84.8z"/>
	<path d="M108.6,86.4l-0.1-0.7h0c-0.3,0.5-0.9,0.9-1.8,0.9c-1.2,0-1.8-0.8-1.8-1.7c0-1.4,1.2-2.2,3.5-2.2v-0.1
		c0-0.5-0.1-1.3-1.3-1.3c-0.5,0-1.1,0.2-1.5,0.4l-0.2-0.7c0.5-0.3,1.2-0.5,1.9-0.5c1.8,0,2.2,1.2,2.2,2.4V85c0,0.5,0,1,0.1,1.4
		H108.6z M108.4,83.4c-1.2,0-2.5,0.2-2.5,1.3c0,0.7,0.5,1,1,1c0.8,0,1.2-0.5,1.4-1c0-0.1,0.1-0.2,0.1-0.3V83.4z"/>
	<path d="M111.1,77.9h1.1v8.5h-1.1V77.9z"/>
	<path d="M115.1,78.9c0,0.4-0.3,0.6-0.7,0.6c-0.4,0-0.6-0.3-0.6-0.6c0-0.4,0.3-0.7,0.7-0.7C114.9,78.3,115.1,78.6,115.1,78.9z
		 M114,86.4v-5.8h1.1v5.8H114z"/>
	<path d="M118,78.9v1.7h1.5v0.8H118v3.1c0,0.7,0.2,1.1,0.8,1.1c0.3,0,0.5,0,0.6-0.1l0,0.8c-0.2,0.1-0.5,0.1-0.9,0.1
		c-0.5,0-0.9-0.2-1.1-0.4c-0.3-0.3-0.4-0.8-0.4-1.5v-3.2h-0.9v-0.8h0.9v-1.4L118,78.9z"/>
	<path d="M121.2,80.6l1.3,3.4c0.1,0.4,0.3,0.8,0.4,1.2h0c0.1-0.3,0.2-0.8,0.4-1.2l1.2-3.4h1.1l-1.6,4.1c-0.8,2-1.3,3-2,3.6
		c-0.5,0.5-1,0.6-1.3,0.7l-0.3-0.9c0.3-0.1,0.6-0.3,0.9-0.5c0.3-0.2,0.6-0.6,0.9-1.2c0-0.1,0.1-0.2,0.1-0.3c0-0.1,0-0.1-0.1-0.3
		l-2.1-5.3H121.2z"/>
	<path d="M129.1,86.4v-5h-0.8v-0.8h0.8v-0.3c0-0.8,0.2-1.6,0.7-2c0.4-0.4,0.9-0.5,1.4-0.5c0.4,0,0.7,0.1,0.9,0.2l-0.1,0.8
		c-0.2-0.1-0.4-0.1-0.7-0.1c-0.9,0-1.1,0.8-1.1,1.7v0.3h1.4v0.8h-1.4v5H129.1z"/>
	<path d="M137.6,83.4c0,2.1-1.5,3.1-2.9,3.1c-1.6,0-2.8-1.2-2.8-3c0-1.9,1.3-3.1,2.9-3.1C136.5,80.4,137.6,81.6,137.6,83.4z
		 M133,83.5c0,1.3,0.7,2.2,1.8,2.2c1,0,1.8-0.9,1.8-2.3c0-1-0.5-2.2-1.7-2.2C133.6,81.2,133,82.4,133,83.5z"/>
	<path d="M139,82.4c0-0.7,0-1.3,0-1.8h0.9l0,1.1h0c0.3-0.8,0.9-1.3,1.6-1.3c0.1,0,0.2,0,0.3,0v1c-0.1,0-0.2,0-0.4,0
		c-0.7,0-1.3,0.6-1.4,1.4c0,0.1,0,0.3,0,0.5v3.1h-1V82.4z"/>
	<path d="M148.7,86.4l-0.1-0.7h0c-0.3,0.5-0.9,0.9-1.8,0.9c-1.2,0-1.8-0.8-1.8-1.7c0-1.4,1.2-2.2,3.5-2.2v-0.1
		c0-0.5-0.1-1.3-1.3-1.3c-0.5,0-1.1,0.2-1.5,0.4l-0.2-0.7c0.5-0.3,1.2-0.5,1.9-0.5c1.8,0,2.2,1.2,2.2,2.4V85c0,0.5,0,1,0.1,1.4
		H148.7z M148.5,83.4c-1.2,0-2.5,0.2-2.5,1.3c0,0.7,0.5,1,1,1c0.8,0,1.2-0.5,1.4-1c0-0.1,0.1-0.2,0.1-0.3V83.4z"/>
	<path d="M151.1,85.3c0.3,0.2,0.9,0.4,1.4,0.4c0.8,0,1.1-0.4,1.1-0.9c0-0.5-0.3-0.8-1.1-1.1c-1-0.4-1.5-0.9-1.5-1.6
		c0-0.9,0.8-1.7,2-1.7c0.6,0,1.1,0.2,1.4,0.4l-0.3,0.8c-0.2-0.1-0.6-0.3-1.2-0.3c-0.6,0-1,0.4-1,0.8c0,0.5,0.3,0.7,1.1,1
		c1,0.4,1.5,0.9,1.5,1.8c0,1-0.8,1.7-2.2,1.7c-0.6,0-1.2-0.2-1.6-0.4L151.1,85.3z"/>
	<path d="M157.2,78.9v1.7h1.5v0.8h-1.5v3.1c0,0.7,0.2,1.1,0.8,1.1c0.3,0,0.5,0,0.6-0.1l0,0.8c-0.2,0.1-0.5,0.1-0.9,0.1
		c-0.5,0-0.9-0.2-1.1-0.4c-0.3-0.3-0.4-0.8-0.4-1.5v-3.2h-0.9v-0.8h0.9v-1.4L157.2,78.9z"/>
	<path d="M165.1,83.4c0,2.1-1.5,3.1-2.9,3.1c-1.6,0-2.8-1.2-2.8-3c0-1.9,1.3-3.1,2.9-3.1C164,80.4,165.1,81.6,165.1,83.4z
		 M160.5,83.5c0,1.3,0.7,2.2,1.8,2.2c1,0,1.8-0.9,1.8-2.3c0-1-0.5-2.2-1.7-2.2C161.1,81.2,160.5,82.4,160.5,83.5z"/>
	<path d="M166.5,82.1c0-0.6,0-1.1,0-1.6h0.9l0.1,1h0c0.3-0.6,1-1.1,1.9-1.1c0.8,0,2.1,0.5,2.1,2.5v3.5h-1.1V83
		c0-0.9-0.3-1.7-1.3-1.7c-0.7,0-1.2,0.5-1.4,1.1c0,0.1-0.1,0.3-0.1,0.5v3.5h-1.1V82.1z"/>
	<path d="M174.3,78.9c0,0.4-0.3,0.6-0.7,0.6c-0.4,0-0.6-0.3-0.6-0.6c0-0.4,0.3-0.7,0.7-0.7C174,78.3,174.3,78.6,174.3,78.9z
		 M173.1,86.4v-5.8h1.1v5.8H173.1z"/>
	<path d="M175.8,85.3c0.3,0.2,0.9,0.4,1.4,0.4c0.8,0,1.1-0.4,1.1-0.9c0-0.5-0.3-0.8-1.1-1.1c-1-0.4-1.5-0.9-1.5-1.6
		c0-0.9,0.8-1.7,2-1.7c0.6,0,1.1,0.2,1.4,0.4l-0.3,0.8c-0.2-0.1-0.6-0.3-1.2-0.3c-0.6,0-1,0.4-1,0.8c0,0.5,0.3,0.7,1.1,1
		c1,0.4,1.5,0.9,1.5,1.8c0,1-0.8,1.7-2.2,1.7c-0.6,0-1.2-0.2-1.6-0.4L175.8,85.3z"/>
	<path d="M180.7,77.9h1.1v3.6h0c0.2-0.3,0.4-0.6,0.8-0.7c0.3-0.2,0.7-0.3,1.1-0.3c0.8,0,2,0.5,2,2.5v3.5h-1.1V83
		c0-0.9-0.3-1.7-1.3-1.7c-0.7,0-1.2,0.5-1.4,1.1c-0.1,0.1-0.1,0.3-0.1,0.5v3.5h-1.1V77.9z"/>
	<path d="M188.5,78.9c0,0.4-0.3,0.6-0.7,0.6c-0.4,0-0.6-0.3-0.6-0.6c0-0.4,0.3-0.7,0.7-0.7C188.3,78.3,188.5,78.6,188.5,78.9z
		 M187.3,86.4v-5.8h1.1v5.8H187.3z"/>
	<path d="M190.2,82.1c0-0.6,0-1.1,0-1.6h0.9l0.1,1h0c0.3-0.6,1-1.1,1.9-1.1c0.8,0,2.1,0.5,2.1,2.5v3.5H194V83c0-0.9-0.3-1.7-1.3-1.7
		c-0.7,0-1.2,0.5-1.4,1.1c0,0.1-0.1,0.3-0.1,0.5v3.5h-1.1V82.1z"/>
	<path d="M201.8,80.6c0,0.4,0,0.9,0,1.6v3.4c0,1.3-0.3,2.1-0.8,2.7c-0.6,0.5-1.4,0.7-2.1,0.7c-0.7,0-1.5-0.2-1.9-0.5l0.3-0.8
		c0.4,0.2,1,0.5,1.7,0.5c1.1,0,1.9-0.6,1.9-2v-0.6h0c-0.3,0.5-0.9,1-1.8,1c-1.4,0-2.5-1.2-2.5-2.8c0-2,1.3-3.1,2.6-3.1
		c1,0,1.6,0.5,1.8,1h0l0-0.9H201.8z M200.7,82.9c0-0.2,0-0.3-0.1-0.5c-0.2-0.6-0.7-1.1-1.5-1.1c-1,0-1.7,0.9-1.7,2.2
		c0,1.1,0.6,2.1,1.7,2.1c0.6,0,1.2-0.4,1.5-1.1c0.1-0.2,0.1-0.4,0.1-0.6V82.9z"/>
	<path d="M206.1,82.5c0-0.7,0-1.3,0-1.9h0.9l0,1h0c0.4-0.7,1.1-1.1,2.1-1.1c1.4,0,2.5,1.2,2.5,3c0,2.1-1.3,3.1-2.6,3.1
		c-0.8,0-1.4-0.3-1.8-0.9h0v3.2h-1V82.5z M207.1,84c0,0.2,0,0.3,0,0.4c0.2,0.7,0.8,1.2,1.6,1.2c1.1,0,1.8-0.9,1.8-2.2
		c0-1.2-0.6-2.2-1.7-2.2c-0.7,0-1.4,0.5-1.6,1.3c0,0.1-0.1,0.3-0.1,0.4V84z"/>
	<path d="M212.9,82.4c0-0.7,0-1.3,0-1.8h0.9l0,1.1h0c0.3-0.8,0.9-1.3,1.6-1.3c0.1,0,0.2,0,0.3,0v1c-0.1,0-0.2,0-0.4,0
		c-0.7,0-1.3,0.6-1.4,1.4c0,0.1,0,0.3,0,0.5v3.1h-1V82.4z"/>
	<path d="M218,78.9c0,0.4-0.3,0.6-0.7,0.6c-0.4,0-0.6-0.3-0.6-0.6c0-0.4,0.3-0.7,0.7-0.7C217.8,78.3,218,78.6,218,78.9z M216.9,86.4
		v-5.8h1.1v5.8H216.9z"/>
	<path d="M223.8,86.2c-0.3,0.1-0.9,0.3-1.7,0.3c-1.8,0-2.9-1.2-2.9-3c0-1.8,1.2-3.1,3.1-3.1c0.6,0,1.2,0.2,1.5,0.3l-0.2,0.8
		c-0.3-0.1-0.6-0.3-1.2-0.3c-1.3,0-2.1,1-2.1,2.2c0,1.3,0.9,2.2,2,2.2c0.6,0,1-0.2,1.3-0.3L223.8,86.2z"/>
	<path d="M225.6,83.7c0,1.4,0.9,2,2,2c0.8,0,1.2-0.1,1.6-0.3l0.2,0.8c-0.4,0.2-1,0.4-1.9,0.4c-1.8,0-2.9-1.2-2.9-2.9s1-3.1,2.7-3.1
		c1.9,0,2.4,1.7,2.4,2.7c0,0.2,0,0.4,0,0.5H225.6z M228.7,82.9c0-0.7-0.3-1.7-1.5-1.7c-1.1,0-1.5,1-1.6,1.7H228.7z"/>
	<path d="M230.8,85.3c0.3,0.2,0.9,0.4,1.4,0.4c0.8,0,1.1-0.4,1.1-0.9c0-0.5-0.3-0.8-1.1-1.1c-1-0.4-1.5-0.9-1.5-1.6
		c0-0.9,0.8-1.7,2-1.7c0.6,0,1.1,0.2,1.4,0.4l-0.3,0.8c-0.2-0.1-0.6-0.3-1.2-0.3c-0.6,0-1,0.4-1,0.8c0,0.5,0.3,0.7,1.1,1
		c1,0.4,1.5,0.9,1.5,1.8c0,1-0.8,1.7-2.2,1.7c-0.6,0-1.2-0.2-1.6-0.4L230.8,85.3z"/>
	<path d="M235.4,85.7c0-0.4,0.3-0.8,0.7-0.8s0.7,0.3,0.7,0.8c0,0.4-0.3,0.8-0.7,0.8C235.6,86.5,235.4,86.2,235.4,85.7z"/>
</g>
</svg>
