<?xml version="1.0" encoding="utf-8"?>
<!-- Generator: Adobe Illustrator 16.0.3, SVG Export Plug-In . SVG Version: 6.00 Build 0)  -->
<!DOCTYPE svg PUBLIC "-//W3C//DTD SVG 1.1//EN" "http://www.w3.org/Graphics/SVG/1.1/DTD/svg11.dtd">
<svg version="1.1" id="Capa_1" xmlns="http://www.w3.org/2000/svg" xmlns:xlink="http://www.w3.org/1999/xlink" x="0px" y="0px"
	 width="150px" height="50px" viewBox="0 0 150 50" enable-background="new 0 0 150 50" xml:space="preserve">
<g>
	<path fill="#007BFF" d="M9.528,26.308v5.307h-3.47V16.21h5.436c3.881,0,5.822,1.637,5.822,4.909c0,1.547-0.557,2.798-1.67,3.754
		c-1.114,0.957-2.602,1.434-4.463,1.434H9.528z M9.528,18.874v4.802h1.364c1.848,0,2.771-0.809,2.771-2.428
		c0-1.583-0.924-2.374-2.771-2.374H9.528z"/>
	<path fill="#007BFF" d="M24.481,31.883c-1.833,0-3.275-0.514-4.324-1.541c-1.049-1.028-1.574-2.423-1.574-4.185
		c0-1.819,0.544-3.242,1.633-4.27c1.088-1.027,2.56-1.542,4.415-1.542c1.826,0,3.258,0.514,4.297,1.542
		c1.038,1.028,1.558,2.387,1.558,4.077c0,1.826-0.536,3.27-1.606,4.329C27.81,31.353,26.343,31.883,24.481,31.883z M24.567,22.945
		c-0.802,0-1.425,0.276-1.869,0.827c-0.444,0.552-0.666,1.332-0.666,2.342c0,2.112,0.852,3.169,2.557,3.169
		c1.625,0,2.438-1.085,2.438-3.255C27.027,23.973,26.207,22.945,24.567,22.945z"/>
	<path fill="#007BFF" d="M39.864,23.676c-0.408-0.222-0.885-0.333-1.429-0.333c-0.738,0-1.314,0.271-1.729,0.811
		c-0.416,0.541-0.623,1.277-0.623,2.208v5.253h-3.395v-11h3.395v2.041h0.043c0.537-1.489,1.504-2.234,2.9-2.234
		c0.358,0,0.637,0.043,0.838,0.129V23.676z"/>
</g>
<polygon fill="#007BFF" points="40,11.333 69.333,6 74.313,33.541 60.219,45.594 45.125,38.844 "/>
<g>
	<g>
		<polyline fill="none" stroke="#FFFFFF" stroke-width="0.25" stroke-miterlimit="10" points="41.608,12.875 41.517,12.383 
			42.008,12.293 		"/>
		
			<line fill="none" stroke="#FFFFFF" stroke-width="0.25" stroke-miterlimit="10" stroke-dasharray="0.9696,0.9696" x1="42.962" y1="12.12" x2="67.288" y2="7.697"/>
		<polyline fill="none" stroke="#FFFFFF" stroke-width="0.25" stroke-miterlimit="10" points="67.765,7.61 68.257,7.521 
			68.346,8.013 		"/>
		
			<line fill="none" stroke="#FFFFFF" stroke-width="0.25" stroke-miterlimit="10" stroke-dasharray="0.9805,0.9805" x1="68.52" y1="8.978" x2="72.62" y2="31.652"/>
		<polyline fill="none" stroke="#FFFFFF" stroke-width="0.25" stroke-miterlimit="10" points="72.707,32.135 72.796,32.627 
			72.416,32.952 		"/>
		
			<line fill="none" stroke="#FFFFFF" stroke-width="0.25" stroke-miterlimit="10" stroke-dasharray="1.0603,1.0603" x1="71.61" y1="33.641" x2="60.731" y2="42.944"/>
		<polyline fill="none" stroke="#FFFFFF" stroke-width="0.25" stroke-miterlimit="10" points="60.328,43.289 59.948,43.614 
			59.492,43.41 		"/>
		
			<line fill="none" stroke="#FFFFFF" stroke-width="0.25" stroke-miterlimit="10" stroke-dasharray="0.9382,0.9382" x1="58.635" y1="43.027" x2="47.073" y2="37.856"/>
		<polyline fill="none" stroke="#FFFFFF" stroke-width="0.25" stroke-miterlimit="10" points="46.645,37.665 46.188,37.461 
			46.097,36.97 		"/>
		
			<line fill="none" stroke="#FFFFFF" stroke-width="0.25" stroke-miterlimit="10" stroke-dasharray="0.9804,0.9804" x1="45.917" y1="36.006" x2="41.698" y2="13.356"/>
	</g>
</g>
<g>
	<path fill="#FFFFFF" d="M60.675,37.241l0.738,3.418l-2.3,0.497l-0.718-3.323c-2.133,0.45-4.222,0.396-6.266-0.164l-0.942-4.363
		c0.716,0.363,1.723,0.623,3.021,0.782c1.298,0.16,2.426,0.169,3.385,0.028l-1.238-5.733C53.702,28,51.811,27.371,50.683,26.5
		c-1.127-0.873-1.857-2.074-2.188-3.607c-0.356-1.648-0.076-3.179,0.839-4.592c0.916-1.411,2.313-2.418,4.194-3.022l-0.633-2.93
		l2.3-0.497l0.619,2.867c2.238-0.374,3.969-0.374,5.192,0l0.918,4.253c-1.663-0.575-3.435-0.765-5.315-0.567l1.289,5.97
		c2.479,0.333,4.332,0.924,5.56,1.775s2.004,2.03,2.331,3.544c0.376,1.744,0.123,3.268-0.76,4.572
		C64.145,35.572,62.694,36.564,60.675,37.241z M55.401,23.957l-1.078-4.993c-1.403,0.578-1.968,1.496-1.696,2.755
		C52.861,22.802,53.785,23.548,55.401,23.957z M58.85,28.784l1.03,4.771c1.451-0.554,2.04-1.466,1.766-2.736
		C61.424,29.79,60.492,29.111,58.85,28.784z"/>
</g>
<g>
	<path fill="#00BDFF" d="M86.193,31.614H82.81v-1.676h-0.054c-0.838,1.296-1.959,1.944-3.362,1.944c-2.55,0-3.824-1.543-3.824-4.63
		v-6.639h3.384v6.338c0,1.554,0.615,2.331,1.848,2.331c0.608,0,1.096-0.213,1.461-0.639s0.548-1.005,0.548-1.735v-6.295h3.384
		V31.614z"/>
	<path fill="#00BDFF" d="M92.488,30.336h-0.043v1.278h-3.395V15.329h3.395v6.939h0.043c0.838-1.282,2.03-1.923,3.577-1.923
		c1.418,0,2.51,0.487,3.276,1.461c0.766,0.974,1.149,2.306,1.149,3.996c0,1.834-0.448,3.305-1.343,4.415
		c-0.896,1.11-2.092,1.665-3.588,1.665C94.207,31.883,93.183,31.367,92.488,30.336z M92.392,25.695v1.128
		c0,0.709,0.204,1.296,0.612,1.762s0.931,0.698,1.568,0.698c0.773,0,1.373-0.299,1.799-0.896s0.64-1.445,0.64-2.541
		c0-0.909-0.195-1.62-0.585-2.132c-0.391-0.512-0.947-0.768-1.671-0.768c-0.681,0-1.245,0.254-1.692,0.763
		C92.615,24.217,92.392,24.879,92.392,25.695z"/>
	<path fill="#00BDFF" d="M111.846,31.614h-3.212v-1.579h-0.043c-0.737,1.232-1.83,1.848-3.276,1.848
		c-1.067,0-1.906-0.303-2.52-0.908c-0.611-0.604-0.918-1.412-0.918-2.422c0-2.134,1.264-3.366,3.792-3.695l2.986-0.397
		c0-1.203-0.651-1.805-1.955-1.805c-1.311,0-2.557,0.391-3.738,1.171V21.27c0.473-0.243,1.118-0.458,1.938-0.645
		c0.82-0.186,1.566-0.279,2.24-0.279c3.137,0,4.705,1.565,4.705,4.694V31.614z M108.655,27.146v-0.741l-1.998,0.258
		c-1.103,0.144-1.654,0.641-1.654,1.493c0,0.387,0.134,0.704,0.403,0.95c0.268,0.248,0.631,0.371,1.09,0.371
		c0.637,0,1.156-0.221,1.558-0.66C108.455,28.375,108.655,27.818,108.655,27.146z"/>
	<path fill="#00BDFF" d="M113.812,31.324v-2.75c0.559,0.337,1.115,0.588,1.671,0.752c0.555,0.165,1.079,0.247,1.573,0.247
		c0.602,0,1.075-0.082,1.423-0.247c0.348-0.164,0.521-0.415,0.521-0.752c0-0.215-0.079-0.394-0.236-0.537
		c-0.158-0.143-0.359-0.269-0.607-0.376c-0.246-0.107-0.518-0.204-0.811-0.29c-0.294-0.086-0.576-0.183-0.849-0.29
		c-0.437-0.165-0.821-0.342-1.155-0.532c-0.332-0.189-0.611-0.409-0.838-0.66c-0.225-0.25-0.396-0.541-0.516-0.87
		c-0.117-0.329-0.177-0.72-0.177-1.171c0-0.616,0.134-1.146,0.403-1.59c0.268-0.444,0.626-0.807,1.074-1.09
		c0.447-0.283,0.959-0.49,1.535-0.623c0.576-0.132,1.177-0.199,1.8-0.199c0.487,0,0.981,0.038,1.482,0.113s0.995,0.185,1.482,0.328
		v2.621c-0.43-0.25-0.89-0.438-1.38-0.564c-0.491-0.125-0.973-0.188-1.445-0.188c-0.223,0-0.432,0.02-0.629,0.059
		c-0.197,0.04-0.37,0.097-0.521,0.172s-0.269,0.172-0.354,0.29s-0.129,0.252-0.129,0.403c0,0.201,0.064,0.373,0.193,0.516
		c0.129,0.144,0.297,0.267,0.505,0.371c0.208,0.104,0.438,0.197,0.692,0.279c0.254,0.083,0.507,0.167,0.758,0.252
		c0.451,0.158,0.859,0.33,1.225,0.516c0.365,0.187,0.678,0.405,0.939,0.655c0.262,0.251,0.463,0.545,0.602,0.881
		c0.141,0.337,0.21,0.738,0.21,1.203c0,0.652-0.142,1.209-0.425,1.67c-0.283,0.463-0.658,0.838-1.127,1.129
		c-0.47,0.289-1.01,0.501-1.623,0.633c-0.611,0.133-1.248,0.199-1.906,0.199C115.963,31.883,114.843,31.696,113.812,31.324z"/>
	<path fill="#00BDFF" d="M130.859,31.485c-0.502,0.265-1.257,0.397-2.267,0.397c-2.392,0-3.588-1.242-3.588-3.728v-5.038h-1.783
		v-2.503h1.783V18.24l3.384-0.967v3.341h2.471v2.503h-2.471v4.447c0,1.146,0.455,1.719,1.364,1.719c0.358,0,0.727-0.104,1.106-0.312
		V31.485z"/>
	<path fill="#00BDFF" d="M141.924,31.614h-3.212v-1.579h-0.043c-0.737,1.232-1.83,1.848-3.276,1.848
		c-1.067,0-1.906-0.303-2.52-0.908c-0.611-0.604-0.918-1.412-0.918-2.422c0-2.134,1.264-3.366,3.792-3.695l2.986-0.397
		c0-1.203-0.651-1.805-1.955-1.805c-1.311,0-2.557,0.391-3.738,1.171V21.27c0.473-0.243,1.118-0.458,1.938-0.645
		c0.82-0.186,1.566-0.279,2.24-0.279c3.137,0,4.705,1.565,4.705,4.694V31.614z M138.733,27.146v-0.741l-1.998,0.258
		c-1.103,0.144-1.654,0.641-1.654,1.493c0,0.387,0.134,0.704,0.403,0.95c0.268,0.248,0.631,0.371,1.09,0.371
		c0.637,0,1.156-0.221,1.558-0.66C138.533,28.375,138.733,27.818,138.733,27.146z"/>
</g>
<g>
	<path fill="#808080" d="M114.691,42.317c-0.21,0-0.389-0.075-0.537-0.226c-0.147-0.15-0.222-0.33-0.222-0.54
		s0.074-0.391,0.222-0.544c0.148-0.152,0.327-0.229,0.537-0.229c0.214,0,0.396,0.076,0.547,0.229
		c0.15,0.153,0.226,0.334,0.226,0.544s-0.075,0.39-0.226,0.54S114.905,42.317,114.691,42.317z"/>
	<path fill="#808080" d="M122.108,41.846c-0.538,0.323-1.176,0.485-1.914,0.485c-0.998,0-1.804-0.325-2.417-0.974
		c-0.612-0.65-0.919-1.492-0.919-2.526c0-1.153,0.33-2.079,0.991-2.778c0.661-0.7,1.543-1.05,2.646-1.05
		c0.615,0,1.157,0.114,1.627,0.342v1.148c-0.52-0.364-1.075-0.547-1.668-0.547c-0.716,0-1.302,0.257-1.761,0.769
		c-0.457,0.514-0.687,1.187-0.687,2.021c0,0.82,0.216,1.468,0.646,1.941c0.432,0.474,1.009,0.711,1.733,0.711
		c0.61,0,1.185-0.203,1.723-0.608V41.846z"/>
	<path fill="#808080" d="M126.729,42.331c-1.034,0-1.86-0.327-2.478-0.981c-0.618-0.653-0.927-1.521-0.927-2.601
		c0-1.176,0.321-2.094,0.964-2.755s1.511-0.991,2.604-0.991c1.044,0,1.858,0.321,2.444,0.964c0.585,0.643,0.878,1.533,0.878,2.673
		c0,1.116-0.315,2.011-0.946,2.683C128.638,41.995,127.791,42.331,126.729,42.331z M126.812,35.946c-0.72,0-1.29,0.245-1.709,0.735
		c-0.419,0.489-0.629,1.165-0.629,2.026c0,0.829,0.212,1.483,0.636,1.962s0.991,0.718,1.702,0.718c0.725,0,1.282-0.234,1.671-0.704
		c0.391-0.47,0.585-1.137,0.585-2.003c0-0.875-0.194-1.55-0.585-2.023C128.094,36.184,127.536,35.946,126.812,35.946z"/>
	<path fill="#808080" d="M141.946,42.167h-1.121v-4.02c0-0.774-0.12-1.335-0.358-1.682c-0.24-0.347-0.642-0.52-1.207-0.52
		c-0.479,0-0.885,0.219-1.221,0.656c-0.334,0.438-0.502,0.962-0.502,1.572v3.992h-1.121v-4.156c0-1.376-0.531-2.064-1.593-2.064
		c-0.492,0-0.897,0.206-1.217,0.618c-0.319,0.413-0.479,0.949-0.479,1.61v3.992h-1.121v-7h1.121v1.107h0.027
		c0.497-0.848,1.222-1.271,2.174-1.271c0.479,0,0.896,0.134,1.251,0.399c0.355,0.268,0.6,0.617,0.731,1.05
		c0.52-0.966,1.294-1.449,2.324-1.449c1.54,0,2.311,0.95,2.311,2.851V42.167z"/>
</g>
</svg>
